#N canvas -8 -8 1920 1007 12;
#X obj 11 11 tgl 15 0 \$0-switch1-send \$0-switch1-rec switch1 17 7
0 10 -262144 -1 -1 0 1;
#X obj 87 43 s \$0-switch1-rec;
#X obj 214 43 s \$0-switch2-rec;
#X obj 11 31 tgl 15 0 \$0-switch2-send \$0-switch2-rec switch2 17 7
0 10 -262144 -1 -1 0 1;
#X obj 11 51 tgl 15 0 \$0-switch3-send \$0-switch3-rec switch3 17 7
0 10 -262144 -1 -1 0 1;
#X obj 341 43 s \$0-switch3-rec;
#X obj 87 11 ctlin 37;
#X obj 214 11 ctlin 38;
#X obj 341 11 ctlin 39;
#X obj 13 132 outlet;
#X obj 140 132 outlet;
#X obj 267 132 outlet;
#X obj 13 100 r \$0-switch1-rec;
#X obj 140 100 r \$0-switch2-rec;
#X obj 267 100 r \$0-switch3-rec;
#X connect 6 0 1 0;
#X connect 7 0 2 0;
#X connect 8 0 5 0;
#X connect 12 0 9 0;
#X connect 13 0 10 0;
#X connect 14 0 11 0;
