#N canvas 0 50 962 516 12;
#X obj 11 11 tgl 15 0 \$0-multi1-1-send \$0-multi1-1-rec multi1-1 17
7 0 10 -262144 -1 -1 127 1;
#X obj 140 52 s \$0-multi1-1-rec;
#X obj 274 52 s \$0-multi1-2-rec;
#X obj 408 52 s \$0-multi1-3-rec;
#X obj 542 52 s \$0-multi1-4-rec;
#X obj 11 31 tgl 15 0 \$0-multi1-2-send \$0-multi1-2-rec multi1-2 17
7 0 10 -262144 -1 -1 0 1;
#X obj 11 51 tgl 15 0 \$0-multi1-3-send \$0-multi1-3-rec multi1-3 17
7 0 10 -262144 -1 -1 0 1;
#X obj 11 71 tgl 15 0 \$0-multi1-4-send \$0-multi1-4-rec multi1-4 17
7 0 10 -262144 -1 -1 0 1;
#X obj 140 20 ctlin 24;
#X obj 274 20 ctlin 25;
#X obj 408 20 ctlin 26;
#X obj 542 20 ctlin 27;
#X obj 10 154 outlet;
#X obj 144 154 outlet;
#X obj 278 154 outlet;
#X obj 412 154 outlet;
#X obj 10 122 r \$0-multi1-1-rec;
#X obj 144 122 r \$0-multi1-2-rec;
#X obj 278 122 r \$0-multi1-3-rec;
#X obj 412 122 r \$0-multi1-4-rec;
#X connect 8 0 1 0;
#X connect 9 0 2 0;
#X connect 10 0 3 0;
#X connect 11 0 4 0;
#X connect 16 0 12 0;
#X connect 17 0 13 0;
#X connect 18 0 14 0;
#X connect 19 0 15 0;
