#N canvas 0 50 1733 725 12;
#X obj 24 24 hsl 32 15 0 127 0 0 \$0-pot1-send \$0-pot1-rec pot1 -2
-6 0 10 -262144 -1 -1 24 1;
#X obj 24 54 hsl 32 15 0 127 0 0 \$0-pot2-send \$0-pot2-rec pot2 -2
-6 0 10 -262144 -1 -1 0 1;
#X obj 24 84 hsl 32 15 0 127 0 0 \$0-pot3-send \$0-pot3-rec pot3 -2
-6 0 10 -262144 -1 -1 0 1;
#X obj 24 114 hsl 32 15 0 127 0 0 \$0-pot4-send \$0-pot4-rec pot4 -2
-6 0 10 -262144 -1 -1 0 1;
#X obj 72 24 hsl 32 15 0 127 0 0 \$0-pot5-send \$0-pot5-rec pot5 -2
-6 0 10 -262144 -1 -1 0 1;
#X obj 72 54 hsl 32 15 0 127 0 0 \$0-pot6-send \$0-pot6-rec pot6 -2
-6 0 10 -262144 -1 -1 0 1;
#X obj 72 84 hsl 32 15 0 127 0 0 \$0-pot7-send \$0-pot7-rec pot7 -2
-6 0 10 -262144 -1 -1 0 1;
#X obj 72 114 hsl 32 15 0 127 0 0 \$0-pot8-send \$0-pot8-rec pot8 -2
-6 0 10 -262144 -1 -1 0 1;
#X obj 120 24 hsl 32 15 0 127 0 0 \$0-pot9-send \$0-pot9-rec pot9 -2
-6 0 10 -262144 -1 -1 0 1;
#X obj 120 54 hsl 32 15 0 127 0 0 \$0-pot10-send \$0-pot10-rec pot10
-2 -6 0 10 -262144 -1 -1 0 1;
#X obj 120 84 hsl 32 15 0 127 0 0 \$0-pot11-send \$0-pot11-rec pot11
-2 -6 0 10 -262144 -1 -1 0 1;
#X obj 120 114 hsl 32 15 0 127 0 0 \$0-pot12-send \$0-pot12-rec pot12
-2 -6 0 10 -262144 -1 -1 0 1;
#X obj 24 189 ctlin 1;
#X obj 137 189 ctlin 2;
#X obj 243 188 ctlin 3;
#X obj 349 188 ctlin 4;
#X obj 24 252 ctlin 5;
#X obj 24 220 s \$0-pot1-rec;
#X obj 137 220 s \$0-pot2-rec;
#X obj 243 220 s \$0-pot3-rec;
#X obj 349 220 s \$0-pot4-rec;
#X obj 24 284 s \$0-pot5-rec;
#X obj 130 252 ctlin 6;
#X obj 130 284 s \$0-pot6-rec;
#X obj 236 252 ctlin 7;
#X obj 236 284 s \$0-pot7-rec;
#X obj 342 252 ctlin 8;
#X obj 342 284 s \$0-pot8-rec;
#X obj 24 316 ctlin 9;
#X obj 24 348 s \$0-pot9-rec;
#X obj 130 316 ctlin 10;
#X obj 130 348 s \$0-pot10-rec;
#X obj 243 316 ctlin 11;
#X obj 243 348 s \$0-pot11-rec;
#X obj 356 316 ctlin 12;
#X obj 356 348 s \$0-pot12-rec;
#X obj 11 446 outlet;
#X obj 11 414 r \$0-pot1-send;
#X obj 124 446 outlet;
#X obj 124 414 r \$0-pot2-send;
#X obj 237 446 outlet;
#X obj 237 414 r \$0-pot3-send;
#X obj 350 446 outlet;
#X obj 350 414 r \$0-pot4-send;
#X obj 463 446 outlet;
#X obj 463 414 r \$0-pot5-send;
#X obj 576 446 outlet;
#X obj 576 414 r \$0-pot6-send;
#X obj 689 446 outlet;
#X obj 689 414 r \$0-pot7-send;
#X obj 802 446 outlet;
#X obj 802 414 r \$0-pot8-send;
#X obj 915 446 outlet;
#X obj 915 414 r \$0-pot9-send;
#X obj 1028 446 outlet;
#X obj 1028 414 r \$0-pot10-send;
#X obj 1148 446 outlet;
#X obj 1148 414 r \$0-pot11-send;
#X obj 1268 446 outlet;
#X obj 1268 414 r \$0-pot12-send;
#X connect 12 0 17 0;
#X connect 13 0 18 0;
#X connect 14 0 19 0;
#X connect 15 0 20 0;
#X connect 16 0 21 0;
#X connect 22 0 23 0;
#X connect 24 0 25 0;
#X connect 26 0 27 0;
#X connect 28 0 29 0;
#X connect 30 0 31 0;
#X connect 32 0 33 0;
#X connect 34 0 35 0;
#X connect 37 0 36 0;
#X connect 39 0 38 0;
#X connect 41 0 40 0;
#X connect 43 0 42 0;
#X connect 45 0 44 0;
#X connect 47 0 46 0;
#X connect 49 0 48 0;
#X connect 51 0 50 0;
#X connect 53 0 52 0;
#X connect 55 0 54 0;
#X connect 57 0 56 0;
#X connect 59 0 58 0;
