#N canvas 0 50 1003 727 12;
#X obj 85 56 s \$0-multi3-1-rec;
#X obj 219 56 s \$0-multi3-2-rec;
#X obj 353 56 s \$0-multi3-3-rec;
#X obj 487 56 s \$0-multi3-4-rec;
#X obj 11 11 tgl 15 0 \$0-multi3-1-send \$0-multi3-1-rec multi3-1 17
7 0 10 -262144 -1 -1 0 1;
#X obj 11 31 tgl 15 0 \$0-multi3-2-send \$0-multi3-2-rec multi3-2 17
7 0 10 -262144 -1 -1 0 1;
#X obj 11 51 tgl 15 0 \$0-multi3-3-send \$0-multi3-3-rec multi3-3 17
7 0 10 -262144 -1 -1 0 1;
#X obj 11 71 tgl 15 0 \$0-multi3-4-send \$0-multi3-4-rec multi3-4 17
7 0 10 -262144 -1 -1 0 1;
#X obj 11 91 tgl 15 0 \$0-multi3-5-send \$0-multi3-5-rec multi3-5 17
7 0 10 -262144 -1 -1 0 1;
#X obj 621 56 s \$0-multi3-5-rec;
#X obj 85 24 ctlin 32;
#X obj 219 24 ctlin 33;
#X obj 353 24 ctlin 34;
#X obj 487 24 ctlin 35;
#X obj 621 24 ctlin 36;
#X obj 15 174 outlet;
#X obj 149 174 outlet;
#X obj 283 174 outlet;
#X obj 417 174 outlet;
#X obj 551 174 outlet;
#X obj 15 142 r \$0-multi3-1-rec;
#X obj 149 142 r \$0-multi3-2-rec;
#X obj 283 142 r \$0-multi3-3-rec;
#X obj 417 142 r \$0-multi3-4-rec;
#X obj 551 142 r \$0-multi3-5-rec;
#X connect 10 0 0 0;
#X connect 11 0 1 0;
#X connect 12 0 2 0;
#X connect 13 0 3 0;
#X connect 14 0 9 0;
#X connect 20 0 15 0;
#X connect 21 0 16 0;
#X connect 22 0 17 0;
#X connect 23 0 18 0;
#X connect 24 0 19 0;
