#N canvas 550 281 1920 1007 12;
#X obj 54 44 ard-pots, f 19;
#X obj 317 57 ard-multi1;
#X obj 403 59 ard-multi2;
#X floatatom 396 138 5 0 0 0 - - -;
#X floatatom 446 138 5 0 0 0 - - -;
#X floatatom 486 138 5 0 0 0 - - -;
#X floatatom 536 138 5 0 0 0 - - -;
#X floatatom 590 127 5 0 0 0 - - -;
#X floatatom 640 127 5 0 0 0 - - -;
#X floatatom 680 127 5 0 0 0 - - -;
#X floatatom 730 127 5 0 0 0 - - -;
#X obj 597 48 ard-multi3;
#X floatatom 740 85 5 0 0 0 - - -;
#X floatatom 186 115 5 0 0 0 - - -;
#X floatatom 236 115 5 0 0 0 - - -;
#X floatatom 276 115 5 0 0 0 - - -;
#X floatatom 326 115 5 0 0 0 - - -;
#X connect 1 0 13 0;
#X connect 1 1 14 0;
#X connect 1 2 15 0;
#X connect 1 3 16 0;
#X connect 2 0 3 0;
#X connect 2 1 4 0;
#X connect 2 2 5 0;
#X connect 2 3 6 0;
#X connect 11 0 7 0;
#X connect 11 1 8 0;
#X connect 11 2 9 0;
#X connect 11 3 10 0;
#X connect 11 4 12 0;
