#N canvas 399 121 727 420 12;
#X obj 333 20 inlet~;
#X obj 332 232 dac~;
#X obj 353 84 metro 100;
#N canvas 46 50 450 250 (subpatch) 0;
#X array \$0-scope 100 float 5;
#A 0 0 0 0 0 0 0 0 0 0 0 0 0 0 0 0 0 0 0 0 0 0 0 0 0 0 0 0 0 0 0 0
0 0 0 0 0 0 0 0 0 0 0 0 0 0 0 0 0 0 0 0 0 0 0 0 0 0 0 0 0 0 0 0 0 0
0 0 0 0 0 0 0 0 0 0 0 0 0 0 0 0 0 0 0 0 0 0 0 0 0 0 0 0 0 0 0 0 0 0
0;
#X coords 0 1 100 -1 200 140 1 0 0;
#X restore 21 60 graph;
#X obj 353 116 tabwrite~ \$0-scope;
#X obj 353 52 r \$0-scope-send;
#X obj 332 200 *~;
#X obj 14 14 cnv 15 294 193 empty empty audio_out 10 20 0 20 -233017
-66577 0;
#X obj 232 139 tgl 15 0 \$0-scope-send \$0-scope-rec scope 17 7 0 10
-262144 -1 -1 0 1;
#X obj 235 175 hsl 64 15 0 1 0 0 \$0-master-send \$0-master-rec master
-2 -6 0 10 -262144 -1 -1 1575 1;
#X obj 508 20 inlet;
#X obj 508 52 / 127;
#X obj 508 84 s \$0-master-rec;
#X obj 350 168 r \$0-master-send;
#X obj 550 188 loadbang;
#X obj 581 282 s \$0-master-rec;
#X msg 581 250 0.25;
#X obj 447 281 s \$0-scope-rec;
#X connect 0 0 6 0;
#X connect 0 0 4 0;
#X connect 2 0 4 0;
#X connect 5 0 2 0;
#X connect 6 0 1 0;
#X connect 6 0 1 1;
#X connect 10 0 11 0;
#X connect 11 0 12 0;
#X connect 13 0 6 1;
#X connect 14 0 16 0;
#X connect 14 0 17 0;
#X connect 16 0 15 0;
#X coords 0 -1 1 1 302 201 2 10 10;
