#N canvas 464 320 809 520 12;
#X obj 23 414 outlet;
#X obj 23 190 spigot 0;
#X obj 23 254 spigot 0;
#X obj 23 318 spigot 0;
#X obj 23 382 spigot 0;
#X obj 22 13 inlet;
#X obj 22 45 s \$0-inlet1;
#X obj 114 13 inlet;
#X obj 206 13 inlet;
#X obj 298 13 inlet;
#X obj 390 13 inlet;
#X obj 114 45 s \$0-inlet2;
#X obj 206 45 s \$0-inlet3;
#X obj 298 45 s \$0-inlet4;
#X obj 390 45 s \$0-inlet5;
#X obj 23 126 r \$0-inlet1;
#X obj 76 158 r \$0-inlet2;
#X obj 76 222 r \$0-inlet3;
#X obj 76 286 r \$0-inlet4;
#X obj 76 350 r \$0-inlet5;
#X connect 1 0 2 0;
#X connect 2 0 3 0;
#X connect 3 0 4 0;
#X connect 4 0 0 0;
#X connect 5 0 6 0;
#X connect 7 0 11 0;
#X connect 8 0 12 0;
#X connect 9 0 13 0;
#X connect 10 0 14 0;
#X connect 15 0 1 0;
#X connect 16 0 1 1;
#X connect 17 0 2 1;
#X connect 18 0 3 1;
#X connect 19 0 4 1;
