#N canvas 868 259 637 587 12;
#X obj 14 14 cnv 15 92 92 empty empty env 10 20 0 20 -233017 -66577
0;
#X obj 24 54 hsl 32 15 0 1 0 0 \$0-a-send \$0-a-rec a -2 -6 0 10 -262144
-1 -1 0 1;
#X obj 24 80 hsl 32 15 0 1 0 0 \$0-s-send \$0-s-rec s -2 -6 0 10 -262144
-1 -1 0 1;
#X obj 65 54 hsl 32 15 0 1 0 0 \$0-d-send \$0-d-rec d -2 -6 0 10 -262144
-1 -1 0 1;
#X obj 65 80 hsl 32 15 0 1 0 0 \$0-r-send \$0-r-rec r -2 -6 0 10 -262144
-1 -1 0 1;
#X text 85 463 Attack (0-300 ms);
#X text 85 482 Decay (0-500 ms);
#X text 85 520 Release (0-1000 ms);
#X text 85 500 Sustain (0-1 units);
#X obj 49 321 pack f f f f;
#X obj 17 277 sel 0;
#X obj 17 437 pack f f;
#X obj 17 501 vline~;
#X msg 17 469 0 \$2;
#X msg 49 353 1 \$2 \, \$4 \$3 \$2;
#X obj 138 28 inlet;
#X obj 17 533 outlet~;
#X obj 138 60 s \$0-inlet1;
#X obj 230 28 inlet;
#X obj 17 193 r \$0-inlet1;
#X obj 322 28 inlet;
#X obj 414 28 inlet;
#X obj 230 60 s \$0-inlet2;
#X obj 322 60 s \$0-inlet3;
#X obj 414 60 s \$0-inlet4;
#X obj 506 28 inlet;
#X obj 506 60 s \$0-inlet5;
#X floatatom 138 134 5 0 0 0 - - -;
#X floatatom 258 134 5 0 0 0 - - -;
#X floatatom 372 134 5 0 0 0 - - -;
#X floatatom 499 134 5 0 0 0 - - -;
#X obj 138 102 r \$0-inlet2;
#X obj 258 102 r \$0-inlet3;
#X obj 372 102 r \$0-inlet4;
#X obj 499 102 r \$0-inlet5;
#X obj 138 165 s \$0-a-rec;
#X obj 258 165 s \$0-d-rec;
#X obj 372 165 s \$0-s-rec;
#X obj 499 165 s \$0-r-rec;
#X obj 76 225 r \$0-a-send;
#X obj 103 257 r \$0-d-send;
#X obj 130 289 r \$0-s-send;
#X obj 70 405 r \$0-r-send;
#X connect 9 0 14 0;
#X connect 10 0 11 0;
#X connect 10 1 9 0;
#X connect 11 0 13 0;
#X connect 12 0 16 0;
#X connect 13 0 12 0;
#X connect 14 0 12 0;
#X connect 15 0 17 0;
#X connect 18 0 22 0;
#X connect 19 0 10 0;
#X connect 20 0 23 0;
#X connect 21 0 24 0;
#X connect 25 0 26 0;
#X connect 27 0 35 0;
#X connect 28 0 36 0;
#X connect 29 0 37 0;
#X connect 30 0 38 0;
#X connect 31 0 27 0;
#X connect 32 0 28 0;
#X connect 33 0 29 0;
#X connect 34 0 30 0;
#X connect 39 0 9 1;
#X connect 40 0 9 2;
#X connect 41 0 9 3;
#X connect 42 0 11 1;
#X coords 0 -1 1 1 100 100 2 10 10;
