#N canvas 80 146 760 587 12;
#X obj 14 14 cnv 15 92 92 empty empty env 10 20 0 20 -233017 -66577
0;
#X obj 24 54 hsl 32 15 0 500 0 0 \$0-a-send \$0-a-rec a -2 -6 0 10
-262144 -1 -1 300 1;
#X obj 24 80 hsl 32 15 0 1 0 0 \$0-s-send \$0-s-rec s -2 -6 0 10 -262144
-1 -1 3100 1;
#X obj 65 54 hsl 32 15 0 500 0 0 \$0-d-send \$0-d-rec d -2 -6 0 10
-262144 -1 -1 200 1;
#X obj 65 80 hsl 32 15 0 1000 0 0 \$0-r-send \$0-r-rec r -2 -6 0 10
-262144 -1 -1 700 1;
#X text 85 422 Decay (0-500 ms);
#X text 85 460 Release (0-1000 ms);
#X text 85 440 Sustain (0-1 units);
#X obj 49 261 pack f f f f;
#X obj 17 217 sel 0;
#X obj 17 377 pack f f;
#X obj 17 441 vline~;
#X msg 17 409 0 \$2;
#X msg 49 293 1 \$2 \, \$4 \$3 \$2;
#X obj 138 28 inlet;
#X obj 17 473 outlet~;
#X obj 138 60 s \$0-inlet1;
#X obj 230 28 inlet;
#X obj 17 133 r \$0-inlet1;
#X obj 322 28 inlet;
#X obj 414 28 inlet;
#X obj 230 60 s \$0-inlet2;
#X obj 322 60 s \$0-inlet3;
#X obj 414 60 s \$0-inlet4;
#X obj 506 28 inlet;
#X obj 506 60 s \$0-inlet5;
#X obj 233 159 r \$0-inlet2;
#X obj 353 159 r \$0-inlet3;
#X obj 467 159 r \$0-inlet4;
#X obj 594 159 r \$0-inlet5;
#X obj 233 255 s \$0-a-rec;
#X obj 353 255 s \$0-d-rec;
#X obj 467 255 s \$0-s-rec;
#X obj 594 255 s \$0-r-rec;
#X obj 76 165 r \$0-a-send;
#X obj 103 197 r \$0-d-send;
#X obj 130 229 r \$0-s-send;
#X obj 70 345 r \$0-r-send;
#X text 85 403 Attack (0-500 ms);
#X text 237 124 todo: math. (127 / inlet) * x;
#X obj 233 191 / 127;
#X obj 233 223 * 500;
#X obj 353 191 / 127;
#X obj 353 223 * 500;
#X obj 467 191 / 127;
#X obj 594 191 / 127;
#X obj 594 223 * 1000;
#X connect 8 0 13 0;
#X connect 9 0 10 0;
#X connect 9 1 8 0;
#X connect 10 0 12 0;
#X connect 11 0 15 0;
#X connect 12 0 11 0;
#X connect 13 0 11 0;
#X connect 14 0 16 0;
#X connect 17 0 21 0;
#X connect 18 0 9 0;
#X connect 19 0 22 0;
#X connect 20 0 23 0;
#X connect 24 0 25 0;
#X connect 26 0 40 0;
#X connect 27 0 42 0;
#X connect 28 0 44 0;
#X connect 29 0 45 0;
#X connect 34 0 8 1;
#X connect 35 0 8 2;
#X connect 36 0 8 3;
#X connect 37 0 10 1;
#X connect 40 0 41 0;
#X connect 41 0 30 0;
#X connect 42 0 43 0;
#X connect 43 0 31 0;
#X connect 44 0 32 0;
#X connect 45 0 46 0;
#X connect 46 0 33 0;
#X coords 0 -1 1 1 100 100 2 10 10;
