#N canvas 675 164 765 409 12;
#X obj 14 14 cnv 15 92 92 empty empty filter 10 20 0 20 -233017 -66577
0;
#X obj 24 54 hsl 32 15 0 127 0 0 \$0-lp-send \$0-lp-rec lp -2 -6 0
10 -262144 -1 -1 0 1;
#X obj 24 80 hsl 32 15 0 127 0 0 \$0-bp-send \$0-bp-rec bp -2 -6 0
10 -262144 -1 -1 0 1;
#X obj 65 54 hsl 32 15 0 127 0 0 \$0-hp-send \$0-hp-rec hp -2 -6 0
10 -262144 -1 -1 0 1;
#X obj 65 80 hsl 32 15 0 10 0 0 \$0-res-send \$0-res-rec res -2 -6
0 10 -262144 -1 -1 0 1;
#X obj 139 32 inlet~;
#X obj 251 296 outlet~;
#X obj 263 205 mtof;
#X obj 251 264 vcf~;
#X obj 139 64 s~ \$0-inlet1;
#X obj 251 144 r~ \$0-inlet1;
#X obj 263 173 r \$0-bp-send;
#X obj 276 235 r \$0-res-send;
#X obj 132 263 outlet~;
#X obj 157 202 mtof;
#X obj 132 144 r~ \$0-inlet1;
#X obj 157 173 r \$0-hp-send;
#X obj 132 231 hip~;
#X obj 13 272 outlet~;
#X obj 38 208 mtof;
#X obj 13 144 r~ \$0-inlet1;
#X obj 13 240 lop~;
#X obj 38 176 r \$0-lp-send;
#X obj 238 32 inlet~;
#X obj 337 32 inlet~;
#X obj 436 32 inlet~;
#X obj 238 64 s~ \$0-inlet2;
#X obj 337 64 s~ \$0-inlet3;
#X obj 436 64 s~ \$0-inlet4;
#X obj 535 32 inlet~;
#X obj 535 64 s~ \$0-inlet5;
#X obj 451 157 r \$0-inlet5;
#X obj 451 253 s \$0-res-send;
#X obj 451 189 / 127;
#X obj 451 221 * 10;
#X text 322 107 todo: hookup 2 \, 3 \, 4 to modulate freq;
#X connect 5 0 9 0;
#X connect 7 0 8 1;
#X connect 8 0 6 0;
#X connect 10 0 8 0;
#X connect 11 0 7 0;
#X connect 12 0 8 2;
#X connect 14 0 17 1;
#X connect 15 0 17 0;
#X connect 16 0 14 0;
#X connect 17 0 13 0;
#X connect 19 0 21 1;
#X connect 20 0 21 0;
#X connect 21 0 18 0;
#X connect 22 0 19 0;
#X connect 23 0 26 0;
#X connect 24 0 27 0;
#X connect 25 0 28 0;
#X connect 29 0 30 0;
#X connect 31 0 33 0;
#X connect 33 0 34 0;
#X connect 34 0 32 0;
#X coords 0 -1 1 1 100 100 2 10 10;
