#N canvas 438 561 590 336 12;
#X obj 121 10 inlet;
#N canvas 84 543 450 300 sine~ 0;
#X obj 12 44 osc~;
#X obj 12 76 outlet~;
#X obj 12 12 inlet;
#X connect 0 0 1 0;
#X connect 2 0 0 0;
#X restore 10 219 pd sine~;
#N canvas 0 50 450 216 saw~ 0;
#X obj 12 44 phasor~;
#X obj 12 76 outlet~;
#X obj 12 12 inlet;
#X connect 0 0 1 0;
#X connect 2 0 0 0;
#X restore 81 220 pd saw~;
#N canvas 31 289 450 300 square~ 0;
#X obj 12 44 phasor~;
#X obj 12 108 outlet~;
#X obj 12 12 inlet;
#X obj 12 76 expr~ $v1 > $v2;
#X obj 114 44 r \$0-pwm-send;
#X connect 0 0 3 0;
#X connect 2 0 0 0;
#X connect 3 0 1 0;
#X connect 4 0 3 1;
#X restore 244 220 pd square~;
#X obj 10 251 outlet~;
#X obj 81 252 outlet~;
#X obj 244 252 outlet~;
#X obj 10 153 mtof;
#X obj 14 14 cnv 15 92 92 empty empty lfo 10 20 0 20 -233017 -66577
0;
#X obj 24 54 hsl 32 15 -96 31 0 0 \$0-freq-send \$0-freq-rec freq -2
-6 0 10 -262144 -1 -1 0 1;
#X obj 121 74 s \$0-freq-rec;
#X obj 10 121 r \$0-freq-send;
#X obj 24 80 hsl 32 15 0 1 0 0 \$0-pwm-send \$0-pwm-rec pwm -2 -6 0
10 -262144 -1 -1 1550 1;
#X obj 361 10 inlet;
#X obj 361 42 / 127;
#X obj 417 170 loadbang;
#X msg 417 202 0.5;
#X obj 361 74 sel 0 1;
#X obj 407 234 s \$0-pwm-rec;
#X msg 361 106 0.01;
#X msg 384 138 0.99;
#N canvas 1113 520 217 245 triangle~ 0;
#X obj 12 44 phasor~;
#X obj 12 204 outlet~;
#X obj 12 108 abs~;
#X obj 12 76 -~ 0.5;
#X obj 12 140 *~ 4;
#X obj 12 172 -~ 1;
#X obj 12 12 inlet;
#X connect 0 0 3 0;
#X connect 2 0 4 0;
#X connect 3 0 2 0;
#X connect 4 0 5 0;
#X connect 5 0 1 0;
#X connect 6 0 0 0;
#X restore 145 220 pd triangle~;
#X obj 145 252 outlet~;
#X obj 121 42 - 96;
#X connect 0 0 23 0;
#X connect 1 0 4 0;
#X connect 2 0 5 0;
#X connect 3 0 6 0;
#X connect 7 0 1 0;
#X connect 7 0 2 0;
#X connect 7 0 3 0;
#X connect 7 0 21 0;
#X connect 11 0 7 0;
#X connect 13 0 14 0;
#X connect 14 0 17 0;
#X connect 15 0 16 0;
#X connect 16 0 18 0;
#X connect 17 0 19 0;
#X connect 17 1 20 0;
#X connect 17 2 18 0;
#X connect 19 0 18 0;
#X connect 20 0 18 0;
#X connect 21 0 22 0;
#X connect 23 0 10 0;
#X coords 0 -1 1 1 100 100 2 10 10;
