#N canvas 178 219 644 678 12;
#X obj 136 16 notein;
#X obj 14 14 cnv 15 92 92 empty empty keys 10 20 0 20 -233017 -66577
0;
#X obj 274 80 stripnote;
#X obj 474 112 f;
#X obj 474 146 sel 0;
#X obj 474 178 f;
#X obj 474 48 t b f;
#X obj 474 273 sel;
#X msg 474 307 0;
#X text 8 164 only send notes when we actually hit the key;
#X obj 274 112 s \$0-stripped-note;
#X obj 9 186 r \$0-stripped-note;
#X obj 492 241 r \$0-stripped-note;
#X obj 136 80 s \$0-note;
#X obj 155 48 s \$0-velocity;
#X obj 334 48 r \$0-velocity;
#X obj 274 16 r \$0-note;
#X obj 474 16 r \$0-note;
#X obj 492 80 r \$0-velocity;
#X obj 170 218 outlet;
#X obj 9 218 outlet;
#X obj 170 186 r \$0-gate;
#X obj 506 178 s \$0-gate;
#X obj 474 339 s \$0-gate;
#X connect 0 0 13 0;
#X connect 0 1 14 0;
#X connect 2 0 10 0;
#X connect 3 0 4 0;
#X connect 4 0 5 0;
#X connect 4 1 22 0;
#X connect 5 0 7 0;
#X connect 6 0 3 0;
#X connect 6 1 5 1;
#X connect 7 0 8 0;
#X connect 8 0 23 0;
#X connect 11 0 20 0;
#X connect 12 0 7 1;
#X connect 15 0 2 1;
#X connect 16 0 2 0;
#X connect 17 0 6 0;
#X connect 18 0 3 1;
#X connect 21 0 19 0;
#X coords 0 -1 1 1 100 100 2 10 10;
