#N canvas 290 409 544 484 12;
#N canvas 29 68 285 217 knob1 0;
#X obj 12 12 ctlin 20;
#X obj 12 44 s \$0-knob1-rec;
#X obj 12 96 r \$0-knob1-rec;
#X obj 12 128 outlet;
#X connect 0 0 1 0;
#X connect 2 0 3 0;
#X restore 11 125 pd knob1;
#N canvas 0 50 285 198 knob2 0;
#X obj 12 128 outlet;
#X obj 12 12 ctlin 21;
#X obj 12 44 s \$0-knob2-rec;
#X obj 12 96 r \$0-knob2-rec;
#X connect 1 0 2 0;
#X connect 3 0 0 0;
#X restore 102 125 pd knob2;
#N canvas 0 50 285 179 knob3 0;
#X obj 12 128 outlet;
#X obj 12 12 ctlin 22;
#X obj 12 44 s \$0-knob3-rec;
#X obj 12 96 r \$0-knob3-rec;
#X connect 1 0 2 0;
#X connect 3 0 0 0;
#X restore 193 125 pd knob3;
#N canvas 0 50 285 179 knob4 0;
#X obj 12 128 outlet;
#X obj 12 12 ctlin 23;
#X obj 12 44 s \$0-knob4-rec;
#X obj 12 96 r \$0-knob4-rec;
#X connect 1 0 2 0;
#X connect 3 0 0 0;
#X restore 284 125 pd knob4;
#X obj 11 157 outlet;
#X obj 102 157 outlet;
#X obj 193 157 outlet;
#X obj 284 157 outlet;
#X obj 14 14 cnv 15 92 92 empty empty knobs 10 20 0 20 -233017 -66577
0;
#X obj 24 54 hsl 32 15 0 127 0 0 \$0-knob1-send \$0-knob1-rec 1 -2
-6 0 10 -262144 -1 -1 0 1;
#X obj 24 80 hsl 32 15 0 127 0 0 \$0-knob3-send \$0-knob3-rec 3 -2
-6 0 10 -262144 -1 -1 0 1;
#X obj 65 54 hsl 32 15 0 127 0 0 \$0-knob2-send \$0-knob2-rec 2 -2
-6 0 10 -262144 -1 -1 0 1;
#X obj 65 80 hsl 32 15 0 127 0 0 \$0-knob4-send \$0-knob4-rec 4 -2
-6 0 10 -262144 -1 -1 0 1;
#X connect 0 0 4 0;
#X connect 1 0 5 0;
#X connect 2 0 6 0;
#X connect 3 0 7 0;
#X coords 0 -1 1 1 100 100 2 10 10;
