#N canvas 569 209 630 493 12;
#X obj 14 14 cnv 15 92 92 empty empty wheels 10 20 0 20 -233017 -66577
0;
#X obj 24 54 hsl 32 15 0.5 1.5 0 0 \$0-bend-send \$0-bend-rec bend
-2 -6 0 10 -262144 -1 -1 0 1;
#X obj 65 54 hsl 32 15 0 127 0 0 \$0-amount-send \$0-amount-rec amt
-2 -6 0 10 -262144 -1 -1 0 1;
#X obj 137 23 bendin;
#X floatatom 137 119 5 0 0 0 - - -;
#X obj 137 55 / 16384;
#X obj 137 87 + 0.5;
#X obj 137 234 outlet;
#X obj 137 150 s \$0-bend-rec;
#X obj 214 22 ctlin 1;
#X obj 214 54 s \$0-amount-rec;
#X obj 263 234 outlet;
#X obj 137 202 r \$0-bend-send;
#X obj 263 202 r \$0-amount-send;
#X connect 3 0 5 0;
#X connect 4 0 8 0;
#X connect 5 0 6 0;
#X connect 6 0 4 0;
#X connect 9 0 10 0;
#X connect 12 0 7 0;
#X connect 13 0 11 0;
#X coords 0 -1 1 1 100 100 2 10 10;
