#N canvas 668 141 928 678 12;
#X obj 136 16 notein;
#X obj 14 14 cnv 15 92 92 empty empty keys 10 20 0 20 -233017 -66577
0;
#X obj 309 80 stripnote;
#X obj 586 112 f;
#X obj 586 146 sel 0;
#X obj 586 178 f;
#X obj 586 48 t b f;
#X obj 586 239 sel;
#X msg 586 273 0;
#X obj 309 144 s \$0-stripped-note;
#X obj 21 290 r \$0-stripped-note;
#X obj 604 207 r \$0-stripped-note;
#X obj 182 354 outlet;
#X obj 182 322 r \$0-gate;
#X obj 618 178 s \$0-gate;
#X obj 586 305 s \$0-gate;
#X obj 24 54 hsl 32 15 0 127 0 0 \$0-note-send \$0-note-rec note -2
-6 0 10 -262144 -1 -1 1050 1;
#X obj 136 80 s \$0-note-rec;
#X obj 586 16 r \$0-note-send;
#X obj 309 16 r \$0-note-send;
#X obj 11 354 outlet;
#X obj 11 142 midi-wheels;
#X obj 11 322 *;
#X obj 11 258 t b f;
#X floatatom 62 52 5 0 0 2 - #0-stripped-velocity-rec #0-stripped-velocity-send
;
#X obj 155 48 s \$0-velocity;
#X obj 369 48 r \$0-velocity;
#X obj 604 80 r \$0-velocity;
#X obj 369 112 s \$0-stripped-velocity-rec;
#X connect 0 0 17 0;
#X connect 0 1 25 0;
#X connect 2 0 9 0;
#X connect 2 1 28 0;
#X connect 3 0 4 0;
#X connect 4 0 5 0;
#X connect 4 1 14 0;
#X connect 5 0 7 0;
#X connect 6 0 3 0;
#X connect 6 1 5 1;
#X connect 7 0 8 0;
#X connect 8 0 15 0;
#X connect 10 0 22 0;
#X connect 11 0 7 1;
#X connect 13 0 12 0;
#X connect 18 0 6 0;
#X connect 19 0 2 0;
#X connect 21 0 23 0;
#X connect 22 0 20 0;
#X connect 23 0 22 0;
#X connect 23 1 22 1;
#X connect 26 0 2 1;
#X connect 27 0 3 1;
#X coords 0 -1 1 1 100 100 2 10 10;
