#N canvas 129 88 651 300 12;
#X floatatom 17 151 5 0 0 0 - - -;
#X obj 17 119 ctlin 48;
#X obj 17 182 s \$0-button1-rec;
#X floatatom 164 151 5 0 0 0 - - -;
#X floatatom 445 151 5 0 0 0 - - -;
#X floatatom 298 151 5 0 0 0 - - -;
#X obj 164 119 ctlin 49;
#X obj 298 119 ctlin 50;
#X obj 164 182 s \$0-button2-rec;
#X obj 298 182 s \$0-button3-rec;
#X obj 445 182 s \$0-button4-rec;
#X obj 445 119 ctlin 51;
#X obj 14 14 cnv 15 92 92 empty empty buttons 10 20 0 20 -233017 -66577
0;
#X obj 26 56 tgl 15 0 \$0-button1-send \$0-button1-rec 1 17 7 0 10
-262144 -1 -1 0 127;
#X obj 52 56 tgl 15 0 \$0-button2-send \$0-button2-rec 2 17 7 0 10
-262144 -1 -1 0 127;
#X obj 26 82 tgl 15 0 \$0-button3-send \$0-button3-rec 3 17 7 0 10
-262144 -1 -1 0 127;
#X obj 52 82 tgl 15 0 \$0-button4-send \$0-button4-rec 4 17 7 0 10
-262144 -1 -1 0 127;
#X obj 17 234 r \$0-button1-rec;
#X obj 17 266 outlet;
#X obj 144 266 outlet;
#X obj 271 266 outlet;
#X obj 398 266 outlet;
#X obj 144 234 r \$0-button2-rec;
#X obj 271 234 r \$0-button3-rec;
#X obj 398 234 r \$0-button4-rec;
#X connect 0 0 2 0;
#X connect 1 0 0 0;
#X connect 3 0 8 0;
#X connect 4 0 10 0;
#X connect 5 0 9 0;
#X connect 6 0 3 0;
#X connect 7 0 5 0;
#X connect 11 0 4 0;
#X connect 17 0 18 0;
#X connect 22 0 19 0;
#X connect 23 0 20 0;
#X connect 24 0 21 0;
#X coords 0 -1 1 1 100 100 2 10 10;
