#N canvas 643 81 1004 719 12;
#X obj 177 266 r \$0-volume1-send;
#X obj 14 14 cnv 15 92 92 empty empty mixer 10 20 0 20 -233017 -66577
0;
#X obj 24 54 hsl 32 15 0 1 0 0 \$0-volume1-send \$0-volume1-rec 1 -2
-6 0 10 -262144 -1 -1 3100 1;
#X obj 24 80 hsl 32 15 0 1 0 0 \$0-volume3-send \$0-volume3-rec 3 -2
-6 0 10 -262144 -1 -1 0 1;
#X obj 65 54 hsl 32 15 0 1 0 0 \$0-volume2-send \$0-volume2-rec 2 -2
-6 0 10 -262144 -1 -1 0 1;
#X obj 65 80 hsl 32 15 0 1 0 0 \$0-volume4-send \$0-volume4-rec 4 -2
-6 0 10 -262144 -1 -1 0 1;
#X obj 132 38 inlet~;
#X obj 132 70 s~ \$0-inlet1;
#X obj 330 38 inlet~;
#X obj 620 38 inlet;
#X obj 330 70 s~ \$0-inlet3;
#X obj 620 70 s \$0-inlet6;
#X obj 132 234 r~ \$0-inlet1;
#X obj 132 186 s \$0-volume1-rec;
#X obj 132 154 / 127;
#X obj 259 154 / 127;
#X obj 386 154 / 127;
#X obj 804 38 inlet;
#X obj 513 154 / 127;
#X obj 513 122 r \$0-inlet8;
#X obj 259 186 s \$0-volume2-rec;
#X obj 386 186 s \$0-volume3-rec;
#X obj 513 186 s \$0-volume4-rec;
#X obj 804 70 s \$0-inlet8;
#X obj 132 393 s~ \$0-outlet1;
#X obj 231 70 s~ \$0-inlet2;
#X obj 231 38 inlet~;
#X obj 429 38 inlet~;
#X obj 429 70 s~ \$0-inlet4;
#X obj 528 38 inlet;
#X obj 528 70 s \$0-inlet5;
#X obj 712 38 inlet;
#X obj 712 70 s \$0-inlet7;
#X obj 386 122 r \$0-inlet7;
#X obj 259 122 r \$0-inlet6;
#X obj 132 122 r \$0-inlet5;
#X obj 35 661 outlet~;
#X obj 36 533 r~ \$0-outlet1;
#X obj 66 629 r~ \$0-outlet4;
#X obj 56 597 r~ \$0-outlet3;
#X obj 46 565 r~ \$0-outlet2;
#X obj 132 330 vca~;
#X obj 177 298 amp-ctrl~;
#X obj 302 330 vca~;
#X obj 347 298 amp-ctrl~;
#X obj 472 330 vca~;
#X obj 517 298 amp-ctrl~;
#X obj 642 330 vca~;
#X obj 687 298 amp-ctrl~;
#X obj 302 234 r~ \$0-inlet2;
#X obj 347 266 r \$0-volume2-send;
#X obj 302 393 s~ \$0-outlet2;
#X obj 472 393 s~ \$0-outlet3;
#X obj 642 393 s~ \$0-outlet4;
#X obj 687 266 r \$0-volume4-send;
#X obj 642 234 r~ \$0-inlet4;
#X obj 472 234 r~ \$0-inlet3;
#X obj 517 266 r \$0-volume3-send;
#X connect 0 0 42 0;
#X connect 6 0 7 0;
#X connect 8 0 10 0;
#X connect 9 0 11 0;
#X connect 12 0 41 0;
#X connect 14 0 13 0;
#X connect 15 0 20 0;
#X connect 16 0 21 0;
#X connect 17 0 23 0;
#X connect 18 0 22 0;
#X connect 19 0 18 0;
#X connect 26 0 25 0;
#X connect 27 0 28 0;
#X connect 29 0 30 0;
#X connect 31 0 32 0;
#X connect 33 0 16 0;
#X connect 34 0 15 0;
#X connect 35 0 14 0;
#X connect 37 0 36 0;
#X connect 38 0 36 0;
#X connect 39 0 36 0;
#X connect 40 0 36 0;
#X connect 41 0 24 0;
#X connect 42 0 41 1;
#X connect 43 0 51 0;
#X connect 44 0 43 1;
#X connect 45 0 52 0;
#X connect 46 0 45 1;
#X connect 47 0 53 0;
#X connect 48 0 47 1;
#X connect 49 0 43 0;
#X connect 50 0 44 0;
#X connect 54 0 48 0;
#X connect 55 0 47 0;
#X connect 56 0 45 0;
#X connect 57 0 46 0;
#X coords 0 -1 1 1 100 100 2 10 10;
