#N canvas 191 304 450 300 12;
#X obj 170 58 r \$0-volume-send;
#X obj 152 90 *~;
#X obj 152 26 noise~;
#X obj 152 122 outlet~;
#X obj 14 14 cnv 15 92 92 empty empty noise 10 20 0 20 -233017 -66577
0;
#X obj 27 64 hsl 32 15 0 1 0 0 \$0-volume-send \$0-volume-rec volume
-2 -8 0 10 -262144 -1 -1 0 1;
#X connect 0 0 1 1;
#X connect 1 0 3 0;
#X connect 2 0 1 0;
#X coords 0 -1 1 1 100 100 2 10 10;
