#N canvas 738 124 675 570 12;
#X obj 121 74 inlet;
#N canvas 905 179 450 300 sine~ 0;
#X obj 12 44 osc~;
#X obj 12 76 outlet~;
#X obj 12 12 inlet~;
#X connect 0 0 1 0;
#X connect 2 0 0 0;
#X restore 11 418 pd sine~;
#N canvas 958 83 450 300 saw~ 0;
#X obj 12 44 phasor~;
#X obj 12 76 *~ 2;
#X obj 12 108 -~ 1;
#X obj 12 140 outlet~;
#X obj 12 12 inlet~;
#X connect 0 0 1 0;
#X connect 1 0 2 0;
#X connect 2 0 3 0;
#X connect 4 0 0 0;
#X restore 82 418 pd saw~;
#N canvas 197 369 450 300 square~ 0;
#X obj 12 44 phasor~;
#X obj 12 108 *~ 2;
#X obj 12 140 -~ 1;
#X obj 12 172 outlet~;
#X obj 12 76 expr~ $v1 > $v2;
#X obj 114 44 r \$0-pwm-send;
#X obj 12 12 inlet~;
#X connect 0 0 4 0;
#X connect 1 0 2 0;
#X connect 2 0 3 0;
#X connect 4 0 1 0;
#X connect 5 0 4 1;
#X connect 6 0 0 0;
#X restore 245 418 pd square~;
#X obj 11 450 outlet~;
#X obj 82 450 outlet~;
#X obj 245 450 outlet~;
#X obj 14 14 cnv 15 92 92 empty empty osc 10 20 0 20 -233017 -66577
0;
#X obj 24 54 hsl 32 15 0 127 0 0 \$0-freq-send \$0-freq-rec freq -2
-6 0 10 -262144 -1 -1 0 1;
#X obj 24 80 hsl 32 15 0.01 0.99 0 0 \$0-pwm-send \$0-pwm-rec pwm -2
-6 0 10 -262144 -1 -1 1550 1;
#X obj 121 106 s \$0-freq-rec;
#X obj 10 141 r \$0-freq-send;
#X obj 386 10 inlet;
#X obj 386 42 / 127;
#X obj 121 10 loadbang;
#X msg 442 202 0.5;
#X obj 386 74 sel 0 1;
#X obj 432 234 s \$0-pwm-rec;
#X msg 386 106 0.01;
#X msg 409 138 0.99;
#X obj 11 365 +~;
#X obj 10 301 mtof~;
#X obj 315 10 inlet~;
#X obj 315 42 s~ \$0-fm;
#X obj 29 333 r~ \$0-fm;
#N canvas 1113 520 450 300 triangle~ 0;
#X obj 12 44 phasor~;
#X obj 12 204 outlet~;
#X obj 12 12 inlet~;
#X obj 12 108 abs~;
#X obj 12 76 -~ 0.5;
#X obj 12 140 *~ 4;
#X obj 12 172 -~ 1;
#X connect 0 0 4 0;
#X connect 2 0 0 0;
#X connect 3 0 5 0;
#X connect 4 0 3 0;
#X connect 5 0 6 0;
#X connect 6 0 1 0;
#X restore 146 418 pd triangle~;
#X obj 146 450 outlet~;
#X obj 65 54 hsl 32 15 -16 16 0 0 \$0-fine-freq-send \$0-fine-freq-rec
fine -2 -6 0 10 -262144 -1 -1 1300 1;
#X obj 20 173 r \$0-fine-freq-send;
#X obj 10 269 +;
#X obj 10 237 f;
#X obj 20 205 t b f;
#X obj 227 10 inlet;
#X obj 227 106 s \$0-fine-freq-rec;
#X msg 237 74 0;
#X obj 121 42 s \$0-load;
#X obj 448 167 r \$0-load;
#X obj 237 42 r \$0-load;
#X connect 0 0 10 0;
#X connect 1 0 4 0;
#X connect 2 0 5 0;
#X connect 3 0 6 0;
#X connect 11 0 30 0;
#X connect 12 0 13 0;
#X connect 13 0 16 0;
#X connect 14 0 35 0;
#X connect 15 0 17 0;
#X connect 16 0 18 0;
#X connect 16 1 19 0;
#X connect 16 2 17 0;
#X connect 18 0 17 0;
#X connect 19 0 17 0;
#X connect 20 0 1 0;
#X connect 20 0 2 0;
#X connect 20 0 3 0;
#X connect 20 0 25 0;
#X connect 21 0 20 0;
#X connect 22 0 23 0;
#X connect 24 0 20 1;
#X connect 25 0 26 0;
#X connect 28 0 31 0;
#X connect 29 0 21 0;
#X connect 30 0 29 0;
#X connect 31 0 30 0;
#X connect 31 1 29 1;
#X connect 32 0 33 0;
#X connect 34 0 33 0;
#X connect 36 0 15 0;
#X connect 37 0 34 0;
#X coords 0 -1 1 1 100 100 2 10 10;
