#N canvas 284 268 1296 446 12;
#X obj 778 266 hradio 15 1 0 16 empty empty empty 0 -8 0 10 -262144
-1 -1 2;
#X obj 778 202 f;
#X obj 814 202 + 1;
#X obj 778 234 mod 16;
#X obj 778 324 select 0 1 2 3 4 5 6 7 8 9 10 11 12 13 14 15;
#X obj 116 237 r \$0-gate;
#X obj 10 269 outlet;
#X obj 116 301 outlet;
#X obj 788 292 s \$0-gate;
#X obj 14 14 cnv 15 92 92 empty empty seq 10 20 0 20 -233017 -66577
0;
#X obj 21 54 bng 15 250 50 0 \$0-reset-send \$0-reset-rec reset 0 -6
0 10 -262144 -1 -1;
#X obj 65 80 hsl 32 15 0 1000 0 0 \$0-clock-send \$0-clock-rec clock
-2 -6 0 10 -262144 -1 -1 372 1;
#X obj 21 80 tgl 15 0 \$0-run-send \$0-run-rec run 0 -6 0 10 -262144
-1 -1 0 1;
#X obj 940 135 r \$0-reset-send;
#X obj 121 10 inlet;
#X obj 445 170 hradio 15 1 0 16 empty empty empty 0 -8 0 10 -262144
-1 -1 9;
#X obj 445 138 mod 16;
#X obj 445 106 f;
#X obj 485 106 + 1;
#X obj 587 19 r \$0-reset-send;
#X obj 445 42 bang;
#X obj 445 196 select 0 1 2 3 4 5 6 7 8 9 10 11 12 13 14 15;
#X obj 10 237 r \$0-note-out;
#X obj 121 73 s \$0-note-in;
#X obj 445 10 r \$0-note-in;
#X floatatom 131 42 5 0 0 0 - - -;
#N canvas 110 130 450 300 send-notes 0;
#X obj 32 128 s \$0-1;
#X obj 32 96 f;
#X obj 50 64 r \$0-note-in;
#X obj 32 32 inlet;
#X obj 142 96 f;
#X obj 160 64 r \$0-note-in;
#X obj 142 32 inlet;
#X obj 252 96 f;
#X obj 270 64 r \$0-note-in;
#X obj 252 32 inlet;
#X obj 362 96 f;
#X obj 380 64 r \$0-note-in;
#X obj 362 32 inlet;
#X obj 472 96 f;
#X obj 490 64 r \$0-note-in;
#X obj 472 32 inlet;
#X obj 582 96 f;
#X obj 600 64 r \$0-note-in;
#X obj 582 32 inlet;
#X obj 692 96 f;
#X obj 710 64 r \$0-note-in;
#X obj 692 32 inlet;
#X obj 802 96 f;
#X obj 820 64 r \$0-note-in;
#X obj 802 32 inlet;
#X obj 912 96 f;
#X obj 930 64 r \$0-note-in;
#X obj 912 32 inlet;
#X obj 1022 96 f;
#X obj 1040 64 r \$0-note-in;
#X obj 1022 32 inlet;
#X obj 1132 96 f;
#X obj 1150 64 r \$0-note-in;
#X obj 1132 32 inlet;
#X obj 1242 96 f;
#X obj 1260 64 r \$0-note-in;
#X obj 1242 32 inlet;
#X obj 1352 96 f;
#X obj 1370 64 r \$0-note-in;
#X obj 1352 32 inlet;
#X obj 1462 96 f;
#X obj 1480 64 r \$0-note-in;
#X obj 1462 32 inlet;
#X obj 1572 96 f;
#X obj 1590 64 r \$0-note-in;
#X obj 1572 32 inlet;
#X obj 1682 96 f;
#X obj 1700 64 r \$0-note-in;
#X obj 1682 32 inlet;
#X obj 142 128 s \$0-2;
#X obj 252 128 s \$0-3;
#X obj 362 128 s \$0-4;
#X obj 472 128 s \$0-5;
#X obj 582 128 s \$0-6;
#X obj 692 128 s \$0-7;
#X obj 802 128 s \$0-8;
#X obj 912 128 s \$0-9;
#X obj 1022 128 s \$0-10;
#X obj 1132 128 s \$0-11;
#X obj 1242 128 s \$0-12;
#X obj 1352 128 s \$0-13;
#X obj 1462 128 s \$0-14;
#X obj 1572 128 s \$0-15;
#X obj 1682 128 s \$0-16;
#X floatatom 77 199 5 0 0 0 - - -;
#X floatatom 177 198 5 0 0 0 - - -;
#X connect 1 0 0 0;
#X connect 1 0 64 0;
#X connect 2 0 1 1;
#X connect 3 0 1 0;
#X connect 4 0 49 0;
#X connect 4 0 65 0;
#X connect 5 0 4 1;
#X connect 6 0 4 0;
#X connect 7 0 50 0;
#X connect 8 0 7 1;
#X connect 9 0 7 0;
#X connect 10 0 51 0;
#X connect 11 0 10 1;
#X connect 12 0 10 0;
#X connect 13 0 52 0;
#X connect 14 0 13 1;
#X connect 15 0 13 0;
#X connect 16 0 53 0;
#X connect 17 0 16 1;
#X connect 18 0 16 0;
#X connect 19 0 54 0;
#X connect 20 0 19 1;
#X connect 21 0 19 0;
#X connect 22 0 55 0;
#X connect 23 0 22 1;
#X connect 24 0 22 0;
#X connect 25 0 56 0;
#X connect 26 0 25 1;
#X connect 27 0 25 0;
#X connect 28 0 57 0;
#X connect 29 0 28 1;
#X connect 30 0 28 0;
#X connect 31 0 58 0;
#X connect 32 0 31 1;
#X connect 33 0 31 0;
#X connect 34 0 59 0;
#X connect 35 0 34 1;
#X connect 36 0 34 0;
#X connect 37 0 60 0;
#X connect 38 0 37 1;
#X connect 39 0 37 0;
#X connect 40 0 61 0;
#X connect 41 0 40 1;
#X connect 42 0 40 0;
#X connect 43 0 62 0;
#X connect 44 0 43 1;
#X connect 45 0 43 0;
#X connect 46 0 63 0;
#X connect 47 0 46 1;
#X connect 48 0 46 0;
#X restore 445 228 pd send-notes;
#X f 42;
#N canvas 75 536 450 300 receive-notes 0;
#X obj 30 44 r \$0-1;
#X obj 12 76 f;
#X obj 12 259 s \$0-note-out;
#X obj 12 12 inlet;
#X obj 82 76 f;
#X obj 82 12 inlet;
#X obj 152 76 f;
#X obj 152 12 inlet;
#X obj 222 76 f;
#X obj 222 12 inlet;
#X obj 292 76 f;
#X obj 292 12 inlet;
#X obj 362 76 f;
#X obj 362 12 inlet;
#X obj 432 76 f;
#X obj 432 12 inlet;
#X obj 502 76 f;
#X obj 502 12 inlet;
#X obj 572 76 f;
#X obj 572 12 inlet;
#X obj 642 76 f;
#X obj 642 12 inlet;
#X obj 712 76 f;
#X obj 712 12 inlet;
#X obj 782 76 f;
#X obj 782 12 inlet;
#X obj 852 76 f;
#X obj 852 12 inlet;
#X obj 922 76 f;
#X obj 922 12 inlet;
#X obj 992 76 f;
#X obj 992 12 inlet;
#X obj 1062 76 f;
#X obj 1062 12 inlet;
#X obj 100 44 r \$0-2;
#X obj 170 44 r \$0-3;
#X obj 240 44 r \$0-4;
#X obj 310 44 r \$0-5;
#X obj 380 44 r \$0-6;
#X obj 450 44 r \$0-7;
#X obj 520 44 r \$0-8;
#X obj 590 44 r \$0-9;
#X obj 660 44 r \$0-10;
#X obj 730 44 r \$0-11;
#X obj 800 44 r \$0-12;
#X obj 870 44 r \$0-13;
#X obj 940 44 r \$0-14;
#X obj 1010 44 r \$0-15;
#X obj 1080 44 r \$0-16;
#X floatatom 43 144 5 0 0 0 - - -;
#X floatatom 91 131 5 0 0 0 - - -;
#X connect 0 0 1 1;
#X connect 1 0 2 0;
#X connect 1 0 49 0;
#X connect 3 0 1 0;
#X connect 4 0 2 0;
#X connect 4 0 50 0;
#X connect 5 0 4 0;
#X connect 6 0 2 0;
#X connect 7 0 6 0;
#X connect 8 0 2 0;
#X connect 9 0 8 0;
#X connect 10 0 2 0;
#X connect 11 0 10 0;
#X connect 12 0 2 0;
#X connect 13 0 12 0;
#X connect 14 0 2 0;
#X connect 15 0 14 0;
#X connect 16 0 2 0;
#X connect 17 0 16 0;
#X connect 18 0 2 0;
#X connect 19 0 18 0;
#X connect 20 0 2 0;
#X connect 21 0 20 0;
#X connect 22 0 2 0;
#X connect 23 0 22 0;
#X connect 24 0 2 0;
#X connect 25 0 24 0;
#X connect 26 0 2 0;
#X connect 27 0 26 0;
#X connect 28 0 2 0;
#X connect 29 0 28 0;
#X connect 30 0 2 0;
#X connect 31 0 30 0;
#X connect 32 0 2 0;
#X connect 33 0 32 0;
#X connect 34 0 4 1;
#X connect 35 0 6 1;
#X connect 36 0 8 1;
#X connect 37 0 10 1;
#X connect 38 0 12 1;
#X connect 39 0 14 1;
#X connect 40 0 16 1;
#X connect 41 0 18 1;
#X connect 42 0 20 1;
#X connect 43 0 22 1;
#X connect 44 0 24 1;
#X connect 45 0 26 1;
#X connect 46 0 28 1;
#X connect 47 0 30 1;
#X connect 48 0 32 1;
#X restore 778 356 pd receive-notes;
#X f 42;
#X obj 778 106 metro 1 120 permin;
#X obj 778 10 r \$0-run-send;
#X msg 788 74 tempo \$1 permin;
#X obj 788 42 r \$0-clock-send;
#X obj 10 121 loadbang;
#X msg 10 153 120;
#X obj 10 185 s \$0-clock-rec;
#X msg 587 51 16;
#X msg 940 167 16;
#X msg 116 269 127;
#X obj 445 260 r \$0-1;
#X obj 445 324 s \$0-run-rec;
#X msg 445 292 0;
#X obj 544 324 s \$0-run-rec;
#X obj 544 260 r \$0-16;
#X msg 544 292 1;
#X obj 230 12 inlet;
#X obj 230 44 / 127;
#X obj 230 76 * 1000;
#X obj 230 108 s \$0-clock-rec;
#X connect 0 0 4 0;
#X connect 0 0 8 0;
#X connect 1 0 3 0;
#X connect 1 0 2 0;
#X connect 2 0 1 1;
#X connect 3 0 0 0;
#X connect 4 0 27 0;
#X connect 4 1 27 1;
#X connect 4 2 27 2;
#X connect 4 3 27 3;
#X connect 4 4 27 4;
#X connect 4 5 27 5;
#X connect 4 6 27 6;
#X connect 4 7 27 7;
#X connect 4 8 27 8;
#X connect 4 9 27 9;
#X connect 4 10 27 10;
#X connect 4 11 27 11;
#X connect 4 12 27 12;
#X connect 4 13 27 13;
#X connect 4 14 27 14;
#X connect 4 15 27 15;
#X connect 5 0 37 0;
#X connect 13 0 36 0;
#X connect 14 0 23 0;
#X connect 14 0 25 0;
#X connect 15 0 21 0;
#X connect 16 0 15 0;
#X connect 17 0 18 0;
#X connect 17 0 16 0;
#X connect 18 0 17 1;
#X connect 19 0 35 0;
#X connect 20 0 17 0;
#X connect 21 0 26 0;
#X connect 21 1 26 1;
#X connect 21 2 26 2;
#X connect 21 3 26 3;
#X connect 21 4 26 4;
#X connect 21 5 26 5;
#X connect 21 6 26 6;
#X connect 21 7 26 7;
#X connect 21 8 26 8;
#X connect 21 9 26 9;
#X connect 21 10 26 10;
#X connect 21 11 26 11;
#X connect 21 12 26 12;
#X connect 21 13 26 13;
#X connect 21 14 26 14;
#X connect 21 15 26 15;
#X connect 22 0 6 0;
#X connect 24 0 20 0;
#X connect 28 0 1 0;
#X connect 29 0 28 0;
#X connect 30 0 28 0;
#X connect 31 0 30 0;
#X connect 32 0 33 0;
#X connect 33 0 34 0;
#X connect 37 0 7 0;
#X connect 38 0 40 0;
#X connect 40 0 39 0;
#X connect 42 0 43 0;
#X connect 43 0 41 0;
#X connect 44 0 45 0;
#X connect 45 0 46 0;
#X connect 46 0 47 0;
#X coords 0 -1 1 1 100 100 2 10 10;
