#N canvas 222 615 450 300 12;
#X obj 15 120 line~;
#X obj 15 88 pack 5 5;
#X text 61 119 simple envelope for clicks while changing;
#X obj 15 55 / 127;
#X obj 15 152 outlet~;
#X obj 15 21 inlet;
#X connect 0 0 4 0;
#X connect 1 0 0 0;
#X connect 3 0 1 0;
#X connect 5 0 3 0;
