#N canvas -7 0 958 998 12;
#X obj 493 646 modules/audio-out~;
#X obj 651 56 modules/sequencer;
#X obj 12 171 modules/mixer~;
#X obj 12 60 modules/oscillator~;
#X obj 12 393 modules/filter~;
#N canvas 286 244 335 124 init-dsp 0;
#X msg 13 48 \; pd dsp 1;
#X obj 13 16 loadbang;
#X connect 1 0 0 0;
#X restore 1094 158 pd init-dsp;
#N canvas 452 52 784 403 button1 0;
#X obj 24 83 spigot 0;
#X obj 24 147 spigot 0;
#X obj 24 211 spigot 0;
#X obj 24 275 spigot 0;
#X obj 77 115 r \$0-button2-off;
#X obj 77 179 r \$0-button3-off;
#X obj 77 243 r \$0-button4-off;
#X obj 24 19 inlet;
#X obj 77 51 r \$0-button1-on;
#X obj 217 83 spigot 0;
#X obj 217 147 spigot 0;
#X obj 217 211 spigot 0;
#X obj 217 275 spigot 0;
#X obj 410 83 spigot 0;
#X obj 410 147 spigot 0;
#X obj 410 211 spigot 0;
#X obj 410 275 spigot 0;
#X obj 270 115 r \$0-button6-off;
#X obj 270 179 r \$0-button7-off;
#X obj 270 243 r \$0-button8-off;
#X obj 463 115 r \$0-button10-off;
#X obj 463 179 r \$0-button11-off;
#X obj 463 243 r \$0-button12-off;
#X obj 410 307 outlet;
#X obj 270 51 r \$0-button5-off;
#X obj 463 51 r \$0-button9-off;
#X connect 0 0 1 0;
#X connect 1 0 2 0;
#X connect 2 0 3 0;
#X connect 3 0 9 0;
#X connect 4 0 1 1;
#X connect 5 0 2 1;
#X connect 6 0 3 1;
#X connect 7 0 0 0;
#X connect 8 0 0 1;
#X connect 9 0 10 0;
#X connect 10 0 11 0;
#X connect 11 0 12 0;
#X connect 12 0 13 0;
#X connect 13 0 14 0;
#X connect 14 0 15 0;
#X connect 15 0 16 0;
#X connect 16 0 23 0;
#X connect 17 0 10 1;
#X connect 18 0 11 1;
#X connect 19 0 12 1;
#X connect 20 0 14 1;
#X connect 21 0 15 1;
#X connect 22 0 16 1;
#X connect 24 0 9 1;
#X connect 25 0 13 1;
#X restore 1094 191 pd button1;
#X obj 744 167 s \$0-gate;
#N canvas 441 125 450 300 seq-inputs 0;
#X obj 12 12 r \$0-note;
#X obj 12 76 outlet;
#X obj 105 76 outlet;
#X obj 105 12 r \$0-knob1;
#N canvas 452 52 784 403 button4 0;
#X obj 24 83 spigot 0;
#X obj 24 147 spigot 0;
#X obj 24 211 spigot 0;
#X obj 24 275 spigot 0;
#X obj 77 115 r \$0-button2-off;
#X obj 77 179 r \$0-button3-off;
#X obj 24 19 inlet;
#X obj 217 83 spigot 0;
#X obj 217 147 spigot 0;
#X obj 217 211 spigot 0;
#X obj 217 275 spigot 0;
#X obj 410 83 spigot 0;
#X obj 410 147 spigot 0;
#X obj 410 211 spigot 0;
#X obj 410 275 spigot 0;
#X obj 270 115 r \$0-button6-off;
#X obj 270 179 r \$0-button7-off;
#X obj 270 243 r \$0-button8-off;
#X obj 463 115 r \$0-button10-off;
#X obj 463 179 r \$0-button11-off;
#X obj 463 243 r \$0-button12-off;
#X obj 410 307 outlet;
#X obj 270 51 r \$0-button5-off;
#X obj 463 51 r \$0-button9-off;
#X obj 77 51 r \$0-button1-off;
#X obj 77 243 r \$0-button4-on;
#X connect 0 0 1 0;
#X connect 1 0 2 0;
#X connect 2 0 3 0;
#X connect 3 0 7 0;
#X connect 4 0 1 1;
#X connect 5 0 2 1;
#X connect 6 0 0 0;
#X connect 7 0 8 0;
#X connect 8 0 9 0;
#X connect 9 0 10 0;
#X connect 10 0 11 0;
#X connect 11 0 12 0;
#X connect 12 0 13 0;
#X connect 13 0 14 0;
#X connect 14 0 21 0;
#X connect 15 0 8 1;
#X connect 16 0 9 1;
#X connect 17 0 10 1;
#X connect 18 0 12 1;
#X connect 19 0 13 1;
#X connect 20 0 14 1;
#X connect 22 0 7 1;
#X connect 23 0 11 1;
#X connect 24 0 0 1;
#X connect 25 0 3 1;
#X restore 12 44 pd button4;
#N canvas 452 52 784 403 button4 0;
#X obj 24 83 spigot 0;
#X obj 24 147 spigot 0;
#X obj 24 211 spigot 0;
#X obj 24 275 spigot 0;
#X obj 77 115 r \$0-button2-off;
#X obj 77 179 r \$0-button3-off;
#X obj 24 19 inlet;
#X obj 217 83 spigot 0;
#X obj 217 147 spigot 0;
#X obj 217 211 spigot 0;
#X obj 217 275 spigot 0;
#X obj 410 83 spigot 0;
#X obj 410 147 spigot 0;
#X obj 410 211 spigot 0;
#X obj 410 275 spigot 0;
#X obj 270 115 r \$0-button6-off;
#X obj 270 179 r \$0-button7-off;
#X obj 270 243 r \$0-button8-off;
#X obj 463 115 r \$0-button10-off;
#X obj 463 179 r \$0-button11-off;
#X obj 463 243 r \$0-button12-off;
#X obj 410 307 outlet;
#X obj 270 51 r \$0-button5-off;
#X obj 463 51 r \$0-button9-off;
#X obj 77 51 r \$0-button1-off;
#X obj 77 243 r \$0-button4-on;
#X connect 0 0 1 0;
#X connect 1 0 2 0;
#X connect 2 0 3 0;
#X connect 3 0 7 0;
#X connect 4 0 1 1;
#X connect 5 0 2 1;
#X connect 6 0 0 0;
#X connect 7 0 8 0;
#X connect 8 0 9 0;
#X connect 9 0 10 0;
#X connect 10 0 11 0;
#X connect 11 0 12 0;
#X connect 12 0 13 0;
#X connect 13 0 14 0;
#X connect 14 0 21 0;
#X connect 15 0 8 1;
#X connect 16 0 9 1;
#X connect 17 0 10 1;
#X connect 18 0 12 1;
#X connect 19 0 13 1;
#X connect 20 0 14 1;
#X connect 22 0 7 1;
#X connect 23 0 11 1;
#X connect 24 0 0 1;
#X connect 25 0 3 1;
#X restore 105 44 pd button4;
#X connect 0 0 4 0;
#X connect 3 0 5 0;
#X connect 4 0 1 0;
#X connect 5 0 2 0;
#X restore 651 24 pd seq-inputs;
#N canvas 197 145 970 837 midi-controller 0;
#X obj 10 10 modules/midi-knobs;
#X obj 10 111 modules/midi-buttons;
#X obj 200 436 s \$0-note;
#X obj 111 10 modules/midi-keys;
#X obj 335 386 s \$0-button1-on;
#X obj 10 402 s \$0-knob1;
#X obj 41 370 s \$0-knob2;
#X obj 72 338 s \$0-knob3;
#X obj 103 308 s \$0-knob4;
#X obj 345 354 s \$0-button2-on;
#X obj 376 322 s \$0-button3-on;
#X obj 111 111 modules/midi-pads;
#X obj 415 246 s \$0-button5-on;
#X obj 428 214 s \$0-button6-on;
#X obj 441 182 s \$0-button7-on;
#X obj 454 150 s \$0-button8-on;
#X obj 468 118 s \$0-button9-on;
#X obj 481 86 s \$0-button10-on;
#X obj 494 54 s \$0-button11-on;
#X obj 508 22 s \$0-button12-on;
#X obj 293 436 s \$0-gate;
#X obj 233 14 modules/midi-wheels;
#X obj 326 123 s \$0-wheel;
#X obj 407 290 s \$0-button4-on;
#X obj 20 509 != 127;
#X obj 20 544 s \$0-button1-off;
#X obj 20 477 r \$0-button1-on;
#X obj 150 509 != 127;
#X obj 276 509 != 127;
#X obj 406 509 != 127;
#X obj 150 541 s \$0-button2-off;
#X obj 276 541 s \$0-button3-off;
#X obj 406 541 s \$0-button4-off;
#X obj 150 477 r \$0-button2-on;
#X obj 276 477 r \$0-button3-on;
#X obj 406 477 r \$0-button4-on;
#X obj 20 628 != 127;
#X obj 150 628 != 127;
#X obj 276 628 != 127;
#X obj 406 628 != 127;
#X obj 20 747 != 127;
#X obj 150 747 != 127;
#X obj 276 747 != 127;
#X obj 406 747 != 127;
#X obj 20 596 r \$0-button5-on;
#X obj 150 596 r \$0-button6-on;
#X obj 276 596 r \$0-button7-on;
#X obj 406 596 r \$0-button8-on;
#X obj 20 715 r \$0-button9-on;
#X obj 150 715 r \$0-button10-on;
#X obj 276 715 r \$0-button11-on;
#X obj 406 715 r \$0-button12-on;
#X obj 406 779 s \$0-button12-off;
#X obj 276 779 s \$0-button11-off;
#X obj 150 779 s \$0-button10-off;
#X obj 20 782 s \$0-button9-off;
#X obj 406 660 s \$0-button8-off;
#X obj 276 660 s \$0-button7-off;
#X obj 150 660 s \$0-button6-off;
#X obj 20 663 s \$0-button5-off;
#X connect 0 0 5 0;
#X connect 0 1 6 0;
#X connect 0 2 7 0;
#X connect 0 3 8 0;
#X connect 1 0 4 0;
#X connect 1 1 9 0;
#X connect 1 2 10 0;
#X connect 1 3 23 0;
#X connect 3 0 2 0;
#X connect 3 1 20 0;
#X connect 11 0 12 0;
#X connect 11 1 13 0;
#X connect 11 2 14 0;
#X connect 11 3 15 0;
#X connect 11 4 16 0;
#X connect 11 5 17 0;
#X connect 11 6 18 0;
#X connect 11 7 19 0;
#X connect 21 1 22 0;
#X connect 24 0 25 0;
#X connect 26 0 24 0;
#X connect 27 0 30 0;
#X connect 28 0 31 0;
#X connect 29 0 32 0;
#X connect 33 0 27 0;
#X connect 34 0 28 0;
#X connect 35 0 29 0;
#X connect 36 0 59 0;
#X connect 37 0 58 0;
#X connect 38 0 57 0;
#X connect 39 0 56 0;
#X connect 40 0 55 0;
#X connect 41 0 54 0;
#X connect 42 0 53 0;
#X connect 43 0 52 0;
#X connect 44 0 36 0;
#X connect 45 0 37 0;
#X connect 46 0 38 0;
#X connect 47 0 39 0;
#X connect 48 0 40 0;
#X connect 49 0 41 0;
#X connect 50 0 42 0;
#X connect 51 0 43 0;
#X coords 0 -1 1 1 201 201 2 10 10;
#X restore 854 29 pd midi-controller;
#N canvas 630 287 450 300 osc-mixer-inputs 0;
#X obj 12 140 outlet;
#X obj 125 76 outlet;
#X obj 12 12 r \$0-knob1;
#X obj 125 12 r \$0-knob2;
#X obj 238 76 outlet;
#X obj 238 12 r \$0-knob3;
#X obj 22 76 loadbang;
#X msg 22 108 127;
#N canvas 452 52 784 403 buttons-off 0;
#X obj 24 83 spigot 0;
#X obj 24 147 spigot 0;
#X obj 24 211 spigot 0;
#X obj 24 275 spigot 0;
#X obj 77 115 r \$0-button2-off;
#X obj 77 179 r \$0-button3-off;
#X obj 77 243 r \$0-button4-off;
#X obj 24 19 inlet;
#X obj 217 83 spigot 0;
#X obj 217 147 spigot 0;
#X obj 217 211 spigot 0;
#X obj 217 275 spigot 0;
#X obj 410 83 spigot 0;
#X obj 410 147 spigot 0;
#X obj 410 211 spigot 0;
#X obj 410 275 spigot 0;
#X obj 270 115 r \$0-button6-off;
#X obj 270 179 r \$0-button7-off;
#X obj 270 243 r \$0-button8-off;
#X obj 463 115 r \$0-button10-off;
#X obj 463 179 r \$0-button11-off;
#X obj 463 243 r \$0-button12-off;
#X obj 410 307 outlet;
#X obj 270 51 r \$0-button5-off;
#X obj 463 51 r \$0-button9-off;
#X obj 77 51 r \$0-button1-off;
#X connect 0 0 1 0;
#X connect 1 0 2 0;
#X connect 2 0 3 0;
#X connect 3 0 8 0;
#X connect 4 0 1 1;
#X connect 5 0 2 1;
#X connect 6 0 3 1;
#X connect 7 0 0 0;
#X connect 8 0 9 0;
#X connect 9 0 10 0;
#X connect 10 0 11 0;
#X connect 11 0 12 0;
#X connect 12 0 13 0;
#X connect 13 0 14 0;
#X connect 14 0 15 0;
#X connect 15 0 22 0;
#X connect 16 0 9 1;
#X connect 17 0 10 1;
#X connect 18 0 11 1;
#X connect 19 0 13 1;
#X connect 20 0 14 1;
#X connect 21 0 15 1;
#X connect 23 0 8 1;
#X connect 24 0 12 1;
#X connect 25 0 0 1;
#X restore 12 44 pd buttons-off;
#N canvas 452 52 784 403 buttons-off 0;
#X obj 24 83 spigot 0;
#X obj 24 147 spigot 0;
#X obj 24 211 spigot 0;
#X obj 24 275 spigot 0;
#X obj 77 115 r \$0-button2-off;
#X obj 77 179 r \$0-button3-off;
#X obj 77 243 r \$0-button4-off;
#X obj 24 19 inlet;
#X obj 217 83 spigot 0;
#X obj 217 147 spigot 0;
#X obj 217 211 spigot 0;
#X obj 217 275 spigot 0;
#X obj 410 83 spigot 0;
#X obj 410 147 spigot 0;
#X obj 410 211 spigot 0;
#X obj 410 275 spigot 0;
#X obj 270 115 r \$0-button6-off;
#X obj 270 179 r \$0-button7-off;
#X obj 270 243 r \$0-button8-off;
#X obj 463 115 r \$0-button10-off;
#X obj 463 179 r \$0-button11-off;
#X obj 463 243 r \$0-button12-off;
#X obj 410 307 outlet;
#X obj 270 51 r \$0-button5-off;
#X obj 463 51 r \$0-button9-off;
#X obj 77 51 r \$0-button1-off;
#X connect 0 0 1 0;
#X connect 1 0 2 0;
#X connect 2 0 3 0;
#X connect 3 0 8 0;
#X connect 4 0 1 1;
#X connect 5 0 2 1;
#X connect 6 0 3 1;
#X connect 7 0 0 0;
#X connect 8 0 9 0;
#X connect 9 0 10 0;
#X connect 10 0 11 0;
#X connect 11 0 12 0;
#X connect 12 0 13 0;
#X connect 13 0 14 0;
#X connect 14 0 15 0;
#X connect 15 0 22 0;
#X connect 16 0 9 1;
#X connect 17 0 10 1;
#X connect 18 0 11 1;
#X connect 19 0 13 1;
#X connect 20 0 14 1;
#X connect 21 0 15 1;
#X connect 23 0 8 1;
#X connect 24 0 12 1;
#X connect 25 0 0 1;
#X restore 125 44 pd buttons-off;
#N canvas 452 52 784 403 buttons-off 0;
#X obj 24 83 spigot 0;
#X obj 24 147 spigot 0;
#X obj 24 211 spigot 0;
#X obj 24 275 spigot 0;
#X obj 77 115 r \$0-button2-off;
#X obj 77 179 r \$0-button3-off;
#X obj 77 243 r \$0-button4-off;
#X obj 24 19 inlet;
#X obj 217 83 spigot 0;
#X obj 217 147 spigot 0;
#X obj 217 211 spigot 0;
#X obj 217 275 spigot 0;
#X obj 410 83 spigot 0;
#X obj 410 147 spigot 0;
#X obj 410 211 spigot 0;
#X obj 410 275 spigot 0;
#X obj 270 115 r \$0-button6-off;
#X obj 270 179 r \$0-button7-off;
#X obj 270 243 r \$0-button8-off;
#X obj 463 115 r \$0-button10-off;
#X obj 463 179 r \$0-button11-off;
#X obj 463 243 r \$0-button12-off;
#X obj 410 307 outlet;
#X obj 270 51 r \$0-button5-off;
#X obj 463 51 r \$0-button9-off;
#X obj 77 51 r \$0-button1-off;
#X connect 0 0 1 0;
#X connect 1 0 2 0;
#X connect 2 0 3 0;
#X connect 3 0 8 0;
#X connect 4 0 1 1;
#X connect 5 0 2 1;
#X connect 6 0 3 1;
#X connect 7 0 0 0;
#X connect 8 0 9 0;
#X connect 9 0 10 0;
#X connect 10 0 11 0;
#X connect 11 0 12 0;
#X connect 12 0 13 0;
#X connect 13 0 14 0;
#X connect 14 0 15 0;
#X connect 15 0 22 0;
#X connect 16 0 9 1;
#X connect 17 0 10 1;
#X connect 18 0 11 1;
#X connect 19 0 13 1;
#X connect 20 0 14 1;
#X connect 21 0 15 1;
#X connect 23 0 8 1;
#X connect 24 0 12 1;
#X connect 25 0 0 1;
#X restore 238 44 pd buttons-off;
#X connect 2 0 8 0;
#X connect 3 0 9 0;
#X connect 5 0 10 0;
#X connect 6 0 7 0;
#X connect 7 0 0 0;
#X connect 8 0 0 0;
#X connect 9 0 1 0;
#X connect 10 0 4 0;
#X restore 1242 129 pd osc-mixer-inputs;
#X text 1088 101 subpatches/templates;
#N canvas -8 -8 1920 1007 osc-fm-lfo 0;
#X obj 13 76 modules/lfo~;
#X obj 12 315 *~;
#X obj 62 283 mtof;
#X msg 30 283 0;
#X obj 30 251 sel 0;
#N canvas 452 52 784 403 button6 0;
#X obj 24 83 spigot 0;
#X obj 24 147 spigot 0;
#X obj 24 211 spigot 0;
#X obj 24 275 spigot 0;
#X obj 77 115 r \$0-button2-off;
#X obj 77 179 r \$0-button3-off;
#X obj 77 243 r \$0-button4-off;
#X obj 24 19 inlet;
#X obj 217 83 spigot 0;
#X obj 217 147 spigot 0;
#X obj 217 211 spigot 0;
#X obj 217 275 spigot 0;
#X obj 410 83 spigot 0;
#X obj 410 147 spigot 0;
#X obj 410 211 spigot 0;
#X obj 410 275 spigot 0;
#X obj 270 179 r \$0-button7-off;
#X obj 270 243 r \$0-button8-off;
#X obj 463 115 r \$0-button10-off;
#X obj 463 179 r \$0-button11-off;
#X obj 463 243 r \$0-button12-off;
#X obj 410 307 outlet;
#X obj 270 51 r \$0-button5-off;
#X obj 463 51 r \$0-button9-off;
#X obj 77 51 r \$0-button1-off;
#X obj 270 115 r \$0-button6-on;
#X connect 0 0 1 0;
#X connect 1 0 2 0;
#X connect 2 0 3 0;
#X connect 3 0 8 0;
#X connect 4 0 1 1;
#X connect 5 0 2 1;
#X connect 6 0 3 1;
#X connect 7 0 0 0;
#X connect 8 0 9 0;
#X connect 9 0 10 0;
#X connect 10 0 11 0;
#X connect 11 0 12 0;
#X connect 12 0 13 0;
#X connect 13 0 14 0;
#X connect 14 0 15 0;
#X connect 15 0 21 0;
#X connect 16 0 10 1;
#X connect 17 0 11 1;
#X connect 18 0 13 1;
#X connect 19 0 14 1;
#X connect 20 0 15 1;
#X connect 22 0 8 1;
#X connect 23 0 12 1;
#X connect 24 0 0 1;
#X connect 25 0 9 1;
#X restore 30 219 pd button6;
#X obj 30 187 r \$0-wheel;
#N canvas 452 52 784 403 button6 0;
#X obj 24 83 spigot 0;
#X obj 24 147 spigot 0;
#X obj 24 211 spigot 0;
#X obj 24 275 spigot 0;
#X obj 77 115 r \$0-button2-off;
#X obj 77 179 r \$0-button3-off;
#X obj 77 243 r \$0-button4-off;
#X obj 24 19 inlet;
#X obj 217 83 spigot 0;
#X obj 217 147 spigot 0;
#X obj 217 211 spigot 0;
#X obj 217 275 spigot 0;
#X obj 410 83 spigot 0;
#X obj 410 147 spigot 0;
#X obj 410 211 spigot 0;
#X obj 410 275 spigot 0;
#X obj 270 179 r \$0-button7-off;
#X obj 270 243 r \$0-button8-off;
#X obj 463 115 r \$0-button10-off;
#X obj 463 179 r \$0-button11-off;
#X obj 463 243 r \$0-button12-off;
#X obj 410 307 outlet;
#X obj 270 51 r \$0-button5-off;
#X obj 463 51 r \$0-button9-off;
#X obj 77 51 r \$0-button1-off;
#X obj 270 115 r \$0-button6-on;
#X connect 0 0 1 0;
#X connect 1 0 2 0;
#X connect 2 0 3 0;
#X connect 3 0 8 0;
#X connect 4 0 1 1;
#X connect 5 0 2 1;
#X connect 6 0 3 1;
#X connect 7 0 0 0;
#X connect 8 0 9 0;
#X connect 9 0 10 0;
#X connect 10 0 11 0;
#X connect 11 0 12 0;
#X connect 12 0 13 0;
#X connect 13 0 14 0;
#X connect 14 0 15 0;
#X connect 15 0 21 0;
#X connect 16 0 10 1;
#X connect 17 0 11 1;
#X connect 18 0 13 1;
#X connect 19 0 14 1;
#X connect 20 0 15 1;
#X connect 22 0 8 1;
#X connect 23 0 12 1;
#X connect 24 0 0 1;
#X connect 25 0 9 1;
#X restore 13 44 pd button6;
#X obj 13 12 r \$0-knob1;
#X obj 12 347 outlet~;
#X connect 0 0 1 0;
#X connect 1 0 9 0;
#X connect 2 0 1 1;
#X connect 3 0 1 1;
#X connect 4 0 3 0;
#X connect 4 1 2 0;
#X connect 5 0 4 0;
#X connect 6 0 5 0;
#X connect 7 0 0 0;
#X connect 8 0 7 0;
#X restore 1245 201 pd osc-fm-lfo;
#X obj 266 124 noise~;
#X obj 266 156 modules/filter~;
#N canvas 151 191 482 753 osc-am-lfo 0;
#X obj 180 86 modules/lfo~;
#X obj 180 22 r \$0-knob1;
#X msg 257 436 1;
#X msg 225 436 0;
#X obj 180 468 modules/vca~;
#X obj 225 340 r \$0-knob1;
#X obj 225 404 sel 0;
#X obj 57 54 r \$0-knob1;
#X obj 57 118 sel 0;
#X msg 57 182 1;
#X msg 89 182 0;
#X obj 12 214 modules/vca~;
#X obj 136 563 modules/vca~;
#X obj 13 665 outlet~;
#X obj 67 150 loadbang;
#N canvas 498 351 784 403 lfo-button5 0;
#X obj 24 19 inlet;
#X obj 24 83 spigot 0;
#X obj 24 147 spigot 0;
#X obj 24 211 spigot 0;
#X obj 24 275 spigot 0;
#X obj 217 83 spigot 0;
#X obj 217 147 spigot 0;
#X obj 217 211 spigot 0;
#X obj 217 275 spigot 0;
#X obj 77 179 r \$0-button7-off;
#X obj 77 243 r \$0-button8-off;
#X obj 270 115 r \$0-button10-off;
#X obj 270 179 r \$0-button11-off;
#X obj 270 243 r \$0-button12-off;
#X obj 217 307 outlet;
#X obj 270 51 r \$0-button9-off;
#X obj 77 115 r \$0-button6-off;
#X obj 77 51 r \$0-button5-on;
#X connect 0 0 1 0;
#X connect 1 0 2 0;
#X connect 2 0 3 0;
#X connect 3 0 4 0;
#X connect 4 0 5 0;
#X connect 5 0 6 0;
#X connect 6 0 7 0;
#X connect 7 0 8 0;
#X connect 8 0 14 0;
#X connect 9 0 3 1;
#X connect 10 0 4 1;
#X connect 11 0 6 1;
#X connect 12 0 7 1;
#X connect 13 0 8 1;
#X connect 15 0 5 1;
#X connect 16 0 2 1;
#X connect 17 0 1 1;
#X restore 225 372 pd lfo-button5;
#N canvas 498 351 784 403 lfo-button5 0;
#X obj 24 19 inlet;
#X obj 24 83 spigot 0;
#X obj 24 147 spigot 0;
#X obj 24 211 spigot 0;
#X obj 24 275 spigot 0;
#X obj 217 83 spigot 0;
#X obj 217 147 spigot 0;
#X obj 217 211 spigot 0;
#X obj 217 275 spigot 0;
#X obj 77 179 r \$0-button7-off;
#X obj 77 243 r \$0-button8-off;
#X obj 270 115 r \$0-button10-off;
#X obj 270 179 r \$0-button11-off;
#X obj 270 243 r \$0-button12-off;
#X obj 217 307 outlet;
#X obj 270 51 r \$0-button9-off;
#X obj 77 115 r \$0-button6-off;
#X obj 77 51 r \$0-button5-on;
#X connect 0 0 1 0;
#X connect 1 0 2 0;
#X connect 2 0 3 0;
#X connect 3 0 4 0;
#X connect 4 0 5 0;
#X connect 5 0 6 0;
#X connect 6 0 7 0;
#X connect 7 0 8 0;
#X connect 8 0 14 0;
#X connect 9 0 3 1;
#X connect 10 0 4 1;
#X connect 11 0 6 1;
#X connect 12 0 7 1;
#X connect 13 0 8 1;
#X connect 15 0 5 1;
#X connect 16 0 2 1;
#X connect 17 0 1 1;
#X restore 180 54 pd lfo-button5;
#N canvas 498 351 784 403 lfo-button5 0;
#X obj 24 19 inlet;
#X obj 24 83 spigot 0;
#X obj 24 147 spigot 0;
#X obj 24 211 spigot 0;
#X obj 24 275 spigot 0;
#X obj 217 83 spigot 0;
#X obj 217 147 spigot 0;
#X obj 217 211 spigot 0;
#X obj 217 275 spigot 0;
#X obj 77 179 r \$0-button7-off;
#X obj 77 243 r \$0-button8-off;
#X obj 270 115 r \$0-button10-off;
#X obj 270 179 r \$0-button11-off;
#X obj 270 243 r \$0-button12-off;
#X obj 217 307 outlet;
#X obj 270 51 r \$0-button9-off;
#X obj 77 115 r \$0-button6-off;
#X obj 77 51 r \$0-button5-on;
#X connect 0 0 1 0;
#X connect 1 0 2 0;
#X connect 2 0 3 0;
#X connect 3 0 4 0;
#X connect 4 0 5 0;
#X connect 5 0 6 0;
#X connect 6 0 7 0;
#X connect 7 0 8 0;
#X connect 8 0 14 0;
#X connect 9 0 3 1;
#X connect 10 0 4 1;
#X connect 11 0 6 1;
#X connect 12 0 7 1;
#X connect 13 0 8 1;
#X connect 15 0 5 1;
#X connect 16 0 2 1;
#X connect 17 0 1 1;
#X restore 57 86 pd lfo-button5;
#X obj 181 229 modules/mixer~;
#N canvas 1040 140 784 403 lfo-button5-12 0;
#X obj 24 19 inlet;
#X obj 24 83 spigot 0;
#X obj 24 147 spigot 0;
#X obj 24 211 spigot 0;
#X obj 24 275 spigot 0;
#X obj 217 83 spigot 0;
#X obj 217 147 spigot 0;
#X obj 217 211 spigot 0;
#X obj 217 275 spigot 0;
#X obj 77 179 r \$0-button7-off;
#X obj 77 243 r \$0-button8-off;
#X obj 270 115 r \$0-button10-off;
#X obj 270 179 r \$0-button11-off;
#X obj 217 307 outlet;
#X obj 270 51 r \$0-button9-off;
#X obj 77 115 r \$0-button6-off;
#X obj 77 51 r \$0-button5-on;
#X obj 270 243 r \$0-button12-on;
#X connect 0 0 1 0;
#X connect 1 0 2 0;
#X connect 2 0 3 0;
#X connect 3 0 4 0;
#X connect 4 0 5 0;
#X connect 5 0 6 0;
#X connect 6 0 7 0;
#X connect 7 0 8 0;
#X connect 8 0 13 0;
#X connect 9 0 3 1;
#X connect 10 0 4 1;
#X connect 11 0 6 1;
#X connect 12 0 7 1;
#X connect 14 0 5 1;
#X connect 15 0 2 1;
#X connect 16 0 1 1;
#X connect 17 0 8 1;
#X restore 290 54 pd lfo-button5-12;
#X obj 290 22 r \$0-knob4;
#N canvas 0 50 450 300 lfo-mixer-inputs 0;
#N canvas 1040 140 784 403 lfo-button5-12 0;
#X obj 24 19 inlet;
#X obj 24 83 spigot 0;
#X obj 24 147 spigot 0;
#X obj 24 211 spigot 0;
#X obj 24 275 spigot 0;
#X obj 217 83 spigot 0;
#X obj 217 147 spigot 0;
#X obj 217 211 spigot 0;
#X obj 217 275 spigot 0;
#X obj 77 179 r \$0-button7-off;
#X obj 77 243 r \$0-button8-off;
#X obj 270 115 r \$0-button10-off;
#X obj 270 179 r \$0-button11-off;
#X obj 217 307 outlet;
#X obj 270 51 r \$0-button9-off;
#X obj 77 115 r \$0-button6-off;
#X obj 77 51 r \$0-button5-on;
#X obj 270 243 r \$0-button12-on;
#X connect 0 0 1 0;
#X connect 1 0 2 0;
#X connect 2 0 3 0;
#X connect 3 0 4 0;
#X connect 4 0 5 0;
#X connect 5 0 6 0;
#X connect 6 0 7 0;
#X connect 7 0 8 0;
#X connect 8 0 13 0;
#X connect 9 0 3 1;
#X connect 10 0 4 1;
#X connect 11 0 6 1;
#X connect 12 0 7 1;
#X connect 14 0 5 1;
#X connect 15 0 2 1;
#X connect 16 0 1 1;
#X connect 17 0 8 1;
#X restore 12 44 pd lfo-button5-12;
#X obj 12 12 r \$0-knob1;
#N canvas 1040 140 784 403 lfo-button5-12 0;
#X obj 24 19 inlet;
#X obj 24 83 spigot 0;
#X obj 24 147 spigot 0;
#X obj 24 211 spigot 0;
#X obj 24 275 spigot 0;
#X obj 217 83 spigot 0;
#X obj 217 147 spigot 0;
#X obj 217 211 spigot 0;
#X obj 217 275 spigot 0;
#X obj 77 179 r \$0-button7-off;
#X obj 77 243 r \$0-button8-off;
#X obj 270 115 r \$0-button10-off;
#X obj 270 179 r \$0-button11-off;
#X obj 217 307 outlet;
#X obj 270 51 r \$0-button9-off;
#X obj 77 115 r \$0-button6-off;
#X obj 77 51 r \$0-button5-on;
#X obj 270 243 r \$0-button12-on;
#X connect 0 0 1 0;
#X connect 1 0 2 0;
#X connect 2 0 3 0;
#X connect 3 0 4 0;
#X connect 4 0 5 0;
#X connect 5 0 6 0;
#X connect 6 0 7 0;
#X connect 7 0 8 0;
#X connect 8 0 13 0;
#X connect 9 0 3 1;
#X connect 10 0 4 1;
#X connect 11 0 6 1;
#X connect 12 0 7 1;
#X connect 14 0 5 1;
#X connect 15 0 2 1;
#X connect 16 0 1 1;
#X connect 17 0 8 1;
#X restore 147 44 pd lfo-button5-12;
#X obj 147 12 r \$0-knob2;
#N canvas 1040 140 784 403 lfo-button5-12 0;
#X obj 24 19 inlet;
#X obj 24 83 spigot 0;
#X obj 24 147 spigot 0;
#X obj 24 211 spigot 0;
#X obj 24 275 spigot 0;
#X obj 217 83 spigot 0;
#X obj 217 147 spigot 0;
#X obj 217 211 spigot 0;
#X obj 217 275 spigot 0;
#X obj 77 179 r \$0-button7-off;
#X obj 77 243 r \$0-button8-off;
#X obj 270 115 r \$0-button10-off;
#X obj 270 179 r \$0-button11-off;
#X obj 217 307 outlet;
#X obj 270 51 r \$0-button9-off;
#X obj 77 115 r \$0-button6-off;
#X obj 77 51 r \$0-button5-on;
#X obj 270 243 r \$0-button12-on;
#X connect 0 0 1 0;
#X connect 1 0 2 0;
#X connect 2 0 3 0;
#X connect 3 0 4 0;
#X connect 4 0 5 0;
#X connect 5 0 6 0;
#X connect 6 0 7 0;
#X connect 7 0 8 0;
#X connect 8 0 13 0;
#X connect 9 0 3 1;
#X connect 10 0 4 1;
#X connect 11 0 6 1;
#X connect 12 0 7 1;
#X connect 14 0 5 1;
#X connect 15 0 2 1;
#X connect 16 0 1 1;
#X connect 17 0 8 1;
#X restore 282 44 pd lfo-button5-12;
#X obj 282 12 r \$0-knob3;
#X obj 147 76 outlet;
#X obj 12 140 outlet;
#X obj 282 76 outlet;
#X obj 22 76 loadbang;
#X msg 22 108 127;
#X connect 0 0 7 0;
#X connect 1 0 0 0;
#X connect 2 0 6 0;
#X connect 3 0 2 0;
#X connect 4 0 8 0;
#X connect 5 0 4 0;
#X connect 9 0 10 0;
#X connect 10 0 7 0;
#X restore 234 197 pd lfo-mixer-inputs;
#X obj 13 22 r~ \$0-env-out;
#X obj 136 531 r~ \$0-env-out;
#X connect 0 0 18 0;
#X connect 0 1 18 1;
#X connect 0 3 18 2;
#X connect 1 0 16 0;
#X connect 2 0 4 1;
#X connect 3 0 4 1;
#X connect 4 0 12 1;
#X connect 5 0 15 0;
#X connect 6 0 3 0;
#X connect 6 1 2 0;
#X connect 7 0 17 0;
#X connect 8 0 9 0;
#X connect 8 1 10 0;
#X connect 9 0 11 1;
#X connect 10 0 11 1;
#X connect 11 0 13 0;
#X connect 12 0 13 0;
#X connect 14 0 9 0;
#X connect 15 0 6 0;
#X connect 16 0 0 0;
#X connect 17 0 8 0;
#X connect 18 0 4 0;
#X connect 19 0 0 1;
#X connect 20 0 19 0;
#X connect 21 0 18 4;
#X connect 21 1 18 5;
#X connect 21 2 18 6;
#X connect 22 0 11 0;
#X connect 23 0 12 0;
#X coords 0 753 1 752 100 100 0;
#X restore 1251 161 pd osc-am-lfo;
#X text 1077 51 temporarily replaced button 1 with 4;
#N canvas 151 191 482 753 osc-am-lfo 0;
#X obj 180 86 modules/lfo~;
#X obj 180 22 r \$0-knob1;
#X msg 257 436 1;
#X msg 225 436 0;
#X obj 180 468 modules/vca~;
#X obj 225 340 r \$0-knob1;
#X obj 225 404 sel 0;
#X obj 57 54 r \$0-knob1;
#X obj 57 118 sel 0;
#X msg 57 182 1;
#X msg 89 182 0;
#X obj 12 214 modules/vca~;
#X obj 136 563 modules/vca~;
#X obj 13 665 outlet~;
#X obj 67 150 loadbang;
#N canvas 498 351 784 403 lfo-button5 0;
#X obj 24 19 inlet;
#X obj 24 83 spigot 0;
#X obj 24 147 spigot 0;
#X obj 24 211 spigot 0;
#X obj 24 275 spigot 0;
#X obj 217 83 spigot 0;
#X obj 217 147 spigot 0;
#X obj 217 211 spigot 0;
#X obj 217 275 spigot 0;
#X obj 77 179 r \$0-button7-off;
#X obj 77 243 r \$0-button8-off;
#X obj 270 115 r \$0-button10-off;
#X obj 270 179 r \$0-button11-off;
#X obj 270 243 r \$0-button12-off;
#X obj 217 307 outlet;
#X obj 270 51 r \$0-button9-off;
#X obj 77 115 r \$0-button6-off;
#X obj 77 51 r \$0-button5-on;
#X connect 0 0 1 0;
#X connect 1 0 2 0;
#X connect 2 0 3 0;
#X connect 3 0 4 0;
#X connect 4 0 5 0;
#X connect 5 0 6 0;
#X connect 6 0 7 0;
#X connect 7 0 8 0;
#X connect 8 0 14 0;
#X connect 9 0 3 1;
#X connect 10 0 4 1;
#X connect 11 0 6 1;
#X connect 12 0 7 1;
#X connect 13 0 8 1;
#X connect 15 0 5 1;
#X connect 16 0 2 1;
#X connect 17 0 1 1;
#X restore 225 372 pd lfo-button5;
#N canvas 498 351 784 403 lfo-button5 0;
#X obj 24 19 inlet;
#X obj 24 83 spigot 0;
#X obj 24 147 spigot 0;
#X obj 24 211 spigot 0;
#X obj 24 275 spigot 0;
#X obj 217 83 spigot 0;
#X obj 217 147 spigot 0;
#X obj 217 211 spigot 0;
#X obj 217 275 spigot 0;
#X obj 77 179 r \$0-button7-off;
#X obj 77 243 r \$0-button8-off;
#X obj 270 115 r \$0-button10-off;
#X obj 270 179 r \$0-button11-off;
#X obj 270 243 r \$0-button12-off;
#X obj 217 307 outlet;
#X obj 270 51 r \$0-button9-off;
#X obj 77 115 r \$0-button6-off;
#X obj 77 51 r \$0-button5-on;
#X connect 0 0 1 0;
#X connect 1 0 2 0;
#X connect 2 0 3 0;
#X connect 3 0 4 0;
#X connect 4 0 5 0;
#X connect 5 0 6 0;
#X connect 6 0 7 0;
#X connect 7 0 8 0;
#X connect 8 0 14 0;
#X connect 9 0 3 1;
#X connect 10 0 4 1;
#X connect 11 0 6 1;
#X connect 12 0 7 1;
#X connect 13 0 8 1;
#X connect 15 0 5 1;
#X connect 16 0 2 1;
#X connect 17 0 1 1;
#X restore 180 54 pd lfo-button5;
#N canvas 498 351 784 403 lfo-button5 0;
#X obj 24 19 inlet;
#X obj 24 83 spigot 0;
#X obj 24 147 spigot 0;
#X obj 24 211 spigot 0;
#X obj 24 275 spigot 0;
#X obj 217 83 spigot 0;
#X obj 217 147 spigot 0;
#X obj 217 211 spigot 0;
#X obj 217 275 spigot 0;
#X obj 77 179 r \$0-button7-off;
#X obj 77 243 r \$0-button8-off;
#X obj 270 115 r \$0-button10-off;
#X obj 270 179 r \$0-button11-off;
#X obj 270 243 r \$0-button12-off;
#X obj 217 307 outlet;
#X obj 270 51 r \$0-button9-off;
#X obj 77 115 r \$0-button6-off;
#X obj 77 51 r \$0-button5-on;
#X connect 0 0 1 0;
#X connect 1 0 2 0;
#X connect 2 0 3 0;
#X connect 3 0 4 0;
#X connect 4 0 5 0;
#X connect 5 0 6 0;
#X connect 6 0 7 0;
#X connect 7 0 8 0;
#X connect 8 0 14 0;
#X connect 9 0 3 1;
#X connect 10 0 4 1;
#X connect 11 0 6 1;
#X connect 12 0 7 1;
#X connect 13 0 8 1;
#X connect 15 0 5 1;
#X connect 16 0 2 1;
#X connect 17 0 1 1;
#X restore 57 86 pd lfo-button5;
#X obj 181 229 modules/mixer~;
#N canvas 1040 140 784 403 lfo-button5-12 0;
#X obj 24 19 inlet;
#X obj 24 83 spigot 0;
#X obj 24 147 spigot 0;
#X obj 24 211 spigot 0;
#X obj 24 275 spigot 0;
#X obj 217 83 spigot 0;
#X obj 217 147 spigot 0;
#X obj 217 211 spigot 0;
#X obj 217 275 spigot 0;
#X obj 77 179 r \$0-button7-off;
#X obj 77 243 r \$0-button8-off;
#X obj 270 115 r \$0-button10-off;
#X obj 270 179 r \$0-button11-off;
#X obj 217 307 outlet;
#X obj 270 51 r \$0-button9-off;
#X obj 77 115 r \$0-button6-off;
#X obj 77 51 r \$0-button5-on;
#X obj 270 243 r \$0-button12-on;
#X connect 0 0 1 0;
#X connect 1 0 2 0;
#X connect 2 0 3 0;
#X connect 3 0 4 0;
#X connect 4 0 5 0;
#X connect 5 0 6 0;
#X connect 6 0 7 0;
#X connect 7 0 8 0;
#X connect 8 0 13 0;
#X connect 9 0 3 1;
#X connect 10 0 4 1;
#X connect 11 0 6 1;
#X connect 12 0 7 1;
#X connect 14 0 5 1;
#X connect 15 0 2 1;
#X connect 16 0 1 1;
#X connect 17 0 8 1;
#X restore 290 54 pd lfo-button5-12;
#X obj 290 22 r \$0-knob4;
#N canvas 0 50 450 300 lfo-mixer-inputs 0;
#N canvas 1040 140 784 403 lfo-button5-12 0;
#X obj 24 19 inlet;
#X obj 24 83 spigot 0;
#X obj 24 147 spigot 0;
#X obj 24 211 spigot 0;
#X obj 24 275 spigot 0;
#X obj 217 83 spigot 0;
#X obj 217 147 spigot 0;
#X obj 217 211 spigot 0;
#X obj 217 275 spigot 0;
#X obj 77 179 r \$0-button7-off;
#X obj 77 243 r \$0-button8-off;
#X obj 270 115 r \$0-button10-off;
#X obj 270 179 r \$0-button11-off;
#X obj 217 307 outlet;
#X obj 270 51 r \$0-button9-off;
#X obj 77 115 r \$0-button6-off;
#X obj 77 51 r \$0-button5-on;
#X obj 270 243 r \$0-button12-on;
#X connect 0 0 1 0;
#X connect 1 0 2 0;
#X connect 2 0 3 0;
#X connect 3 0 4 0;
#X connect 4 0 5 0;
#X connect 5 0 6 0;
#X connect 6 0 7 0;
#X connect 7 0 8 0;
#X connect 8 0 13 0;
#X connect 9 0 3 1;
#X connect 10 0 4 1;
#X connect 11 0 6 1;
#X connect 12 0 7 1;
#X connect 14 0 5 1;
#X connect 15 0 2 1;
#X connect 16 0 1 1;
#X connect 17 0 8 1;
#X restore 12 44 pd lfo-button5-12;
#X obj 12 12 r \$0-knob1;
#N canvas 1040 140 784 403 lfo-button5-12 0;
#X obj 24 19 inlet;
#X obj 24 83 spigot 0;
#X obj 24 147 spigot 0;
#X obj 24 211 spigot 0;
#X obj 24 275 spigot 0;
#X obj 217 83 spigot 0;
#X obj 217 147 spigot 0;
#X obj 217 211 spigot 0;
#X obj 217 275 spigot 0;
#X obj 77 179 r \$0-button7-off;
#X obj 77 243 r \$0-button8-off;
#X obj 270 115 r \$0-button10-off;
#X obj 270 179 r \$0-button11-off;
#X obj 217 307 outlet;
#X obj 270 51 r \$0-button9-off;
#X obj 77 115 r \$0-button6-off;
#X obj 77 51 r \$0-button5-on;
#X obj 270 243 r \$0-button12-on;
#X connect 0 0 1 0;
#X connect 1 0 2 0;
#X connect 2 0 3 0;
#X connect 3 0 4 0;
#X connect 4 0 5 0;
#X connect 5 0 6 0;
#X connect 6 0 7 0;
#X connect 7 0 8 0;
#X connect 8 0 13 0;
#X connect 9 0 3 1;
#X connect 10 0 4 1;
#X connect 11 0 6 1;
#X connect 12 0 7 1;
#X connect 14 0 5 1;
#X connect 15 0 2 1;
#X connect 16 0 1 1;
#X connect 17 0 8 1;
#X restore 147 44 pd lfo-button5-12;
#X obj 147 12 r \$0-knob2;
#N canvas 1040 140 784 403 lfo-button5-12 0;
#X obj 24 19 inlet;
#X obj 24 83 spigot 0;
#X obj 24 147 spigot 0;
#X obj 24 211 spigot 0;
#X obj 24 275 spigot 0;
#X obj 217 83 spigot 0;
#X obj 217 147 spigot 0;
#X obj 217 211 spigot 0;
#X obj 217 275 spigot 0;
#X obj 77 179 r \$0-button7-off;
#X obj 77 243 r \$0-button8-off;
#X obj 270 115 r \$0-button10-off;
#X obj 270 179 r \$0-button11-off;
#X obj 217 307 outlet;
#X obj 270 51 r \$0-button9-off;
#X obj 77 115 r \$0-button6-off;
#X obj 77 51 r \$0-button5-on;
#X obj 270 243 r \$0-button12-on;
#X connect 0 0 1 0;
#X connect 1 0 2 0;
#X connect 2 0 3 0;
#X connect 3 0 4 0;
#X connect 4 0 5 0;
#X connect 5 0 6 0;
#X connect 6 0 7 0;
#X connect 7 0 8 0;
#X connect 8 0 13 0;
#X connect 9 0 3 1;
#X connect 10 0 4 1;
#X connect 11 0 6 1;
#X connect 12 0 7 1;
#X connect 14 0 5 1;
#X connect 15 0 2 1;
#X connect 16 0 1 1;
#X connect 17 0 8 1;
#X restore 282 44 pd lfo-button5-12;
#X obj 282 12 r \$0-knob3;
#X obj 147 76 outlet;
#X obj 12 140 outlet;
#X obj 282 76 outlet;
#X obj 22 76 loadbang;
#X msg 22 108 127;
#X connect 0 0 7 0;
#X connect 1 0 0 0;
#X connect 2 0 6 0;
#X connect 3 0 2 0;
#X connect 4 0 8 0;
#X connect 5 0 4 0;
#X connect 9 0 10 0;
#X connect 10 0 7 0;
#X restore 234 197 pd lfo-mixer-inputs;
#X obj 13 22 r~ \$0-env-out;
#X obj 136 531 r~ \$0-env-out;
#X connect 0 0 18 0;
#X connect 0 1 18 1;
#X connect 0 3 18 2;
#X connect 1 0 16 0;
#X connect 2 0 4 1;
#X connect 3 0 4 1;
#X connect 4 0 12 1;
#X connect 5 0 15 0;
#X connect 6 0 3 0;
#X connect 6 1 2 0;
#X connect 7 0 17 0;
#X connect 8 0 9 0;
#X connect 8 1 10 0;
#X connect 9 0 11 1;
#X connect 10 0 11 1;
#X connect 11 0 13 0;
#X connect 12 0 13 0;
#X connect 14 0 9 0;
#X connect 15 0 6 0;
#X connect 16 0 0 0;
#X connect 17 0 8 0;
#X connect 18 0 4 0;
#X connect 19 0 0 1;
#X connect 20 0 19 0;
#X connect 21 0 18 4;
#X connect 21 1 18 5;
#X connect 21 2 18 6;
#X connect 22 0 11 0;
#X connect 23 0 12 0;
#X coords 0 753 1 752 100 100 0;
#X restore 1262 322 pd osc-am-lfo;
#N canvas 181 192 540 784 noise-am-lfo 0;
#X obj 192 79 modules/lfo~;
#X obj 192 15 r \$0-knob1;
#X msg 267 429 1;
#X msg 235 429 0;
#X obj 190 461 modules/vca~;
#X obj 235 333 r \$0-knob1;
#X obj 235 397 sel 0;
#X obj 78 51 r \$0-knob1;
#X obj 78 115 sel 0;
#X msg 78 179 1;
#X msg 110 179 0;
#X obj 33 211 modules/vca~;
#X obj 146 556 modules/vca~;
#X obj 35 702 outlet~;
#X obj 88 147 loadbang;
#X obj 34 19 r~ \$0-noise-out;
#X obj 146 524 r~ \$0-noise-out;
#N canvas 610 69 784 403 lfo-button9 0;
#X obj 24 19 inlet;
#X obj 24 83 spigot 0;
#X obj 24 147 spigot 0;
#X obj 24 211 spigot 0;
#X obj 24 275 spigot 0;
#X obj 217 83 spigot 0;
#X obj 217 147 spigot 0;
#X obj 217 211 spigot 0;
#X obj 217 275 spigot 0;
#X obj 77 243 r \$0-button8-off;
#X obj 270 179 r \$0-button11-off;
#X obj 270 243 r \$0-button12-off;
#X obj 217 307 outlet;
#X obj 77 51 r \$0-button5-off;
#X obj 77 115 r \$0-button6-off;
#X obj 77 179 r \$0-button7-off;
#X obj 270 114 r \$0-button10-off;
#X obj 270 51 r \$0-button9-on;
#X connect 0 0 1 0;
#X connect 1 0 2 0;
#X connect 2 0 3 0;
#X connect 3 0 4 0;
#X connect 4 0 5 0;
#X connect 5 0 6 0;
#X connect 6 0 7 0;
#X connect 7 0 8 0;
#X connect 8 0 12 0;
#X connect 9 0 4 1;
#X connect 10 0 7 1;
#X connect 11 0 8 1;
#X connect 13 0 1 1;
#X connect 14 0 2 1;
#X connect 15 0 3 1;
#X connect 16 0 6 1;
#X connect 17 0 5 1;
#X restore 192 47 pd lfo-button9;
#N canvas 610 69 784 403 lfo-button9 0;
#X obj 24 19 inlet;
#X obj 24 83 spigot 0;
#X obj 24 147 spigot 0;
#X obj 24 211 spigot 0;
#X obj 24 275 spigot 0;
#X obj 217 83 spigot 0;
#X obj 217 147 spigot 0;
#X obj 217 211 spigot 0;
#X obj 217 275 spigot 0;
#X obj 77 243 r \$0-button8-off;
#X obj 270 179 r \$0-button11-off;
#X obj 270 243 r \$0-button12-off;
#X obj 217 307 outlet;
#X obj 77 51 r \$0-button5-off;
#X obj 77 115 r \$0-button6-off;
#X obj 77 179 r \$0-button7-off;
#X obj 270 114 r \$0-button10-off;
#X obj 270 51 r \$0-button9-on;
#X connect 0 0 1 0;
#X connect 1 0 2 0;
#X connect 2 0 3 0;
#X connect 3 0 4 0;
#X connect 4 0 5 0;
#X connect 5 0 6 0;
#X connect 6 0 7 0;
#X connect 7 0 8 0;
#X connect 8 0 12 0;
#X connect 9 0 4 1;
#X connect 10 0 7 1;
#X connect 11 0 8 1;
#X connect 13 0 1 1;
#X connect 14 0 2 1;
#X connect 15 0 3 1;
#X connect 16 0 6 1;
#X connect 17 0 5 1;
#X restore 235 365 pd lfo-button9;
#N canvas 610 69 784 403 lfo-button9 0;
#X obj 24 19 inlet;
#X obj 24 83 spigot 0;
#X obj 24 147 spigot 0;
#X obj 24 211 spigot 0;
#X obj 24 275 spigot 0;
#X obj 217 83 spigot 0;
#X obj 217 147 spigot 0;
#X obj 217 211 spigot 0;
#X obj 217 275 spigot 0;
#X obj 77 243 r \$0-button8-off;
#X obj 270 179 r \$0-button11-off;
#X obj 270 243 r \$0-button12-off;
#X obj 217 307 outlet;
#X obj 77 51 r \$0-button5-off;
#X obj 77 115 r \$0-button6-off;
#X obj 77 179 r \$0-button7-off;
#X obj 270 114 r \$0-button10-off;
#X obj 270 51 r \$0-button9-on;
#X connect 0 0 1 0;
#X connect 1 0 2 0;
#X connect 2 0 3 0;
#X connect 3 0 4 0;
#X connect 4 0 5 0;
#X connect 5 0 6 0;
#X connect 6 0 7 0;
#X connect 7 0 8 0;
#X connect 8 0 12 0;
#X connect 9 0 4 1;
#X connect 10 0 7 1;
#X connect 11 0 8 1;
#X connect 13 0 1 1;
#X connect 14 0 2 1;
#X connect 15 0 3 1;
#X connect 16 0 6 1;
#X connect 17 0 5 1;
#X restore 78 83 pd lfo-button9;
#X obj 305 15 r \$0-knob4;
#N canvas 610 69 784 403 lfo-button9-12 0;
#X obj 24 19 inlet;
#X obj 24 83 spigot 0;
#X obj 24 147 spigot 0;
#X obj 24 211 spigot 0;
#X obj 24 275 spigot 0;
#X obj 217 83 spigot 0;
#X obj 217 147 spigot 0;
#X obj 217 211 spigot 0;
#X obj 217 275 spigot 0;
#X obj 77 243 r \$0-button8-off;
#X obj 270 179 r \$0-button11-off;
#X obj 217 307 outlet;
#X obj 77 51 r \$0-button5-off;
#X obj 77 115 r \$0-button6-off;
#X obj 77 179 r \$0-button7-off;
#X obj 270 114 r \$0-button10-off;
#X obj 270 51 r \$0-button9-on;
#X obj 270 243 r \$0-button12-on;
#X connect 0 0 1 0;
#X connect 1 0 2 0;
#X connect 2 0 3 0;
#X connect 3 0 4 0;
#X connect 4 0 5 0;
#X connect 5 0 6 0;
#X connect 6 0 7 0;
#X connect 7 0 8 0;
#X connect 8 0 11 0;
#X connect 9 0 4 1;
#X connect 10 0 7 1;
#X connect 12 0 1 1;
#X connect 13 0 2 1;
#X connect 14 0 3 1;
#X connect 15 0 6 1;
#X connect 16 0 5 1;
#X connect 17 0 8 1;
#X restore 305 47 pd lfo-button9-12;
#X obj 191 222 modules/mixer~;
#N canvas 18 52 450 300 lfo-mixer-inputs 0;
#X obj 12 12 r \$0-knob1;
#X obj 147 12 r \$0-knob2;
#X obj 282 12 r \$0-knob3;
#X obj 147 76 outlet;
#X obj 12 140 outlet;
#X obj 282 76 outlet;
#X obj 22 76 loadbang;
#X msg 22 108 127;
#N canvas 610 69 784 403 lfo-button9-12 0;
#X obj 24 19 inlet;
#X obj 24 83 spigot 0;
#X obj 24 147 spigot 0;
#X obj 24 211 spigot 0;
#X obj 24 275 spigot 0;
#X obj 217 83 spigot 0;
#X obj 217 147 spigot 0;
#X obj 217 211 spigot 0;
#X obj 217 275 spigot 0;
#X obj 77 243 r \$0-button8-off;
#X obj 270 179 r \$0-button11-off;
#X obj 217 307 outlet;
#X obj 77 51 r \$0-button5-off;
#X obj 77 115 r \$0-button6-off;
#X obj 77 179 r \$0-button7-off;
#X obj 270 114 r \$0-button10-off;
#X obj 270 51 r \$0-button9-on;
#X obj 270 243 r \$0-button12-on;
#X connect 0 0 1 0;
#X connect 1 0 2 0;
#X connect 2 0 3 0;
#X connect 3 0 4 0;
#X connect 4 0 5 0;
#X connect 5 0 6 0;
#X connect 6 0 7 0;
#X connect 7 0 8 0;
#X connect 8 0 11 0;
#X connect 9 0 4 1;
#X connect 10 0 7 1;
#X connect 12 0 1 1;
#X connect 13 0 2 1;
#X connect 14 0 3 1;
#X connect 15 0 6 1;
#X connect 16 0 5 1;
#X connect 17 0 8 1;
#X restore 282 44 pd lfo-button9-12;
#N canvas 610 69 784 403 lfo-button9-12 0;
#X obj 24 19 inlet;
#X obj 24 83 spigot 0;
#X obj 24 147 spigot 0;
#X obj 24 211 spigot 0;
#X obj 24 275 spigot 0;
#X obj 217 83 spigot 0;
#X obj 217 147 spigot 0;
#X obj 217 211 spigot 0;
#X obj 217 275 spigot 0;
#X obj 77 243 r \$0-button8-off;
#X obj 270 179 r \$0-button11-off;
#X obj 217 307 outlet;
#X obj 77 51 r \$0-button5-off;
#X obj 77 115 r \$0-button6-off;
#X obj 77 179 r \$0-button7-off;
#X obj 270 114 r \$0-button10-off;
#X obj 270 51 r \$0-button9-on;
#X obj 270 243 r \$0-button12-on;
#X connect 0 0 1 0;
#X connect 1 0 2 0;
#X connect 2 0 3 0;
#X connect 3 0 4 0;
#X connect 4 0 5 0;
#X connect 5 0 6 0;
#X connect 6 0 7 0;
#X connect 7 0 8 0;
#X connect 8 0 11 0;
#X connect 9 0 4 1;
#X connect 10 0 7 1;
#X connect 12 0 1 1;
#X connect 13 0 2 1;
#X connect 14 0 3 1;
#X connect 15 0 6 1;
#X connect 16 0 5 1;
#X connect 17 0 8 1;
#X restore 147 44 pd lfo-button9-12;
#N canvas 610 69 784 403 lfo-button9-12 0;
#X obj 24 19 inlet;
#X obj 24 83 spigot 0;
#X obj 24 147 spigot 0;
#X obj 24 211 spigot 0;
#X obj 24 275 spigot 0;
#X obj 217 83 spigot 0;
#X obj 217 147 spigot 0;
#X obj 217 211 spigot 0;
#X obj 217 275 spigot 0;
#X obj 77 243 r \$0-button8-off;
#X obj 270 179 r \$0-button11-off;
#X obj 217 307 outlet;
#X obj 77 51 r \$0-button5-off;
#X obj 77 115 r \$0-button6-off;
#X obj 77 179 r \$0-button7-off;
#X obj 270 114 r \$0-button10-off;
#X obj 270 51 r \$0-button9-on;
#X obj 270 243 r \$0-button12-on;
#X connect 0 0 1 0;
#X connect 1 0 2 0;
#X connect 2 0 3 0;
#X connect 3 0 4 0;
#X connect 4 0 5 0;
#X connect 5 0 6 0;
#X connect 6 0 7 0;
#X connect 7 0 8 0;
#X connect 8 0 11 0;
#X connect 9 0 4 1;
#X connect 10 0 7 1;
#X connect 12 0 1 1;
#X connect 13 0 2 1;
#X connect 14 0 3 1;
#X connect 15 0 6 1;
#X connect 16 0 5 1;
#X connect 17 0 8 1;
#X restore 12 44 pd lfo-button9-12;
#X connect 0 0 10 0;
#X connect 1 0 9 0;
#X connect 2 0 8 0;
#X connect 6 0 7 0;
#X connect 7 0 4 0;
#X connect 8 0 5 0;
#X connect 9 0 3 0;
#X connect 10 0 4 0;
#X restore 244 190 pd lfo-mixer-inputs;
#X connect 0 0 22 0;
#X connect 0 1 22 1;
#X connect 0 2 22 2;
#X connect 1 0 17 0;
#X connect 2 0 4 1;
#X connect 3 0 4 1;
#X connect 4 0 12 1;
#X connect 5 0 18 0;
#X connect 6 0 3 0;
#X connect 6 1 2 0;
#X connect 7 0 19 0;
#X connect 8 0 9 0;
#X connect 8 1 10 0;
#X connect 9 0 11 1;
#X connect 10 0 11 1;
#X connect 11 0 13 0;
#X connect 12 0 13 0;
#X connect 14 0 9 0;
#X connect 15 0 11 0;
#X connect 16 0 12 0;
#X connect 17 0 0 0;
#X connect 18 0 6 0;
#X connect 19 0 8 0;
#X connect 20 0 21 0;
#X connect 21 0 0 1;
#X connect 22 0 4 0;
#X connect 23 0 22 4;
#X connect 23 1 22 5;
#X connect 23 2 22 6;
#X coords 0 784 1 783 100 100 0;
#X restore 1368 322 pd noise-am-lfo;
#X obj 150 393 modules/envelope~;
#X obj 12 18 r \$0-note;
#X obj 150 361 r \$0-gate;
#X obj 123 60 modules/oscillator~;
#X obj 123 171 modules/mixer~;
#X obj 12 282 modules/mixer~;
#X obj 105 504 modules/vca~;
#N canvas 261 167 680 300 amp-env-inputs 0;
#X obj 110 12 r \$0-knob1;
#X obj 110 140 outlet;
#X obj 603 12 loadbang;
#X obj 603 44 s \$0-loadbang;
#X obj 120 76 r \$0-loadbang;
#X obj 236 140 outlet;
#X obj 246 76 r \$0-loadbang;
#X obj 352 140 outlet;
#X obj 362 76 r \$0-loadbang;
#X obj 236 12 r \$0-knob2;
#X obj 352 12 r \$0-knob3;
#X obj 468 140 outlet;
#X obj 478 76 r \$0-loadbang;
#X obj 468 12 r \$0-knob4;
#X msg 120 108 1;
#X msg 246 108 0;
#X msg 362 108 127;
#X msg 478 108 1;
#N canvas 452 52 784 403 button2 0;
#X obj 24 83 spigot 0;
#X obj 24 147 spigot 0;
#X obj 24 211 spigot 0;
#X obj 24 275 spigot 0;
#X obj 77 179 r \$0-button3-off;
#X obj 77 243 r \$0-button4-off;
#X obj 24 19 inlet;
#X obj 217 83 spigot 0;
#X obj 217 147 spigot 0;
#X obj 217 211 spigot 0;
#X obj 217 275 spigot 0;
#X obj 410 83 spigot 0;
#X obj 410 147 spigot 0;
#X obj 410 211 spigot 0;
#X obj 410 275 spigot 0;
#X obj 270 115 r \$0-button6-off;
#X obj 270 179 r \$0-button7-off;
#X obj 270 243 r \$0-button8-off;
#X obj 463 115 r \$0-button10-off;
#X obj 463 179 r \$0-button11-off;
#X obj 463 243 r \$0-button12-off;
#X obj 410 307 outlet;
#X obj 270 51 r \$0-button5-off;
#X obj 463 51 r \$0-button9-off;
#X obj 77 51 r \$0-button1-off;
#X obj 77 115 r \$0-button2-on;
#X connect 0 0 1 0;
#X connect 1 0 2 0;
#X connect 2 0 3 0;
#X connect 3 0 7 0;
#X connect 4 0 2 1;
#X connect 5 0 3 1;
#X connect 6 0 0 0;
#X connect 7 0 8 0;
#X connect 8 0 9 0;
#X connect 9 0 10 0;
#X connect 10 0 11 0;
#X connect 11 0 12 0;
#X connect 12 0 13 0;
#X connect 13 0 14 0;
#X connect 14 0 21 0;
#X connect 15 0 8 1;
#X connect 16 0 9 1;
#X connect 17 0 10 1;
#X connect 18 0 12 1;
#X connect 19 0 13 1;
#X connect 20 0 14 1;
#X connect 22 0 7 1;
#X connect 23 0 11 1;
#X connect 24 0 0 1;
#X connect 25 0 1 1;
#X restore 110 44 pd button2;
#N canvas 452 52 784 403 button2 0;
#X obj 24 83 spigot 0;
#X obj 24 147 spigot 0;
#X obj 24 211 spigot 0;
#X obj 24 275 spigot 0;
#X obj 77 179 r \$0-button3-off;
#X obj 77 243 r \$0-button4-off;
#X obj 24 19 inlet;
#X obj 217 83 spigot 0;
#X obj 217 147 spigot 0;
#X obj 217 211 spigot 0;
#X obj 217 275 spigot 0;
#X obj 410 83 spigot 0;
#X obj 410 147 spigot 0;
#X obj 410 211 spigot 0;
#X obj 410 275 spigot 0;
#X obj 270 115 r \$0-button6-off;
#X obj 270 179 r \$0-button7-off;
#X obj 270 243 r \$0-button8-off;
#X obj 463 115 r \$0-button10-off;
#X obj 463 179 r \$0-button11-off;
#X obj 463 243 r \$0-button12-off;
#X obj 410 307 outlet;
#X obj 270 51 r \$0-button5-off;
#X obj 463 51 r \$0-button9-off;
#X obj 77 51 r \$0-button1-off;
#X obj 77 115 r \$0-button2-on;
#X connect 0 0 1 0;
#X connect 1 0 2 0;
#X connect 2 0 3 0;
#X connect 3 0 7 0;
#X connect 4 0 2 1;
#X connect 5 0 3 1;
#X connect 6 0 0 0;
#X connect 7 0 8 0;
#X connect 8 0 9 0;
#X connect 9 0 10 0;
#X connect 10 0 11 0;
#X connect 11 0 12 0;
#X connect 12 0 13 0;
#X connect 13 0 14 0;
#X connect 14 0 21 0;
#X connect 15 0 8 1;
#X connect 16 0 9 1;
#X connect 17 0 10 1;
#X connect 18 0 12 1;
#X connect 19 0 13 1;
#X connect 20 0 14 1;
#X connect 22 0 7 1;
#X connect 23 0 11 1;
#X connect 24 0 0 1;
#X connect 25 0 1 1;
#X restore 236 44 pd button2;
#N canvas 452 52 784 403 button2 0;
#X obj 24 83 spigot 0;
#X obj 24 147 spigot 0;
#X obj 24 211 spigot 0;
#X obj 24 275 spigot 0;
#X obj 77 179 r \$0-button3-off;
#X obj 77 243 r \$0-button4-off;
#X obj 24 19 inlet;
#X obj 217 83 spigot 0;
#X obj 217 147 spigot 0;
#X obj 217 211 spigot 0;
#X obj 217 275 spigot 0;
#X obj 410 83 spigot 0;
#X obj 410 147 spigot 0;
#X obj 410 211 spigot 0;
#X obj 410 275 spigot 0;
#X obj 270 115 r \$0-button6-off;
#X obj 270 179 r \$0-button7-off;
#X obj 270 243 r \$0-button8-off;
#X obj 463 115 r \$0-button10-off;
#X obj 463 179 r \$0-button11-off;
#X obj 463 243 r \$0-button12-off;
#X obj 410 307 outlet;
#X obj 270 51 r \$0-button5-off;
#X obj 463 51 r \$0-button9-off;
#X obj 77 51 r \$0-button1-off;
#X obj 77 115 r \$0-button2-on;
#X connect 0 0 1 0;
#X connect 1 0 2 0;
#X connect 2 0 3 0;
#X connect 3 0 7 0;
#X connect 4 0 2 1;
#X connect 5 0 3 1;
#X connect 6 0 0 0;
#X connect 7 0 8 0;
#X connect 8 0 9 0;
#X connect 9 0 10 0;
#X connect 10 0 11 0;
#X connect 11 0 12 0;
#X connect 12 0 13 0;
#X connect 13 0 14 0;
#X connect 14 0 21 0;
#X connect 15 0 8 1;
#X connect 16 0 9 1;
#X connect 17 0 10 1;
#X connect 18 0 12 1;
#X connect 19 0 13 1;
#X connect 20 0 14 1;
#X connect 22 0 7 1;
#X connect 23 0 11 1;
#X connect 24 0 0 1;
#X connect 25 0 1 1;
#X restore 352 44 pd button2;
#N canvas 452 52 784 403 button2 0;
#X obj 24 83 spigot 0;
#X obj 24 147 spigot 0;
#X obj 24 211 spigot 0;
#X obj 24 275 spigot 0;
#X obj 77 179 r \$0-button3-off;
#X obj 77 243 r \$0-button4-off;
#X obj 24 19 inlet;
#X obj 217 83 spigot 0;
#X obj 217 147 spigot 0;
#X obj 217 211 spigot 0;
#X obj 217 275 spigot 0;
#X obj 410 83 spigot 0;
#X obj 410 147 spigot 0;
#X obj 410 211 spigot 0;
#X obj 410 275 spigot 0;
#X obj 270 115 r \$0-button6-off;
#X obj 270 179 r \$0-button7-off;
#X obj 270 243 r \$0-button8-off;
#X obj 463 115 r \$0-button10-off;
#X obj 463 179 r \$0-button11-off;
#X obj 463 243 r \$0-button12-off;
#X obj 410 307 outlet;
#X obj 270 51 r \$0-button5-off;
#X obj 463 51 r \$0-button9-off;
#X obj 77 51 r \$0-button1-off;
#X obj 77 115 r \$0-button2-on;
#X connect 0 0 1 0;
#X connect 1 0 2 0;
#X connect 2 0 3 0;
#X connect 3 0 7 0;
#X connect 4 0 2 1;
#X connect 5 0 3 1;
#X connect 6 0 0 0;
#X connect 7 0 8 0;
#X connect 8 0 9 0;
#X connect 9 0 10 0;
#X connect 10 0 11 0;
#X connect 11 0 12 0;
#X connect 12 0 13 0;
#X connect 13 0 14 0;
#X connect 14 0 21 0;
#X connect 15 0 8 1;
#X connect 16 0 9 1;
#X connect 17 0 10 1;
#X connect 18 0 12 1;
#X connect 19 0 13 1;
#X connect 20 0 14 1;
#X connect 22 0 7 1;
#X connect 23 0 11 1;
#X connect 24 0 0 1;
#X connect 25 0 1 1;
#X restore 468 44 pd button2;
#X obj 12 12 r \$0-gate;
#X obj 12 140 outlet;
#X connect 0 0 18 0;
#X connect 2 0 3 0;
#X connect 4 0 14 0;
#X connect 6 0 15 0;
#X connect 8 0 16 0;
#X connect 9 0 19 0;
#X connect 10 0 20 0;
#X connect 12 0 17 0;
#X connect 13 0 21 0;
#X connect 14 0 1 0;
#X connect 15 0 5 0;
#X connect 16 0 7 0;
#X connect 17 0 11 0;
#X connect 18 0 1 0;
#X connect 19 0 5 0;
#X connect 20 0 7 0;
#X connect 21 0 11 0;
#X connect 22 0 23 0;
#X restore 1273 278 pd amp-env-inputs;
#N canvas 45 444 941 488 filter-inputs 0;
#X obj 97 12 r \$0-knob2;
#X obj 12 12 r \$0-knob1;
#X obj 12 76 outlet;
#X obj 97 76 outlet;
#N canvas 452 52 784 403 button3 0;
#X obj 24 83 spigot 0;
#X obj 24 147 spigot 0;
#X obj 24 211 spigot 0;
#X obj 24 275 spigot 0;
#X obj 77 115 r \$0-button2-off;
#X obj 77 243 r \$0-button4-off;
#X obj 24 19 inlet;
#X obj 217 83 spigot 0;
#X obj 217 147 spigot 0;
#X obj 217 211 spigot 0;
#X obj 217 275 spigot 0;
#X obj 410 83 spigot 0;
#X obj 410 147 spigot 0;
#X obj 410 211 spigot 0;
#X obj 410 275 spigot 0;
#X obj 270 115 r \$0-button6-off;
#X obj 270 179 r \$0-button7-off;
#X obj 270 243 r \$0-button8-off;
#X obj 463 115 r \$0-button10-off;
#X obj 463 179 r \$0-button11-off;
#X obj 463 243 r \$0-button12-off;
#X obj 410 307 outlet;
#X obj 270 51 r \$0-button5-off;
#X obj 463 51 r \$0-button9-off;
#X obj 77 51 r \$0-button1-off;
#X obj 77 179 r \$0-button3-on;
#X connect 0 0 1 0;
#X connect 1 0 2 0;
#X connect 2 0 3 0;
#X connect 3 0 7 0;
#X connect 4 0 1 1;
#X connect 5 0 3 1;
#X connect 6 0 0 0;
#X connect 7 0 8 0;
#X connect 8 0 9 0;
#X connect 9 0 10 0;
#X connect 10 0 11 0;
#X connect 11 0 12 0;
#X connect 12 0 13 0;
#X connect 13 0 14 0;
#X connect 14 0 21 0;
#X connect 15 0 8 1;
#X connect 16 0 9 1;
#X connect 17 0 10 1;
#X connect 18 0 12 1;
#X connect 19 0 13 1;
#X connect 20 0 14 1;
#X connect 22 0 7 1;
#X connect 23 0 11 1;
#X connect 24 0 0 1;
#X connect 25 0 2 1;
#X restore 12 44 pd button3;
#N canvas 452 52 784 403 button3 0;
#X obj 24 83 spigot 0;
#X obj 24 147 spigot 0;
#X obj 24 211 spigot 0;
#X obj 24 275 spigot 0;
#X obj 77 115 r \$0-button2-off;
#X obj 77 243 r \$0-button4-off;
#X obj 24 19 inlet;
#X obj 217 83 spigot 0;
#X obj 217 147 spigot 0;
#X obj 217 211 spigot 0;
#X obj 217 275 spigot 0;
#X obj 410 83 spigot 0;
#X obj 410 147 spigot 0;
#X obj 410 211 spigot 0;
#X obj 410 275 spigot 0;
#X obj 270 115 r \$0-button6-off;
#X obj 270 179 r \$0-button7-off;
#X obj 270 243 r \$0-button8-off;
#X obj 463 115 r \$0-button10-off;
#X obj 463 179 r \$0-button11-off;
#X obj 463 243 r \$0-button12-off;
#X obj 410 307 outlet;
#X obj 270 51 r \$0-button5-off;
#X obj 463 51 r \$0-button9-off;
#X obj 77 51 r \$0-button1-off;
#X obj 77 179 r \$0-button3-on;
#X connect 0 0 1 0;
#X connect 1 0 2 0;
#X connect 2 0 3 0;
#X connect 3 0 7 0;
#X connect 4 0 1 1;
#X connect 5 0 3 1;
#X connect 6 0 0 0;
#X connect 7 0 8 0;
#X connect 8 0 9 0;
#X connect 9 0 10 0;
#X connect 10 0 11 0;
#X connect 11 0 12 0;
#X connect 12 0 13 0;
#X connect 13 0 14 0;
#X connect 14 0 21 0;
#X connect 15 0 8 1;
#X connect 16 0 9 1;
#X connect 17 0 10 1;
#X connect 18 0 12 1;
#X connect 19 0 13 1;
#X connect 20 0 14 1;
#X connect 22 0 7 1;
#X connect 23 0 11 1;
#X connect 24 0 0 1;
#X connect 25 0 2 1;
#X restore 97 44 pd button3;
#N canvas 129 231 982 562 filter-lfo 0;
#X obj 13 76 modules/lfo~;
#X obj 12 458 *~;
#X obj 62 426 mtof;
#X msg 30 426 0;
#X obj 30 394 sel 0;
#X obj 30 330 r \$0-wheel;
#X obj 13 12 r \$0-knob1;
#X obj 12 490 outlet~;
#N canvas 560 179 784 403 lfo-button7 0;
#X obj 24 19 inlet;
#X obj 24 83 spigot 0;
#X obj 24 147 spigot 0;
#X obj 24 211 spigot 0;
#X obj 24 275 spigot 0;
#X obj 217 83 spigot 0;
#X obj 217 147 spigot 0;
#X obj 217 211 spigot 0;
#X obj 217 275 spigot 0;
#X obj 77 243 r \$0-button8-off;
#X obj 270 115 r \$0-button10-off;
#X obj 270 179 r \$0-button11-off;
#X obj 270 243 r \$0-button12-off;
#X obj 217 307 outlet;
#X obj 77 51 r \$0-button5-off;
#X obj 270 51 r \$0-button9-off;
#X obj 77 115 r \$0-button6-off;
#X obj 77 179 r \$0-button7-on;
#X connect 0 0 1 0;
#X connect 1 0 2 0;
#X connect 2 0 3 0;
#X connect 3 0 4 0;
#X connect 4 0 5 0;
#X connect 5 0 6 0;
#X connect 6 0 7 0;
#X connect 7 0 8 0;
#X connect 8 0 13 0;
#X connect 9 0 4 1;
#X connect 10 0 6 1;
#X connect 11 0 7 1;
#X connect 12 0 8 1;
#X connect 14 0 1 1;
#X connect 15 0 5 1;
#X connect 16 0 2 1;
#X connect 17 0 3 1;
#X restore 13 44 pd lfo-button7;
#N canvas 560 179 784 403 lfo-button7 0;
#X obj 24 19 inlet;
#X obj 24 83 spigot 0;
#X obj 24 147 spigot 0;
#X obj 24 211 spigot 0;
#X obj 24 275 spigot 0;
#X obj 217 83 spigot 0;
#X obj 217 147 spigot 0;
#X obj 217 211 spigot 0;
#X obj 217 275 spigot 0;
#X obj 77 243 r \$0-button8-off;
#X obj 270 115 r \$0-button10-off;
#X obj 270 179 r \$0-button11-off;
#X obj 270 243 r \$0-button12-off;
#X obj 217 307 outlet;
#X obj 77 51 r \$0-button5-off;
#X obj 270 51 r \$0-button9-off;
#X obj 77 115 r \$0-button6-off;
#X obj 77 179 r \$0-button7-on;
#X connect 0 0 1 0;
#X connect 1 0 2 0;
#X connect 2 0 3 0;
#X connect 3 0 4 0;
#X connect 4 0 5 0;
#X connect 5 0 6 0;
#X connect 6 0 7 0;
#X connect 7 0 8 0;
#X connect 8 0 13 0;
#X connect 9 0 4 1;
#X connect 10 0 6 1;
#X connect 11 0 7 1;
#X connect 12 0 8 1;
#X connect 14 0 1 1;
#X connect 15 0 5 1;
#X connect 16 0 2 1;
#X connect 17 0 3 1;
#X restore 30 362 pd lfo-button7;
#X obj 13 219 modules/mixer~;
#N canvas 170 128 450 300 lfo-mixer-inputs 0;
#X obj 12 12 r \$0-knob1;
#X obj 147 12 r \$0-knob2;
#X obj 282 12 r \$0-knob3;
#X obj 147 76 outlet;
#X obj 12 140 outlet;
#X obj 282 76 outlet;
#X obj 22 76 loadbang;
#X msg 22 108 127;
#N canvas 452 52 784 403 lfo-button7-12 0;
#X obj 24 19 inlet;
#X obj 24 83 spigot 0;
#X obj 24 147 spigot 0;
#X obj 24 211 spigot 0;
#X obj 24 275 spigot 0;
#X obj 217 83 spigot 0;
#X obj 217 147 spigot 0;
#X obj 217 211 spigot 0;
#X obj 217 275 spigot 0;
#X obj 77 243 r \$0-button8-off;
#X obj 270 115 r \$0-button10-off;
#X obj 270 179 r \$0-button11-off;
#X obj 217 307 outlet;
#X obj 77 51 r \$0-button5-off;
#X obj 270 51 r \$0-button9-off;
#X obj 270 243 r \$0-button12-on;
#X obj 77 115 r \$0-button6-off;
#X obj 77 179 r \$0-button7-on;
#X connect 0 0 1 0;
#X connect 1 0 2 0;
#X connect 2 0 3 0;
#X connect 3 0 4 0;
#X connect 4 0 5 0;
#X connect 5 0 6 0;
#X connect 6 0 7 0;
#X connect 7 0 8 0;
#X connect 8 0 12 0;
#X connect 9 0 4 1;
#X connect 10 0 6 1;
#X connect 11 0 7 1;
#X connect 13 0 1 1;
#X connect 14 0 5 1;
#X connect 15 0 8 1;
#X connect 16 0 2 1;
#X connect 17 0 3 1;
#X restore 147 44 pd lfo-button7-12;
#N canvas 452 52 784 403 lfo-button7-12 0;
#X obj 24 19 inlet;
#X obj 24 83 spigot 0;
#X obj 24 147 spigot 0;
#X obj 24 211 spigot 0;
#X obj 24 275 spigot 0;
#X obj 217 83 spigot 0;
#X obj 217 147 spigot 0;
#X obj 217 211 spigot 0;
#X obj 217 275 spigot 0;
#X obj 77 243 r \$0-button8-off;
#X obj 270 115 r \$0-button10-off;
#X obj 270 179 r \$0-button11-off;
#X obj 217 307 outlet;
#X obj 77 51 r \$0-button5-off;
#X obj 270 51 r \$0-button9-off;
#X obj 270 243 r \$0-button12-on;
#X obj 77 115 r \$0-button6-off;
#X obj 77 179 r \$0-button7-on;
#X connect 0 0 1 0;
#X connect 1 0 2 0;
#X connect 2 0 3 0;
#X connect 3 0 4 0;
#X connect 4 0 5 0;
#X connect 5 0 6 0;
#X connect 6 0 7 0;
#X connect 7 0 8 0;
#X connect 8 0 12 0;
#X connect 9 0 4 1;
#X connect 10 0 6 1;
#X connect 11 0 7 1;
#X connect 13 0 1 1;
#X connect 14 0 5 1;
#X connect 15 0 8 1;
#X connect 16 0 2 1;
#X connect 17 0 3 1;
#X restore 282 44 pd lfo-button7-12;
#N canvas 452 52 784 403 lfo-button7-12 0;
#X obj 24 19 inlet;
#X obj 24 83 spigot 0;
#X obj 24 147 spigot 0;
#X obj 24 211 spigot 0;
#X obj 24 275 spigot 0;
#X obj 217 83 spigot 0;
#X obj 217 147 spigot 0;
#X obj 217 211 spigot 0;
#X obj 217 275 spigot 0;
#X obj 77 243 r \$0-button8-off;
#X obj 270 115 r \$0-button10-off;
#X obj 270 179 r \$0-button11-off;
#X obj 217 307 outlet;
#X obj 77 51 r \$0-button5-off;
#X obj 270 51 r \$0-button9-off;
#X obj 270 243 r \$0-button12-on;
#X obj 77 115 r \$0-button6-off;
#X obj 77 179 r \$0-button7-on;
#X connect 0 0 1 0;
#X connect 1 0 2 0;
#X connect 2 0 3 0;
#X connect 3 0 4 0;
#X connect 4 0 5 0;
#X connect 5 0 6 0;
#X connect 6 0 7 0;
#X connect 7 0 8 0;
#X connect 8 0 12 0;
#X connect 9 0 4 1;
#X connect 10 0 6 1;
#X connect 11 0 7 1;
#X connect 13 0 1 1;
#X connect 14 0 5 1;
#X connect 15 0 8 1;
#X connect 16 0 2 1;
#X connect 17 0 3 1;
#X restore 12 44 pd lfo-button7-12;
#X connect 0 0 10 0;
#X connect 1 0 8 0;
#X connect 2 0 9 0;
#X connect 6 0 7 0;
#X connect 7 0 4 0;
#X connect 8 0 3 0;
#X connect 9 0 5 0;
#X connect 10 0 4 0;
#X restore 66 187 pd lfo-mixer-inputs;
#X obj 126 12 r \$0-knob4;
#N canvas 452 52 784 403 lfo-button7-12 0;
#X obj 24 19 inlet;
#X obj 24 83 spigot 0;
#X obj 24 147 spigot 0;
#X obj 24 211 spigot 0;
#X obj 24 275 spigot 0;
#X obj 217 83 spigot 0;
#X obj 217 147 spigot 0;
#X obj 217 211 spigot 0;
#X obj 217 275 spigot 0;
#X obj 77 243 r \$0-button8-off;
#X obj 270 115 r \$0-button10-off;
#X obj 270 179 r \$0-button11-off;
#X obj 217 307 outlet;
#X obj 77 51 r \$0-button5-off;
#X obj 270 51 r \$0-button9-off;
#X obj 270 243 r \$0-button12-on;
#X obj 77 115 r \$0-button6-off;
#X obj 77 179 r \$0-button7-on;
#X connect 0 0 1 0;
#X connect 1 0 2 0;
#X connect 2 0 3 0;
#X connect 3 0 4 0;
#X connect 4 0 5 0;
#X connect 5 0 6 0;
#X connect 6 0 7 0;
#X connect 7 0 8 0;
#X connect 8 0 12 0;
#X connect 9 0 4 1;
#X connect 10 0 6 1;
#X connect 11 0 7 1;
#X connect 13 0 1 1;
#X connect 14 0 5 1;
#X connect 15 0 8 1;
#X connect 16 0 2 1;
#X connect 17 0 3 1;
#X restore 126 44 pd lfo-button7-12;
#X connect 0 0 10 0;
#X connect 0 1 10 1;
#X connect 0 2 10 2;
#X connect 1 0 7 0;
#X connect 2 0 1 1;
#X connect 3 0 1 1;
#X connect 4 0 3 0;
#X connect 4 1 2 0;
#X connect 5 0 9 0;
#X connect 6 0 8 0;
#X connect 8 0 0 0;
#X connect 9 0 4 0;
#X connect 10 0 1 0;
#X connect 11 0 10 4;
#X connect 11 1 10 5;
#X connect 11 2 10 6;
#X connect 12 0 13 0;
#X connect 13 0 0 1;
#X restore 182 44 pd filter-lfo;
#X obj 181 76 outlet~;
#X obj 288 44 modules/envelope~;
#N canvas 93 317 982 539 filter-env-inputs 0;
#X obj 110 12 r \$0-knob1;
#X obj 110 140 outlet;
#X obj 603 12 loadbang;
#X obj 603 44 s \$0-loadbang;
#X obj 120 76 r \$0-loadbang;
#X obj 236 140 outlet;
#X obj 246 76 r \$0-loadbang;
#X obj 352 140 outlet;
#X obj 362 76 r \$0-loadbang;
#X obj 236 12 r \$0-knob2;
#X obj 352 12 r \$0-knob3;
#X obj 468 140 outlet;
#X obj 478 76 r \$0-loadbang;
#X obj 468 12 r \$0-knob4;
#X msg 120 108 1;
#X msg 246 108 0;
#X msg 362 108 127;
#X msg 478 108 1;
#N canvas 452 52 784 403 button2-3 0;
#X obj 24 83 spigot 0;
#X obj 24 147 spigot 0;
#X obj 24 211 spigot 0;
#X obj 24 275 spigot 0;
#X obj 77 243 r \$0-button4-off;
#X obj 24 19 inlet;
#X obj 217 83 spigot 0;
#X obj 217 147 spigot 0;
#X obj 217 211 spigot 0;
#X obj 217 275 spigot 0;
#X obj 410 83 spigot 0;
#X obj 410 147 spigot 0;
#X obj 410 211 spigot 0;
#X obj 410 275 spigot 0;
#X obj 270 115 r \$0-button6-off;
#X obj 270 179 r \$0-button7-off;
#X obj 270 243 r \$0-button8-off;
#X obj 463 115 r \$0-button10-off;
#X obj 463 179 r \$0-button11-off;
#X obj 463 243 r \$0-button12-off;
#X obj 410 307 outlet;
#X obj 270 51 r \$0-button5-off;
#X obj 463 51 r \$0-button9-off;
#X obj 77 51 r \$0-button1-off;
#X obj 77 115 r \$0-button2-on;
#X obj 77 179 r \$0-button3-on;
#X connect 0 0 1 0;
#X connect 1 0 2 0;
#X connect 2 0 3 0;
#X connect 3 0 6 0;
#X connect 4 0 3 1;
#X connect 5 0 0 0;
#X connect 6 0 7 0;
#X connect 7 0 8 0;
#X connect 8 0 9 0;
#X connect 9 0 10 0;
#X connect 10 0 11 0;
#X connect 11 0 12 0;
#X connect 12 0 13 0;
#X connect 13 0 20 0;
#X connect 14 0 7 1;
#X connect 15 0 8 1;
#X connect 16 0 9 1;
#X connect 17 0 11 1;
#X connect 18 0 12 1;
#X connect 19 0 13 1;
#X connect 21 0 6 1;
#X connect 22 0 10 1;
#X connect 23 0 0 1;
#X connect 24 0 1 1;
#X connect 25 0 2 1;
#X restore 110 44 pd button2-3;
#N canvas 452 52 784 403 button2-3 0;
#X obj 24 83 spigot 0;
#X obj 24 147 spigot 0;
#X obj 24 211 spigot 0;
#X obj 24 275 spigot 0;
#X obj 77 243 r \$0-button4-off;
#X obj 24 19 inlet;
#X obj 217 83 spigot 0;
#X obj 217 147 spigot 0;
#X obj 217 211 spigot 0;
#X obj 217 275 spigot 0;
#X obj 410 83 spigot 0;
#X obj 410 147 spigot 0;
#X obj 410 211 spigot 0;
#X obj 410 275 spigot 0;
#X obj 270 115 r \$0-button6-off;
#X obj 270 179 r \$0-button7-off;
#X obj 270 243 r \$0-button8-off;
#X obj 463 115 r \$0-button10-off;
#X obj 463 179 r \$0-button11-off;
#X obj 463 243 r \$0-button12-off;
#X obj 410 307 outlet;
#X obj 270 51 r \$0-button5-off;
#X obj 463 51 r \$0-button9-off;
#X obj 77 51 r \$0-button1-off;
#X obj 77 115 r \$0-button2-on;
#X obj 77 179 r \$0-button3-on;
#X connect 0 0 1 0;
#X connect 1 0 2 0;
#X connect 2 0 3 0;
#X connect 3 0 6 0;
#X connect 4 0 3 1;
#X connect 5 0 0 0;
#X connect 6 0 7 0;
#X connect 7 0 8 0;
#X connect 8 0 9 0;
#X connect 9 0 10 0;
#X connect 10 0 11 0;
#X connect 11 0 12 0;
#X connect 12 0 13 0;
#X connect 13 0 20 0;
#X connect 14 0 7 1;
#X connect 15 0 8 1;
#X connect 16 0 9 1;
#X connect 17 0 11 1;
#X connect 18 0 12 1;
#X connect 19 0 13 1;
#X connect 21 0 6 1;
#X connect 22 0 10 1;
#X connect 23 0 0 1;
#X connect 24 0 1 1;
#X connect 25 0 2 1;
#X restore 236 44 pd button2-3;
#N canvas 452 52 784 403 button2-3 0;
#X obj 24 83 spigot 0;
#X obj 24 147 spigot 0;
#X obj 24 211 spigot 0;
#X obj 24 275 spigot 0;
#X obj 77 243 r \$0-button4-off;
#X obj 24 19 inlet;
#X obj 217 83 spigot 0;
#X obj 217 147 spigot 0;
#X obj 217 211 spigot 0;
#X obj 217 275 spigot 0;
#X obj 410 83 spigot 0;
#X obj 410 147 spigot 0;
#X obj 410 211 spigot 0;
#X obj 410 275 spigot 0;
#X obj 270 115 r \$0-button6-off;
#X obj 270 179 r \$0-button7-off;
#X obj 270 243 r \$0-button8-off;
#X obj 463 115 r \$0-button10-off;
#X obj 463 179 r \$0-button11-off;
#X obj 463 243 r \$0-button12-off;
#X obj 410 307 outlet;
#X obj 270 51 r \$0-button5-off;
#X obj 463 51 r \$0-button9-off;
#X obj 77 51 r \$0-button1-off;
#X obj 77 115 r \$0-button2-on;
#X obj 77 179 r \$0-button3-on;
#X connect 0 0 1 0;
#X connect 1 0 2 0;
#X connect 2 0 3 0;
#X connect 3 0 6 0;
#X connect 4 0 3 1;
#X connect 5 0 0 0;
#X connect 6 0 7 0;
#X connect 7 0 8 0;
#X connect 8 0 9 0;
#X connect 9 0 10 0;
#X connect 10 0 11 0;
#X connect 11 0 12 0;
#X connect 12 0 13 0;
#X connect 13 0 20 0;
#X connect 14 0 7 1;
#X connect 15 0 8 1;
#X connect 16 0 9 1;
#X connect 17 0 11 1;
#X connect 18 0 12 1;
#X connect 19 0 13 1;
#X connect 21 0 6 1;
#X connect 22 0 10 1;
#X connect 23 0 0 1;
#X connect 24 0 1 1;
#X connect 25 0 2 1;
#X restore 352 44 pd button2-3;
#N canvas 452 52 784 403 button2-3 0;
#X obj 24 83 spigot 0;
#X obj 24 147 spigot 0;
#X obj 24 211 spigot 0;
#X obj 24 275 spigot 0;
#X obj 77 243 r \$0-button4-off;
#X obj 24 19 inlet;
#X obj 217 83 spigot 0;
#X obj 217 147 spigot 0;
#X obj 217 211 spigot 0;
#X obj 217 275 spigot 0;
#X obj 410 83 spigot 0;
#X obj 410 147 spigot 0;
#X obj 410 211 spigot 0;
#X obj 410 275 spigot 0;
#X obj 270 115 r \$0-button6-off;
#X obj 270 179 r \$0-button7-off;
#X obj 270 243 r \$0-button8-off;
#X obj 463 115 r \$0-button10-off;
#X obj 463 179 r \$0-button11-off;
#X obj 463 243 r \$0-button12-off;
#X obj 410 307 outlet;
#X obj 270 51 r \$0-button5-off;
#X obj 463 51 r \$0-button9-off;
#X obj 77 51 r \$0-button1-off;
#X obj 77 115 r \$0-button2-on;
#X obj 77 179 r \$0-button3-on;
#X connect 0 0 1 0;
#X connect 1 0 2 0;
#X connect 2 0 3 0;
#X connect 3 0 6 0;
#X connect 4 0 3 1;
#X connect 5 0 0 0;
#X connect 6 0 7 0;
#X connect 7 0 8 0;
#X connect 8 0 9 0;
#X connect 9 0 10 0;
#X connect 10 0 11 0;
#X connect 11 0 12 0;
#X connect 12 0 13 0;
#X connect 13 0 20 0;
#X connect 14 0 7 1;
#X connect 15 0 8 1;
#X connect 16 0 9 1;
#X connect 17 0 11 1;
#X connect 18 0 12 1;
#X connect 19 0 13 1;
#X connect 21 0 6 1;
#X connect 22 0 10 1;
#X connect 23 0 0 1;
#X connect 24 0 1 1;
#X connect 25 0 2 1;
#X restore 468 44 pd button2-3;
#X obj 12 12 r \$0-gate;
#X obj 12 140 outlet;
#X connect 0 0 18 0;
#X connect 2 0 3 0;
#X connect 4 0 14 0;
#X connect 6 0 15 0;
#X connect 8 0 16 0;
#X connect 9 0 19 0;
#X connect 10 0 20 0;
#X connect 12 0 17 0;
#X connect 13 0 21 0;
#X connect 14 0 1 0;
#X connect 15 0 5 0;
#X connect 16 0 7 0;
#X connect 17 0 11 0;
#X connect 18 0 1 0;
#X connect 19 0 5 0;
#X connect 20 0 7 0;
#X connect 21 0 11 0;
#X connect 22 0 23 0;
#X restore 288 12 pd filter-env-inputs;
#X obj 288 155 outlet~;
#X connect 0 0 5 0;
#X connect 1 0 4 0;
#X connect 4 0 2 0;
#X connect 5 0 3 0;
#X connect 6 0 7 0;
#X connect 8 0 10 0;
#X connect 9 0 8 0;
#X connect 9 1 8 1;
#X connect 9 2 8 2;
#X connect 9 3 8 3;
#X connect 9 4 8 4;
#X restore 1314 359 pd filter-inputs;
#N canvas 109 353 941 488 noise-filter-inputs 0;
#X obj 97 12 r \$0-knob4;
#X obj 12 12 r \$0-knob3;
#X obj 12 76 outlet;
#X obj 97 76 outlet;
#N canvas 452 52 784 403 button3 0;
#X obj 24 83 spigot 0;
#X obj 24 147 spigot 0;
#X obj 24 211 spigot 0;
#X obj 24 275 spigot 0;
#X obj 77 115 r \$0-button2-off;
#X obj 77 243 r \$0-button4-off;
#X obj 24 19 inlet;
#X obj 217 83 spigot 0;
#X obj 217 147 spigot 0;
#X obj 217 211 spigot 0;
#X obj 217 275 spigot 0;
#X obj 410 83 spigot 0;
#X obj 410 147 spigot 0;
#X obj 410 211 spigot 0;
#X obj 410 275 spigot 0;
#X obj 270 115 r \$0-button6-off;
#X obj 270 179 r \$0-button7-off;
#X obj 270 243 r \$0-button8-off;
#X obj 463 115 r \$0-button10-off;
#X obj 463 179 r \$0-button11-off;
#X obj 463 243 r \$0-button12-off;
#X obj 410 307 outlet;
#X obj 270 51 r \$0-button5-off;
#X obj 463 51 r \$0-button9-off;
#X obj 77 51 r \$0-button1-off;
#X obj 77 179 r \$0-button3-on;
#X connect 0 0 1 0;
#X connect 1 0 2 0;
#X connect 2 0 3 0;
#X connect 3 0 7 0;
#X connect 4 0 1 1;
#X connect 5 0 3 1;
#X connect 6 0 0 0;
#X connect 7 0 8 0;
#X connect 8 0 9 0;
#X connect 9 0 10 0;
#X connect 10 0 11 0;
#X connect 11 0 12 0;
#X connect 12 0 13 0;
#X connect 13 0 14 0;
#X connect 14 0 21 0;
#X connect 15 0 8 1;
#X connect 16 0 9 1;
#X connect 17 0 10 1;
#X connect 18 0 12 1;
#X connect 19 0 13 1;
#X connect 20 0 14 1;
#X connect 22 0 7 1;
#X connect 23 0 11 1;
#X connect 24 0 0 1;
#X connect 25 0 2 1;
#X restore 12 44 pd button3;
#N canvas 452 52 784 403 button3 0;
#X obj 24 83 spigot 0;
#X obj 24 147 spigot 0;
#X obj 24 211 spigot 0;
#X obj 24 275 spigot 0;
#X obj 77 115 r \$0-button2-off;
#X obj 77 243 r \$0-button4-off;
#X obj 24 19 inlet;
#X obj 217 83 spigot 0;
#X obj 217 147 spigot 0;
#X obj 217 211 spigot 0;
#X obj 217 275 spigot 0;
#X obj 410 83 spigot 0;
#X obj 410 147 spigot 0;
#X obj 410 211 spigot 0;
#X obj 410 275 spigot 0;
#X obj 270 115 r \$0-button6-off;
#X obj 270 179 r \$0-button7-off;
#X obj 270 243 r \$0-button8-off;
#X obj 463 115 r \$0-button10-off;
#X obj 463 179 r \$0-button11-off;
#X obj 463 243 r \$0-button12-off;
#X obj 410 307 outlet;
#X obj 270 51 r \$0-button5-off;
#X obj 463 51 r \$0-button9-off;
#X obj 77 51 r \$0-button1-off;
#X obj 77 179 r \$0-button3-on;
#X connect 0 0 1 0;
#X connect 1 0 2 0;
#X connect 2 0 3 0;
#X connect 3 0 7 0;
#X connect 4 0 1 1;
#X connect 5 0 3 1;
#X connect 6 0 0 0;
#X connect 7 0 8 0;
#X connect 8 0 9 0;
#X connect 9 0 10 0;
#X connect 10 0 11 0;
#X connect 11 0 12 0;
#X connect 12 0 13 0;
#X connect 13 0 14 0;
#X connect 14 0 21 0;
#X connect 15 0 8 1;
#X connect 16 0 9 1;
#X connect 17 0 10 1;
#X connect 18 0 12 1;
#X connect 19 0 13 1;
#X connect 20 0 14 1;
#X connect 22 0 7 1;
#X connect 23 0 11 1;
#X connect 24 0 0 1;
#X connect 25 0 2 1;
#X restore 97 44 pd button3;
#X obj 182 44 outlet~;
#X obj 330 70 outlet~;
#X obj 330 44 tgl 15 0 empty empty empty 17 7 0 10 -262144 -1 -1 1
1;
#X obj 330 12 loadbang;
#N canvas 152 263 982 562 noise-filter-lfo 0;
#X obj 13 76 modules/lfo~;
#X obj 13 458 *~;
#X obj 63 426 mtof;
#X msg 31 426 0;
#X obj 31 394 sel 0;
#X obj 31 330 r \$0-wheel;
#X obj 13 12 r \$0-knob1;
#X obj 13 490 outlet~;
#N canvas 610 69 784 403 lfo-button10 0;
#X obj 24 19 inlet;
#X obj 24 83 spigot 0;
#X obj 24 147 spigot 0;
#X obj 24 211 spigot 0;
#X obj 24 275 spigot 0;
#X obj 217 83 spigot 0;
#X obj 217 147 spigot 0;
#X obj 217 211 spigot 0;
#X obj 217 275 spigot 0;
#X obj 77 243 r \$0-button8-off;
#X obj 270 179 r \$0-button11-off;
#X obj 270 243 r \$0-button12-off;
#X obj 217 307 outlet;
#X obj 77 51 r \$0-button5-off;
#X obj 270 51 r \$0-button9-off;
#X obj 77 115 r \$0-button6-off;
#X obj 77 179 r \$0-button7-off;
#X obj 270 114 r \$0-button10-on;
#X connect 0 0 1 0;
#X connect 1 0 2 0;
#X connect 2 0 3 0;
#X connect 3 0 4 0;
#X connect 4 0 5 0;
#X connect 5 0 6 0;
#X connect 6 0 7 0;
#X connect 7 0 8 0;
#X connect 8 0 12 0;
#X connect 9 0 4 1;
#X connect 10 0 7 1;
#X connect 11 0 8 1;
#X connect 13 0 1 1;
#X connect 14 0 5 1;
#X connect 15 0 2 1;
#X connect 16 0 3 1;
#X connect 17 0 6 1;
#X restore 13 44 pd lfo-button10;
#N canvas 610 69 784 403 lfo-button10 0;
#X obj 24 19 inlet;
#X obj 24 83 spigot 0;
#X obj 24 147 spigot 0;
#X obj 24 211 spigot 0;
#X obj 24 275 spigot 0;
#X obj 217 83 spigot 0;
#X obj 217 147 spigot 0;
#X obj 217 211 spigot 0;
#X obj 217 275 spigot 0;
#X obj 77 243 r \$0-button8-off;
#X obj 270 179 r \$0-button11-off;
#X obj 270 243 r \$0-button12-off;
#X obj 217 307 outlet;
#X obj 77 51 r \$0-button5-off;
#X obj 270 51 r \$0-button9-off;
#X obj 77 115 r \$0-button6-off;
#X obj 77 179 r \$0-button7-off;
#X obj 270 114 r \$0-button10-on;
#X connect 0 0 1 0;
#X connect 1 0 2 0;
#X connect 2 0 3 0;
#X connect 3 0 4 0;
#X connect 4 0 5 0;
#X connect 5 0 6 0;
#X connect 6 0 7 0;
#X connect 7 0 8 0;
#X connect 8 0 12 0;
#X connect 9 0 4 1;
#X connect 10 0 7 1;
#X connect 11 0 8 1;
#X connect 13 0 1 1;
#X connect 14 0 5 1;
#X connect 15 0 2 1;
#X connect 16 0 3 1;
#X connect 17 0 6 1;
#X restore 31 362 pd lfo-button10;
#X obj 133 12 r \$0-knob4;
#N canvas 829 138 784 403 lfo-button10-12 0;
#X obj 24 19 inlet;
#X obj 24 83 spigot 0;
#X obj 24 147 spigot 0;
#X obj 24 211 spigot 0;
#X obj 24 275 spigot 0;
#X obj 217 83 spigot 0;
#X obj 217 147 spigot 0;
#X obj 217 211 spigot 0;
#X obj 217 275 spigot 0;
#X obj 77 179 r \$0-button7-off;
#X obj 77 243 r \$0-button8-off;
#X obj 270 179 r \$0-button11-off;
#X obj 217 307 outlet;
#X obj 270 51 r \$0-button9-off;
#X obj 77 115 r \$0-button6-off;
#X obj 270 243 r \$0-button12-on;
#X obj 77 51 r \$0-button5-off;
#X obj 270 115 r \$0-button10-on;
#X connect 0 0 1 0;
#X connect 1 0 2 0;
#X connect 2 0 3 0;
#X connect 3 0 4 0;
#X connect 4 0 5 0;
#X connect 5 0 6 0;
#X connect 6 0 7 0;
#X connect 7 0 8 0;
#X connect 8 0 12 0;
#X connect 9 0 3 1;
#X connect 10 0 4 1;
#X connect 11 0 7 1;
#X connect 13 0 5 1;
#X connect 14 0 2 1;
#X connect 15 0 8 1;
#X connect 16 0 1 1;
#X connect 17 0 6 1;
#X restore 133 44 pd lfo-button10-12;
#X obj 14 219 modules/mixer~;
#N canvas 526 166 450 300 lfo-mixer-inputs 0;
#X obj 12 12 r \$0-knob1;
#X obj 153 12 r \$0-knob2;
#X obj 294 12 r \$0-knob3;
#X obj 153 76 outlet;
#X obj 12 140 outlet;
#X obj 294 76 outlet;
#X obj 22 76 loadbang;
#X msg 22 108 127;
#N canvas 829 138 784 403 lfo-button10-12 0;
#X obj 24 19 inlet;
#X obj 24 83 spigot 0;
#X obj 24 147 spigot 0;
#X obj 24 211 spigot 0;
#X obj 24 275 spigot 0;
#X obj 217 83 spigot 0;
#X obj 217 147 spigot 0;
#X obj 217 211 spigot 0;
#X obj 217 275 spigot 0;
#X obj 77 179 r \$0-button7-off;
#X obj 77 243 r \$0-button8-off;
#X obj 270 179 r \$0-button11-off;
#X obj 217 307 outlet;
#X obj 270 51 r \$0-button9-off;
#X obj 77 115 r \$0-button6-off;
#X obj 270 243 r \$0-button12-on;
#X obj 77 51 r \$0-button5-off;
#X obj 270 115 r \$0-button10-on;
#X connect 0 0 1 0;
#X connect 1 0 2 0;
#X connect 2 0 3 0;
#X connect 3 0 4 0;
#X connect 4 0 5 0;
#X connect 5 0 6 0;
#X connect 6 0 7 0;
#X connect 7 0 8 0;
#X connect 8 0 12 0;
#X connect 9 0 3 1;
#X connect 10 0 4 1;
#X connect 11 0 7 1;
#X connect 13 0 5 1;
#X connect 14 0 2 1;
#X connect 15 0 8 1;
#X connect 16 0 1 1;
#X connect 17 0 6 1;
#X restore 153 44 pd lfo-button10-12;
#N canvas 829 138 784 403 lfo-button10-12 0;
#X obj 24 19 inlet;
#X obj 24 83 spigot 0;
#X obj 24 147 spigot 0;
#X obj 24 211 spigot 0;
#X obj 24 275 spigot 0;
#X obj 217 83 spigot 0;
#X obj 217 147 spigot 0;
#X obj 217 211 spigot 0;
#X obj 217 275 spigot 0;
#X obj 77 179 r \$0-button7-off;
#X obj 77 243 r \$0-button8-off;
#X obj 270 179 r \$0-button11-off;
#X obj 217 307 outlet;
#X obj 270 51 r \$0-button9-off;
#X obj 77 115 r \$0-button6-off;
#X obj 270 243 r \$0-button12-on;
#X obj 77 51 r \$0-button5-off;
#X obj 270 115 r \$0-button10-on;
#X connect 0 0 1 0;
#X connect 1 0 2 0;
#X connect 2 0 3 0;
#X connect 3 0 4 0;
#X connect 4 0 5 0;
#X connect 5 0 6 0;
#X connect 6 0 7 0;
#X connect 7 0 8 0;
#X connect 8 0 12 0;
#X connect 9 0 3 1;
#X connect 10 0 4 1;
#X connect 11 0 7 1;
#X connect 13 0 5 1;
#X connect 14 0 2 1;
#X connect 15 0 8 1;
#X connect 16 0 1 1;
#X connect 17 0 6 1;
#X restore 294 44 pd lfo-button10-12;
#N canvas 829 138 784 403 lfo-button10-12 0;
#X obj 24 19 inlet;
#X obj 24 83 spigot 0;
#X obj 24 147 spigot 0;
#X obj 24 211 spigot 0;
#X obj 24 275 spigot 0;
#X obj 217 83 spigot 0;
#X obj 217 147 spigot 0;
#X obj 217 211 spigot 0;
#X obj 217 275 spigot 0;
#X obj 77 179 r \$0-button7-off;
#X obj 77 243 r \$0-button8-off;
#X obj 270 179 r \$0-button11-off;
#X obj 217 307 outlet;
#X obj 270 51 r \$0-button9-off;
#X obj 77 115 r \$0-button6-off;
#X obj 270 243 r \$0-button12-on;
#X obj 77 51 r \$0-button5-off;
#X obj 270 115 r \$0-button10-on;
#X connect 0 0 1 0;
#X connect 1 0 2 0;
#X connect 2 0 3 0;
#X connect 3 0 4 0;
#X connect 4 0 5 0;
#X connect 5 0 6 0;
#X connect 6 0 7 0;
#X connect 7 0 8 0;
#X connect 8 0 12 0;
#X connect 9 0 3 1;
#X connect 10 0 4 1;
#X connect 11 0 7 1;
#X connect 13 0 5 1;
#X connect 14 0 2 1;
#X connect 15 0 8 1;
#X connect 16 0 1 1;
#X connect 17 0 6 1;
#X restore 12 44 pd lfo-button10-12;
#X connect 0 0 10 0;
#X connect 1 0 8 0;
#X connect 2 0 9 0;
#X connect 6 0 7 0;
#X connect 7 0 4 0;
#X connect 8 0 3 0;
#X connect 9 0 5 0;
#X connect 10 0 4 0;
#X restore 67 187 pd lfo-mixer-inputs;
#X connect 0 0 12 0;
#X connect 0 1 12 1;
#X connect 0 2 12 2;
#X connect 1 0 7 0;
#X connect 2 0 1 1;
#X connect 3 0 1 1;
#X connect 4 0 3 0;
#X connect 4 1 2 0;
#X connect 5 0 9 0;
#X connect 6 0 8 0;
#X connect 8 0 0 0;
#X connect 9 0 4 0;
#X connect 10 0 11 0;
#X connect 11 0 0 1;
#X connect 12 0 1 0;
#X connect 13 0 12 4;
#X connect 13 1 12 5;
#X connect 13 2 12 6;
#X restore 182 12 pd noise-filter-lfo;
#X connect 0 0 5 0;
#X connect 1 0 4 0;
#X connect 4 0 2 0;
#X connect 5 0 3 0;
#X connect 8 0 7 0;
#X connect 9 0 8 0;
#X connect 10 0 6 0;
#X restore 1408 276 pd noise-filter-inputs;
#X obj 96 687 modules/mixer~;
#X obj 342 399 modules/midi-buttons;
#N canvas 746 114 362 643 noise-env 0;
#X obj 104 8 inlet~;
#X obj 12 8 inlet~;
#X obj 13 220 modules/vca~;
#X msg 58 188 0;
#X msg 90 188 1;
#X obj 23 347 modules/vca~;
#X obj 14 583 outlet~;
#X obj 12 92 r~ \$0-noise;
#X obj 12 40 s~ \$0-noise;
#X obj 182 8 inlet;
#X obj 23 506 modules/vca~;
#X msg 68 474 0;
#X msg 100 474 1;
#X obj 23 283 r~ \$0-noise;
#X obj 104 40 s~ \$0-env;
#X obj 68 315 r~ \$0-env;
#X obj 182 136 s \$0-on;
#X obj 228 104 s \$0-off;
#X obj 182 40 sel 127;
#X obj 228 72 bang;
#X obj 58 124 r \$0-on;
#X obj 100 442 r \$0-on;
#X obj 90 156 r \$0-off;
#X obj 68 410 r \$0-off;
#X connect 0 0 14 0;
#X connect 1 0 8 0;
#X connect 2 0 6 0;
#X connect 3 0 2 1;
#X connect 4 0 2 1;
#X connect 5 0 10 0;
#X connect 7 0 2 0;
#X connect 9 0 18 0;
#X connect 10 0 6 0;
#X connect 11 0 10 1;
#X connect 12 0 10 1;
#X connect 13 0 5 0;
#X connect 15 0 5 1;
#X connect 18 0 16 0;
#X connect 18 1 19 0;
#X connect 19 0 17 0;
#X connect 20 0 3 0;
#X connect 21 0 12 0;
#X connect 22 0 4 0;
#X connect 23 0 11 0;
#X restore 219 633 pd noise-env;
#X connect 1 1 7 0;
#X connect 2 0 24 0;
#X connect 3 0 2 0;
#X connect 3 1 2 1;
#X connect 3 2 2 2;
#X connect 3 3 2 3;
#X connect 4 2 25 0;
#X connect 8 0 1 0;
#X connect 8 1 1 1;
#X connect 13 0 14 0;
#X connect 14 2 31 0;
#X connect 19 0 25 1;
#X connect 19 0 31 1;
#X connect 20 0 3 0;
#X connect 20 0 22 0;
#X connect 21 0 19 0;
#X connect 22 0 23 0;
#X connect 22 1 23 1;
#X connect 22 2 23 2;
#X connect 22 3 23 3;
#X connect 23 0 24 1;
#X connect 24 0 4 0;
#X connect 25 0 29 0;
#X connect 29 0 0 0;
#X connect 30 1 31 2;
#X connect 31 0 29 1;
