#N canvas 744 237 1016 682 12;
#X obj 324 139 line~;
#X msg 324 102 0 500;
#X obj 324 72 select 0;
#X text 74 526 Attack (0-300 ms);
#X text 74 545 Decay (0-500 ms);
#X text 74 583 Release (0-1000 ms);
#X text 74 563 Sustain (0-1 units);
#X obj 38 384 pack f f f f;
#X obj 6 340 sel 0;
#X obj 6 500 pack f f;
#X obj 6 564 vline~;
#X msg 6 532 0 \$2;
#X msg 38 416 1 \$2 \, \$4 \$3 \$2;
#X obj 6 308 inlet;
#X obj 6 596 outlet~;
#X text 306 34 simple attack/decay;
#X msg 377 102 1 500;
#X obj 14 14 cnv 15 193 193 empty empty envelope 10 20 0 20 -233017
-66577 0;
#X obj 24 64 hsl 128 15 0 300 0 0 \$0-attack-send \$0-attack-rec attack
-2 -8 0 10 -262144 -1 -1 0 1;
#X obj 24 100 hsl 128 15 0 500 0 0 \$0-decay-send \$0-decay-rec decay
-2 -8 0 10 -262144 -1 -1 0 1;
#X obj 24 136 hsl 128 15 0 1 0 0 \$0-sustain-send \$0-sustain-rec sustain
-2 -8 0 10 -262144 -1 -1 12700 1;
#X obj 24 172 hsl 128 15 0 1000 0 0 \$0-release-send \$0-release-rec
release -2 -8 0 10 -262144 -1 -1 0 1;
#X obj 65 288 r \$0-attack-send;
#X obj 92 320 r \$0-decay-send;
#X obj 119 352 r \$0-sustain-send;
#X obj 59 468 r \$0-release-send;
#X connect 1 0 0 0;
#X connect 2 0 1 0;
#X connect 2 1 16 0;
#X connect 7 0 12 0;
#X connect 8 0 9 0;
#X connect 8 1 7 0;
#X connect 9 0 11 0;
#X connect 10 0 14 0;
#X connect 11 0 10 0;
#X connect 12 0 10 0;
#X connect 13 0 8 0;
#X connect 16 0 0 0;
#X connect 22 0 7 1;
#X connect 23 0 7 2;
#X connect 24 0 7 3;
#X connect 25 0 9 1;
#X coords 0 -1 1 1 201 201 2 10 10;
