#N canvas 109 161 450 300 12;
#X obj 12 12 inlet~;
#X obj 11 195 outlet~;
#X obj 23 44 r filter-cutoff-send;
#X obj 36 106 r filter-resonance-send;
#X obj 23 76 mtof;
#X obj 11 165 vcf~;
#X connect 0 0 5 0;
#X connect 2 0 4 0;
#X connect 3 0 5 2;
#X connect 4 0 5 1;
#X connect 5 0 1 0;
