#N canvas 829 263 611 439 12;
#X obj 11 11 cnv 15 199 199 empty empty lfo 10 20 0 20 -233017 -66577
0;
#X obj 24 64 hsl 128 15 -64 64 0 1 \$0-lfo-freq-send \$0-lfo-freq-rec
frequency -2 -8 0 10 -262144 -1 -1 6350 1;
#X obj 248 31 inlet;
#N canvas 0 50 450 300 sine~ 0;
#X obj 12 44 osc~;
#X obj 12 76 outlet~;
#X obj 12 12 inlet;
#X connect 0 0 1 0;
#X connect 2 0 0 0;
#X restore 248 231 pd sine~;
#N canvas 0 50 450 300 saw~ 0;
#X obj 12 44 phasor~;
#X obj 12 76 *~ 2;
#X obj 12 108 -~ 1;
#X obj 12 140 outlet~;
#X obj 12 12 inlet;
#X connect 0 0 1 0;
#X connect 1 0 2 0;
#X connect 2 0 3 0;
#X connect 4 0 0 0;
#X restore 339 231 pd saw~;
#N canvas 84 106 450 300 square~ 0;
#X obj 12 44 phasor~;
#X obj 12 108 *~ 2;
#X obj 12 140 -~ 1;
#X obj 12 76 expr~ $v1 > 0.5;
#X obj 12 172 outlet~;
#X obj 12 12 inlet;
#X connect 0 0 3 0;
#X connect 1 0 2 0;
#X connect 2 0 4 0;
#X connect 3 0 1 0;
#X connect 5 0 0 0;
#X restore 423 231 pd square~;
#X obj 248 263 outlet~;
#X obj 339 263 outlet~;
#X obj 423 263 outlet~;
#X obj 248 63 s \$0-lfo-freq-rec;
#X obj 248 115 r \$0-lfo-freq-send;
#X obj 23 91 bng 15 250 50 0 \$0-set-lfo-freq-send \$0-set-lfo-freq-rec
empty 17 7 0 10 -262144 -1 -1;
#X obj 418 179 s \$0-lfo-freq-rec;
#X msg 418 147 0;
#X obj 418 115 r \$0-set-lfo-freq-send;
#X obj 251 158 sel 0;
#X msg 247 187 0;
#X obj 292 187 mtof;
#X connect 2 0 9 0;
#X connect 3 0 6 0;
#X connect 4 0 7 0;
#X connect 5 0 8 0;
#X connect 10 0 15 0;
#X connect 13 0 12 0;
#X connect 14 0 13 0;
#X connect 15 0 16 0;
#X connect 15 1 17 0;
#X connect 16 0 3 0;
#X connect 17 0 3 0;
#X coords 0 -1 1 1 201 201 1 10 10;
