#N canvas 856 292 544 484 12;
#X obj 11 11 cnv 15 153 187 empty empty midi_knobs 10 20 0 20 -233017
-66577 0;
#X obj 25 60 vsl 15 32 0 127 0 0 \$0-knob1-send \$0-knob1-rec 1 0 -9
0 10 -262144 -1 -1 0 1;
#X obj 51 60 vsl 15 32 0 127 0 0 \$0-knob2-send \$0-knob2-rec 2 0 -9
0 10 -262144 -1 -1 0 1;
#X obj 77 60 vsl 15 32 0 127 0 0 \$0-knob3-send \$0-knob3-rec 3 0 -9
0 10 -262144 -1 -1 0 1;
#X obj 103 60 vsl 15 32 0 127 0 0 \$0-knob4-send \$0-knob4-rec 4 0
-9 0 10 -262144 -1 -1 0 1;
#N canvas 29 68 285 236 knob1 0;
#X obj 12 12 ctlin 20;
#X obj 12 44 s \$0-knob1-rec;
#X obj 12 96 r \$0-knob1-rec;
#X obj 12 128 outlet;
#X connect 0 0 1 0;
#X connect 2 0 3 0;
#X restore 12 211 pd knob1;
#N canvas 0 50 285 198 knob2 0;
#X obj 12 128 outlet;
#X obj 12 12 ctlin 21;
#X obj 12 44 s \$0-knob2-rec;
#X obj 12 96 r \$0-knob2-rec;
#X connect 1 0 2 0;
#X connect 3 0 0 0;
#X restore 103 211 pd knob2;
#N canvas 0 50 285 179 knob3 0;
#X obj 12 128 outlet;
#X obj 12 12 ctlin 22;
#X obj 12 44 s \$0-knob3-rec;
#X obj 12 96 r \$0-knob3-rec;
#X connect 1 0 2 0;
#X connect 3 0 0 0;
#X restore 194 211 pd knob3;
#N canvas 0 50 285 179 knob4 0;
#X obj 12 128 outlet;
#X obj 12 12 ctlin 23;
#X obj 12 44 s \$0-knob4-rec;
#X obj 12 96 r \$0-knob4-rec;
#X connect 1 0 2 0;
#X connect 3 0 0 0;
#X restore 285 211 pd knob4;
#X obj 12 243 outlet;
#X obj 103 243 outlet;
#X obj 194 243 outlet;
#X obj 285 243 outlet;
#X connect 5 0 9 0;
#X connect 6 0 10 0;
#X connect 7 0 11 0;
#X connect 8 0 12 0;
#X coords 0 -1 1 1 155 189 1 10 10;
