#N canvas 868 171 533 300 12;
#X obj 14 14 cnv 15 193 92 empty empty midi_buttons 10 20 0 20 -233017
-66577 0;
#X floatatom 242 58 5 0 0 0 - - -;
#X obj 242 26 ctlin 48;
#X obj 29 55 tgl 15 0 \$0-button1-send \$0-button1-rec 1 17 7 0 10
-262144 -1 -1 0 1;
#X obj 55 55 tgl 15 0 \$0-button2-send \$0-button2-rec 2 17 7 0 10
-262144 -1 -1 0 1;
#X obj 29 81 tgl 15 0 \$0-button3-send \$0-button3-rec 3 17 7 0 10
-262144 -1 -1 0 1;
#X obj 55 81 tgl 15 0 \$0-button4-send \$0-button4-rec 4 17 7 0 10
-262144 -1 -1 0 1;
#X obj 242 89 s \$0-button1-rec;
#X floatatom 389 58 5 0 0 0 - - -;
#X floatatom 389 173 5 0 0 0 - - -;
#X floatatom 242 173 5 0 0 0 - - -;
#X obj 389 26 ctlin 49;
#X obj 242 141 ctlin 50;
#X obj 389 89 s \$0-button2-rec;
#X obj 242 204 s \$0-button3-rec;
#X obj 389 204 s \$0-button4-rec;
#X obj 389 141 ctlin 51;
#X connect 1 0 7 0;
#X connect 2 0 1 0;
#X connect 8 0 13 0;
#X connect 9 0 15 0;
#X connect 10 0 14 0;
#X connect 11 0 8 0;
#X connect 12 0 10 0;
#X connect 16 0 9 0;
#X coords 0 -1 1 1 201 100 2 10 10;
