#N canvas 165 298 450 300 12;
#X obj 11 11 cnv 15 98 98 empty empty noise 10 20 0 20 -233017 -66577
0;
#X obj 24 64 hsl 32 15 0 1 0 0 \$0-volume-send \$0-volume-rec volume
-2 -8 0 10 -262144 -1 -1 0 1;
#X obj 170 58 r \$0-volume-send;
#X obj 152 90 *~;
#X obj 152 26 noise~;
#X obj 152 122 outlet~;
#X connect 2 0 3 1;
#X connect 3 0 5 0;
#X connect 4 0 3 0;
#X coords 0 -1 1 1 100 100 1 10 10;
