#N canvas 602 79 958 473 12;
#X obj 12 219 modules/oscillator~;
#N canvas 607 349 654 477 osc-inputs 0;
#X obj 196 12 r \$0-knob4;
#N canvas 452 52 784 403 buttons-off 0;
#X obj 24 83 spigot 0;
#X obj 24 147 spigot 0;
#X obj 24 211 spigot 0;
#X obj 24 275 spigot 0;
#X obj 77 115 r \$0-button2-off;
#X obj 77 179 r \$0-button3-off;
#X obj 77 243 r \$0-button4-off;
#X obj 24 19 inlet;
#X obj 217 83 spigot 0;
#X obj 217 147 spigot 0;
#X obj 217 211 spigot 0;
#X obj 217 275 spigot 0;
#X obj 410 83 spigot 0;
#X obj 410 147 spigot 0;
#X obj 410 211 spigot 0;
#X obj 410 275 spigot 0;
#X obj 270 115 r \$0-button6-off;
#X obj 270 179 r \$0-button7-off;
#X obj 270 243 r \$0-button8-off;
#X obj 463 115 r \$0-button10-off;
#X obj 463 179 r \$0-button11-off;
#X obj 463 243 r \$0-button12-off;
#X obj 410 307 outlet;
#X obj 270 51 r \$0-button5-off;
#X obj 463 51 r \$0-button9-off;
#X obj 77 51 r \$0-button1-off;
#X connect 0 0 1 0;
#X connect 1 0 2 0;
#X connect 2 0 3 0;
#X connect 3 0 8 0;
#X connect 4 0 1 1;
#X connect 5 0 2 1;
#X connect 6 0 3 1;
#X connect 7 0 0 0;
#X connect 8 0 9 0;
#X connect 9 0 10 0;
#X connect 10 0 11 0;
#X connect 11 0 12 0;
#X connect 12 0 13 0;
#X connect 13 0 14 0;
#X connect 14 0 15 0;
#X connect 15 0 22 0;
#X connect 16 0 9 1;
#X connect 17 0 10 1;
#X connect 18 0 11 1;
#X connect 19 0 13 1;
#X connect 20 0 14 1;
#X connect 21 0 15 1;
#X connect 23 0 8 1;
#X connect 24 0 12 1;
#X connect 25 0 0 1;
#X restore 196 44 pd buttons-off;
#X obj 196 76 outlet;
#X obj 12 12 r \$0-note;
#X obj 12 44 outlet;
#N canvas 1033 48 697 832 osc-fm-lfo 0;
#X obj 13 76 modules/lfo~;
#X obj 13 458 *~;
#X obj 63 426 mtof;
#X msg 31 426 0;
#X obj 31 394 sel 0;
#X obj 31 330 r \$0-wheel;
#X obj 13 12 r \$0-knob1;
#X obj 13 490 outlet~;
#N canvas 452 52 784 403 lfo-button6 0;
#X obj 24 19 inlet;
#X obj 24 83 spigot 0;
#X obj 24 147 spigot 0;
#X obj 24 211 spigot 0;
#X obj 24 275 spigot 0;
#X obj 217 83 spigot 0;
#X obj 217 147 spigot 0;
#X obj 217 211 spigot 0;
#X obj 217 275 spigot 0;
#X obj 77 179 r \$0-button7-off;
#X obj 77 243 r \$0-button8-off;
#X obj 270 115 r \$0-button10-off;
#X obj 270 179 r \$0-button11-off;
#X obj 270 243 r \$0-button12-off;
#X obj 217 307 outlet;
#X obj 77 51 r \$0-button5-off;
#X obj 270 51 r \$0-button9-off;
#X obj 77 115 r \$0-button6-on;
#X connect 0 0 1 0;
#X connect 1 0 2 0;
#X connect 2 0 3 0;
#X connect 3 0 4 0;
#X connect 4 0 5 0;
#X connect 5 0 6 0;
#X connect 6 0 7 0;
#X connect 7 0 8 0;
#X connect 8 0 14 0;
#X connect 9 0 3 1;
#X connect 10 0 4 1;
#X connect 11 0 6 1;
#X connect 12 0 7 1;
#X connect 13 0 8 1;
#X connect 15 0 1 1;
#X connect 16 0 5 1;
#X connect 17 0 2 1;
#X restore 13 44 pd lfo-button6;
#N canvas 452 52 784 403 lfo-button6 0;
#X obj 24 19 inlet;
#X obj 24 83 spigot 0;
#X obj 24 147 spigot 0;
#X obj 24 211 spigot 0;
#X obj 24 275 spigot 0;
#X obj 217 83 spigot 0;
#X obj 217 147 spigot 0;
#X obj 217 211 spigot 0;
#X obj 217 275 spigot 0;
#X obj 77 179 r \$0-button7-off;
#X obj 77 243 r \$0-button8-off;
#X obj 270 115 r \$0-button10-off;
#X obj 270 179 r \$0-button11-off;
#X obj 270 243 r \$0-button12-off;
#X obj 217 307 outlet;
#X obj 77 51 r \$0-button5-off;
#X obj 270 51 r \$0-button9-off;
#X obj 77 115 r \$0-button6-on;
#X connect 0 0 1 0;
#X connect 1 0 2 0;
#X connect 2 0 3 0;
#X connect 3 0 4 0;
#X connect 4 0 5 0;
#X connect 5 0 6 0;
#X connect 6 0 7 0;
#X connect 7 0 8 0;
#X connect 8 0 14 0;
#X connect 9 0 3 1;
#X connect 10 0 4 1;
#X connect 11 0 6 1;
#X connect 12 0 7 1;
#X connect 13 0 8 1;
#X connect 15 0 1 1;
#X connect 16 0 5 1;
#X connect 17 0 2 1;
#X restore 31 362 pd lfo-button6;
#N canvas 452 52 784 403 lfo-button6-12 0;
#X obj 24 19 inlet;
#X obj 24 83 spigot 0;
#X obj 24 147 spigot 0;
#X obj 24 211 spigot 0;
#X obj 24 275 spigot 0;
#X obj 217 83 spigot 0;
#X obj 217 147 spigot 0;
#X obj 217 211 spigot 0;
#X obj 217 275 spigot 0;
#X obj 77 179 r \$0-button7-off;
#X obj 77 243 r \$0-button8-off;
#X obj 270 115 r \$0-button10-off;
#X obj 270 179 r \$0-button11-off;
#X obj 217 307 outlet;
#X obj 77 51 r \$0-button5-off;
#X obj 270 51 r \$0-button9-off;
#X obj 77 115 r \$0-button6-on;
#X obj 270 243 r \$0-button12-on;
#X connect 0 0 1 0;
#X connect 1 0 2 0;
#X connect 2 0 3 0;
#X connect 3 0 4 0;
#X connect 4 0 5 0;
#X connect 5 0 6 0;
#X connect 6 0 7 0;
#X connect 7 0 8 0;
#X connect 8 0 13 0;
#X connect 9 0 3 1;
#X connect 10 0 4 1;
#X connect 11 0 6 1;
#X connect 12 0 7 1;
#X connect 14 0 1 1;
#X connect 15 0 5 1;
#X connect 16 0 2 1;
#X connect 17 0 8 1;
#X restore 126 44 pd lfo-button6-12;
#X obj 126 12 r \$0-knob4;
#X obj 14 219 modules/mixer~;
#N canvas 0 50 450 300 lfo-mixer-inputs 0;
#X obj 12 12 r \$0-knob1;
#X obj 147 12 r \$0-knob2;
#X obj 282 12 r \$0-knob3;
#X obj 147 76 outlet;
#X obj 12 140 outlet;
#X obj 282 76 outlet;
#X obj 22 76 loadbang;
#X msg 22 108 127;
#N canvas 452 52 784 403 lfo-button6-12 0;
#X obj 24 19 inlet;
#X obj 24 83 spigot 0;
#X obj 24 147 spigot 0;
#X obj 24 211 spigot 0;
#X obj 24 275 spigot 0;
#X obj 217 83 spigot 0;
#X obj 217 147 spigot 0;
#X obj 217 211 spigot 0;
#X obj 217 275 spigot 0;
#X obj 77 179 r \$0-button7-off;
#X obj 77 243 r \$0-button8-off;
#X obj 270 115 r \$0-button10-off;
#X obj 270 179 r \$0-button11-off;
#X obj 217 307 outlet;
#X obj 77 51 r \$0-button5-off;
#X obj 270 51 r \$0-button9-off;
#X obj 77 115 r \$0-button6-on;
#X obj 270 243 r \$0-button12-on;
#X connect 0 0 1 0;
#X connect 1 0 2 0;
#X connect 2 0 3 0;
#X connect 3 0 4 0;
#X connect 4 0 5 0;
#X connect 5 0 6 0;
#X connect 6 0 7 0;
#X connect 7 0 8 0;
#X connect 8 0 13 0;
#X connect 9 0 3 1;
#X connect 10 0 4 1;
#X connect 11 0 6 1;
#X connect 12 0 7 1;
#X connect 14 0 1 1;
#X connect 15 0 5 1;
#X connect 16 0 2 1;
#X connect 17 0 8 1;
#X restore 12 44 pd lfo-button6-12;
#N canvas 452 52 784 403 lfo-button6-12 0;
#X obj 24 19 inlet;
#X obj 24 83 spigot 0;
#X obj 24 147 spigot 0;
#X obj 24 211 spigot 0;
#X obj 24 275 spigot 0;
#X obj 217 83 spigot 0;
#X obj 217 147 spigot 0;
#X obj 217 211 spigot 0;
#X obj 217 275 spigot 0;
#X obj 77 179 r \$0-button7-off;
#X obj 77 243 r \$0-button8-off;
#X obj 270 115 r \$0-button10-off;
#X obj 270 179 r \$0-button11-off;
#X obj 217 307 outlet;
#X obj 77 51 r \$0-button5-off;
#X obj 270 51 r \$0-button9-off;
#X obj 77 115 r \$0-button6-on;
#X obj 270 243 r \$0-button12-on;
#X connect 0 0 1 0;
#X connect 1 0 2 0;
#X connect 2 0 3 0;
#X connect 3 0 4 0;
#X connect 4 0 5 0;
#X connect 5 0 6 0;
#X connect 6 0 7 0;
#X connect 7 0 8 0;
#X connect 8 0 13 0;
#X connect 9 0 3 1;
#X connect 10 0 4 1;
#X connect 11 0 6 1;
#X connect 12 0 7 1;
#X connect 14 0 1 1;
#X connect 15 0 5 1;
#X connect 16 0 2 1;
#X connect 17 0 8 1;
#X restore 147 44 pd lfo-button6-12;
#N canvas 452 52 784 403 lfo-button6-12 0;
#X obj 24 19 inlet;
#X obj 24 83 spigot 0;
#X obj 24 147 spigot 0;
#X obj 24 211 spigot 0;
#X obj 24 275 spigot 0;
#X obj 217 83 spigot 0;
#X obj 217 147 spigot 0;
#X obj 217 211 spigot 0;
#X obj 217 275 spigot 0;
#X obj 77 179 r \$0-button7-off;
#X obj 77 243 r \$0-button8-off;
#X obj 270 115 r \$0-button10-off;
#X obj 270 179 r \$0-button11-off;
#X obj 217 307 outlet;
#X obj 77 51 r \$0-button5-off;
#X obj 270 51 r \$0-button9-off;
#X obj 77 115 r \$0-button6-on;
#X obj 270 243 r \$0-button12-on;
#X connect 0 0 1 0;
#X connect 1 0 2 0;
#X connect 2 0 3 0;
#X connect 3 0 4 0;
#X connect 4 0 5 0;
#X connect 5 0 6 0;
#X connect 6 0 7 0;
#X connect 7 0 8 0;
#X connect 8 0 13 0;
#X connect 9 0 3 1;
#X connect 10 0 4 1;
#X connect 11 0 6 1;
#X connect 12 0 7 1;
#X connect 14 0 1 1;
#X connect 15 0 5 1;
#X connect 16 0 2 1;
#X connect 17 0 8 1;
#X restore 282 44 pd lfo-button6-12;
#X connect 0 0 8 0;
#X connect 1 0 9 0;
#X connect 2 0 10 0;
#X connect 6 0 7 0;
#X connect 7 0 4 0;
#X connect 8 0 4 0;
#X connect 9 0 3 0;
#X connect 10 0 5 0;
#X restore 67 187 pd lfo-mixer-inputs;
#X connect 0 0 12 0;
#X connect 0 1 12 1;
#X connect 0 2 12 2;
#X connect 1 0 7 0;
#X connect 2 0 1 1;
#X connect 3 0 1 1;
#X connect 4 0 3 0;
#X connect 4 1 2 0;
#X connect 5 0 9 0;
#X connect 6 0 8 0;
#X connect 8 0 0 0;
#X connect 9 0 4 0;
#X connect 10 0 0 1;
#X connect 11 0 10 0;
#X connect 12 0 1 0;
#X connect 13 0 12 4;
#X connect 13 1 12 5;
#X connect 13 2 12 6;
#X restore 90 12 pd osc-fm-lfo;
#X obj 90 44 outlet~;
#X connect 0 0 1 0;
#X connect 1 0 2 0;
#X connect 3 0 4 0;
#X connect 5 0 6 0;
#X restore 22 187 pd osc-inputs;
#N canvas 185 395 885 493 midi-controller 0;
#X obj 10 10 modules/midi-knobs;
#X obj 10 111 modules/midi-buttons;
#X obj 200 436 s \$0-note;
#X obj 111 10 modules/midi-keys;
#X obj 314 386 s \$0-button1-on;
#X obj 10 402 s \$0-knob1;
#X obj 41 370 s \$0-knob2;
#X obj 72 338 s \$0-knob3;
#X obj 103 308 s \$0-knob4;
#X obj 345 354 s \$0-button2-on;
#X obj 376 322 s \$0-button3-on;
#X obj 407 290 s \$0-button4-on;
#X obj 111 111 modules/midi-pads;
#X obj 415 246 s \$0-button5-on;
#X obj 428 214 s \$0-button6-on;
#X obj 441 182 s \$0-button7-on;
#X obj 454 150 s \$0-button8-on;
#X obj 468 118 s \$0-button9-on;
#X obj 481 86 s \$0-button10-on;
#X obj 494 54 s \$0-button11-on;
#X obj 508 22 s \$0-button12-on;
#X obj 293 436 s \$0-gate;
#X obj 233 14 modules/midi-wheels;
#X obj 326 123 s \$0-wheel;
#X connect 0 0 5 0;
#X connect 0 1 6 0;
#X connect 0 2 7 0;
#X connect 0 3 8 0;
#X connect 1 0 4 0;
#X connect 1 1 9 0;
#X connect 1 2 10 0;
#X connect 1 3 11 0;
#X connect 12 0 13 0;
#X connect 12 1 14 0;
#X connect 12 2 15 0;
#X connect 12 3 16 0;
#X connect 12 4 17 0;
#X connect 12 5 18 0;
#X connect 12 6 19 0;
#X connect 12 7 20 0;
#X connect 22 1 23 0;
#X coords 0 -1 1 1 201 201 2 10 10;
#X restore 283 41 pd midi-controller;
#N canvas 524 236 740 432 init-button-vars 0;
#X obj 12 44 != 127;
#X obj 12 79 s \$0-button1-off;
#X obj 12 12 r \$0-button1-on;
#X obj 142 44 != 127;
#X obj 268 44 != 127;
#X obj 398 44 != 127;
#X obj 142 76 s \$0-button2-off;
#X obj 268 76 s \$0-button3-off;
#X obj 398 76 s \$0-button4-off;
#X obj 142 12 r \$0-button2-on;
#X obj 268 12 r \$0-button3-on;
#X obj 398 12 r \$0-button4-on;
#X obj 12 163 != 127;
#X obj 142 163 != 127;
#X obj 268 163 != 127;
#X obj 398 163 != 127;
#X obj 12 282 != 127;
#X obj 142 282 != 127;
#X obj 268 282 != 127;
#X obj 398 282 != 127;
#X obj 12 131 r \$0-button5-on;
#X obj 142 131 r \$0-button6-on;
#X obj 268 131 r \$0-button7-on;
#X obj 398 131 r \$0-button8-on;
#X obj 12 250 r \$0-button9-on;
#X obj 142 250 r \$0-button10-on;
#X obj 268 250 r \$0-button11-on;
#X obj 398 250 r \$0-button12-on;
#X obj 398 314 s \$0-button12-off;
#X obj 268 314 s \$0-button11-off;
#X obj 142 314 s \$0-button10-off;
#X obj 12 317 s \$0-button9-off;
#X obj 398 195 s \$0-button8-off;
#X obj 268 195 s \$0-button7-off;
#X obj 142 195 s \$0-button6-off;
#X obj 12 198 s \$0-button5-off;
#X connect 0 0 1 0;
#X connect 2 0 0 0;
#X connect 3 0 6 0;
#X connect 4 0 7 0;
#X connect 5 0 8 0;
#X connect 9 0 3 0;
#X connect 10 0 4 0;
#X connect 11 0 5 0;
#X connect 12 0 35 0;
#X connect 13 0 34 0;
#X connect 14 0 33 0;
#X connect 15 0 32 0;
#X connect 16 0 31 0;
#X connect 17 0 30 0;
#X connect 18 0 29 0;
#X connect 19 0 28 0;
#X connect 20 0 12 0;
#X connect 21 0 13 0;
#X connect 22 0 14 0;
#X connect 23 0 15 0;
#X connect 24 0 16 0;
#X connect 25 0 17 0;
#X connect 26 0 18 0;
#X connect 27 0 19 0;
#X restore 283 253 pd init-button-vars;
#X obj 12 12 inlet;
#X obj 12 73 s \$0-note;
#X obj 90 73 s \$0-gate;
#X obj 59 501 modules/envelope~;
#X obj 13 362 modules/mixer~;
#X obj 14 612 modules/vca~;
#N canvas 261 167 680 300 amp-env-inputs 0;
#X obj 110 12 r \$0-knob1;
#X obj 110 140 outlet;
#X obj 603 12 loadbang;
#X obj 603 44 s \$0-loadbang;
#X obj 120 76 r \$0-loadbang;
#X obj 236 140 outlet;
#X obj 246 76 r \$0-loadbang;
#X obj 352 140 outlet;
#X obj 362 76 r \$0-loadbang;
#X obj 236 12 r \$0-knob2;
#X obj 352 12 r \$0-knob3;
#X obj 468 140 outlet;
#X obj 478 76 r \$0-loadbang;
#X obj 468 12 r \$0-knob4;
#X msg 120 108 1;
#X msg 246 108 0;
#X msg 362 108 127;
#X msg 478 108 1;
#N canvas 452 52 784 403 button2 0;
#X obj 24 83 spigot 0;
#X obj 24 147 spigot 0;
#X obj 24 211 spigot 0;
#X obj 24 275 spigot 0;
#X obj 77 179 r \$0-button3-off;
#X obj 77 243 r \$0-button4-off;
#X obj 24 19 inlet;
#X obj 217 83 spigot 0;
#X obj 217 147 spigot 0;
#X obj 217 211 spigot 0;
#X obj 217 275 spigot 0;
#X obj 410 83 spigot 0;
#X obj 410 147 spigot 0;
#X obj 410 211 spigot 0;
#X obj 410 275 spigot 0;
#X obj 270 115 r \$0-button6-off;
#X obj 270 179 r \$0-button7-off;
#X obj 270 243 r \$0-button8-off;
#X obj 463 115 r \$0-button10-off;
#X obj 463 179 r \$0-button11-off;
#X obj 463 243 r \$0-button12-off;
#X obj 410 307 outlet;
#X obj 270 51 r \$0-button5-off;
#X obj 463 51 r \$0-button9-off;
#X obj 77 51 r \$0-button1-off;
#X obj 77 115 r \$0-button2-on;
#X connect 0 0 1 0;
#X connect 1 0 2 0;
#X connect 2 0 3 0;
#X connect 3 0 7 0;
#X connect 4 0 2 1;
#X connect 5 0 3 1;
#X connect 6 0 0 0;
#X connect 7 0 8 0;
#X connect 8 0 9 0;
#X connect 9 0 10 0;
#X connect 10 0 11 0;
#X connect 11 0 12 0;
#X connect 12 0 13 0;
#X connect 13 0 14 0;
#X connect 14 0 21 0;
#X connect 15 0 8 1;
#X connect 16 0 9 1;
#X connect 17 0 10 1;
#X connect 18 0 12 1;
#X connect 19 0 13 1;
#X connect 20 0 14 1;
#X connect 22 0 7 1;
#X connect 23 0 11 1;
#X connect 24 0 0 1;
#X connect 25 0 1 1;
#X restore 110 44 pd button2;
#N canvas 452 52 784 403 button2 0;
#X obj 24 83 spigot 0;
#X obj 24 147 spigot 0;
#X obj 24 211 spigot 0;
#X obj 24 275 spigot 0;
#X obj 77 179 r \$0-button3-off;
#X obj 77 243 r \$0-button4-off;
#X obj 24 19 inlet;
#X obj 217 83 spigot 0;
#X obj 217 147 spigot 0;
#X obj 217 211 spigot 0;
#X obj 217 275 spigot 0;
#X obj 410 83 spigot 0;
#X obj 410 147 spigot 0;
#X obj 410 211 spigot 0;
#X obj 410 275 spigot 0;
#X obj 270 115 r \$0-button6-off;
#X obj 270 179 r \$0-button7-off;
#X obj 270 243 r \$0-button8-off;
#X obj 463 115 r \$0-button10-off;
#X obj 463 179 r \$0-button11-off;
#X obj 463 243 r \$0-button12-off;
#X obj 410 307 outlet;
#X obj 270 51 r \$0-button5-off;
#X obj 463 51 r \$0-button9-off;
#X obj 77 51 r \$0-button1-off;
#X obj 77 115 r \$0-button2-on;
#X connect 0 0 1 0;
#X connect 1 0 2 0;
#X connect 2 0 3 0;
#X connect 3 0 7 0;
#X connect 4 0 2 1;
#X connect 5 0 3 1;
#X connect 6 0 0 0;
#X connect 7 0 8 0;
#X connect 8 0 9 0;
#X connect 9 0 10 0;
#X connect 10 0 11 0;
#X connect 11 0 12 0;
#X connect 12 0 13 0;
#X connect 13 0 14 0;
#X connect 14 0 21 0;
#X connect 15 0 8 1;
#X connect 16 0 9 1;
#X connect 17 0 10 1;
#X connect 18 0 12 1;
#X connect 19 0 13 1;
#X connect 20 0 14 1;
#X connect 22 0 7 1;
#X connect 23 0 11 1;
#X connect 24 0 0 1;
#X connect 25 0 1 1;
#X restore 236 44 pd button2;
#N canvas 452 52 784 403 button2 0;
#X obj 24 83 spigot 0;
#X obj 24 147 spigot 0;
#X obj 24 211 spigot 0;
#X obj 24 275 spigot 0;
#X obj 77 179 r \$0-button3-off;
#X obj 77 243 r \$0-button4-off;
#X obj 24 19 inlet;
#X obj 217 83 spigot 0;
#X obj 217 147 spigot 0;
#X obj 217 211 spigot 0;
#X obj 217 275 spigot 0;
#X obj 410 83 spigot 0;
#X obj 410 147 spigot 0;
#X obj 410 211 spigot 0;
#X obj 410 275 spigot 0;
#X obj 270 115 r \$0-button6-off;
#X obj 270 179 r \$0-button7-off;
#X obj 270 243 r \$0-button8-off;
#X obj 463 115 r \$0-button10-off;
#X obj 463 179 r \$0-button11-off;
#X obj 463 243 r \$0-button12-off;
#X obj 410 307 outlet;
#X obj 270 51 r \$0-button5-off;
#X obj 463 51 r \$0-button9-off;
#X obj 77 51 r \$0-button1-off;
#X obj 77 115 r \$0-button2-on;
#X connect 0 0 1 0;
#X connect 1 0 2 0;
#X connect 2 0 3 0;
#X connect 3 0 7 0;
#X connect 4 0 2 1;
#X connect 5 0 3 1;
#X connect 6 0 0 0;
#X connect 7 0 8 0;
#X connect 8 0 9 0;
#X connect 9 0 10 0;
#X connect 10 0 11 0;
#X connect 11 0 12 0;
#X connect 12 0 13 0;
#X connect 13 0 14 0;
#X connect 14 0 21 0;
#X connect 15 0 8 1;
#X connect 16 0 9 1;
#X connect 17 0 10 1;
#X connect 18 0 12 1;
#X connect 19 0 13 1;
#X connect 20 0 14 1;
#X connect 22 0 7 1;
#X connect 23 0 11 1;
#X connect 24 0 0 1;
#X connect 25 0 1 1;
#X restore 352 44 pd button2;
#N canvas 452 52 784 403 button2 0;
#X obj 24 83 spigot 0;
#X obj 24 147 spigot 0;
#X obj 24 211 spigot 0;
#X obj 24 275 spigot 0;
#X obj 77 179 r \$0-button3-off;
#X obj 77 243 r \$0-button4-off;
#X obj 24 19 inlet;
#X obj 217 83 spigot 0;
#X obj 217 147 spigot 0;
#X obj 217 211 spigot 0;
#X obj 217 275 spigot 0;
#X obj 410 83 spigot 0;
#X obj 410 147 spigot 0;
#X obj 410 211 spigot 0;
#X obj 410 275 spigot 0;
#X obj 270 115 r \$0-button6-off;
#X obj 270 179 r \$0-button7-off;
#X obj 270 243 r \$0-button8-off;
#X obj 463 115 r \$0-button10-off;
#X obj 463 179 r \$0-button11-off;
#X obj 463 243 r \$0-button12-off;
#X obj 410 307 outlet;
#X obj 270 51 r \$0-button5-off;
#X obj 463 51 r \$0-button9-off;
#X obj 77 51 r \$0-button1-off;
#X obj 77 115 r \$0-button2-on;
#X connect 0 0 1 0;
#X connect 1 0 2 0;
#X connect 2 0 3 0;
#X connect 3 0 7 0;
#X connect 4 0 2 1;
#X connect 5 0 3 1;
#X connect 6 0 0 0;
#X connect 7 0 8 0;
#X connect 8 0 9 0;
#X connect 9 0 10 0;
#X connect 10 0 11 0;
#X connect 11 0 12 0;
#X connect 12 0 13 0;
#X connect 13 0 14 0;
#X connect 14 0 21 0;
#X connect 15 0 8 1;
#X connect 16 0 9 1;
#X connect 17 0 10 1;
#X connect 18 0 12 1;
#X connect 19 0 13 1;
#X connect 20 0 14 1;
#X connect 22 0 7 1;
#X connect 23 0 11 1;
#X connect 24 0 0 1;
#X connect 25 0 1 1;
#X restore 468 44 pd button2;
#X obj 12 12 r \$0-gate;
#X obj 12 140 outlet;
#X connect 0 0 18 0;
#X connect 2 0 3 0;
#X connect 4 0 14 0;
#X connect 6 0 15 0;
#X connect 8 0 16 0;
#X connect 9 0 19 0;
#X connect 10 0 20 0;
#X connect 12 0 17 0;
#X connect 13 0 21 0;
#X connect 14 0 1 0;
#X connect 15 0 5 0;
#X connect 16 0 7 0;
#X connect 17 0 11 0;
#X connect 18 0 1 0;
#X connect 19 0 5 0;
#X connect 20 0 7 0;
#X connect 21 0 11 0;
#X connect 22 0 23 0;
#X restore 59 469 pd amp-env-inputs;
#X obj 14 707 modules/filter~;
#N canvas 45 444 941 488 filter-inputs 0;
#X obj 97 12 r \$0-knob2;
#X obj 12 12 r \$0-knob1;
#X obj 12 76 outlet;
#X obj 97 76 outlet;
#N canvas 452 52 784 403 button3 0;
#X obj 24 83 spigot 0;
#X obj 24 147 spigot 0;
#X obj 24 211 spigot 0;
#X obj 24 275 spigot 0;
#X obj 77 115 r \$0-button2-off;
#X obj 77 243 r \$0-button4-off;
#X obj 24 19 inlet;
#X obj 217 83 spigot 0;
#X obj 217 147 spigot 0;
#X obj 217 211 spigot 0;
#X obj 217 275 spigot 0;
#X obj 410 83 spigot 0;
#X obj 410 147 spigot 0;
#X obj 410 211 spigot 0;
#X obj 410 275 spigot 0;
#X obj 270 115 r \$0-button6-off;
#X obj 270 179 r \$0-button7-off;
#X obj 270 243 r \$0-button8-off;
#X obj 463 115 r \$0-button10-off;
#X obj 463 179 r \$0-button11-off;
#X obj 463 243 r \$0-button12-off;
#X obj 410 307 outlet;
#X obj 270 51 r \$0-button5-off;
#X obj 463 51 r \$0-button9-off;
#X obj 77 51 r \$0-button1-off;
#X obj 77 179 r \$0-button3-on;
#X connect 0 0 1 0;
#X connect 1 0 2 0;
#X connect 2 0 3 0;
#X connect 3 0 7 0;
#X connect 4 0 1 1;
#X connect 5 0 3 1;
#X connect 6 0 0 0;
#X connect 7 0 8 0;
#X connect 8 0 9 0;
#X connect 9 0 10 0;
#X connect 10 0 11 0;
#X connect 11 0 12 0;
#X connect 12 0 13 0;
#X connect 13 0 14 0;
#X connect 14 0 21 0;
#X connect 15 0 8 1;
#X connect 16 0 9 1;
#X connect 17 0 10 1;
#X connect 18 0 12 1;
#X connect 19 0 13 1;
#X connect 20 0 14 1;
#X connect 22 0 7 1;
#X connect 23 0 11 1;
#X connect 24 0 0 1;
#X connect 25 0 2 1;
#X restore 12 44 pd button3;
#N canvas 452 52 784 403 button3 0;
#X obj 24 83 spigot 0;
#X obj 24 147 spigot 0;
#X obj 24 211 spigot 0;
#X obj 24 275 spigot 0;
#X obj 77 115 r \$0-button2-off;
#X obj 77 243 r \$0-button4-off;
#X obj 24 19 inlet;
#X obj 217 83 spigot 0;
#X obj 217 147 spigot 0;
#X obj 217 211 spigot 0;
#X obj 217 275 spigot 0;
#X obj 410 83 spigot 0;
#X obj 410 147 spigot 0;
#X obj 410 211 spigot 0;
#X obj 410 275 spigot 0;
#X obj 270 115 r \$0-button6-off;
#X obj 270 179 r \$0-button7-off;
#X obj 270 243 r \$0-button8-off;
#X obj 463 115 r \$0-button10-off;
#X obj 463 179 r \$0-button11-off;
#X obj 463 243 r \$0-button12-off;
#X obj 410 307 outlet;
#X obj 270 51 r \$0-button5-off;
#X obj 463 51 r \$0-button9-off;
#X obj 77 51 r \$0-button1-off;
#X obj 77 179 r \$0-button3-on;
#X connect 0 0 1 0;
#X connect 1 0 2 0;
#X connect 2 0 3 0;
#X connect 3 0 7 0;
#X connect 4 0 1 1;
#X connect 5 0 3 1;
#X connect 6 0 0 0;
#X connect 7 0 8 0;
#X connect 8 0 9 0;
#X connect 9 0 10 0;
#X connect 10 0 11 0;
#X connect 11 0 12 0;
#X connect 12 0 13 0;
#X connect 13 0 14 0;
#X connect 14 0 21 0;
#X connect 15 0 8 1;
#X connect 16 0 9 1;
#X connect 17 0 10 1;
#X connect 18 0 12 1;
#X connect 19 0 13 1;
#X connect 20 0 14 1;
#X connect 22 0 7 1;
#X connect 23 0 11 1;
#X connect 24 0 0 1;
#X connect 25 0 2 1;
#X restore 97 44 pd button3;
#N canvas 129 231 982 562 filter-lfo 0;
#X obj 13 76 modules/lfo~;
#X obj 12 458 *~;
#X obj 62 426 mtof;
#X msg 30 426 0;
#X obj 30 394 sel 0;
#X obj 30 330 r \$0-wheel;
#X obj 13 12 r \$0-knob1;
#X obj 12 490 outlet~;
#N canvas 560 179 784 403 lfo-button7 0;
#X obj 24 19 inlet;
#X obj 24 83 spigot 0;
#X obj 24 147 spigot 0;
#X obj 24 211 spigot 0;
#X obj 24 275 spigot 0;
#X obj 217 83 spigot 0;
#X obj 217 147 spigot 0;
#X obj 217 211 spigot 0;
#X obj 217 275 spigot 0;
#X obj 77 243 r \$0-button8-off;
#X obj 270 115 r \$0-button10-off;
#X obj 270 179 r \$0-button11-off;
#X obj 270 243 r \$0-button12-off;
#X obj 217 307 outlet;
#X obj 77 51 r \$0-button5-off;
#X obj 270 51 r \$0-button9-off;
#X obj 77 115 r \$0-button6-off;
#X obj 77 179 r \$0-button7-on;
#X connect 0 0 1 0;
#X connect 1 0 2 0;
#X connect 2 0 3 0;
#X connect 3 0 4 0;
#X connect 4 0 5 0;
#X connect 5 0 6 0;
#X connect 6 0 7 0;
#X connect 7 0 8 0;
#X connect 8 0 13 0;
#X connect 9 0 4 1;
#X connect 10 0 6 1;
#X connect 11 0 7 1;
#X connect 12 0 8 1;
#X connect 14 0 1 1;
#X connect 15 0 5 1;
#X connect 16 0 2 1;
#X connect 17 0 3 1;
#X restore 13 44 pd lfo-button7;
#N canvas 560 179 784 403 lfo-button7 0;
#X obj 24 19 inlet;
#X obj 24 83 spigot 0;
#X obj 24 147 spigot 0;
#X obj 24 211 spigot 0;
#X obj 24 275 spigot 0;
#X obj 217 83 spigot 0;
#X obj 217 147 spigot 0;
#X obj 217 211 spigot 0;
#X obj 217 275 spigot 0;
#X obj 77 243 r \$0-button8-off;
#X obj 270 115 r \$0-button10-off;
#X obj 270 179 r \$0-button11-off;
#X obj 270 243 r \$0-button12-off;
#X obj 217 307 outlet;
#X obj 77 51 r \$0-button5-off;
#X obj 270 51 r \$0-button9-off;
#X obj 77 115 r \$0-button6-off;
#X obj 77 179 r \$0-button7-on;
#X connect 0 0 1 0;
#X connect 1 0 2 0;
#X connect 2 0 3 0;
#X connect 3 0 4 0;
#X connect 4 0 5 0;
#X connect 5 0 6 0;
#X connect 6 0 7 0;
#X connect 7 0 8 0;
#X connect 8 0 13 0;
#X connect 9 0 4 1;
#X connect 10 0 6 1;
#X connect 11 0 7 1;
#X connect 12 0 8 1;
#X connect 14 0 1 1;
#X connect 15 0 5 1;
#X connect 16 0 2 1;
#X connect 17 0 3 1;
#X restore 30 362 pd lfo-button7;
#X obj 13 219 modules/mixer~;
#N canvas 170 128 450 300 lfo-mixer-inputs 0;
#X obj 12 12 r \$0-knob1;
#X obj 147 12 r \$0-knob2;
#X obj 282 12 r \$0-knob3;
#X obj 147 76 outlet;
#X obj 12 140 outlet;
#X obj 282 76 outlet;
#X obj 22 76 loadbang;
#X msg 22 108 127;
#N canvas 452 52 784 403 lfo-button7-12 0;
#X obj 24 19 inlet;
#X obj 24 83 spigot 0;
#X obj 24 147 spigot 0;
#X obj 24 211 spigot 0;
#X obj 24 275 spigot 0;
#X obj 217 83 spigot 0;
#X obj 217 147 spigot 0;
#X obj 217 211 spigot 0;
#X obj 217 275 spigot 0;
#X obj 77 243 r \$0-button8-off;
#X obj 270 115 r \$0-button10-off;
#X obj 270 179 r \$0-button11-off;
#X obj 217 307 outlet;
#X obj 77 51 r \$0-button5-off;
#X obj 270 51 r \$0-button9-off;
#X obj 270 243 r \$0-button12-on;
#X obj 77 115 r \$0-button6-off;
#X obj 77 179 r \$0-button7-on;
#X connect 0 0 1 0;
#X connect 1 0 2 0;
#X connect 2 0 3 0;
#X connect 3 0 4 0;
#X connect 4 0 5 0;
#X connect 5 0 6 0;
#X connect 6 0 7 0;
#X connect 7 0 8 0;
#X connect 8 0 12 0;
#X connect 9 0 4 1;
#X connect 10 0 6 1;
#X connect 11 0 7 1;
#X connect 13 0 1 1;
#X connect 14 0 5 1;
#X connect 15 0 8 1;
#X connect 16 0 2 1;
#X connect 17 0 3 1;
#X restore 147 44 pd lfo-button7-12;
#N canvas 452 52 784 403 lfo-button7-12 0;
#X obj 24 19 inlet;
#X obj 24 83 spigot 0;
#X obj 24 147 spigot 0;
#X obj 24 211 spigot 0;
#X obj 24 275 spigot 0;
#X obj 217 83 spigot 0;
#X obj 217 147 spigot 0;
#X obj 217 211 spigot 0;
#X obj 217 275 spigot 0;
#X obj 77 243 r \$0-button8-off;
#X obj 270 115 r \$0-button10-off;
#X obj 270 179 r \$0-button11-off;
#X obj 217 307 outlet;
#X obj 77 51 r \$0-button5-off;
#X obj 270 51 r \$0-button9-off;
#X obj 270 243 r \$0-button12-on;
#X obj 77 115 r \$0-button6-off;
#X obj 77 179 r \$0-button7-on;
#X connect 0 0 1 0;
#X connect 1 0 2 0;
#X connect 2 0 3 0;
#X connect 3 0 4 0;
#X connect 4 0 5 0;
#X connect 5 0 6 0;
#X connect 6 0 7 0;
#X connect 7 0 8 0;
#X connect 8 0 12 0;
#X connect 9 0 4 1;
#X connect 10 0 6 1;
#X connect 11 0 7 1;
#X connect 13 0 1 1;
#X connect 14 0 5 1;
#X connect 15 0 8 1;
#X connect 16 0 2 1;
#X connect 17 0 3 1;
#X restore 282 44 pd lfo-button7-12;
#N canvas 452 52 784 403 lfo-button7-12 0;
#X obj 24 19 inlet;
#X obj 24 83 spigot 0;
#X obj 24 147 spigot 0;
#X obj 24 211 spigot 0;
#X obj 24 275 spigot 0;
#X obj 217 83 spigot 0;
#X obj 217 147 spigot 0;
#X obj 217 211 spigot 0;
#X obj 217 275 spigot 0;
#X obj 77 243 r \$0-button8-off;
#X obj 270 115 r \$0-button10-off;
#X obj 270 179 r \$0-button11-off;
#X obj 217 307 outlet;
#X obj 77 51 r \$0-button5-off;
#X obj 270 51 r \$0-button9-off;
#X obj 270 243 r \$0-button12-on;
#X obj 77 115 r \$0-button6-off;
#X obj 77 179 r \$0-button7-on;
#X connect 0 0 1 0;
#X connect 1 0 2 0;
#X connect 2 0 3 0;
#X connect 3 0 4 0;
#X connect 4 0 5 0;
#X connect 5 0 6 0;
#X connect 6 0 7 0;
#X connect 7 0 8 0;
#X connect 8 0 12 0;
#X connect 9 0 4 1;
#X connect 10 0 6 1;
#X connect 11 0 7 1;
#X connect 13 0 1 1;
#X connect 14 0 5 1;
#X connect 15 0 8 1;
#X connect 16 0 2 1;
#X connect 17 0 3 1;
#X restore 12 44 pd lfo-button7-12;
#X connect 0 0 10 0;
#X connect 1 0 8 0;
#X connect 2 0 9 0;
#X connect 6 0 7 0;
#X connect 7 0 4 0;
#X connect 8 0 3 0;
#X connect 9 0 5 0;
#X connect 10 0 4 0;
#X restore 66 187 pd lfo-mixer-inputs;
#X obj 126 12 r \$0-knob4;
#N canvas 452 52 784 403 lfo-button7-12 0;
#X obj 24 19 inlet;
#X obj 24 83 spigot 0;
#X obj 24 147 spigot 0;
#X obj 24 211 spigot 0;
#X obj 24 275 spigot 0;
#X obj 217 83 spigot 0;
#X obj 217 147 spigot 0;
#X obj 217 211 spigot 0;
#X obj 217 275 spigot 0;
#X obj 77 243 r \$0-button8-off;
#X obj 270 115 r \$0-button10-off;
#X obj 270 179 r \$0-button11-off;
#X obj 217 307 outlet;
#X obj 77 51 r \$0-button5-off;
#X obj 270 51 r \$0-button9-off;
#X obj 270 243 r \$0-button12-on;
#X obj 77 115 r \$0-button6-off;
#X obj 77 179 r \$0-button7-on;
#X connect 0 0 1 0;
#X connect 1 0 2 0;
#X connect 2 0 3 0;
#X connect 3 0 4 0;
#X connect 4 0 5 0;
#X connect 5 0 6 0;
#X connect 6 0 7 0;
#X connect 7 0 8 0;
#X connect 8 0 12 0;
#X connect 9 0 4 1;
#X connect 10 0 6 1;
#X connect 11 0 7 1;
#X connect 13 0 1 1;
#X connect 14 0 5 1;
#X connect 15 0 8 1;
#X connect 16 0 2 1;
#X connect 17 0 3 1;
#X restore 126 44 pd lfo-button7-12;
#X connect 0 0 10 0;
#X connect 0 1 10 1;
#X connect 0 2 10 2;
#X connect 1 0 7 0;
#X connect 2 0 1 1;
#X connect 3 0 1 1;
#X connect 4 0 3 0;
#X connect 4 1 2 0;
#X connect 5 0 9 0;
#X connect 6 0 8 0;
#X connect 8 0 0 0;
#X connect 9 0 4 0;
#X connect 10 0 1 0;
#X connect 11 0 10 4;
#X connect 11 1 10 5;
#X connect 11 2 10 6;
#X connect 12 0 13 0;
#X connect 13 0 0 1;
#X restore 182 44 pd filter-lfo;
#X obj 181 76 outlet~;
#X obj 288 44 modules/envelope~;
#N canvas 93 317 982 539 filter-env-inputs 0;
#X obj 110 12 r \$0-knob1;
#X obj 110 140 outlet;
#X obj 603 12 loadbang;
#X obj 603 44 s \$0-loadbang;
#X obj 120 76 r \$0-loadbang;
#X obj 236 140 outlet;
#X obj 246 76 r \$0-loadbang;
#X obj 352 140 outlet;
#X obj 362 76 r \$0-loadbang;
#X obj 236 12 r \$0-knob2;
#X obj 352 12 r \$0-knob3;
#X obj 468 140 outlet;
#X obj 478 76 r \$0-loadbang;
#X obj 468 12 r \$0-knob4;
#X msg 120 108 1;
#X msg 246 108 0;
#X msg 362 108 127;
#X msg 478 108 1;
#N canvas 452 52 784 403 button2-3 0;
#X obj 24 83 spigot 0;
#X obj 24 147 spigot 0;
#X obj 24 211 spigot 0;
#X obj 24 275 spigot 0;
#X obj 77 243 r \$0-button4-off;
#X obj 24 19 inlet;
#X obj 217 83 spigot 0;
#X obj 217 147 spigot 0;
#X obj 217 211 spigot 0;
#X obj 217 275 spigot 0;
#X obj 410 83 spigot 0;
#X obj 410 147 spigot 0;
#X obj 410 211 spigot 0;
#X obj 410 275 spigot 0;
#X obj 270 115 r \$0-button6-off;
#X obj 270 179 r \$0-button7-off;
#X obj 270 243 r \$0-button8-off;
#X obj 463 115 r \$0-button10-off;
#X obj 463 179 r \$0-button11-off;
#X obj 463 243 r \$0-button12-off;
#X obj 410 307 outlet;
#X obj 270 51 r \$0-button5-off;
#X obj 463 51 r \$0-button9-off;
#X obj 77 51 r \$0-button1-off;
#X obj 77 115 r \$0-button2-on;
#X obj 77 179 r \$0-button3-on;
#X connect 0 0 1 0;
#X connect 1 0 2 0;
#X connect 2 0 3 0;
#X connect 3 0 6 0;
#X connect 4 0 3 1;
#X connect 5 0 0 0;
#X connect 6 0 7 0;
#X connect 7 0 8 0;
#X connect 8 0 9 0;
#X connect 9 0 10 0;
#X connect 10 0 11 0;
#X connect 11 0 12 0;
#X connect 12 0 13 0;
#X connect 13 0 20 0;
#X connect 14 0 7 1;
#X connect 15 0 8 1;
#X connect 16 0 9 1;
#X connect 17 0 11 1;
#X connect 18 0 12 1;
#X connect 19 0 13 1;
#X connect 21 0 6 1;
#X connect 22 0 10 1;
#X connect 23 0 0 1;
#X connect 24 0 1 1;
#X connect 25 0 2 1;
#X restore 110 44 pd button2-3;
#N canvas 452 52 784 403 button2-3 0;
#X obj 24 83 spigot 0;
#X obj 24 147 spigot 0;
#X obj 24 211 spigot 0;
#X obj 24 275 spigot 0;
#X obj 77 243 r \$0-button4-off;
#X obj 24 19 inlet;
#X obj 217 83 spigot 0;
#X obj 217 147 spigot 0;
#X obj 217 211 spigot 0;
#X obj 217 275 spigot 0;
#X obj 410 83 spigot 0;
#X obj 410 147 spigot 0;
#X obj 410 211 spigot 0;
#X obj 410 275 spigot 0;
#X obj 270 115 r \$0-button6-off;
#X obj 270 179 r \$0-button7-off;
#X obj 270 243 r \$0-button8-off;
#X obj 463 115 r \$0-button10-off;
#X obj 463 179 r \$0-button11-off;
#X obj 463 243 r \$0-button12-off;
#X obj 410 307 outlet;
#X obj 270 51 r \$0-button5-off;
#X obj 463 51 r \$0-button9-off;
#X obj 77 51 r \$0-button1-off;
#X obj 77 115 r \$0-button2-on;
#X obj 77 179 r \$0-button3-on;
#X connect 0 0 1 0;
#X connect 1 0 2 0;
#X connect 2 0 3 0;
#X connect 3 0 6 0;
#X connect 4 0 3 1;
#X connect 5 0 0 0;
#X connect 6 0 7 0;
#X connect 7 0 8 0;
#X connect 8 0 9 0;
#X connect 9 0 10 0;
#X connect 10 0 11 0;
#X connect 11 0 12 0;
#X connect 12 0 13 0;
#X connect 13 0 20 0;
#X connect 14 0 7 1;
#X connect 15 0 8 1;
#X connect 16 0 9 1;
#X connect 17 0 11 1;
#X connect 18 0 12 1;
#X connect 19 0 13 1;
#X connect 21 0 6 1;
#X connect 22 0 10 1;
#X connect 23 0 0 1;
#X connect 24 0 1 1;
#X connect 25 0 2 1;
#X restore 236 44 pd button2-3;
#N canvas 452 52 784 403 button2-3 0;
#X obj 24 83 spigot 0;
#X obj 24 147 spigot 0;
#X obj 24 211 spigot 0;
#X obj 24 275 spigot 0;
#X obj 77 243 r \$0-button4-off;
#X obj 24 19 inlet;
#X obj 217 83 spigot 0;
#X obj 217 147 spigot 0;
#X obj 217 211 spigot 0;
#X obj 217 275 spigot 0;
#X obj 410 83 spigot 0;
#X obj 410 147 spigot 0;
#X obj 410 211 spigot 0;
#X obj 410 275 spigot 0;
#X obj 270 115 r \$0-button6-off;
#X obj 270 179 r \$0-button7-off;
#X obj 270 243 r \$0-button8-off;
#X obj 463 115 r \$0-button10-off;
#X obj 463 179 r \$0-button11-off;
#X obj 463 243 r \$0-button12-off;
#X obj 410 307 outlet;
#X obj 270 51 r \$0-button5-off;
#X obj 463 51 r \$0-button9-off;
#X obj 77 51 r \$0-button1-off;
#X obj 77 115 r \$0-button2-on;
#X obj 77 179 r \$0-button3-on;
#X connect 0 0 1 0;
#X connect 1 0 2 0;
#X connect 2 0 3 0;
#X connect 3 0 6 0;
#X connect 4 0 3 1;
#X connect 5 0 0 0;
#X connect 6 0 7 0;
#X connect 7 0 8 0;
#X connect 8 0 9 0;
#X connect 9 0 10 0;
#X connect 10 0 11 0;
#X connect 11 0 12 0;
#X connect 12 0 13 0;
#X connect 13 0 20 0;
#X connect 14 0 7 1;
#X connect 15 0 8 1;
#X connect 16 0 9 1;
#X connect 17 0 11 1;
#X connect 18 0 12 1;
#X connect 19 0 13 1;
#X connect 21 0 6 1;
#X connect 22 0 10 1;
#X connect 23 0 0 1;
#X connect 24 0 1 1;
#X connect 25 0 2 1;
#X restore 352 44 pd button2-3;
#N canvas 452 52 784 403 button2-3 0;
#X obj 24 83 spigot 0;
#X obj 24 147 spigot 0;
#X obj 24 211 spigot 0;
#X obj 24 275 spigot 0;
#X obj 77 243 r \$0-button4-off;
#X obj 24 19 inlet;
#X obj 217 83 spigot 0;
#X obj 217 147 spigot 0;
#X obj 217 211 spigot 0;
#X obj 217 275 spigot 0;
#X obj 410 83 spigot 0;
#X obj 410 147 spigot 0;
#X obj 410 211 spigot 0;
#X obj 410 275 spigot 0;
#X obj 270 115 r \$0-button6-off;
#X obj 270 179 r \$0-button7-off;
#X obj 270 243 r \$0-button8-off;
#X obj 463 115 r \$0-button10-off;
#X obj 463 179 r \$0-button11-off;
#X obj 463 243 r \$0-button12-off;
#X obj 410 307 outlet;
#X obj 270 51 r \$0-button5-off;
#X obj 463 51 r \$0-button9-off;
#X obj 77 51 r \$0-button1-off;
#X obj 77 115 r \$0-button2-on;
#X obj 77 179 r \$0-button3-on;
#X connect 0 0 1 0;
#X connect 1 0 2 0;
#X connect 2 0 3 0;
#X connect 3 0 6 0;
#X connect 4 0 3 1;
#X connect 5 0 0 0;
#X connect 6 0 7 0;
#X connect 7 0 8 0;
#X connect 8 0 9 0;
#X connect 9 0 10 0;
#X connect 10 0 11 0;
#X connect 11 0 12 0;
#X connect 12 0 13 0;
#X connect 13 0 20 0;
#X connect 14 0 7 1;
#X connect 15 0 8 1;
#X connect 16 0 9 1;
#X connect 17 0 11 1;
#X connect 18 0 12 1;
#X connect 19 0 13 1;
#X connect 21 0 6 1;
#X connect 22 0 10 1;
#X connect 23 0 0 1;
#X connect 24 0 1 1;
#X connect 25 0 2 1;
#X restore 468 44 pd button2-3;
#X obj 12 12 r \$0-gate;
#X obj 12 140 outlet;
#X connect 0 0 18 0;
#X connect 2 0 3 0;
#X connect 4 0 14 0;
#X connect 6 0 15 0;
#X connect 8 0 16 0;
#X connect 9 0 19 0;
#X connect 10 0 20 0;
#X connect 12 0 17 0;
#X connect 13 0 21 0;
#X connect 14 0 1 0;
#X connect 15 0 5 0;
#X connect 16 0 7 0;
#X connect 17 0 11 0;
#X connect 18 0 1 0;
#X connect 19 0 5 0;
#X connect 20 0 7 0;
#X connect 21 0 11 0;
#X connect 22 0 23 0;
#X restore 288 12 pd filter-env-inputs;
#X obj 288 155 outlet~;
#X connect 0 0 5 0;
#X connect 1 0 4 0;
#X connect 4 0 2 0;
#X connect 5 0 3 0;
#X connect 6 0 7 0;
#X connect 8 0 10 0;
#X connect 9 0 8 0;
#X connect 9 1 8 1;
#X connect 9 2 8 2;
#X connect 9 3 8 3;
#X connect 9 4 8 4;
#X restore 60 675 pd filter-inputs;
#X obj 107 818 outlet~;
#X obj 12 44 unpack f f;
#N canvas 630 287 450 300 osc-mixer-inputs 0;
#X obj 12 140 outlet;
#X obj 125 76 outlet;
#X obj 12 12 r \$0-knob1;
#X obj 125 12 r \$0-knob2;
#X obj 238 76 outlet;
#X obj 238 12 r \$0-knob3;
#X obj 22 76 loadbang;
#X msg 22 108 127;
#N canvas 452 52 784 403 buttons-off 0;
#X obj 24 83 spigot 0;
#X obj 24 147 spigot 0;
#X obj 24 211 spigot 0;
#X obj 24 275 spigot 0;
#X obj 77 115 r \$0-button2-off;
#X obj 77 179 r \$0-button3-off;
#X obj 77 243 r \$0-button4-off;
#X obj 24 19 inlet;
#X obj 217 83 spigot 0;
#X obj 217 147 spigot 0;
#X obj 217 211 spigot 0;
#X obj 217 275 spigot 0;
#X obj 410 83 spigot 0;
#X obj 410 147 spigot 0;
#X obj 410 211 spigot 0;
#X obj 410 275 spigot 0;
#X obj 270 115 r \$0-button6-off;
#X obj 270 179 r \$0-button7-off;
#X obj 270 243 r \$0-button8-off;
#X obj 463 115 r \$0-button10-off;
#X obj 463 179 r \$0-button11-off;
#X obj 463 243 r \$0-button12-off;
#X obj 410 307 outlet;
#X obj 270 51 r \$0-button5-off;
#X obj 463 51 r \$0-button9-off;
#X obj 77 51 r \$0-button1-off;
#X connect 0 0 1 0;
#X connect 1 0 2 0;
#X connect 2 0 3 0;
#X connect 3 0 8 0;
#X connect 4 0 1 1;
#X connect 5 0 2 1;
#X connect 6 0 3 1;
#X connect 7 0 0 0;
#X connect 8 0 9 0;
#X connect 9 0 10 0;
#X connect 10 0 11 0;
#X connect 11 0 12 0;
#X connect 12 0 13 0;
#X connect 13 0 14 0;
#X connect 14 0 15 0;
#X connect 15 0 22 0;
#X connect 16 0 9 1;
#X connect 17 0 10 1;
#X connect 18 0 11 1;
#X connect 19 0 13 1;
#X connect 20 0 14 1;
#X connect 21 0 15 1;
#X connect 23 0 8 1;
#X connect 24 0 12 1;
#X connect 25 0 0 1;
#X restore 12 44 pd buttons-off;
#N canvas 452 52 784 403 buttons-off 0;
#X obj 24 83 spigot 0;
#X obj 24 147 spigot 0;
#X obj 24 211 spigot 0;
#X obj 24 275 spigot 0;
#X obj 77 115 r \$0-button2-off;
#X obj 77 179 r \$0-button3-off;
#X obj 77 243 r \$0-button4-off;
#X obj 24 19 inlet;
#X obj 217 83 spigot 0;
#X obj 217 147 spigot 0;
#X obj 217 211 spigot 0;
#X obj 217 275 spigot 0;
#X obj 410 83 spigot 0;
#X obj 410 147 spigot 0;
#X obj 410 211 spigot 0;
#X obj 410 275 spigot 0;
#X obj 270 115 r \$0-button6-off;
#X obj 270 179 r \$0-button7-off;
#X obj 270 243 r \$0-button8-off;
#X obj 463 115 r \$0-button10-off;
#X obj 463 179 r \$0-button11-off;
#X obj 463 243 r \$0-button12-off;
#X obj 410 307 outlet;
#X obj 270 51 r \$0-button5-off;
#X obj 463 51 r \$0-button9-off;
#X obj 77 51 r \$0-button1-off;
#X connect 0 0 1 0;
#X connect 1 0 2 0;
#X connect 2 0 3 0;
#X connect 3 0 8 0;
#X connect 4 0 1 1;
#X connect 5 0 2 1;
#X connect 6 0 3 1;
#X connect 7 0 0 0;
#X connect 8 0 9 0;
#X connect 9 0 10 0;
#X connect 10 0 11 0;
#X connect 11 0 12 0;
#X connect 12 0 13 0;
#X connect 13 0 14 0;
#X connect 14 0 15 0;
#X connect 15 0 22 0;
#X connect 16 0 9 1;
#X connect 17 0 10 1;
#X connect 18 0 11 1;
#X connect 19 0 13 1;
#X connect 20 0 14 1;
#X connect 21 0 15 1;
#X connect 23 0 8 1;
#X connect 24 0 12 1;
#X connect 25 0 0 1;
#X restore 125 44 pd buttons-off;
#N canvas 452 52 784 403 buttons-off 0;
#X obj 24 83 spigot 0;
#X obj 24 147 spigot 0;
#X obj 24 211 spigot 0;
#X obj 24 275 spigot 0;
#X obj 77 115 r \$0-button2-off;
#X obj 77 179 r \$0-button3-off;
#X obj 77 243 r \$0-button4-off;
#X obj 24 19 inlet;
#X obj 217 83 spigot 0;
#X obj 217 147 spigot 0;
#X obj 217 211 spigot 0;
#X obj 217 275 spigot 0;
#X obj 410 83 spigot 0;
#X obj 410 147 spigot 0;
#X obj 410 211 spigot 0;
#X obj 410 275 spigot 0;
#X obj 270 115 r \$0-button6-off;
#X obj 270 179 r \$0-button7-off;
#X obj 270 243 r \$0-button8-off;
#X obj 463 115 r \$0-button10-off;
#X obj 463 179 r \$0-button11-off;
#X obj 463 243 r \$0-button12-off;
#X obj 410 307 outlet;
#X obj 270 51 r \$0-button5-off;
#X obj 463 51 r \$0-button9-off;
#X obj 77 51 r \$0-button1-off;
#X connect 0 0 1 0;
#X connect 1 0 2 0;
#X connect 2 0 3 0;
#X connect 3 0 8 0;
#X connect 4 0 1 1;
#X connect 5 0 2 1;
#X connect 6 0 3 1;
#X connect 7 0 0 0;
#X connect 8 0 9 0;
#X connect 9 0 10 0;
#X connect 10 0 11 0;
#X connect 11 0 12 0;
#X connect 12 0 13 0;
#X connect 13 0 14 0;
#X connect 14 0 15 0;
#X connect 15 0 22 0;
#X connect 16 0 9 1;
#X connect 17 0 10 1;
#X connect 18 0 11 1;
#X connect 19 0 13 1;
#X connect 20 0 14 1;
#X connect 21 0 15 1;
#X connect 23 0 8 1;
#X connect 24 0 12 1;
#X connect 25 0 0 1;
#X restore 238 44 pd buttons-off;
#X connect 2 0 8 0;
#X connect 3 0 9 0;
#X connect 5 0 10 0;
#X connect 6 0 7 0;
#X connect 7 0 0 0;
#X connect 8 0 0 0;
#X connect 9 0 1 0;
#X connect 10 0 4 0;
#X restore 66 330 pd osc-mixer-inputs;
#X connect 0 0 8 0;
#X connect 0 1 8 1;
#X connect 0 3 8 2;
#X connect 1 0 0 0;
#X connect 1 1 0 1;
#X connect 1 2 0 2;
#X connect 4 0 14 0;
#X connect 7 0 9 1;
#X connect 8 0 9 0;
#X connect 9 0 11 0;
#X connect 10 0 7 0;
#X connect 10 1 7 1;
#X connect 10 2 7 2;
#X connect 10 3 7 3;
#X connect 10 4 7 4;
#X connect 11 2 13 0;
#X connect 12 0 11 3;
#X connect 12 1 11 4;
#X connect 12 2 11 5;
#X connect 12 3 11 6;
#X connect 14 0 5 0;
#X connect 14 1 6 0;
#X connect 15 0 8 4;
#X connect 15 1 8 5;
#X connect 15 2 8 6;
