#N canvas 331 212 899 409 12;
#N canvas 185 395 885 493 midi-controller 0;
#X obj 10 10 modules/midi-knobs;
#X obj 10 111 modules/midi-buttons;
#X obj 200 436 s \$0-note;
#X obj 111 10 modules/midi-keys;
#X obj 314 386 s \$0-button1-on;
#X obj 10 402 s \$0-knob1;
#X obj 41 370 s \$0-knob2;
#X obj 72 338 s \$0-knob3;
#X obj 103 308 s \$0-knob4;
#X obj 345 354 s \$0-button2-on;
#X obj 376 322 s \$0-button3-on;
#X obj 407 290 s \$0-button4-on;
#X obj 111 111 modules/midi-pads;
#X obj 415 246 s \$0-button5-on;
#X obj 428 214 s \$0-button6-on;
#X obj 441 182 s \$0-button7-on;
#X obj 454 150 s \$0-button8-on;
#X obj 468 118 s \$0-button9-on;
#X obj 481 86 s \$0-button10-on;
#X obj 494 54 s \$0-button11-on;
#X obj 508 22 s \$0-button12-on;
#X obj 293 436 s \$0-gate;
#X obj 233 14 modules/midi-wheels;
#X obj 326 123 s \$0-wheel;
#X connect 0 0 5 0;
#X connect 0 1 6 0;
#X connect 0 2 7 0;
#X connect 0 3 8 0;
#X connect 1 0 4 0;
#X connect 1 1 9 0;
#X connect 1 2 10 0;
#X connect 1 3 11 0;
#X connect 3 0 2 0;
#X connect 3 1 21 0;
#X connect 12 0 13 0;
#X connect 12 1 14 0;
#X connect 12 2 15 0;
#X connect 12 3 16 0;
#X connect 12 4 17 0;
#X connect 12 5 18 0;
#X connect 12 6 19 0;
#X connect 12 7 20 0;
#X connect 22 1 23 0;
#X coords 0 -1 1 1 201 201 2 10 10;
#X restore 183 11 pd midi-controller;
#N canvas 524 236 740 432 init-button-vars 0;
#X obj 12 44 != 127;
#X obj 12 79 s \$0-button1-off;
#X obj 12 12 r \$0-button1-on;
#X obj 142 44 != 127;
#X obj 268 44 != 127;
#X obj 398 44 != 127;
#X obj 142 76 s \$0-button2-off;
#X obj 268 76 s \$0-button3-off;
#X obj 398 76 s \$0-button4-off;
#X obj 142 12 r \$0-button2-on;
#X obj 268 12 r \$0-button3-on;
#X obj 398 12 r \$0-button4-on;
#X obj 12 163 != 127;
#X obj 142 163 != 127;
#X obj 268 163 != 127;
#X obj 398 163 != 127;
#X obj 12 282 != 127;
#X obj 142 282 != 127;
#X obj 268 282 != 127;
#X obj 398 282 != 127;
#X obj 12 131 r \$0-button5-on;
#X obj 142 131 r \$0-button6-on;
#X obj 268 131 r \$0-button7-on;
#X obj 398 131 r \$0-button8-on;
#X obj 12 250 r \$0-button9-on;
#X obj 142 250 r \$0-button10-on;
#X obj 268 250 r \$0-button11-on;
#X obj 398 250 r \$0-button12-on;
#X obj 398 314 s \$0-button12-off;
#X obj 268 314 s \$0-button11-off;
#X obj 142 314 s \$0-button10-off;
#X obj 12 317 s \$0-button9-off;
#X obj 398 195 s \$0-button8-off;
#X obj 268 195 s \$0-button7-off;
#X obj 142 195 s \$0-button6-off;
#X obj 12 198 s \$0-button5-off;
#X connect 0 0 1 0;
#X connect 2 0 0 0;
#X connect 3 0 6 0;
#X connect 4 0 7 0;
#X connect 5 0 8 0;
#X connect 9 0 3 0;
#X connect 10 0 4 0;
#X connect 11 0 5 0;
#X connect 12 0 35 0;
#X connect 13 0 34 0;
#X connect 14 0 33 0;
#X connect 15 0 32 0;
#X connect 16 0 31 0;
#X connect 17 0 30 0;
#X connect 18 0 29 0;
#X connect 19 0 28 0;
#X connect 20 0 12 0;
#X connect 21 0 13 0;
#X connect 22 0 14 0;
#X connect 23 0 15 0;
#X connect 24 0 16 0;
#X connect 25 0 17 0;
#X connect 26 0 18 0;
#X connect 27 0 19 0;
#X restore 247 218 pd init-button-vars;
#X obj 39 383 noise~;
#X obj 133 526 modules/mixer~;
#X obj 40 415 modules/filter~;
#N canvas 109 353 941 488 noise-filter-inputs 0;
#X obj 97 12 r \$0-knob4;
#X obj 12 12 r \$0-knob3;
#X obj 12 76 outlet;
#X obj 97 76 outlet;
#N canvas 452 52 784 403 button3 0;
#X obj 24 83 spigot 0;
#X obj 24 147 spigot 0;
#X obj 24 211 spigot 0;
#X obj 24 275 spigot 0;
#X obj 77 115 r \$0-button2-off;
#X obj 77 243 r \$0-button4-off;
#X obj 24 19 inlet;
#X obj 217 83 spigot 0;
#X obj 217 147 spigot 0;
#X obj 217 211 spigot 0;
#X obj 217 275 spigot 0;
#X obj 410 83 spigot 0;
#X obj 410 147 spigot 0;
#X obj 410 211 spigot 0;
#X obj 410 275 spigot 0;
#X obj 270 115 r \$0-button6-off;
#X obj 270 179 r \$0-button7-off;
#X obj 270 243 r \$0-button8-off;
#X obj 463 115 r \$0-button10-off;
#X obj 463 179 r \$0-button11-off;
#X obj 463 243 r \$0-button12-off;
#X obj 410 307 outlet;
#X obj 270 51 r \$0-button5-off;
#X obj 463 51 r \$0-button9-off;
#X obj 77 51 r \$0-button1-off;
#X obj 77 179 r \$0-button3-on;
#X connect 0 0 1 0;
#X connect 1 0 2 0;
#X connect 2 0 3 0;
#X connect 3 0 7 0;
#X connect 4 0 1 1;
#X connect 5 0 3 1;
#X connect 6 0 0 0;
#X connect 7 0 8 0;
#X connect 8 0 9 0;
#X connect 9 0 10 0;
#X connect 10 0 11 0;
#X connect 11 0 12 0;
#X connect 12 0 13 0;
#X connect 13 0 14 0;
#X connect 14 0 21 0;
#X connect 15 0 8 1;
#X connect 16 0 9 1;
#X connect 17 0 10 1;
#X connect 18 0 12 1;
#X connect 19 0 13 1;
#X connect 20 0 14 1;
#X connect 22 0 7 1;
#X connect 23 0 11 1;
#X connect 24 0 0 1;
#X connect 25 0 2 1;
#X restore 12 44 pd button3;
#N canvas 452 52 784 403 button3 0;
#X obj 24 83 spigot 0;
#X obj 24 147 spigot 0;
#X obj 24 211 spigot 0;
#X obj 24 275 spigot 0;
#X obj 77 115 r \$0-button2-off;
#X obj 77 243 r \$0-button4-off;
#X obj 24 19 inlet;
#X obj 217 83 spigot 0;
#X obj 217 147 spigot 0;
#X obj 217 211 spigot 0;
#X obj 217 275 spigot 0;
#X obj 410 83 spigot 0;
#X obj 410 147 spigot 0;
#X obj 410 211 spigot 0;
#X obj 410 275 spigot 0;
#X obj 270 115 r \$0-button6-off;
#X obj 270 179 r \$0-button7-off;
#X obj 270 243 r \$0-button8-off;
#X obj 463 115 r \$0-button10-off;
#X obj 463 179 r \$0-button11-off;
#X obj 463 243 r \$0-button12-off;
#X obj 410 307 outlet;
#X obj 270 51 r \$0-button5-off;
#X obj 463 51 r \$0-button9-off;
#X obj 77 51 r \$0-button1-off;
#X obj 77 179 r \$0-button3-on;
#X connect 0 0 1 0;
#X connect 1 0 2 0;
#X connect 2 0 3 0;
#X connect 3 0 7 0;
#X connect 4 0 1 1;
#X connect 5 0 3 1;
#X connect 6 0 0 0;
#X connect 7 0 8 0;
#X connect 8 0 9 0;
#X connect 9 0 10 0;
#X connect 10 0 11 0;
#X connect 11 0 12 0;
#X connect 12 0 13 0;
#X connect 13 0 14 0;
#X connect 14 0 21 0;
#X connect 15 0 8 1;
#X connect 16 0 9 1;
#X connect 17 0 10 1;
#X connect 18 0 12 1;
#X connect 19 0 13 1;
#X connect 20 0 14 1;
#X connect 22 0 7 1;
#X connect 23 0 11 1;
#X connect 24 0 0 1;
#X connect 25 0 2 1;
#X restore 97 44 pd button3;
#X obj 182 44 outlet~;
#X obj 330 70 outlet~;
#X obj 330 44 tgl 15 0 empty empty empty 17 7 0 10 -262144 -1 -1 1
1;
#X obj 330 12 loadbang;
#N canvas 152 263 982 562 noise-filter-lfo 0;
#X obj 13 76 modules/lfo~;
#X obj 13 458 *~;
#X obj 63 426 mtof;
#X msg 31 426 0;
#X obj 31 394 sel 0;
#X obj 31 330 r \$0-wheel;
#X obj 13 12 r \$0-knob1;
#X obj 13 490 outlet~;
#N canvas 610 69 784 403 lfo-button10 0;
#X obj 24 19 inlet;
#X obj 24 83 spigot 0;
#X obj 24 147 spigot 0;
#X obj 24 211 spigot 0;
#X obj 24 275 spigot 0;
#X obj 217 83 spigot 0;
#X obj 217 147 spigot 0;
#X obj 217 211 spigot 0;
#X obj 217 275 spigot 0;
#X obj 77 243 r \$0-button8-off;
#X obj 270 179 r \$0-button11-off;
#X obj 270 243 r \$0-button12-off;
#X obj 217 307 outlet;
#X obj 77 51 r \$0-button5-off;
#X obj 270 51 r \$0-button9-off;
#X obj 77 115 r \$0-button6-off;
#X obj 77 179 r \$0-button7-off;
#X obj 270 114 r \$0-button10-on;
#X connect 0 0 1 0;
#X connect 1 0 2 0;
#X connect 2 0 3 0;
#X connect 3 0 4 0;
#X connect 4 0 5 0;
#X connect 5 0 6 0;
#X connect 6 0 7 0;
#X connect 7 0 8 0;
#X connect 8 0 12 0;
#X connect 9 0 4 1;
#X connect 10 0 7 1;
#X connect 11 0 8 1;
#X connect 13 0 1 1;
#X connect 14 0 5 1;
#X connect 15 0 2 1;
#X connect 16 0 3 1;
#X connect 17 0 6 1;
#X restore 13 44 pd lfo-button10;
#N canvas 610 69 784 403 lfo-button10 0;
#X obj 24 19 inlet;
#X obj 24 83 spigot 0;
#X obj 24 147 spigot 0;
#X obj 24 211 spigot 0;
#X obj 24 275 spigot 0;
#X obj 217 83 spigot 0;
#X obj 217 147 spigot 0;
#X obj 217 211 spigot 0;
#X obj 217 275 spigot 0;
#X obj 77 243 r \$0-button8-off;
#X obj 270 179 r \$0-button11-off;
#X obj 270 243 r \$0-button12-off;
#X obj 217 307 outlet;
#X obj 77 51 r \$0-button5-off;
#X obj 270 51 r \$0-button9-off;
#X obj 77 115 r \$0-button6-off;
#X obj 77 179 r \$0-button7-off;
#X obj 270 114 r \$0-button10-on;
#X connect 0 0 1 0;
#X connect 1 0 2 0;
#X connect 2 0 3 0;
#X connect 3 0 4 0;
#X connect 4 0 5 0;
#X connect 5 0 6 0;
#X connect 6 0 7 0;
#X connect 7 0 8 0;
#X connect 8 0 12 0;
#X connect 9 0 4 1;
#X connect 10 0 7 1;
#X connect 11 0 8 1;
#X connect 13 0 1 1;
#X connect 14 0 5 1;
#X connect 15 0 2 1;
#X connect 16 0 3 1;
#X connect 17 0 6 1;
#X restore 31 362 pd lfo-button10;
#X obj 133 12 r \$0-knob4;
#N canvas 829 138 784 403 lfo-button10-12 0;
#X obj 24 19 inlet;
#X obj 24 83 spigot 0;
#X obj 24 147 spigot 0;
#X obj 24 211 spigot 0;
#X obj 24 275 spigot 0;
#X obj 217 83 spigot 0;
#X obj 217 147 spigot 0;
#X obj 217 211 spigot 0;
#X obj 217 275 spigot 0;
#X obj 77 179 r \$0-button7-off;
#X obj 77 243 r \$0-button8-off;
#X obj 270 179 r \$0-button11-off;
#X obj 217 307 outlet;
#X obj 270 51 r \$0-button9-off;
#X obj 77 115 r \$0-button6-off;
#X obj 270 243 r \$0-button12-on;
#X obj 77 51 r \$0-button5-off;
#X obj 270 115 r \$0-button10-on;
#X connect 0 0 1 0;
#X connect 1 0 2 0;
#X connect 2 0 3 0;
#X connect 3 0 4 0;
#X connect 4 0 5 0;
#X connect 5 0 6 0;
#X connect 6 0 7 0;
#X connect 7 0 8 0;
#X connect 8 0 12 0;
#X connect 9 0 3 1;
#X connect 10 0 4 1;
#X connect 11 0 7 1;
#X connect 13 0 5 1;
#X connect 14 0 2 1;
#X connect 15 0 8 1;
#X connect 16 0 1 1;
#X connect 17 0 6 1;
#X restore 133 44 pd lfo-button10-12;
#X obj 14 219 modules/mixer~;
#N canvas 526 166 450 300 lfo-mixer-inputs 0;
#X obj 12 12 r \$0-knob1;
#X obj 153 12 r \$0-knob2;
#X obj 294 12 r \$0-knob3;
#X obj 153 76 outlet;
#X obj 12 140 outlet;
#X obj 294 76 outlet;
#X obj 22 76 loadbang;
#X msg 22 108 127;
#N canvas 829 138 784 403 lfo-button10-12 0;
#X obj 24 19 inlet;
#X obj 24 83 spigot 0;
#X obj 24 147 spigot 0;
#X obj 24 211 spigot 0;
#X obj 24 275 spigot 0;
#X obj 217 83 spigot 0;
#X obj 217 147 spigot 0;
#X obj 217 211 spigot 0;
#X obj 217 275 spigot 0;
#X obj 77 179 r \$0-button7-off;
#X obj 77 243 r \$0-button8-off;
#X obj 270 179 r \$0-button11-off;
#X obj 217 307 outlet;
#X obj 270 51 r \$0-button9-off;
#X obj 77 115 r \$0-button6-off;
#X obj 270 243 r \$0-button12-on;
#X obj 77 51 r \$0-button5-off;
#X obj 270 115 r \$0-button10-on;
#X connect 0 0 1 0;
#X connect 1 0 2 0;
#X connect 2 0 3 0;
#X connect 3 0 4 0;
#X connect 4 0 5 0;
#X connect 5 0 6 0;
#X connect 6 0 7 0;
#X connect 7 0 8 0;
#X connect 8 0 12 0;
#X connect 9 0 3 1;
#X connect 10 0 4 1;
#X connect 11 0 7 1;
#X connect 13 0 5 1;
#X connect 14 0 2 1;
#X connect 15 0 8 1;
#X connect 16 0 1 1;
#X connect 17 0 6 1;
#X restore 153 44 pd lfo-button10-12;
#N canvas 829 138 784 403 lfo-button10-12 0;
#X obj 24 19 inlet;
#X obj 24 83 spigot 0;
#X obj 24 147 spigot 0;
#X obj 24 211 spigot 0;
#X obj 24 275 spigot 0;
#X obj 217 83 spigot 0;
#X obj 217 147 spigot 0;
#X obj 217 211 spigot 0;
#X obj 217 275 spigot 0;
#X obj 77 179 r \$0-button7-off;
#X obj 77 243 r \$0-button8-off;
#X obj 270 179 r \$0-button11-off;
#X obj 217 307 outlet;
#X obj 270 51 r \$0-button9-off;
#X obj 77 115 r \$0-button6-off;
#X obj 270 243 r \$0-button12-on;
#X obj 77 51 r \$0-button5-off;
#X obj 270 115 r \$0-button10-on;
#X connect 0 0 1 0;
#X connect 1 0 2 0;
#X connect 2 0 3 0;
#X connect 3 0 4 0;
#X connect 4 0 5 0;
#X connect 5 0 6 0;
#X connect 6 0 7 0;
#X connect 7 0 8 0;
#X connect 8 0 12 0;
#X connect 9 0 3 1;
#X connect 10 0 4 1;
#X connect 11 0 7 1;
#X connect 13 0 5 1;
#X connect 14 0 2 1;
#X connect 15 0 8 1;
#X connect 16 0 1 1;
#X connect 17 0 6 1;
#X restore 294 44 pd lfo-button10-12;
#N canvas 829 138 784 403 lfo-button10-12 0;
#X obj 24 19 inlet;
#X obj 24 83 spigot 0;
#X obj 24 147 spigot 0;
#X obj 24 211 spigot 0;
#X obj 24 275 spigot 0;
#X obj 217 83 spigot 0;
#X obj 217 147 spigot 0;
#X obj 217 211 spigot 0;
#X obj 217 275 spigot 0;
#X obj 77 179 r \$0-button7-off;
#X obj 77 243 r \$0-button8-off;
#X obj 270 179 r \$0-button11-off;
#X obj 217 307 outlet;
#X obj 270 51 r \$0-button9-off;
#X obj 77 115 r \$0-button6-off;
#X obj 270 243 r \$0-button12-on;
#X obj 77 51 r \$0-button5-off;
#X obj 270 115 r \$0-button10-on;
#X connect 0 0 1 0;
#X connect 1 0 2 0;
#X connect 2 0 3 0;
#X connect 3 0 4 0;
#X connect 4 0 5 0;
#X connect 5 0 6 0;
#X connect 6 0 7 0;
#X connect 7 0 8 0;
#X connect 8 0 12 0;
#X connect 9 0 3 1;
#X connect 10 0 4 1;
#X connect 11 0 7 1;
#X connect 13 0 5 1;
#X connect 14 0 2 1;
#X connect 15 0 8 1;
#X connect 16 0 1 1;
#X connect 17 0 6 1;
#X restore 12 44 pd lfo-button10-12;
#X connect 0 0 10 0;
#X connect 1 0 8 0;
#X connect 2 0 9 0;
#X connect 6 0 7 0;
#X connect 7 0 4 0;
#X connect 8 0 3 0;
#X connect 9 0 5 0;
#X connect 10 0 4 0;
#X restore 67 187 pd lfo-mixer-inputs;
#X connect 0 0 12 0;
#X connect 0 1 12 1;
#X connect 0 2 12 2;
#X connect 1 0 7 0;
#X connect 2 0 1 1;
#X connect 3 0 1 1;
#X connect 4 0 3 0;
#X connect 4 1 2 0;
#X connect 5 0 9 0;
#X connect 6 0 8 0;
#X connect 8 0 0 0;
#X connect 9 0 4 0;
#X connect 10 0 11 0;
#X connect 11 0 0 1;
#X connect 12 0 1 0;
#X connect 13 0 12 4;
#X connect 13 1 12 5;
#X connect 13 2 12 6;
#X restore 182 12 pd noise-filter-lfo;
#X connect 0 0 5 0;
#X connect 1 0 4 0;
#X connect 4 0 2 0;
#X connect 5 0 3 0;
#X connect 8 0 7 0;
#X connect 9 0 8 0;
#X connect 10 0 6 0;
#X restore 86 383 pd noise-filter-inputs;
#N canvas 452 52 784 403 button1 0;
#X obj 24 83 spigot 0;
#X obj 24 147 spigot 0;
#X obj 24 211 spigot 0;
#X obj 24 275 spigot 0;
#X obj 77 115 r \$0-button2-off;
#X obj 77 179 r \$0-button3-off;
#X obj 77 243 r \$0-button4-off;
#X obj 24 19 inlet;
#X obj 77 51 r \$0-button1-on;
#X obj 217 83 spigot 0;
#X obj 217 147 spigot 0;
#X obj 217 211 spigot 0;
#X obj 217 275 spigot 0;
#X obj 410 83 spigot 0;
#X obj 410 147 spigot 0;
#X obj 410 211 spigot 0;
#X obj 410 275 spigot 0;
#X obj 270 115 r \$0-button6-off;
#X obj 270 179 r \$0-button7-off;
#X obj 270 243 r \$0-button8-off;
#X obj 463 115 r \$0-button10-off;
#X obj 463 179 r \$0-button11-off;
#X obj 463 243 r \$0-button12-off;
#X obj 410 307 outlet;
#X obj 270 51 r \$0-button5-off;
#X obj 463 51 r \$0-button9-off;
#X connect 0 0 1 0;
#X connect 1 0 2 0;
#X connect 2 0 3 0;
#X connect 3 0 9 0;
#X connect 4 0 1 1;
#X connect 5 0 2 1;
#X connect 6 0 3 1;
#X connect 7 0 0 0;
#X connect 8 0 0 1;
#X connect 9 0 10 0;
#X connect 10 0 11 0;
#X connect 11 0 12 0;
#X connect 12 0 13 0;
#X connect 13 0 14 0;
#X connect 14 0 15 0;
#X connect 15 0 16 0;
#X connect 16 0 23 0;
#X connect 17 0 10 1;
#X connect 18 0 11 1;
#X connect 19 0 12 1;
#X connect 20 0 14 1;
#X connect 21 0 15 1;
#X connect 22 0 16 1;
#X connect 24 0 9 1;
#X connect 25 0 13 1;
#X restore 186 494 pd button1;
#X obj 186 462 r \$0-knob4;
#N canvas 181 192 540 784 noise-am-lfo 0;
#X obj 192 79 modules/lfo~;
#X obj 192 15 r \$0-knob1;
#X msg 267 429 1;
#X msg 235 429 0;
#X obj 190 461 modules/vca~;
#X obj 235 333 r \$0-knob1;
#X obj 235 397 sel 0;
#X obj 78 51 r \$0-knob1;
#X obj 78 115 sel 0;
#X msg 78 179 1;
#X msg 110 179 0;
#X obj 33 211 modules/vca~;
#X obj 146 556 modules/vca~;
#X obj 34 702 outlet~;
#X obj 88 147 loadbang;
#N canvas 610 69 784 403 lfo-button9 0;
#X obj 24 19 inlet;
#X obj 24 83 spigot 0;
#X obj 24 147 spigot 0;
#X obj 24 211 spigot 0;
#X obj 24 275 spigot 0;
#X obj 217 83 spigot 0;
#X obj 217 147 spigot 0;
#X obj 217 211 spigot 0;
#X obj 217 275 spigot 0;
#X obj 77 243 r \$0-button8-off;
#X obj 270 179 r \$0-button11-off;
#X obj 270 243 r \$0-button12-off;
#X obj 217 307 outlet;
#X obj 77 51 r \$0-button5-off;
#X obj 77 115 r \$0-button6-off;
#X obj 77 179 r \$0-button7-off;
#X obj 270 114 r \$0-button10-off;
#X obj 270 51 r \$0-button9-on;
#X connect 0 0 1 0;
#X connect 1 0 2 0;
#X connect 2 0 3 0;
#X connect 3 0 4 0;
#X connect 4 0 5 0;
#X connect 5 0 6 0;
#X connect 6 0 7 0;
#X connect 7 0 8 0;
#X connect 8 0 12 0;
#X connect 9 0 4 1;
#X connect 10 0 7 1;
#X connect 11 0 8 1;
#X connect 13 0 1 1;
#X connect 14 0 2 1;
#X connect 15 0 3 1;
#X connect 16 0 6 1;
#X connect 17 0 5 1;
#X restore 192 47 pd lfo-button9;
#N canvas 610 69 784 403 lfo-button9 0;
#X obj 24 19 inlet;
#X obj 24 83 spigot 0;
#X obj 24 147 spigot 0;
#X obj 24 211 spigot 0;
#X obj 24 275 spigot 0;
#X obj 217 83 spigot 0;
#X obj 217 147 spigot 0;
#X obj 217 211 spigot 0;
#X obj 217 275 spigot 0;
#X obj 77 243 r \$0-button8-off;
#X obj 270 179 r \$0-button11-off;
#X obj 270 243 r \$0-button12-off;
#X obj 217 307 outlet;
#X obj 77 51 r \$0-button5-off;
#X obj 77 115 r \$0-button6-off;
#X obj 77 179 r \$0-button7-off;
#X obj 270 114 r \$0-button10-off;
#X obj 270 51 r \$0-button9-on;
#X connect 0 0 1 0;
#X connect 1 0 2 0;
#X connect 2 0 3 0;
#X connect 3 0 4 0;
#X connect 4 0 5 0;
#X connect 5 0 6 0;
#X connect 6 0 7 0;
#X connect 7 0 8 0;
#X connect 8 0 12 0;
#X connect 9 0 4 1;
#X connect 10 0 7 1;
#X connect 11 0 8 1;
#X connect 13 0 1 1;
#X connect 14 0 2 1;
#X connect 15 0 3 1;
#X connect 16 0 6 1;
#X connect 17 0 5 1;
#X restore 235 365 pd lfo-button9;
#N canvas 610 69 784 403 lfo-button9 0;
#X obj 24 19 inlet;
#X obj 24 83 spigot 0;
#X obj 24 147 spigot 0;
#X obj 24 211 spigot 0;
#X obj 24 275 spigot 0;
#X obj 217 83 spigot 0;
#X obj 217 147 spigot 0;
#X obj 217 211 spigot 0;
#X obj 217 275 spigot 0;
#X obj 77 243 r \$0-button8-off;
#X obj 270 179 r \$0-button11-off;
#X obj 270 243 r \$0-button12-off;
#X obj 217 307 outlet;
#X obj 77 51 r \$0-button5-off;
#X obj 77 115 r \$0-button6-off;
#X obj 77 179 r \$0-button7-off;
#X obj 270 114 r \$0-button10-off;
#X obj 270 51 r \$0-button9-on;
#X connect 0 0 1 0;
#X connect 1 0 2 0;
#X connect 2 0 3 0;
#X connect 3 0 4 0;
#X connect 4 0 5 0;
#X connect 5 0 6 0;
#X connect 6 0 7 0;
#X connect 7 0 8 0;
#X connect 8 0 12 0;
#X connect 9 0 4 1;
#X connect 10 0 7 1;
#X connect 11 0 8 1;
#X connect 13 0 1 1;
#X connect 14 0 2 1;
#X connect 15 0 3 1;
#X connect 16 0 6 1;
#X connect 17 0 5 1;
#X restore 78 83 pd lfo-button9;
#X obj 305 15 r \$0-knob4;
#N canvas 610 69 784 403 lfo-button9-12 0;
#X obj 24 19 inlet;
#X obj 24 83 spigot 0;
#X obj 24 147 spigot 0;
#X obj 24 211 spigot 0;
#X obj 24 275 spigot 0;
#X obj 217 83 spigot 0;
#X obj 217 147 spigot 0;
#X obj 217 211 spigot 0;
#X obj 217 275 spigot 0;
#X obj 77 243 r \$0-button8-off;
#X obj 270 179 r \$0-button11-off;
#X obj 217 307 outlet;
#X obj 77 51 r \$0-button5-off;
#X obj 77 115 r \$0-button6-off;
#X obj 77 179 r \$0-button7-off;
#X obj 270 114 r \$0-button10-off;
#X obj 270 51 r \$0-button9-on;
#X obj 270 243 r \$0-button12-on;
#X connect 0 0 1 0;
#X connect 1 0 2 0;
#X connect 2 0 3 0;
#X connect 3 0 4 0;
#X connect 4 0 5 0;
#X connect 5 0 6 0;
#X connect 6 0 7 0;
#X connect 7 0 8 0;
#X connect 8 0 11 0;
#X connect 9 0 4 1;
#X connect 10 0 7 1;
#X connect 12 0 1 1;
#X connect 13 0 2 1;
#X connect 14 0 3 1;
#X connect 15 0 6 1;
#X connect 16 0 5 1;
#X connect 17 0 8 1;
#X restore 305 47 pd lfo-button9-12;
#X obj 191 222 modules/mixer~;
#N canvas 18 52 450 300 lfo-mixer-inputs 0;
#X obj 12 12 r \$0-knob1;
#X obj 147 12 r \$0-knob2;
#X obj 282 12 r \$0-knob3;
#X obj 147 76 outlet;
#X obj 12 140 outlet;
#X obj 282 76 outlet;
#X obj 22 76 loadbang;
#X msg 22 108 127;
#N canvas 610 69 784 403 lfo-button9-12 0;
#X obj 24 19 inlet;
#X obj 24 83 spigot 0;
#X obj 24 147 spigot 0;
#X obj 24 211 spigot 0;
#X obj 24 275 spigot 0;
#X obj 217 83 spigot 0;
#X obj 217 147 spigot 0;
#X obj 217 211 spigot 0;
#X obj 217 275 spigot 0;
#X obj 77 243 r \$0-button8-off;
#X obj 270 179 r \$0-button11-off;
#X obj 217 307 outlet;
#X obj 77 51 r \$0-button5-off;
#X obj 77 115 r \$0-button6-off;
#X obj 77 179 r \$0-button7-off;
#X obj 270 114 r \$0-button10-off;
#X obj 270 51 r \$0-button9-on;
#X obj 270 243 r \$0-button12-on;
#X connect 0 0 1 0;
#X connect 1 0 2 0;
#X connect 2 0 3 0;
#X connect 3 0 4 0;
#X connect 4 0 5 0;
#X connect 5 0 6 0;
#X connect 6 0 7 0;
#X connect 7 0 8 0;
#X connect 8 0 11 0;
#X connect 9 0 4 1;
#X connect 10 0 7 1;
#X connect 12 0 1 1;
#X connect 13 0 2 1;
#X connect 14 0 3 1;
#X connect 15 0 6 1;
#X connect 16 0 5 1;
#X connect 17 0 8 1;
#X restore 282 44 pd lfo-button9-12;
#N canvas 610 69 784 403 lfo-button9-12 0;
#X obj 24 19 inlet;
#X obj 24 83 spigot 0;
#X obj 24 147 spigot 0;
#X obj 24 211 spigot 0;
#X obj 24 275 spigot 0;
#X obj 217 83 spigot 0;
#X obj 217 147 spigot 0;
#X obj 217 211 spigot 0;
#X obj 217 275 spigot 0;
#X obj 77 243 r \$0-button8-off;
#X obj 270 179 r \$0-button11-off;
#X obj 217 307 outlet;
#X obj 77 51 r \$0-button5-off;
#X obj 77 115 r \$0-button6-off;
#X obj 77 179 r \$0-button7-off;
#X obj 270 114 r \$0-button10-off;
#X obj 270 51 r \$0-button9-on;
#X obj 270 243 r \$0-button12-on;
#X connect 0 0 1 0;
#X connect 1 0 2 0;
#X connect 2 0 3 0;
#X connect 3 0 4 0;
#X connect 4 0 5 0;
#X connect 5 0 6 0;
#X connect 6 0 7 0;
#X connect 7 0 8 0;
#X connect 8 0 11 0;
#X connect 9 0 4 1;
#X connect 10 0 7 1;
#X connect 12 0 1 1;
#X connect 13 0 2 1;
#X connect 14 0 3 1;
#X connect 15 0 6 1;
#X connect 16 0 5 1;
#X connect 17 0 8 1;
#X restore 147 44 pd lfo-button9-12;
#N canvas 610 69 784 403 lfo-button9-12 0;
#X obj 24 19 inlet;
#X obj 24 83 spigot 0;
#X obj 24 147 spigot 0;
#X obj 24 211 spigot 0;
#X obj 24 275 spigot 0;
#X obj 217 83 spigot 0;
#X obj 217 147 spigot 0;
#X obj 217 211 spigot 0;
#X obj 217 275 spigot 0;
#X obj 77 243 r \$0-button8-off;
#X obj 270 179 r \$0-button11-off;
#X obj 217 307 outlet;
#X obj 77 51 r \$0-button5-off;
#X obj 77 115 r \$0-button6-off;
#X obj 77 179 r \$0-button7-off;
#X obj 270 114 r \$0-button10-off;
#X obj 270 51 r \$0-button9-on;
#X obj 270 243 r \$0-button12-on;
#X connect 0 0 1 0;
#X connect 1 0 2 0;
#X connect 2 0 3 0;
#X connect 3 0 4 0;
#X connect 4 0 5 0;
#X connect 5 0 6 0;
#X connect 6 0 7 0;
#X connect 7 0 8 0;
#X connect 8 0 11 0;
#X connect 9 0 4 1;
#X connect 10 0 7 1;
#X connect 12 0 1 1;
#X connect 13 0 2 1;
#X connect 14 0 3 1;
#X connect 15 0 6 1;
#X connect 16 0 5 1;
#X connect 17 0 8 1;
#X restore 12 44 pd lfo-button9-12;
#X connect 0 0 10 0;
#X connect 1 0 9 0;
#X connect 2 0 8 0;
#X connect 6 0 7 0;
#X connect 7 0 4 0;
#X connect 8 0 5 0;
#X connect 9 0 3 0;
#X connect 10 0 4 0;
#X restore 244 190 pd lfo-mixer-inputs;
#X obj 32 19 inlet~;
#X connect 0 0 20 0;
#X connect 0 1 20 1;
#X connect 0 2 20 2;
#X connect 1 0 15 0;
#X connect 2 0 4 1;
#X connect 3 0 4 1;
#X connect 4 0 12 1;
#X connect 5 0 16 0;
#X connect 6 0 3 0;
#X connect 6 1 2 0;
#X connect 7 0 17 0;
#X connect 8 0 9 0;
#X connect 8 1 10 0;
#X connect 9 0 11 1;
#X connect 10 0 11 1;
#X connect 11 0 13 0;
#X connect 12 0 13 0;
#X connect 14 0 9 0;
#X connect 15 0 0 0;
#X connect 16 0 6 0;
#X connect 17 0 8 0;
#X connect 18 0 19 0;
#X connect 19 0 0 1;
#X connect 20 0 4 0;
#X connect 21 0 20 4;
#X connect 21 1 20 5;
#X connect 21 2 20 6;
#X connect 22 0 12 0;
#X connect 22 0 11 0;
#X coords 0 784 1 783 100 100 0;
#X restore 133 637 pd noise-am-lfo;
#N canvas 172 200 482 753 osc-am-lfo 0;
#X obj 180 86 modules/lfo~;
#X obj 180 22 r \$0-knob1;
#X msg 257 436 1;
#X msg 225 436 0;
#X obj 180 468 modules/vca~;
#X obj 225 340 r \$0-knob1;
#X obj 225 404 sel 0;
#X obj 57 54 r \$0-knob1;
#X obj 57 118 sel 0;
#X msg 57 182 1;
#X msg 89 182 0;
#X obj 12 214 modules/vca~;
#X obj 136 563 modules/vca~;
#X obj 13 665 outlet~;
#X obj 67 150 loadbang;
#N canvas 498 351 784 403 lfo-button5 0;
#X obj 24 19 inlet;
#X obj 24 83 spigot 0;
#X obj 24 147 spigot 0;
#X obj 24 211 spigot 0;
#X obj 24 275 spigot 0;
#X obj 217 83 spigot 0;
#X obj 217 147 spigot 0;
#X obj 217 211 spigot 0;
#X obj 217 275 spigot 0;
#X obj 77 179 r \$0-button7-off;
#X obj 77 243 r \$0-button8-off;
#X obj 270 115 r \$0-button10-off;
#X obj 270 179 r \$0-button11-off;
#X obj 270 243 r \$0-button12-off;
#X obj 217 307 outlet;
#X obj 270 51 r \$0-button9-off;
#X obj 77 115 r \$0-button6-off;
#X obj 77 51 r \$0-button5-on;
#X connect 0 0 1 0;
#X connect 1 0 2 0;
#X connect 2 0 3 0;
#X connect 3 0 4 0;
#X connect 4 0 5 0;
#X connect 5 0 6 0;
#X connect 6 0 7 0;
#X connect 7 0 8 0;
#X connect 8 0 14 0;
#X connect 9 0 3 1;
#X connect 10 0 4 1;
#X connect 11 0 6 1;
#X connect 12 0 7 1;
#X connect 13 0 8 1;
#X connect 15 0 5 1;
#X connect 16 0 2 1;
#X connect 17 0 1 1;
#X restore 225 372 pd lfo-button5;
#N canvas 498 351 784 403 lfo-button5 0;
#X obj 24 19 inlet;
#X obj 24 83 spigot 0;
#X obj 24 147 spigot 0;
#X obj 24 211 spigot 0;
#X obj 24 275 spigot 0;
#X obj 217 83 spigot 0;
#X obj 217 147 spigot 0;
#X obj 217 211 spigot 0;
#X obj 217 275 spigot 0;
#X obj 77 179 r \$0-button7-off;
#X obj 77 243 r \$0-button8-off;
#X obj 270 115 r \$0-button10-off;
#X obj 270 179 r \$0-button11-off;
#X obj 270 243 r \$0-button12-off;
#X obj 217 307 outlet;
#X obj 270 51 r \$0-button9-off;
#X obj 77 115 r \$0-button6-off;
#X obj 77 51 r \$0-button5-on;
#X connect 0 0 1 0;
#X connect 1 0 2 0;
#X connect 2 0 3 0;
#X connect 3 0 4 0;
#X connect 4 0 5 0;
#X connect 5 0 6 0;
#X connect 6 0 7 0;
#X connect 7 0 8 0;
#X connect 8 0 14 0;
#X connect 9 0 3 1;
#X connect 10 0 4 1;
#X connect 11 0 6 1;
#X connect 12 0 7 1;
#X connect 13 0 8 1;
#X connect 15 0 5 1;
#X connect 16 0 2 1;
#X connect 17 0 1 1;
#X restore 180 54 pd lfo-button5;
#N canvas 498 351 784 403 lfo-button5 0;
#X obj 24 19 inlet;
#X obj 24 83 spigot 0;
#X obj 24 147 spigot 0;
#X obj 24 211 spigot 0;
#X obj 24 275 spigot 0;
#X obj 217 83 spigot 0;
#X obj 217 147 spigot 0;
#X obj 217 211 spigot 0;
#X obj 217 275 spigot 0;
#X obj 77 179 r \$0-button7-off;
#X obj 77 243 r \$0-button8-off;
#X obj 270 115 r \$0-button10-off;
#X obj 270 179 r \$0-button11-off;
#X obj 270 243 r \$0-button12-off;
#X obj 217 307 outlet;
#X obj 270 51 r \$0-button9-off;
#X obj 77 115 r \$0-button6-off;
#X obj 77 51 r \$0-button5-on;
#X connect 0 0 1 0;
#X connect 1 0 2 0;
#X connect 2 0 3 0;
#X connect 3 0 4 0;
#X connect 4 0 5 0;
#X connect 5 0 6 0;
#X connect 6 0 7 0;
#X connect 7 0 8 0;
#X connect 8 0 14 0;
#X connect 9 0 3 1;
#X connect 10 0 4 1;
#X connect 11 0 6 1;
#X connect 12 0 7 1;
#X connect 13 0 8 1;
#X connect 15 0 5 1;
#X connect 16 0 2 1;
#X connect 17 0 1 1;
#X restore 57 86 pd lfo-button5;
#X obj 181 229 modules/mixer~;
#N canvas 1040 140 784 403 lfo-button5-12 0;
#X obj 24 19 inlet;
#X obj 24 83 spigot 0;
#X obj 24 147 spigot 0;
#X obj 24 211 spigot 0;
#X obj 24 275 spigot 0;
#X obj 217 83 spigot 0;
#X obj 217 147 spigot 0;
#X obj 217 211 spigot 0;
#X obj 217 275 spigot 0;
#X obj 77 179 r \$0-button7-off;
#X obj 77 243 r \$0-button8-off;
#X obj 270 115 r \$0-button10-off;
#X obj 270 179 r \$0-button11-off;
#X obj 217 307 outlet;
#X obj 270 51 r \$0-button9-off;
#X obj 77 115 r \$0-button6-off;
#X obj 77 51 r \$0-button5-on;
#X obj 270 243 r \$0-button12-on;
#X connect 0 0 1 0;
#X connect 1 0 2 0;
#X connect 2 0 3 0;
#X connect 3 0 4 0;
#X connect 4 0 5 0;
#X connect 5 0 6 0;
#X connect 6 0 7 0;
#X connect 7 0 8 0;
#X connect 8 0 13 0;
#X connect 9 0 3 1;
#X connect 10 0 4 1;
#X connect 11 0 6 1;
#X connect 12 0 7 1;
#X connect 14 0 5 1;
#X connect 15 0 2 1;
#X connect 16 0 1 1;
#X connect 17 0 8 1;
#X restore 290 54 pd lfo-button5-12;
#X obj 290 22 r \$0-knob4;
#N canvas 0 50 450 300 lfo-mixer-inputs 0;
#N canvas 1040 140 784 403 lfo-button5-12 0;
#X obj 24 19 inlet;
#X obj 24 83 spigot 0;
#X obj 24 147 spigot 0;
#X obj 24 211 spigot 0;
#X obj 24 275 spigot 0;
#X obj 217 83 spigot 0;
#X obj 217 147 spigot 0;
#X obj 217 211 spigot 0;
#X obj 217 275 spigot 0;
#X obj 77 179 r \$0-button7-off;
#X obj 77 243 r \$0-button8-off;
#X obj 270 115 r \$0-button10-off;
#X obj 270 179 r \$0-button11-off;
#X obj 217 307 outlet;
#X obj 270 51 r \$0-button9-off;
#X obj 77 115 r \$0-button6-off;
#X obj 77 51 r \$0-button5-on;
#X obj 270 243 r \$0-button12-on;
#X connect 0 0 1 0;
#X connect 1 0 2 0;
#X connect 2 0 3 0;
#X connect 3 0 4 0;
#X connect 4 0 5 0;
#X connect 5 0 6 0;
#X connect 6 0 7 0;
#X connect 7 0 8 0;
#X connect 8 0 13 0;
#X connect 9 0 3 1;
#X connect 10 0 4 1;
#X connect 11 0 6 1;
#X connect 12 0 7 1;
#X connect 14 0 5 1;
#X connect 15 0 2 1;
#X connect 16 0 1 1;
#X connect 17 0 8 1;
#X restore 12 44 pd lfo-button5-12;
#X obj 12 12 r \$0-knob1;
#N canvas 1040 140 784 403 lfo-button5-12 0;
#X obj 24 19 inlet;
#X obj 24 83 spigot 0;
#X obj 24 147 spigot 0;
#X obj 24 211 spigot 0;
#X obj 24 275 spigot 0;
#X obj 217 83 spigot 0;
#X obj 217 147 spigot 0;
#X obj 217 211 spigot 0;
#X obj 217 275 spigot 0;
#X obj 77 179 r \$0-button7-off;
#X obj 77 243 r \$0-button8-off;
#X obj 270 115 r \$0-button10-off;
#X obj 270 179 r \$0-button11-off;
#X obj 217 307 outlet;
#X obj 270 51 r \$0-button9-off;
#X obj 77 115 r \$0-button6-off;
#X obj 77 51 r \$0-button5-on;
#X obj 270 243 r \$0-button12-on;
#X connect 0 0 1 0;
#X connect 1 0 2 0;
#X connect 2 0 3 0;
#X connect 3 0 4 0;
#X connect 4 0 5 0;
#X connect 5 0 6 0;
#X connect 6 0 7 0;
#X connect 7 0 8 0;
#X connect 8 0 13 0;
#X connect 9 0 3 1;
#X connect 10 0 4 1;
#X connect 11 0 6 1;
#X connect 12 0 7 1;
#X connect 14 0 5 1;
#X connect 15 0 2 1;
#X connect 16 0 1 1;
#X connect 17 0 8 1;
#X restore 147 44 pd lfo-button5-12;
#X obj 147 12 r \$0-knob2;
#N canvas 1040 140 784 403 lfo-button5-12 0;
#X obj 24 19 inlet;
#X obj 24 83 spigot 0;
#X obj 24 147 spigot 0;
#X obj 24 211 spigot 0;
#X obj 24 275 spigot 0;
#X obj 217 83 spigot 0;
#X obj 217 147 spigot 0;
#X obj 217 211 spigot 0;
#X obj 217 275 spigot 0;
#X obj 77 179 r \$0-button7-off;
#X obj 77 243 r \$0-button8-off;
#X obj 270 115 r \$0-button10-off;
#X obj 270 179 r \$0-button11-off;
#X obj 217 307 outlet;
#X obj 270 51 r \$0-button9-off;
#X obj 77 115 r \$0-button6-off;
#X obj 77 51 r \$0-button5-on;
#X obj 270 243 r \$0-button12-on;
#X connect 0 0 1 0;
#X connect 1 0 2 0;
#X connect 2 0 3 0;
#X connect 3 0 4 0;
#X connect 4 0 5 0;
#X connect 5 0 6 0;
#X connect 6 0 7 0;
#X connect 7 0 8 0;
#X connect 8 0 13 0;
#X connect 9 0 3 1;
#X connect 10 0 4 1;
#X connect 11 0 6 1;
#X connect 12 0 7 1;
#X connect 14 0 5 1;
#X connect 15 0 2 1;
#X connect 16 0 1 1;
#X connect 17 0 8 1;
#X restore 282 44 pd lfo-button5-12;
#X obj 282 12 r \$0-knob3;
#X obj 147 76 outlet;
#X obj 12 140 outlet;
#X obj 282 76 outlet;
#X obj 22 76 loadbang;
#X msg 22 108 127;
#X connect 0 0 7 0;
#X connect 1 0 0 0;
#X connect 2 0 6 0;
#X connect 3 0 2 0;
#X connect 4 0 8 0;
#X connect 5 0 4 0;
#X connect 9 0 10 0;
#X connect 10 0 7 0;
#X restore 234 197 pd lfo-mixer-inputs;
#X obj 13 22 inlet~;
#X connect 0 0 18 0;
#X connect 0 1 18 1;
#X connect 0 3 18 2;
#X connect 1 0 16 0;
#X connect 2 0 4 1;
#X connect 3 0 4 1;
#X connect 4 0 12 1;
#X connect 5 0 15 0;
#X connect 6 0 3 0;
#X connect 6 1 2 0;
#X connect 7 0 17 0;
#X connect 8 0 9 0;
#X connect 8 1 10 0;
#X connect 9 0 11 1;
#X connect 10 0 11 1;
#X connect 11 0 13 0;
#X connect 12 0 13 0;
#X connect 14 0 9 0;
#X connect 15 0 6 0;
#X connect 16 0 0 0;
#X connect 17 0 8 0;
#X connect 18 0 4 0;
#X connect 19 0 0 1;
#X connect 20 0 19 0;
#X connect 21 0 18 4;
#X connect 21 1 18 5;
#X connect 21 2 18 6;
#X connect 22 0 11 0;
#X connect 22 0 12 0;
#X coords 0 753 1 752 100 100 0;
#X restore 12 331 pd osc-am-lfo;
#X obj 13 694 modules/audio-out~;
#X obj 12 75 poly 4 1;
#X obj 12 107 pack f f f;
#X obj 12 139 route 1 2 3 4;
#X obj 12 299 *~ 0.25;
#X obj 12 43 pack f f;
#X obj 12 11 notein;
#N canvas 286 244 335 124 init-dsp 0;
#X msg 13 48 \; pd dsp 1;
#X obj 13 16 loadbang;
#X connect 1 0 0 0;
#X restore 303 250 pd init-dsp;
#X obj 12 267 poly-voice;
#X obj 34 235 poly-voice;
#X obj 56 203 poly-voice;
#X obj 78 171 poly-voice;
#X connect 2 0 4 0;
#X connect 3 0 8 0;
#X connect 4 2 3 0;
#X connect 5 0 4 3;
#X connect 5 1 4 4;
#X connect 5 2 4 5;
#X connect 5 3 4 6;
#X connect 6 0 3 4;
#X connect 7 0 6 0;
#X connect 8 0 10 0;
#X connect 9 0 10 0;
#X connect 11 0 12 0;
#X connect 11 1 12 1;
#X connect 11 2 12 2;
#X connect 12 0 13 0;
#X connect 13 0 18 0;
#X connect 13 1 19 0;
#X connect 13 2 20 0;
#X connect 13 3 21 0;
#X connect 14 0 9 0;
#X connect 15 0 11 0;
#X connect 16 0 15 0;
#X connect 16 1 15 1;
#X connect 18 0 14 0;
#X connect 19 0 14 0;
#X connect 20 0 14 0;
#X connect 21 0 14 0;
