#N canvas 863 4 958 937 12;
#X obj 454 680 modules/audio-out~;
#X obj 534 150 modules/noise1~;
#X obj 540 12 modules/midi-knobs;
#X obj 262 36 modules/midi-buttons;
#X obj 37 554 modules/vca~;
#X obj 37 407 modules/oscillator~;
#X obj 457 563 modules/mixer~;
#X obj 794 20 modules/lfo~;
#X obj 194 397 modules/envelope~;
#X obj 652 148 modules/filter~;
#X obj 671 20 modules/midi-wheels;
#X obj 48 35 modules/midi-keys;
#X obj 45 322 print;
#X obj 245 203 != 127;
#X obj 120 268 spigot;
#X connect 3 0 13 0;
#X connect 4 0 6 0;
#X connect 5 0 4 0;
#X connect 6 0 0 0;
#X connect 8 0 4 1;
#X connect 11 0 14 0;
#X connect 13 0 14 1;
#X connect 14 0 12 0;
