#N canvas 809 154 835 818 12;
#X obj 21 21 midi-keys, f 14;
#X obj 21 59 oscillator~;
#X obj 189 60 envelope~;
#X obj 633 27 midi-knobs;
#X floatatom 781 227 5 0 0 0 - - -;
#X floatatom 682 227 5 0 0 0 - - -;
#X floatatom 731 227 5 0 0 0 - - -;
#X floatatom 633 227 5 0 0 0 - - -;
#X obj 679 301 vca~;
#X obj 21 547 audio-out~;
#X obj 364 126 lfo~;
#X obj 440 366 filter~;
#X obj 697 457 noise1~;
#X obj 107 298 mixer~;
#X connect 0 0 1 0;
#X connect 0 1 2 0;
#X connect 3 0 7 0;
#X connect 3 1 5 0;
#X connect 3 2 6 0;
#X connect 3 3 4 0;
