#N canvas 11 47 1918 766 12;
#X obj 1706 393 modules/midi-knobs;
#X obj 1706 154 modules/midi-buttons;
#X obj 1706 122 s \$0-note;
#X obj 1799 122 s \$0-velocity;
#X obj 1706 11 modules/midi-keys;
#X obj 1706 361 s \$0-button1-on;
#X obj 1706 598 s \$0-knob1;
#X obj 1737 566 s \$0-knob2;
#X obj 1768 534 s \$0-knob3;
#X obj 1799 504 s \$0-knob4;
#X obj 1737 329 s \$0-button2-on;
#X obj 1768 297 s \$0-button3-on;
#X obj 1799 265 s \$0-button4-on;
#N canvas 195 153 450 403 buttons-off 0;
#X obj 24 307 outlet;
#X obj 24 83 spigot 0;
#X obj 24 147 spigot 0;
#X obj 24 211 spigot 0;
#X obj 24 275 spigot 0;
#X obj 77 51 r \$0-button1-off;
#X obj 77 115 r \$0-button2-off;
#X obj 77 179 r \$0-button3-off;
#X obj 77 243 r \$0-button4-off;
#X obj 24 19 inlet;
#X connect 1 0 2 0;
#X connect 2 0 3 0;
#X connect 3 0 4 0;
#X connect 4 0 0 0;
#X connect 5 0 1 1;
#X connect 6 0 2 1;
#X connect 7 0 3 1;
#X connect 8 0 4 1;
#X connect 9 0 1 0;
#X restore 1588 89 pd buttons-off;
#X obj 495 652 modules/audio-out~;
#X obj 22 140 modules/sequencer;
#X obj 221 251 r \$0-velocity;
#X obj 221 347 modules/envelope~;
#X obj 221 458 s~ \$0-osc-env;
#N canvas 936 51 680 300 env-inputs 0;
#X obj 29 26 r \$0-knob1;
#N canvas 791 437 450 403 button2 0;
#X obj 24 307 outlet;
#X obj 24 83 spigot 0;
#X obj 24 147 spigot 0;
#X obj 24 211 spigot 0;
#X obj 24 275 spigot 0;
#X obj 77 51 r \$0-button1-off;
#X obj 77 179 r \$0-button3-off;
#X obj 77 243 r \$0-button4-off;
#X obj 24 19 inlet;
#X obj 77 115 r \$0-button2-on;
#X connect 1 0 2 0;
#X connect 2 0 3 0;
#X connect 3 0 4 0;
#X connect 4 0 0 0;
#X connect 5 0 1 1;
#X connect 6 0 3 1;
#X connect 7 0 4 1;
#X connect 8 0 1 0;
#X connect 9 0 2 1;
#X restore 29 58 pd button2;
#X obj 29 154 outlet;
#X obj 532 26 loadbang;
#X obj 532 58 s \$0-loadbang;
#X obj 39 90 r \$0-loadbang;
#N canvas 791 437 450 403 button2 0;
#X obj 24 307 outlet;
#X obj 24 83 spigot 0;
#X obj 24 147 spigot 0;
#X obj 24 211 spigot 0;
#X obj 24 275 spigot 0;
#X obj 77 51 r \$0-button1-off;
#X obj 77 179 r \$0-button3-off;
#X obj 77 243 r \$0-button4-off;
#X obj 24 19 inlet;
#X obj 77 115 r \$0-button2-on;
#X connect 1 0 2 0;
#X connect 2 0 3 0;
#X connect 3 0 4 0;
#X connect 4 0 0 0;
#X connect 5 0 1 1;
#X connect 6 0 3 1;
#X connect 7 0 4 1;
#X connect 8 0 1 0;
#X connect 9 0 2 1;
#X restore 165 58 pd button2;
#X obj 165 154 outlet;
#X obj 175 90 r \$0-loadbang;
#N canvas 791 437 450 403 button2 0;
#X obj 24 307 outlet;
#X obj 24 83 spigot 0;
#X obj 24 147 spigot 0;
#X obj 24 211 spigot 0;
#X obj 24 275 spigot 0;
#X obj 77 51 r \$0-button1-off;
#X obj 77 179 r \$0-button3-off;
#X obj 77 243 r \$0-button4-off;
#X obj 24 19 inlet;
#X obj 77 115 r \$0-button2-on;
#X connect 1 0 2 0;
#X connect 2 0 3 0;
#X connect 3 0 4 0;
#X connect 4 0 0 0;
#X connect 5 0 1 1;
#X connect 6 0 3 1;
#X connect 7 0 4 1;
#X connect 8 0 1 0;
#X connect 9 0 2 1;
#X restore 281 58 pd button2;
#X obj 281 154 outlet;
#X obj 291 90 r \$0-loadbang;
#X obj 165 26 r \$0-knob2;
#X obj 281 26 r \$0-knob3;
#N canvas 791 437 450 403 button2 0;
#X obj 24 307 outlet;
#X obj 24 83 spigot 0;
#X obj 24 147 spigot 0;
#X obj 24 211 spigot 0;
#X obj 24 275 spigot 0;
#X obj 77 51 r \$0-button1-off;
#X obj 77 179 r \$0-button3-off;
#X obj 77 243 r \$0-button4-off;
#X obj 24 19 inlet;
#X obj 77 115 r \$0-button2-on;
#X connect 1 0 2 0;
#X connect 2 0 3 0;
#X connect 3 0 4 0;
#X connect 4 0 0 0;
#X connect 5 0 1 1;
#X connect 6 0 3 1;
#X connect 7 0 4 1;
#X connect 8 0 1 0;
#X connect 9 0 2 1;
#X restore 397 58 pd button2;
#X obj 397 154 outlet;
#X obj 407 90 r \$0-loadbang;
#X obj 397 26 r \$0-knob4;
#X msg 39 122 1;
#X msg 175 122 0;
#X msg 291 122 127;
#X msg 407 122 1;
#X connect 0 0 1 0;
#X connect 1 0 2 0;
#X connect 3 0 4 0;
#X connect 5 0 18 0;
#X connect 6 0 7 0;
#X connect 8 0 19 0;
#X connect 9 0 10 0;
#X connect 11 0 20 0;
#X connect 12 0 6 0;
#X connect 13 0 9 0;
#X connect 14 0 15 0;
#X connect 16 0 21 0;
#X connect 17 0 14 0;
#X connect 18 0 2 0;
#X connect 19 0 7 0;
#X connect 20 0 10 0;
#X connect 21 0 15 0;
#X restore 244 315 pd env-inputs;
#X obj 13 490 modules/vca~;
#X obj 58 458 r~ \$0-osc-env;
#X obj 76 522 modules/vca~;
#X obj 121 490 r~ \$0-osc-env;
#X obj 139 554 modules/vca~;
#X obj 184 522 r~ \$0-osc-env;
#X obj 14 704 modules/mixer~;
#X obj 12 347 modules/oscillator~;
#X obj 12 12 r \$0-note;
#X obj 22 76 r \$0-note;
#N canvas 292 249 450 403 button1 0;
#X obj 24 307 outlet;
#X obj 24 83 spigot 0;
#X obj 24 147 spigot 0;
#X obj 24 211 spigot 0;
#X obj 24 275 spigot 0;
#X obj 77 115 r \$0-button2-off;
#X obj 77 179 r \$0-button3-off;
#X obj 77 243 r \$0-button4-off;
#X obj 24 19 inlet;
#X obj 77 51 r \$0-button1-on;
#X connect 1 0 2 0;
#X connect 2 0 3 0;
#X connect 3 0 4 0;
#X connect 4 0 0 0;
#X connect 5 0 2 1;
#X connect 6 0 3 1;
#X connect 7 0 4 1;
#X connect 8 0 1 0;
#X connect 9 0 1 1;
#X restore 22 108 pd button1;
#X obj 231 283 r \$0-seq-gate;
#X obj 115 251 s \$0-seq-gate;
#N canvas 195 153 450 403 buttons-off 0;
#X obj 24 307 outlet;
#X obj 24 83 spigot 0;
#X obj 24 147 spigot 0;
#X obj 24 211 spigot 0;
#X obj 24 275 spigot 0;
#X obj 77 51 r \$0-button1-off;
#X obj 77 115 r \$0-button2-off;
#X obj 77 179 r \$0-button3-off;
#X obj 77 243 r \$0-button4-off;
#X obj 24 19 inlet;
#X connect 1 0 2 0;
#X connect 2 0 3 0;
#X connect 3 0 4 0;
#X connect 4 0 0 0;
#X connect 5 0 1 1;
#X connect 6 0 2 1;
#X connect 7 0 3 1;
#X connect 8 0 4 1;
#X connect 9 0 1 0;
#X restore 105 315 pd buttons-off;
#X obj 105 283 r \$0-knob4;
#X obj 14 815 s~ \$0-osc-out;
#X obj 1802 889 modules/noise1~;
#X obj 1676 866 modules/lfo~;
#N canvas 412 150 740 432 init-button-vars 0;
#X obj 7 101 != 127;
#X obj 7 136 s \$0-button1-off;
#X obj 7 69 r \$0-button1-on;
#X obj 137 101 != 127;
#X obj 263 101 != 127;
#X obj 393 101 != 127;
#X obj 137 133 s \$0-button2-off;
#X obj 263 133 s \$0-button3-off;
#X obj 393 133 s \$0-button4-off;
#X obj 137 69 r \$0-button2-on;
#X obj 263 69 r \$0-button3-on;
#X obj 393 69 r \$0-button4-on;
#X connect 0 0 1 0;
#X connect 2 0 0 0;
#X connect 3 0 6 0;
#X connect 4 0 7 0;
#X connect 5 0 8 0;
#X connect 9 0 3 0;
#X connect 10 0 4 0;
#X connect 11 0 5 0;
#X restore 1551 55 pd init-button-vars;
#N canvas 292 249 450 403 button1 0;
#X obj 24 307 outlet;
#X obj 24 83 spigot 0;
#X obj 24 147 spigot 0;
#X obj 24 211 spigot 0;
#X obj 24 275 spigot 0;
#X obj 77 115 r \$0-button2-off;
#X obj 77 179 r \$0-button3-off;
#X obj 77 243 r \$0-button4-off;
#X obj 24 19 inlet;
#X obj 77 51 r \$0-button1-on;
#X connect 1 0 2 0;
#X connect 2 0 3 0;
#X connect 3 0 4 0;
#X connect 4 0 0 0;
#X connect 5 0 2 1;
#X connect 6 0 3 1;
#X connect 7 0 4 1;
#X connect 8 0 1 0;
#X connect 9 0 1 1;
#X restore 115 108 pd button1;
#X obj 115 76 r \$0-knob4;
#X obj 413 96 modules/filter~;
#X obj 412 32 r~ \$0-osc-out;
#X obj 412 279 modules/mixer~;
#N canvas 630 287 450 300 osc-mixer-knobs 0;
#X obj 12 140 outlet;
#X obj 125 76 outlet;
#X obj 12 12 r \$0-knob1;
#X obj 125 12 r \$0-knob2;
#N canvas 195 153 450 403 buttons-off 0;
#X obj 24 307 outlet;
#X obj 24 83 spigot 0;
#X obj 24 147 spigot 0;
#X obj 24 211 spigot 0;
#X obj 24 275 spigot 0;
#X obj 77 51 r \$0-button1-off;
#X obj 77 115 r \$0-button2-off;
#X obj 77 179 r \$0-button3-off;
#X obj 77 243 r \$0-button4-off;
#X obj 24 19 inlet;
#X connect 1 0 2 0;
#X connect 2 0 3 0;
#X connect 3 0 4 0;
#X connect 4 0 0 0;
#X connect 5 0 1 1;
#X connect 6 0 2 1;
#X connect 7 0 3 1;
#X connect 8 0 4 1;
#X connect 9 0 1 0;
#X restore 12 44 pd buttons-off;
#N canvas 195 153 450 403 buttons-off 0;
#X obj 24 307 outlet;
#X obj 24 83 spigot 0;
#X obj 24 147 spigot 0;
#X obj 24 211 spigot 0;
#X obj 24 275 spigot 0;
#X obj 77 51 r \$0-button1-off;
#X obj 77 115 r \$0-button2-off;
#X obj 77 179 r \$0-button3-off;
#X obj 77 243 r \$0-button4-off;
#X obj 24 19 inlet;
#X connect 1 0 2 0;
#X connect 2 0 3 0;
#X connect 3 0 4 0;
#X connect 4 0 0 0;
#X connect 5 0 1 1;
#X connect 6 0 2 1;
#X connect 7 0 3 1;
#X connect 8 0 4 1;
#X connect 9 0 1 0;
#X restore 125 44 pd buttons-off;
#X obj 238 76 outlet;
#N canvas 195 153 450 403 buttons-off 0;
#X obj 24 307 outlet;
#X obj 24 83 spigot 0;
#X obj 24 147 spigot 0;
#X obj 24 211 spigot 0;
#X obj 24 275 spigot 0;
#X obj 77 51 r \$0-button1-off;
#X obj 77 115 r \$0-button2-off;
#X obj 77 179 r \$0-button3-off;
#X obj 77 243 r \$0-button4-off;
#X obj 24 19 inlet;
#X connect 1 0 2 0;
#X connect 2 0 3 0;
#X connect 3 0 4 0;
#X connect 4 0 0 0;
#X connect 5 0 1 1;
#X connect 6 0 2 1;
#X connect 7 0 3 1;
#X connect 8 0 4 1;
#X connect 9 0 1 0;
#X restore 238 44 pd buttons-off;
#X obj 238 12 r \$0-knob3;
#X obj 22 76 loadbang;
#X msg 22 108 127;
#X connect 2 0 4 0;
#X connect 3 0 5 0;
#X connect 4 0 0 0;
#X connect 5 0 1 0;
#X connect 7 0 6 0;
#X connect 8 0 7 0;
#X connect 9 0 10 0;
#X connect 10 0 0 0;
#X restore 93 659 pd osc-mixer-knobs;
#X obj 411 399 s~ \$0-filter-out;
#N canvas 943 238 769 329 filter-mixer-knobs 0;
#N canvas 292 249 450 403 button3-4 0;
#X obj 24 307 outlet;
#X obj 24 83 spigot 0;
#X obj 24 147 spigot 0;
#X obj 24 211 spigot 0;
#X obj 24 275 spigot 0;
#X obj 77 115 r \$0-button2-off;
#X obj 24 19 inlet;
#X obj 77 51 r \$0-button1-off;
#X obj 77 179 r \$0-button3-on;
#X obj 77 243 r \$0-button4-on;
#X connect 1 0 2 0;
#X connect 2 0 3 0;
#X connect 3 0 4 0;
#X connect 4 0 0 0;
#X connect 5 0 2 1;
#X connect 6 0 1 0;
#X connect 7 0 1 1;
#X connect 8 0 3 1;
#X connect 9 0 4 1;
#X restore 309 44 pd button3-4;
#X obj 309 12 r \$0-knob4;
#N canvas 292 249 450 403 button3-4 0;
#X obj 24 307 outlet;
#X obj 24 83 spigot 0;
#X obj 24 147 spigot 0;
#X obj 24 211 spigot 0;
#X obj 24 275 spigot 0;
#X obj 77 115 r \$0-button2-off;
#X obj 24 19 inlet;
#X obj 77 51 r \$0-button1-off;
#X obj 77 179 r \$0-button3-on;
#X obj 77 243 r \$0-button4-on;
#X connect 1 0 2 0;
#X connect 2 0 3 0;
#X connect 3 0 4 0;
#X connect 4 0 0 0;
#X connect 5 0 2 1;
#X connect 6 0 1 0;
#X connect 7 0 1 1;
#X connect 8 0 3 1;
#X connect 9 0 4 1;
#X restore 210 44 pd button3-4;
#X obj 210 12 r \$0-knob3;
#N canvas 292 249 450 403 button3-4 0;
#X obj 24 307 outlet;
#X obj 24 83 spigot 0;
#X obj 24 147 spigot 0;
#X obj 24 211 spigot 0;
#X obj 24 275 spigot 0;
#X obj 77 115 r \$0-button2-off;
#X obj 24 19 inlet;
#X obj 77 51 r \$0-button1-off;
#X obj 77 179 r \$0-button3-on;
#X obj 77 243 r \$0-button4-on;
#X connect 1 0 2 0;
#X connect 2 0 3 0;
#X connect 3 0 4 0;
#X connect 4 0 0 0;
#X connect 5 0 2 1;
#X connect 6 0 1 0;
#X connect 7 0 1 1;
#X connect 8 0 3 1;
#X connect 9 0 4 1;
#X restore 111 44 pd button3-4;
#X obj 111 12 r \$0-knob2;
#N canvas 292 249 450 403 button3-4 0;
#X obj 24 307 outlet;
#X obj 24 83 spigot 0;
#X obj 24 147 spigot 0;
#X obj 24 211 spigot 0;
#X obj 24 275 spigot 0;
#X obj 77 115 r \$0-button2-off;
#X obj 24 19 inlet;
#X obj 77 51 r \$0-button1-off;
#X obj 77 179 r \$0-button3-on;
#X obj 77 243 r \$0-button4-on;
#X connect 1 0 2 0;
#X connect 2 0 3 0;
#X connect 3 0 4 0;
#X connect 4 0 0 0;
#X connect 5 0 2 1;
#X connect 6 0 1 0;
#X connect 7 0 1 1;
#X connect 8 0 3 1;
#X connect 9 0 4 1;
#X restore 12 44 pd button3-4;
#X obj 12 12 r \$0-knob1;
#X obj 12 140 outlet;
#X obj 111 76 outlet;
#X obj 210 76 outlet;
#X obj 309 76 outlet;
#X obj 22 76 loadbang;
#X msg 22 108 127;
#X connect 0 0 11 0;
#X connect 1 0 0 0;
#X connect 2 0 10 0;
#X connect 3 0 2 0;
#X connect 4 0 9 0;
#X connect 5 0 4 0;
#X connect 6 0 8 0;
#X connect 7 0 6 0;
#X connect 12 0 13 0;
#X connect 13 0 8 0;
#X restore 465 247 pd filter-mixer-knobs;
#N canvas 442 104 1920 1007 filter-knobs 0;
#X obj 309 12 r \$0-knob4;
#X obj 210 12 r \$0-knob3;
#X obj 111 12 r \$0-knob2;
#X obj 12 12 r \$0-knob1;
#N canvas 292 249 450 403 button3 0;
#X obj 24 307 outlet;
#X obj 24 83 spigot 0;
#X obj 24 147 spigot 0;
#X obj 24 211 spigot 0;
#X obj 24 275 spigot 0;
#X obj 77 115 r \$0-button2-off;
#X obj 24 19 inlet;
#X obj 77 51 r \$0-button1-off;
#X obj 77 179 r \$0-button3-on;
#X obj 77 243 r \$0-button4-off;
#X connect 1 0 2 0;
#X connect 2 0 3 0;
#X connect 3 0 4 0;
#X connect 4 0 0 0;
#X connect 5 0 2 1;
#X connect 6 0 1 0;
#X connect 7 0 1 1;
#X connect 8 0 3 1;
#X connect 9 0 4 1;
#X restore 12 44 pd button3;
#N canvas 292 249 450 403 button3 0;
#X obj 24 307 outlet;
#X obj 24 83 spigot 0;
#X obj 24 147 spigot 0;
#X obj 24 211 spigot 0;
#X obj 24 275 spigot 0;
#X obj 77 115 r \$0-button2-off;
#X obj 24 19 inlet;
#X obj 77 51 r \$0-button1-off;
#X obj 77 179 r \$0-button3-on;
#X obj 77 243 r \$0-button4-off;
#X connect 1 0 2 0;
#X connect 2 0 3 0;
#X connect 3 0 4 0;
#X connect 4 0 0 0;
#X connect 5 0 2 1;
#X connect 6 0 1 0;
#X connect 7 0 1 1;
#X connect 8 0 3 1;
#X connect 9 0 4 1;
#X restore 111 44 pd button3;
#N canvas 292 249 450 403 button3 0;
#X obj 24 307 outlet;
#X obj 24 83 spigot 0;
#X obj 24 147 spigot 0;
#X obj 24 211 spigot 0;
#X obj 24 275 spigot 0;
#X obj 77 115 r \$0-button2-off;
#X obj 24 19 inlet;
#X obj 77 51 r \$0-button1-off;
#X obj 77 179 r \$0-button3-on;
#X obj 77 243 r \$0-button4-off;
#X connect 1 0 2 0;
#X connect 2 0 3 0;
#X connect 3 0 4 0;
#X connect 4 0 0 0;
#X connect 5 0 2 1;
#X connect 6 0 1 0;
#X connect 7 0 1 1;
#X connect 8 0 3 1;
#X connect 9 0 4 1;
#X restore 210 44 pd button3;
#N canvas 292 249 450 403 button3 0;
#X obj 24 307 outlet;
#X obj 24 83 spigot 0;
#X obj 24 147 spigot 0;
#X obj 24 211 spigot 0;
#X obj 24 275 spigot 0;
#X obj 77 115 r \$0-button2-off;
#X obj 24 19 inlet;
#X obj 77 51 r \$0-button1-off;
#X obj 77 179 r \$0-button3-on;
#X obj 77 243 r \$0-button4-off;
#X connect 1 0 2 0;
#X connect 2 0 3 0;
#X connect 3 0 4 0;
#X connect 4 0 0 0;
#X connect 5 0 2 1;
#X connect 6 0 1 0;
#X connect 7 0 1 1;
#X connect 8 0 3 1;
#X connect 9 0 4 1;
#X restore 309 44 pd button3;
#X obj 12 128 loadbang;
#X msg 12 192 127;
#X msg 22 160 0;
#X obj 12 276 r \$0-outlet1;
#X obj 12 308 outlet;
#X obj 12 76 s \$0-outlet1;
#X obj 111 76 s \$0-outlet2;
#X obj 210 76 s \$0-outlet3;
#X obj 309 76 s \$0-outlet4;
#X obj 111 308 outlet;
#X obj 210 308 outlet;
#X obj 309 308 outlet;
#X obj 12 224 s \$0-outlet1;
#X obj 111 224 s \$0-outlet2;
#X obj 210 224 s \$0-outlet3;
#X obj 309 224 s \$0-outlet4;
#X obj 111 276 r \$0-outlet2;
#X obj 210 276 r \$0-outlet3;
#X obj 309 276 r \$0-outlet4;
#X connect 0 0 7 0;
#X connect 1 0 6 0;
#X connect 2 0 5 0;
#X connect 3 0 4 0;
#X connect 4 0 13 0;
#X connect 5 0 14 0;
#X connect 6 0 15 0;
#X connect 7 0 16 0;
#X connect 8 0 9 0;
#X connect 8 0 10 0;
#X connect 9 0 20 0;
#X connect 10 0 21 0;
#X connect 10 0 22 0;
#X connect 10 0 23 0;
#X connect 11 0 12 0;
#X connect 24 0 17 0;
#X connect 25 0 18 0;
#X connect 26 0 19 0;
#X restore 436 64 pd filter-knobs;
#X obj 495 620 r~ \$0-filter-out;
#N canvas 286 244 335 124 init-dsp 0;
#X msg 13 48 \; pd dsp 1;
#X obj 13 16 loadbang;
#X connect 1 0 0 0;
#X restore 1594 132 pd init-dsp;
#X connect 0 0 6 0;
#X connect 0 1 7 0;
#X connect 0 2 8 0;
#X connect 0 3 9 0;
#X connect 1 0 5 0;
#X connect 1 1 10 0;
#X connect 1 2 11 0;
#X connect 1 3 12 0;
#X connect 4 0 2 0;
#X connect 4 1 3 0;
#X connect 15 0 27 0;
#X connect 15 1 32 0;
#X connect 16 0 17 0;
#X connect 17 0 18 0;
#X connect 19 0 17 1;
#X connect 19 1 17 2;
#X connect 19 2 17 3;
#X connect 19 3 17 4;
#X connect 20 0 26 0;
#X connect 21 0 20 1;
#X connect 22 0 26 1;
#X connect 23 0 22 1;
#X connect 24 0 26 2;
#X connect 25 0 24 1;
#X connect 26 0 35 0;
#X connect 27 0 20 0;
#X connect 27 1 22 0;
#X connect 27 2 24 0;
#X connect 28 0 27 0;
#X connect 29 0 30 0;
#X connect 30 0 15 0;
#X connect 31 0 17 0;
#X connect 33 0 27 1;
#X connect 34 0 33 0;
#X connect 39 0 15 1;
#X connect 40 0 39 0;
#X connect 41 0 43 0;
#X connect 41 1 43 1;
#X connect 41 2 43 2;
#X connect 42 0 41 0;
#X connect 43 0 45 0;
#X connect 44 0 26 4;
#X connect 44 1 26 5;
#X connect 44 2 26 6;
#X connect 46 0 43 4;
#X connect 46 1 43 5;
#X connect 46 2 43 6;
#X connect 46 3 43 7;
#X connect 47 0 41 1;
#X connect 47 1 41 2;
#X connect 47 2 41 3;
#X connect 47 3 41 4;
#X connect 48 0 14 0;
