#N canvas 457 43 1918 998 12;
#X obj 359 676 modules/audio-out~;
#X obj 1300 148 modules/noise1~;
#X obj 1043 11 modules/midi-knobs;
#X obj 776 17 modules/midi-buttons;
#X obj 39 540 modules/mixer~;
#X obj 1301 36 modules/lfo~;
#X obj 1414 41 modules/envelope~;
#X obj 562 128 s \$0-note;
#X obj 655 128 s \$0-velocity;
#X obj 562 17 modules/midi-keys;
#X obj 16 173 modules/oscillator~;
#X obj 1550 373 modules/sequencer;
#X obj 648 300 != 127;
#X obj 16 17 r \$0-note;
#X obj 353 200 spigot 0;
#X obj 353 136 r \$0-velocity;
#X obj 648 335 s \$0-button1-off;
#X obj 353 402 modules/envelope~;
#X obj 776 224 s \$0-button1-on;
#X obj 648 268 r \$0-button1-on;
#X obj 1550 484 modules/oscillator~;
#X obj 1589 309 r \$0-button1-on;
#X obj 1550 341 spigot;
#X obj 1550 277 r \$0-note;
#X obj 1661 484 modules/envelope~;
#X obj 1043 216 s \$0-knob1;
#X obj 17 316 modules/vca~;
#X obj 353 513 s~ \$0-osc-env;
#X obj 62 284 r~ \$0-osc-env;
#X obj 80 348 modules/vca~;
#X obj 125 316 r~ \$0-osc-env;
#X obj 143 380 modules/vca~;
#X obj 188 348 r~ \$0-osc-env;
#X obj 1074 184 s \$0-knob2;
#X obj 1105 152 s \$0-knob3;
#X obj 1136 122 s \$0-knob4;
#X obj 111 102 r \$0-knob4;
#X obj 40 851 s~ \$0-audio-out;
#X obj 359 644 r~ \$0-audio-out;
#X obj 38 681 modules/filter~;
#X obj 406 168 r \$0-button1-off;
#X obj 376 349 spigot 0;
#X obj 429 317 r \$0-button2-on;
#X obj 376 285 r \$0-knob2;
#X obj 778 300 != 127;
#X obj 904 300 != 127;
#X obj 1034 300 != 127;
#X obj 778 332 s \$0-button2-off;
#X obj 904 332 s \$0-button3-off;
#X obj 1034 332 s \$0-button4-off;
#X obj 778 268 r \$0-button2-on;
#X obj 904 268 r \$0-button3-on;
#X obj 1034 268 r \$0-button4-on;
#X obj 807 192 s \$0-button2-on;
#X obj 838 160 s \$0-button3-on;
#X obj 869 128 s \$0-button4-on;
#N canvas 17 510 450 300 buttons-off 1;
#X obj 19 171 modules/buttons-off;
#X obj 51 44 r \$0-button1-off;
#X obj 84 76 r \$0-button2-off;
#X obj 116 108 r \$0-button3-off;
#X obj 149 140 r \$0-button4-off;
#X obj 19 203 outlet;
#X obj 19 12 inlet;
#X connect 0 0 5 0;
#X connect 1 0 0 1;
#X connect 2 0 0 2;
#X connect 3 0 0 3;
#X connect 4 0 0 4;
#X connect 6 0 0 0;
#X restore 112 135 pd buttons-off;
#N canvas 382 88 450 300 osc-mixer-amp 1;
#N canvas 657 596 450 300 buttons-off 0;
#X obj 19 171 modules/buttons-off;
#X obj 51 44 r \$0-button1-off;
#X obj 84 76 r \$0-button2-off;
#X obj 116 108 r \$0-button3-off;
#X obj 149 140 r \$0-button4-off;
#X obj 19 203 outlet;
#X obj 19 12 inlet;
#X connect 0 0 5 0;
#X connect 1 0 0 1;
#X connect 2 0 0 2;
#X connect 3 0 0 3;
#X connect 4 0 0 4;
#X connect 6 0 0 0;
#X restore 12 44 pd buttons-off;
#X obj 12 76 outlet;
#N canvas 657 596 450 300 buttons-off 0;
#X obj 19 171 modules/buttons-off;
#X obj 51 44 r \$0-button1-off;
#X obj 84 76 r \$0-button2-off;
#X obj 116 108 r \$0-button3-off;
#X obj 149 140 r \$0-button4-off;
#X obj 19 203 outlet;
#X obj 19 12 inlet;
#X connect 0 0 5 0;
#X connect 1 0 0 1;
#X connect 2 0 0 2;
#X connect 3 0 0 3;
#X connect 4 0 0 4;
#X connect 6 0 0 0;
#X restore 125 44 pd buttons-off;
#X obj 125 76 outlet;
#N canvas 657 596 450 300 buttons-off 0;
#X obj 19 171 modules/buttons-off;
#X obj 51 44 r \$0-button1-off;
#X obj 84 76 r \$0-button2-off;
#X obj 116 108 r \$0-button3-off;
#X obj 149 140 r \$0-button4-off;
#X obj 19 203 outlet;
#X obj 19 12 inlet;
#X connect 0 0 5 0;
#X connect 1 0 0 1;
#X connect 2 0 0 2;
#X connect 3 0 0 3;
#X connect 4 0 0 4;
#X connect 6 0 0 0;
#X restore 238 44 pd buttons-off;
#X obj 238 76 outlet;
#X obj 12 12 r \$0-knob1;
#X obj 125 12 r \$0-knob2;
#X obj 238 12 r \$0-knob3;
#X connect 0 0 1 0;
#X connect 2 0 3 0;
#X connect 4 0 5 0;
#X connect 6 0 0 0;
#X connect 7 0 2 0;
#X connect 8 0 4 0;
#X restore 133 474 pd osc-mixer-amp;
#X connect 2 0 25 0;
#X connect 2 1 33 0;
#X connect 2 2 34 0;
#X connect 2 3 35 0;
#X connect 3 0 18 0;
#X connect 3 1 53 0;
#X connect 3 2 54 0;
#X connect 3 3 55 0;
#X connect 4 0 39 0;
#X connect 9 0 7 0;
#X connect 9 1 8 0;
#X connect 10 0 26 0;
#X connect 10 1 29 0;
#X connect 10 2 31 0;
#X connect 11 0 20 0;
#X connect 11 1 24 0;
#X connect 12 0 16 0;
#X connect 13 0 10 0;
#X connect 14 0 17 0;
#X connect 15 0 14 0;
#X connect 17 0 27 0;
#X connect 19 0 12 0;
#X connect 21 0 22 1;
#X connect 22 0 11 0;
#X connect 23 0 22 0;
#X connect 26 0 4 0;
#X connect 28 0 26 1;
#X connect 29 0 4 1;
#X connect 30 0 29 1;
#X connect 31 0 4 2;
#X connect 32 0 31 1;
#X connect 36 0 56 0;
#X connect 38 0 0 0;
#X connect 39 0 37 0;
#X connect 40 0 14 1;
#X connect 41 0 17 1;
#X connect 42 0 41 1;
#X connect 43 0 41 0;
#X connect 44 0 47 0;
#X connect 45 0 48 0;
#X connect 46 0 49 0;
#X connect 50 0 44 0;
#X connect 51 0 45 0;
#X connect 52 0 46 0;
#X connect 56 0 10 1;
#X connect 57 0 4 4;
#X connect 57 1 4 5;
#X connect 57 2 4 6;
