#N canvas 863 57 958 884 12;
#X obj 40 691 modules/audio-out~;
#X obj 534 150 modules/noise1~;
#X obj 309 183 modules/midi-keys;
#X obj 444 20 modules/midi-knobs;
#X obj 561 17 modules/midi-buttons;
#X obj 47 434 modules/vca~;
#X obj 48 303 modules/oscillator~;
#X obj 43 574 modules/mixer~;
#X obj 770 148 modules/lfo~;
#X obj 165 305 modules/envelope~;
#X obj 652 148 modules/filter~;
#X obj 671 20 modules/midi-wheels;
#X obj 48 185 modules/sequencer;
#X obj 303 449 modules/vca~;
#X obj 306 307 modules/oscillator~;
#X obj 423 309 modules/envelope~;
#X obj 48 65 modules/midi-keys;
#X connect 2 0 14 0;
#X connect 2 1 15 0;
#X connect 5 0 7 0;
#X connect 6 2 5 0;
#X connect 7 0 0 0;
#X connect 7 1 0 0;
#X connect 9 0 5 1;
#X connect 12 0 6 0;
#X connect 12 1 9 0;
#X connect 13 0 7 1;
#X connect 14 0 13 0;
#X connect 15 0 13 1;
#X connect 16 0 12 0;
