#N canvas -8 -8 1920 1007 12;
#X obj 13 666 modules/audio-out~;
#X obj 1049 33 modules/noise1~;
#X obj 1168 35 modules/midi-knobs;
#X obj 776 17 modules/midi-buttons;
#X obj 1170 150 modules/vca~;
#X obj 1417 40 modules/oscillator~;
#X obj 13 555 modules/mixer~;
#X obj 1301 36 modules/lfo~;
#X obj 1538 41 modules/envelope~;
#X obj 1048 145 modules/filter~;
#X obj 558 128 s \$0-note;
#X obj 651 128 s \$0-velocity;
#X obj 558 17 modules/midi-keys;
#X obj 807 192 s \$0-button2;
#X obj 838 160 s \$0-button3;
#X obj 869 128 s \$0-button4;
#X obj 14 108 modules/oscillator~;
#X obj 297 168 modules/sequencer;
#X obj 13 426 modules/vca~;
#X obj 14 76 spigot 0;
#X obj 591 216 != 127;
#X obj 14 12 r \$0-note;
#X obj 106 283 spigot 0;
#X obj 106 219 r \$0-velocity;
#X obj 591 248 s \$0-button1-off;
#X obj 67 44 r \$0-button1-off;
#X obj 106 315 modules/envelope~;
#X obj 776 224 s \$0-button1-on;
#X obj 591 184 r \$0-button1-on;
#X obj 297 279 modules/oscillator~;
#X obj 336 104 r \$0-button1-on;
#X obj 297 136 spigot;
#X obj 297 72 r \$0-note;
#X obj 408 279 modules/envelope~;
#X obj 297 390 modules/vca~;
#X obj 159 251 r \$0-button1-off;
#X connect 3 0 27 0;
#X connect 3 1 13 0;
#X connect 3 2 14 0;
#X connect 3 3 15 0;
#X connect 6 0 0 0;
#X connect 12 0 10 0;
#X connect 12 1 11 0;
#X connect 16 0 18 0;
#X connect 17 0 29 0;
#X connect 17 1 33 0;
#X connect 18 0 6 0;
#X connect 19 0 16 0;
#X connect 20 0 24 0;
#X connect 21 0 19 0;
#X connect 22 0 26 0;
#X connect 23 0 22 0;
#X connect 25 0 19 1;
#X connect 26 0 18 1;
#X connect 28 0 20 0;
#X connect 29 0 34 0;
#X connect 30 0 31 1;
#X connect 31 0 17 0;
#X connect 32 0 31 0;
#X connect 33 0 34 1;
#X connect 34 0 6 1;
#X connect 35 0 22 1;
