#N canvas -8 -8 1920 1007 12;
#X obj 454 43 modules/audio-out~;
#X obj 12 43 modules/sequencer;
#X obj 254 361 modules/envelope~;
#X obj 13 361 modules/mixer~;
#X obj 12 218 modules/oscillator~;
#X obj 13 472 s~ \$0-osc-out;
#X obj 1504 244 modules/noise1~;
#N canvas 524 236 740 432 init-button-vars 0;
#X obj 12 44 != 127;
#X obj 12 79 s \$0-button1-off;
#X obj 12 12 r \$0-button1-on;
#X obj 142 44 != 127;
#X obj 268 44 != 127;
#X obj 398 44 != 127;
#X obj 142 76 s \$0-button2-off;
#X obj 268 76 s \$0-button3-off;
#X obj 398 76 s \$0-button4-off;
#X obj 142 12 r \$0-button2-on;
#X obj 268 12 r \$0-button3-on;
#X obj 398 12 r \$0-button4-on;
#X obj 12 163 != 127;
#X obj 142 163 != 127;
#X obj 268 163 != 127;
#X obj 398 163 != 127;
#X obj 12 282 != 127;
#X obj 142 282 != 127;
#X obj 268 282 != 127;
#X obj 398 282 != 127;
#X obj 12 131 r \$0-button5-on;
#X obj 142 131 r \$0-button6-on;
#X obj 268 131 r \$0-button7-on;
#X obj 398 131 r \$0-button8-on;
#X obj 12 250 r \$0-button9-on;
#X obj 142 250 r \$0-button10-on;
#X obj 268 250 r \$0-button11-on;
#X obj 398 250 r \$0-button12-on;
#X obj 398 314 s \$0-button12-off;
#X obj 268 314 s \$0-button11-off;
#X obj 142 314 s \$0-button10-off;
#X obj 12 317 s \$0-button9-off;
#X obj 398 195 s \$0-button8-off;
#X obj 268 195 s \$0-button7-off;
#X obj 142 195 s \$0-button6-off;
#X obj 12 198 s \$0-button5-off;
#X connect 0 0 1 0;
#X connect 2 0 0 0;
#X connect 3 0 6 0;
#X connect 4 0 7 0;
#X connect 5 0 8 0;
#X connect 9 0 3 0;
#X connect 10 0 4 0;
#X connect 11 0 5 0;
#X connect 12 0 35 0;
#X connect 13 0 34 0;
#X connect 14 0 33 0;
#X connect 15 0 32 0;
#X connect 16 0 31 0;
#X connect 17 0 30 0;
#X connect 18 0 29 0;
#X connect 19 0 28 0;
#X connect 20 0 12 0;
#X connect 21 0 13 0;
#X connect 22 0 14 0;
#X connect 23 0 15 0;
#X connect 24 0 16 0;
#X connect 25 0 17 0;
#X connect 26 0 18 0;
#X connect 27 0 19 0;
#X restore 1741 227 pd init-button-vars;
#X obj 209 75 modules/filter~;
#X obj 208 11 r~ \$0-osc-out;
#X obj 208 218 modules/mixer~;
#N canvas 286 244 335 124 init-dsp 0;
#X msg 13 48 \; pd dsp 1;
#X obj 13 16 loadbang;
#X connect 1 0 0 0;
#X restore 1743 256 pd init-dsp;
#N canvas 452 52 784 403 button1 0;
#X obj 24 83 spigot 0;
#X obj 24 147 spigot 0;
#X obj 24 211 spigot 0;
#X obj 24 275 spigot 0;
#X obj 77 115 r \$0-button2-off;
#X obj 77 179 r \$0-button3-off;
#X obj 77 243 r \$0-button4-off;
#X obj 24 19 inlet;
#X obj 77 51 r \$0-button1-on;
#X obj 217 83 spigot 0;
#X obj 217 147 spigot 0;
#X obj 217 211 spigot 0;
#X obj 217 275 spigot 0;
#X obj 410 83 spigot 0;
#X obj 410 147 spigot 0;
#X obj 410 211 spigot 0;
#X obj 410 275 spigot 0;
#X obj 270 115 r \$0-button6-off;
#X obj 270 179 r \$0-button7-off;
#X obj 270 243 r \$0-button8-off;
#X obj 463 115 r \$0-button10-off;
#X obj 463 179 r \$0-button11-off;
#X obj 463 243 r \$0-button12-off;
#X obj 410 307 outlet;
#X obj 270 51 r \$0-button5-off;
#X obj 463 51 r \$0-button9-off;
#X connect 0 0 1 0;
#X connect 1 0 2 0;
#X connect 2 0 3 0;
#X connect 3 0 9 0;
#X connect 4 0 1 1;
#X connect 5 0 2 1;
#X connect 6 0 3 1;
#X connect 7 0 0 0;
#X connect 8 0 0 1;
#X connect 9 0 10 0;
#X connect 10 0 11 0;
#X connect 11 0 12 0;
#X connect 12 0 13 0;
#X connect 13 0 14 0;
#X connect 14 0 15 0;
#X connect 15 0 16 0;
#X connect 16 0 23 0;
#X connect 17 0 10 1;
#X connect 18 0 11 1;
#X connect 19 0 12 1;
#X connect 20 0 14 1;
#X connect 21 0 15 1;
#X connect 22 0 16 1;
#X connect 24 0 9 1;
#X connect 25 0 13 1;
#X restore 1743 289 pd button1;
#X obj 209 535 s~ \$0-filter-out;
#X obj 105 154 s \$0-gate;
#N canvas 441 125 450 300 seq-inputs 0;
#X obj 12 12 r \$0-note;
#X obj 105 12 r \$0-knob4;
#N canvas 452 52 784 403 button1 0;
#X obj 24 83 spigot 0;
#X obj 24 147 spigot 0;
#X obj 24 211 spigot 0;
#X obj 24 275 spigot 0;
#X obj 77 115 r \$0-button2-off;
#X obj 77 179 r \$0-button3-off;
#X obj 77 243 r \$0-button4-off;
#X obj 24 19 inlet;
#X obj 77 51 r \$0-button1-on;
#X obj 217 83 spigot 0;
#X obj 217 147 spigot 0;
#X obj 217 211 spigot 0;
#X obj 217 275 spigot 0;
#X obj 410 83 spigot 0;
#X obj 410 147 spigot 0;
#X obj 410 211 spigot 0;
#X obj 410 275 spigot 0;
#X obj 270 115 r \$0-button6-off;
#X obj 270 179 r \$0-button7-off;
#X obj 270 243 r \$0-button8-off;
#X obj 463 115 r \$0-button10-off;
#X obj 463 179 r \$0-button11-off;
#X obj 463 243 r \$0-button12-off;
#X obj 410 307 outlet;
#X obj 270 51 r \$0-button5-off;
#X obj 463 51 r \$0-button9-off;
#X connect 0 0 1 0;
#X connect 1 0 2 0;
#X connect 2 0 3 0;
#X connect 3 0 9 0;
#X connect 4 0 1 1;
#X connect 5 0 2 1;
#X connect 6 0 3 1;
#X connect 7 0 0 0;
#X connect 8 0 0 1;
#X connect 9 0 10 0;
#X connect 10 0 11 0;
#X connect 11 0 12 0;
#X connect 12 0 13 0;
#X connect 13 0 14 0;
#X connect 14 0 15 0;
#X connect 15 0 16 0;
#X connect 16 0 23 0;
#X connect 17 0 10 1;
#X connect 18 0 11 1;
#X connect 19 0 12 1;
#X connect 20 0 14 1;
#X connect 21 0 15 1;
#X connect 22 0 16 1;
#X connect 24 0 9 1;
#X connect 25 0 13 1;
#X restore 12 44 pd button1;
#N canvas 452 52 784 403 button1 0;
#X obj 24 83 spigot 0;
#X obj 24 147 spigot 0;
#X obj 24 211 spigot 0;
#X obj 24 275 spigot 0;
#X obj 77 115 r \$0-button2-off;
#X obj 77 179 r \$0-button3-off;
#X obj 77 243 r \$0-button4-off;
#X obj 24 19 inlet;
#X obj 77 51 r \$0-button1-on;
#X obj 217 83 spigot 0;
#X obj 217 147 spigot 0;
#X obj 217 211 spigot 0;
#X obj 217 275 spigot 0;
#X obj 410 83 spigot 0;
#X obj 410 147 spigot 0;
#X obj 410 211 spigot 0;
#X obj 410 275 spigot 0;
#X obj 270 115 r \$0-button6-off;
#X obj 270 179 r \$0-button7-off;
#X obj 270 243 r \$0-button8-off;
#X obj 463 115 r \$0-button10-off;
#X obj 463 179 r \$0-button11-off;
#X obj 463 243 r \$0-button12-off;
#X obj 410 307 outlet;
#X obj 270 51 r \$0-button5-off;
#X obj 463 51 r \$0-button9-off;
#X connect 0 0 1 0;
#X connect 1 0 2 0;
#X connect 2 0 3 0;
#X connect 3 0 9 0;
#X connect 4 0 1 1;
#X connect 5 0 2 1;
#X connect 6 0 3 1;
#X connect 7 0 0 0;
#X connect 8 0 0 1;
#X connect 9 0 10 0;
#X connect 10 0 11 0;
#X connect 11 0 12 0;
#X connect 12 0 13 0;
#X connect 13 0 14 0;
#X connect 14 0 15 0;
#X connect 15 0 16 0;
#X connect 16 0 23 0;
#X connect 17 0 10 1;
#X connect 18 0 11 1;
#X connect 19 0 12 1;
#X connect 20 0 14 1;
#X connect 21 0 15 1;
#X connect 22 0 16 1;
#X connect 24 0 9 1;
#X connect 25 0 13 1;
#X restore 105 44 pd button1;
#X obj 12 76 outlet;
#X obj 105 76 outlet;
#X connect 0 0 2 0;
#X connect 1 0 3 0;
#X connect 2 0 4 0;
#X connect 3 0 5 0;
#X restore 12 11 pd seq-inputs;
#X obj 209 472 modules/vca~;
#N canvas 261 167 680 300 amp-env-inputs 0;
#X obj 110 12 r \$0-knob1;
#X obj 110 140 outlet;
#X obj 603 12 loadbang;
#X obj 603 44 s \$0-loadbang;
#X obj 120 76 r \$0-loadbang;
#X obj 236 140 outlet;
#X obj 246 76 r \$0-loadbang;
#X obj 352 140 outlet;
#X obj 362 76 r \$0-loadbang;
#X obj 236 12 r \$0-knob2;
#X obj 352 12 r \$0-knob3;
#X obj 468 140 outlet;
#X obj 478 76 r \$0-loadbang;
#X obj 468 12 r \$0-knob4;
#X msg 120 108 1;
#X msg 246 108 0;
#X msg 362 108 127;
#X msg 478 108 1;
#N canvas 452 52 784 403 button2 0;
#X obj 24 83 spigot 0;
#X obj 24 147 spigot 0;
#X obj 24 211 spigot 0;
#X obj 24 275 spigot 0;
#X obj 77 179 r \$0-button3-off;
#X obj 77 243 r \$0-button4-off;
#X obj 24 19 inlet;
#X obj 217 83 spigot 0;
#X obj 217 147 spigot 0;
#X obj 217 211 spigot 0;
#X obj 217 275 spigot 0;
#X obj 410 83 spigot 0;
#X obj 410 147 spigot 0;
#X obj 410 211 spigot 0;
#X obj 410 275 spigot 0;
#X obj 270 115 r \$0-button6-off;
#X obj 270 179 r \$0-button7-off;
#X obj 270 243 r \$0-button8-off;
#X obj 463 115 r \$0-button10-off;
#X obj 463 179 r \$0-button11-off;
#X obj 463 243 r \$0-button12-off;
#X obj 410 307 outlet;
#X obj 270 51 r \$0-button5-off;
#X obj 463 51 r \$0-button9-off;
#X obj 77 51 r \$0-button1-off;
#X obj 77 115 r \$0-button2-on;
#X connect 0 0 1 0;
#X connect 1 0 2 0;
#X connect 2 0 3 0;
#X connect 3 0 7 0;
#X connect 4 0 2 1;
#X connect 5 0 3 1;
#X connect 6 0 0 0;
#X connect 7 0 8 0;
#X connect 8 0 9 0;
#X connect 9 0 10 0;
#X connect 10 0 11 0;
#X connect 11 0 12 0;
#X connect 12 0 13 0;
#X connect 13 0 14 0;
#X connect 14 0 21 0;
#X connect 15 0 8 1;
#X connect 16 0 9 1;
#X connect 17 0 10 1;
#X connect 18 0 12 1;
#X connect 19 0 13 1;
#X connect 20 0 14 1;
#X connect 22 0 7 1;
#X connect 23 0 11 1;
#X connect 24 0 0 1;
#X connect 25 0 1 1;
#X restore 110 44 pd button2;
#N canvas 452 52 784 403 button2 0;
#X obj 24 83 spigot 0;
#X obj 24 147 spigot 0;
#X obj 24 211 spigot 0;
#X obj 24 275 spigot 0;
#X obj 77 179 r \$0-button3-off;
#X obj 77 243 r \$0-button4-off;
#X obj 24 19 inlet;
#X obj 217 83 spigot 0;
#X obj 217 147 spigot 0;
#X obj 217 211 spigot 0;
#X obj 217 275 spigot 0;
#X obj 410 83 spigot 0;
#X obj 410 147 spigot 0;
#X obj 410 211 spigot 0;
#X obj 410 275 spigot 0;
#X obj 270 115 r \$0-button6-off;
#X obj 270 179 r \$0-button7-off;
#X obj 270 243 r \$0-button8-off;
#X obj 463 115 r \$0-button10-off;
#X obj 463 179 r \$0-button11-off;
#X obj 463 243 r \$0-button12-off;
#X obj 410 307 outlet;
#X obj 270 51 r \$0-button5-off;
#X obj 463 51 r \$0-button9-off;
#X obj 77 51 r \$0-button1-off;
#X obj 77 115 r \$0-button2-on;
#X connect 0 0 1 0;
#X connect 1 0 2 0;
#X connect 2 0 3 0;
#X connect 3 0 7 0;
#X connect 4 0 2 1;
#X connect 5 0 3 1;
#X connect 6 0 0 0;
#X connect 7 0 8 0;
#X connect 8 0 9 0;
#X connect 9 0 10 0;
#X connect 10 0 11 0;
#X connect 11 0 12 0;
#X connect 12 0 13 0;
#X connect 13 0 14 0;
#X connect 14 0 21 0;
#X connect 15 0 8 1;
#X connect 16 0 9 1;
#X connect 17 0 10 1;
#X connect 18 0 12 1;
#X connect 19 0 13 1;
#X connect 20 0 14 1;
#X connect 22 0 7 1;
#X connect 23 0 11 1;
#X connect 24 0 0 1;
#X connect 25 0 1 1;
#X restore 236 44 pd button2;
#N canvas 452 52 784 403 button2 0;
#X obj 24 83 spigot 0;
#X obj 24 147 spigot 0;
#X obj 24 211 spigot 0;
#X obj 24 275 spigot 0;
#X obj 77 179 r \$0-button3-off;
#X obj 77 243 r \$0-button4-off;
#X obj 24 19 inlet;
#X obj 217 83 spigot 0;
#X obj 217 147 spigot 0;
#X obj 217 211 spigot 0;
#X obj 217 275 spigot 0;
#X obj 410 83 spigot 0;
#X obj 410 147 spigot 0;
#X obj 410 211 spigot 0;
#X obj 410 275 spigot 0;
#X obj 270 115 r \$0-button6-off;
#X obj 270 179 r \$0-button7-off;
#X obj 270 243 r \$0-button8-off;
#X obj 463 115 r \$0-button10-off;
#X obj 463 179 r \$0-button11-off;
#X obj 463 243 r \$0-button12-off;
#X obj 410 307 outlet;
#X obj 270 51 r \$0-button5-off;
#X obj 463 51 r \$0-button9-off;
#X obj 77 51 r \$0-button1-off;
#X obj 77 115 r \$0-button2-on;
#X connect 0 0 1 0;
#X connect 1 0 2 0;
#X connect 2 0 3 0;
#X connect 3 0 7 0;
#X connect 4 0 2 1;
#X connect 5 0 3 1;
#X connect 6 0 0 0;
#X connect 7 0 8 0;
#X connect 8 0 9 0;
#X connect 9 0 10 0;
#X connect 10 0 11 0;
#X connect 11 0 12 0;
#X connect 12 0 13 0;
#X connect 13 0 14 0;
#X connect 14 0 21 0;
#X connect 15 0 8 1;
#X connect 16 0 9 1;
#X connect 17 0 10 1;
#X connect 18 0 12 1;
#X connect 19 0 13 1;
#X connect 20 0 14 1;
#X connect 22 0 7 1;
#X connect 23 0 11 1;
#X connect 24 0 0 1;
#X connect 25 0 1 1;
#X restore 352 44 pd button2;
#N canvas 452 52 784 403 button2 0;
#X obj 24 83 spigot 0;
#X obj 24 147 spigot 0;
#X obj 24 211 spigot 0;
#X obj 24 275 spigot 0;
#X obj 77 179 r \$0-button3-off;
#X obj 77 243 r \$0-button4-off;
#X obj 24 19 inlet;
#X obj 217 83 spigot 0;
#X obj 217 147 spigot 0;
#X obj 217 211 spigot 0;
#X obj 217 275 spigot 0;
#X obj 410 83 spigot 0;
#X obj 410 147 spigot 0;
#X obj 410 211 spigot 0;
#X obj 410 275 spigot 0;
#X obj 270 115 r \$0-button6-off;
#X obj 270 179 r \$0-button7-off;
#X obj 270 243 r \$0-button8-off;
#X obj 463 115 r \$0-button10-off;
#X obj 463 179 r \$0-button11-off;
#X obj 463 243 r \$0-button12-off;
#X obj 410 307 outlet;
#X obj 270 51 r \$0-button5-off;
#X obj 463 51 r \$0-button9-off;
#X obj 77 51 r \$0-button1-off;
#X obj 77 115 r \$0-button2-on;
#X connect 0 0 1 0;
#X connect 1 0 2 0;
#X connect 2 0 3 0;
#X connect 3 0 7 0;
#X connect 4 0 2 1;
#X connect 5 0 3 1;
#X connect 6 0 0 0;
#X connect 7 0 8 0;
#X connect 8 0 9 0;
#X connect 9 0 10 0;
#X connect 10 0 11 0;
#X connect 11 0 12 0;
#X connect 12 0 13 0;
#X connect 13 0 14 0;
#X connect 14 0 21 0;
#X connect 15 0 8 1;
#X connect 16 0 9 1;
#X connect 17 0 10 1;
#X connect 18 0 12 1;
#X connect 19 0 13 1;
#X connect 20 0 14 1;
#X connect 22 0 7 1;
#X connect 23 0 11 1;
#X connect 24 0 0 1;
#X connect 25 0 1 1;
#X restore 468 44 pd button2;
#X obj 12 12 r \$0-gate;
#X obj 12 140 outlet;
#X connect 0 0 18 0;
#X connect 2 0 3 0;
#X connect 4 0 14 0;
#X connect 6 0 15 0;
#X connect 8 0 16 0;
#X connect 9 0 19 0;
#X connect 10 0 20 0;
#X connect 12 0 17 0;
#X connect 13 0 21 0;
#X connect 14 0 1 0;
#X connect 15 0 5 0;
#X connect 16 0 7 0;
#X connect 17 0 11 0;
#X connect 18 0 1 0;
#X connect 19 0 5 0;
#X connect 20 0 7 0;
#X connect 21 0 11 0;
#X connect 22 0 23 0;
#X restore 254 329 pd amp-env-inputs;
#N canvas 883 320 941 488 filter-inputs 1;
#X obj 309 12 r \$0-knob4;
#X obj 210 12 r \$0-knob3;
#X obj 111 12 r \$0-knob2;
#X obj 12 12 r \$0-knob1;
#X obj 12 128 loadbang;
#X msg 12 192 127;
#X msg 22 160 0;
#X obj 12 276 r \$0-outlet1;
#X obj 12 308 outlet;
#X obj 12 76 s \$0-outlet1;
#X obj 111 76 s \$0-outlet2;
#X obj 210 76 s \$0-outlet3;
#X obj 309 76 s \$0-outlet4;
#X obj 111 308 outlet;
#X obj 210 308 outlet;
#X obj 309 308 outlet;
#X obj 12 224 s \$0-outlet1;
#X obj 111 224 s \$0-outlet2;
#X obj 210 224 s \$0-outlet3;
#X obj 309 224 s \$0-outlet4;
#X obj 111 276 r \$0-outlet2;
#X obj 210 276 r \$0-outlet3;
#X obj 309 276 r \$0-outlet4;
#N canvas 452 52 784 403 button3 0;
#X obj 24 83 spigot 0;
#X obj 24 147 spigot 0;
#X obj 24 211 spigot 0;
#X obj 24 275 spigot 0;
#X obj 77 115 r \$0-button2-off;
#X obj 77 243 r \$0-button4-off;
#X obj 24 19 inlet;
#X obj 217 83 spigot 0;
#X obj 217 147 spigot 0;
#X obj 217 211 spigot 0;
#X obj 217 275 spigot 0;
#X obj 410 83 spigot 0;
#X obj 410 147 spigot 0;
#X obj 410 211 spigot 0;
#X obj 410 275 spigot 0;
#X obj 270 115 r \$0-button6-off;
#X obj 270 179 r \$0-button7-off;
#X obj 270 243 r \$0-button8-off;
#X obj 463 115 r \$0-button10-off;
#X obj 463 179 r \$0-button11-off;
#X obj 463 243 r \$0-button12-off;
#X obj 410 307 outlet;
#X obj 270 51 r \$0-button5-off;
#X obj 463 51 r \$0-button9-off;
#X obj 77 51 r \$0-button1-off;
#X obj 77 179 r \$0-button3-on;
#X connect 0 0 1 0;
#X connect 1 0 2 0;
#X connect 2 0 3 0;
#X connect 3 0 7 0;
#X connect 4 0 1 1;
#X connect 5 0 3 1;
#X connect 6 0 0 0;
#X connect 7 0 8 0;
#X connect 8 0 9 0;
#X connect 9 0 10 0;
#X connect 10 0 11 0;
#X connect 11 0 12 0;
#X connect 12 0 13 0;
#X connect 13 0 14 0;
#X connect 14 0 21 0;
#X connect 15 0 8 1;
#X connect 16 0 9 1;
#X connect 17 0 10 1;
#X connect 18 0 12 1;
#X connect 19 0 13 1;
#X connect 20 0 14 1;
#X connect 22 0 7 1;
#X connect 23 0 11 1;
#X connect 24 0 0 1;
#X connect 25 0 2 1;
#X restore 12 44 pd button3;
#N canvas 452 52 784 403 button3 0;
#X obj 24 83 spigot 0;
#X obj 24 147 spigot 0;
#X obj 24 211 spigot 0;
#X obj 24 275 spigot 0;
#X obj 77 115 r \$0-button2-off;
#X obj 77 243 r \$0-button4-off;
#X obj 24 19 inlet;
#X obj 217 83 spigot 0;
#X obj 217 147 spigot 0;
#X obj 217 211 spigot 0;
#X obj 217 275 spigot 0;
#X obj 410 83 spigot 0;
#X obj 410 147 spigot 0;
#X obj 410 211 spigot 0;
#X obj 410 275 spigot 0;
#X obj 270 115 r \$0-button6-off;
#X obj 270 179 r \$0-button7-off;
#X obj 270 243 r \$0-button8-off;
#X obj 463 115 r \$0-button10-off;
#X obj 463 179 r \$0-button11-off;
#X obj 463 243 r \$0-button12-off;
#X obj 410 307 outlet;
#X obj 270 51 r \$0-button5-off;
#X obj 463 51 r \$0-button9-off;
#X obj 77 51 r \$0-button1-off;
#X obj 77 179 r \$0-button3-on;
#X connect 0 0 1 0;
#X connect 1 0 2 0;
#X connect 2 0 3 0;
#X connect 3 0 7 0;
#X connect 4 0 1 1;
#X connect 5 0 3 1;
#X connect 6 0 0 0;
#X connect 7 0 8 0;
#X connect 8 0 9 0;
#X connect 9 0 10 0;
#X connect 10 0 11 0;
#X connect 11 0 12 0;
#X connect 12 0 13 0;
#X connect 13 0 14 0;
#X connect 14 0 21 0;
#X connect 15 0 8 1;
#X connect 16 0 9 1;
#X connect 17 0 10 1;
#X connect 18 0 12 1;
#X connect 19 0 13 1;
#X connect 20 0 14 1;
#X connect 22 0 7 1;
#X connect 23 0 11 1;
#X connect 24 0 0 1;
#X connect 25 0 2 1;
#X restore 111 44 pd button3;
#N canvas 452 52 784 403 button3 0;
#X obj 24 83 spigot 0;
#X obj 24 147 spigot 0;
#X obj 24 211 spigot 0;
#X obj 24 275 spigot 0;
#X obj 77 115 r \$0-button2-off;
#X obj 77 243 r \$0-button4-off;
#X obj 24 19 inlet;
#X obj 217 83 spigot 0;
#X obj 217 147 spigot 0;
#X obj 217 211 spigot 0;
#X obj 217 275 spigot 0;
#X obj 410 83 spigot 0;
#X obj 410 147 spigot 0;
#X obj 410 211 spigot 0;
#X obj 410 275 spigot 0;
#X obj 270 115 r \$0-button6-off;
#X obj 270 179 r \$0-button7-off;
#X obj 270 243 r \$0-button8-off;
#X obj 463 115 r \$0-button10-off;
#X obj 463 179 r \$0-button11-off;
#X obj 463 243 r \$0-button12-off;
#X obj 410 307 outlet;
#X obj 270 51 r \$0-button5-off;
#X obj 463 51 r \$0-button9-off;
#X obj 77 51 r \$0-button1-off;
#X obj 77 179 r \$0-button3-on;
#X connect 0 0 1 0;
#X connect 1 0 2 0;
#X connect 2 0 3 0;
#X connect 3 0 7 0;
#X connect 4 0 1 1;
#X connect 5 0 3 1;
#X connect 6 0 0 0;
#X connect 7 0 8 0;
#X connect 8 0 9 0;
#X connect 9 0 10 0;
#X connect 10 0 11 0;
#X connect 11 0 12 0;
#X connect 12 0 13 0;
#X connect 13 0 14 0;
#X connect 14 0 21 0;
#X connect 15 0 8 1;
#X connect 16 0 9 1;
#X connect 17 0 10 1;
#X connect 18 0 12 1;
#X connect 19 0 13 1;
#X connect 20 0 14 1;
#X connect 22 0 7 1;
#X connect 23 0 11 1;
#X connect 24 0 0 1;
#X connect 25 0 2 1;
#X restore 210 44 pd button3;
#N canvas 452 52 784 403 button3 0;
#X obj 24 83 spigot 0;
#X obj 24 147 spigot 0;
#X obj 24 211 spigot 0;
#X obj 24 275 spigot 0;
#X obj 77 115 r \$0-button2-off;
#X obj 77 243 r \$0-button4-off;
#X obj 24 19 inlet;
#X obj 217 83 spigot 0;
#X obj 217 147 spigot 0;
#X obj 217 211 spigot 0;
#X obj 217 275 spigot 0;
#X obj 410 83 spigot 0;
#X obj 410 147 spigot 0;
#X obj 410 211 spigot 0;
#X obj 410 275 spigot 0;
#X obj 270 115 r \$0-button6-off;
#X obj 270 179 r \$0-button7-off;
#X obj 270 243 r \$0-button8-off;
#X obj 463 115 r \$0-button10-off;
#X obj 463 179 r \$0-button11-off;
#X obj 463 243 r \$0-button12-off;
#X obj 410 307 outlet;
#X obj 270 51 r \$0-button5-off;
#X obj 463 51 r \$0-button9-off;
#X obj 77 51 r \$0-button1-off;
#X obj 77 179 r \$0-button3-on;
#X connect 0 0 1 0;
#X connect 1 0 2 0;
#X connect 2 0 3 0;
#X connect 3 0 7 0;
#X connect 4 0 1 1;
#X connect 5 0 3 1;
#X connect 6 0 0 0;
#X connect 7 0 8 0;
#X connect 8 0 9 0;
#X connect 9 0 10 0;
#X connect 10 0 11 0;
#X connect 11 0 12 0;
#X connect 12 0 13 0;
#X connect 13 0 14 0;
#X connect 14 0 21 0;
#X connect 15 0 8 1;
#X connect 16 0 9 1;
#X connect 17 0 10 1;
#X connect 18 0 12 1;
#X connect 19 0 13 1;
#X connect 20 0 14 1;
#X connect 22 0 7 1;
#X connect 23 0 11 1;
#X connect 24 0 0 1;
#X connect 25 0 2 1;
#X restore 309 44 pd button3;
#N canvas 161 247 982 562 filter-lfo 0;
#X obj 13 76 modules/lfo~;
#X obj 12 315 *~;
#X obj 62 283 mtof;
#X msg 30 283 0;
#X obj 30 251 sel 0;
#X obj 30 187 r \$0-wheel;
#X obj 13 12 r \$0-knob1;
#X obj 12 347 outlet~;
#N canvas 452 52 784 403 button7 0;
#X obj 24 83 spigot 0;
#X obj 24 147 spigot 0;
#X obj 24 211 spigot 0;
#X obj 24 275 spigot 0;
#X obj 77 115 r \$0-button2-off;
#X obj 77 179 r \$0-button3-off;
#X obj 77 243 r \$0-button4-off;
#X obj 24 19 inlet;
#X obj 217 83 spigot 0;
#X obj 217 147 spigot 0;
#X obj 217 211 spigot 0;
#X obj 217 275 spigot 0;
#X obj 410 83 spigot 0;
#X obj 410 147 spigot 0;
#X obj 410 211 spigot 0;
#X obj 410 275 spigot 0;
#X obj 270 243 r \$0-button8-off;
#X obj 463 115 r \$0-button10-off;
#X obj 463 179 r \$0-button11-off;
#X obj 463 243 r \$0-button12-off;
#X obj 410 307 outlet;
#X obj 270 51 r \$0-button5-off;
#X obj 463 51 r \$0-button9-off;
#X obj 77 51 r \$0-button1-off;
#X obj 270 115 r \$0-button6-off;
#X obj 270 179 r \$0-button7-on;
#X connect 0 0 1 0;
#X connect 1 0 2 0;
#X connect 2 0 3 0;
#X connect 3 0 8 0;
#X connect 4 0 1 1;
#X connect 5 0 2 1;
#X connect 6 0 3 1;
#X connect 7 0 0 0;
#X connect 8 0 9 0;
#X connect 9 0 10 0;
#X connect 10 0 11 0;
#X connect 11 0 12 0;
#X connect 12 0 13 0;
#X connect 13 0 14 0;
#X connect 14 0 15 0;
#X connect 15 0 20 0;
#X connect 16 0 11 1;
#X connect 17 0 13 1;
#X connect 18 0 14 1;
#X connect 19 0 15 1;
#X connect 21 0 8 1;
#X connect 22 0 12 1;
#X connect 23 0 0 1;
#X connect 24 0 9 1;
#X connect 25 0 10 1;
#X restore 30 219 pd button7;
#N canvas 452 52 784 403 button7-3 0;
#X obj 24 83 spigot 0;
#X obj 24 147 spigot 0;
#X obj 24 211 spigot 0;
#X obj 24 275 spigot 0;
#X obj 77 115 r \$0-button2-off;
#X obj 77 243 r \$0-button4-off;
#X obj 24 19 inlet;
#X obj 217 83 spigot 0;
#X obj 217 147 spigot 0;
#X obj 217 211 spigot 0;
#X obj 217 275 spigot 0;
#X obj 410 83 spigot 0;
#X obj 410 147 spigot 0;
#X obj 410 211 spigot 0;
#X obj 410 275 spigot 0;
#X obj 270 243 r \$0-button8-off;
#X obj 463 115 r \$0-button10-off;
#X obj 463 179 r \$0-button11-off;
#X obj 463 243 r \$0-button12-off;
#X obj 410 307 outlet;
#X obj 270 51 r \$0-button5-off;
#X obj 463 51 r \$0-button9-off;
#X obj 77 51 r \$0-button1-off;
#X obj 270 115 r \$0-button6-off;
#X obj 270 179 r \$0-button7-on;
#X obj 77 179 r \$0-button3-on;
#X connect 0 0 1 0;
#X connect 1 0 2 0;
#X connect 2 0 3 0;
#X connect 3 0 7 0;
#X connect 4 0 1 1;
#X connect 5 0 3 1;
#X connect 6 0 0 0;
#X connect 7 0 8 0;
#X connect 8 0 9 0;
#X connect 9 0 10 0;
#X connect 10 0 11 0;
#X connect 11 0 12 0;
#X connect 12 0 13 0;
#X connect 13 0 14 0;
#X connect 14 0 19 0;
#X connect 15 0 10 1;
#X connect 16 0 12 1;
#X connect 17 0 13 1;
#X connect 18 0 14 1;
#X connect 20 0 7 1;
#X connect 21 0 11 1;
#X connect 22 0 0 1;
#X connect 23 0 8 1;
#X connect 24 0 9 1;
#X connect 25 0 2 1;
#X restore 115 219 pd button7-3;
#N canvas 466 58 784 403 button7-2-3 0;
#X obj 24 83 spigot 0;
#X obj 24 147 spigot 0;
#X obj 24 211 spigot 0;
#X obj 24 275 spigot 0;
#X obj 77 243 r \$0-button4-off;
#X obj 24 19 inlet;
#X obj 217 83 spigot 0;
#X obj 217 147 spigot 0;
#X obj 217 211 spigot 0;
#X obj 217 275 spigot 0;
#X obj 410 83 spigot 0;
#X obj 410 147 spigot 0;
#X obj 410 211 spigot 0;
#X obj 410 275 spigot 0;
#X obj 270 243 r \$0-button8-off;
#X obj 463 115 r \$0-button10-off;
#X obj 463 179 r \$0-button11-off;
#X obj 463 243 r \$0-button12-off;
#X obj 410 307 outlet;
#X obj 270 51 r \$0-button5-off;
#X obj 463 51 r \$0-button9-off;
#X obj 77 51 r \$0-button1-off;
#X obj 270 115 r \$0-button6-off;
#X obj 270 179 r \$0-button7-on;
#X obj 77 179 r \$0-button3-on;
#X obj 77 115 r \$0-button2-on;
#X connect 0 0 1 0;
#X connect 1 0 2 0;
#X connect 2 0 3 0;
#X connect 3 0 6 0;
#X connect 4 0 3 1;
#X connect 5 0 0 0;
#X connect 6 0 7 0;
#X connect 7 0 8 0;
#X connect 8 0 9 0;
#X connect 9 0 10 0;
#X connect 10 0 11 0;
#X connect 11 0 12 0;
#X connect 12 0 13 0;
#X connect 13 0 18 0;
#X connect 14 0 9 1;
#X connect 15 0 11 1;
#X connect 16 0 12 1;
#X connect 17 0 13 1;
#X connect 19 0 6 1;
#X connect 20 0 10 1;
#X connect 21 0 0 1;
#X connect 22 0 7 1;
#X connect 23 0 8 1;
#X connect 24 0 2 1;
#X connect 25 0 1 1;
#X restore 214 219 pd button7-2-3;
#N canvas 466 58 784 403 button7-3-4 0;
#X obj 24 83 spigot 0;
#X obj 24 147 spigot 0;
#X obj 24 211 spigot 0;
#X obj 24 275 spigot 0;
#X obj 24 19 inlet;
#X obj 217 83 spigot 0;
#X obj 217 147 spigot 0;
#X obj 217 211 spigot 0;
#X obj 217 275 spigot 0;
#X obj 410 83 spigot 0;
#X obj 410 147 spigot 0;
#X obj 410 211 spigot 0;
#X obj 410 275 spigot 0;
#X obj 270 243 r \$0-button8-off;
#X obj 463 115 r \$0-button10-off;
#X obj 463 179 r \$0-button11-off;
#X obj 463 243 r \$0-button12-off;
#X obj 410 307 outlet;
#X obj 270 51 r \$0-button5-off;
#X obj 463 51 r \$0-button9-off;
#X obj 77 51 r \$0-button1-off;
#X obj 270 115 r \$0-button6-off;
#X obj 270 179 r \$0-button7-on;
#X obj 77 179 r \$0-button3-on;
#X obj 77 115 r \$0-button2-off;
#X obj 77 243 r \$0-button4-on;
#X connect 0 0 1 0;
#X connect 1 0 2 0;
#X connect 2 0 3 0;
#X connect 3 0 5 0;
#X connect 4 0 0 0;
#X connect 5 0 6 0;
#X connect 6 0 7 0;
#X connect 7 0 8 0;
#X connect 8 0 9 0;
#X connect 9 0 10 0;
#X connect 10 0 11 0;
#X connect 11 0 12 0;
#X connect 12 0 17 0;
#X connect 13 0 8 1;
#X connect 14 0 10 1;
#X connect 15 0 11 1;
#X connect 16 0 12 1;
#X connect 18 0 5 1;
#X connect 19 0 9 1;
#X connect 20 0 0 1;
#X connect 21 0 6 1;
#X connect 22 0 7 1;
#X connect 23 0 2 1;
#X connect 24 0 1 1;
#X connect 25 0 3 1;
#X restore 327 219 pd button7-3-4;
#N canvas 452 52 784 403 button7 0;
#X obj 24 83 spigot 0;
#X obj 24 147 spigot 0;
#X obj 24 211 spigot 0;
#X obj 24 275 spigot 0;
#X obj 77 115 r \$0-button2-off;
#X obj 77 179 r \$0-button3-off;
#X obj 77 243 r \$0-button4-off;
#X obj 24 19 inlet;
#X obj 217 83 spigot 0;
#X obj 217 147 spigot 0;
#X obj 217 211 spigot 0;
#X obj 217 275 spigot 0;
#X obj 410 83 spigot 0;
#X obj 410 147 spigot 0;
#X obj 410 211 spigot 0;
#X obj 410 275 spigot 0;
#X obj 270 243 r \$0-button8-off;
#X obj 463 115 r \$0-button10-off;
#X obj 463 179 r \$0-button11-off;
#X obj 463 243 r \$0-button12-off;
#X obj 410 307 outlet;
#X obj 270 51 r \$0-button5-off;
#X obj 463 51 r \$0-button9-off;
#X obj 77 51 r \$0-button1-off;
#X obj 270 115 r \$0-button6-off;
#X obj 270 179 r \$0-button7-on;
#X connect 0 0 1 0;
#X connect 1 0 2 0;
#X connect 2 0 3 0;
#X connect 3 0 8 0;
#X connect 4 0 1 1;
#X connect 5 0 2 1;
#X connect 6 0 3 1;
#X connect 7 0 0 0;
#X connect 8 0 9 0;
#X connect 9 0 10 0;
#X connect 10 0 11 0;
#X connect 11 0 12 0;
#X connect 12 0 13 0;
#X connect 13 0 14 0;
#X connect 14 0 15 0;
#X connect 15 0 20 0;
#X connect 16 0 11 1;
#X connect 17 0 13 1;
#X connect 18 0 14 1;
#X connect 19 0 15 1;
#X connect 21 0 8 1;
#X connect 22 0 12 1;
#X connect 23 0 0 1;
#X connect 24 0 9 1;
#X connect 25 0 10 1;
#X restore 13 44 pd button7;
#N canvas 452 52 784 403 button7-3 0;
#X obj 24 83 spigot 0;
#X obj 24 147 spigot 0;
#X obj 24 211 spigot 0;
#X obj 24 275 spigot 0;
#X obj 77 115 r \$0-button2-off;
#X obj 77 243 r \$0-button4-off;
#X obj 24 19 inlet;
#X obj 217 83 spigot 0;
#X obj 217 147 spigot 0;
#X obj 217 211 spigot 0;
#X obj 217 275 spigot 0;
#X obj 410 83 spigot 0;
#X obj 410 147 spigot 0;
#X obj 410 211 spigot 0;
#X obj 410 275 spigot 0;
#X obj 270 243 r \$0-button8-off;
#X obj 463 115 r \$0-button10-off;
#X obj 463 179 r \$0-button11-off;
#X obj 463 243 r \$0-button12-off;
#X obj 410 307 outlet;
#X obj 270 51 r \$0-button5-off;
#X obj 463 51 r \$0-button9-off;
#X obj 77 51 r \$0-button1-off;
#X obj 270 115 r \$0-button6-off;
#X obj 270 179 r \$0-button7-on;
#X obj 77 179 r \$0-button3-on;
#X connect 0 0 1 0;
#X connect 1 0 2 0;
#X connect 2 0 3 0;
#X connect 3 0 7 0;
#X connect 4 0 1 1;
#X connect 5 0 3 1;
#X connect 6 0 0 0;
#X connect 7 0 8 0;
#X connect 8 0 9 0;
#X connect 9 0 10 0;
#X connect 10 0 11 0;
#X connect 11 0 12 0;
#X connect 12 0 13 0;
#X connect 13 0 14 0;
#X connect 14 0 19 0;
#X connect 15 0 10 1;
#X connect 16 0 12 1;
#X connect 17 0 13 1;
#X connect 18 0 14 1;
#X connect 20 0 7 1;
#X connect 21 0 11 1;
#X connect 22 0 0 1;
#X connect 23 0 8 1;
#X connect 24 0 9 1;
#X connect 25 0 2 1;
#X restore 98 44 pd button7-3;
#N canvas 466 58 784 403 button7-2-3 0;
#X obj 24 83 spigot 0;
#X obj 24 147 spigot 0;
#X obj 24 211 spigot 0;
#X obj 24 275 spigot 0;
#X obj 77 243 r \$0-button4-off;
#X obj 24 19 inlet;
#X obj 217 83 spigot 0;
#X obj 217 147 spigot 0;
#X obj 217 211 spigot 0;
#X obj 217 275 spigot 0;
#X obj 410 83 spigot 0;
#X obj 410 147 spigot 0;
#X obj 410 211 spigot 0;
#X obj 410 275 spigot 0;
#X obj 270 243 r \$0-button8-off;
#X obj 463 115 r \$0-button10-off;
#X obj 463 179 r \$0-button11-off;
#X obj 463 243 r \$0-button12-off;
#X obj 410 307 outlet;
#X obj 270 51 r \$0-button5-off;
#X obj 463 51 r \$0-button9-off;
#X obj 77 51 r \$0-button1-off;
#X obj 270 115 r \$0-button6-off;
#X obj 270 179 r \$0-button7-on;
#X obj 77 179 r \$0-button3-on;
#X obj 77 115 r \$0-button2-on;
#X connect 0 0 1 0;
#X connect 1 0 2 0;
#X connect 2 0 3 0;
#X connect 3 0 6 0;
#X connect 4 0 3 1;
#X connect 5 0 0 0;
#X connect 6 0 7 0;
#X connect 7 0 8 0;
#X connect 8 0 9 0;
#X connect 9 0 10 0;
#X connect 10 0 11 0;
#X connect 11 0 12 0;
#X connect 12 0 13 0;
#X connect 13 0 18 0;
#X connect 14 0 9 1;
#X connect 15 0 11 1;
#X connect 16 0 12 1;
#X connect 17 0 13 1;
#X connect 19 0 6 1;
#X connect 20 0 10 1;
#X connect 21 0 0 1;
#X connect 22 0 7 1;
#X connect 23 0 8 1;
#X connect 24 0 2 1;
#X connect 25 0 1 1;
#X restore 197 44 pd button7-2-3;
#N canvas 466 58 784 403 button7-3-4 0;
#X obj 24 83 spigot 0;
#X obj 24 147 spigot 0;
#X obj 24 211 spigot 0;
#X obj 24 275 spigot 0;
#X obj 24 19 inlet;
#X obj 217 83 spigot 0;
#X obj 217 147 spigot 0;
#X obj 217 211 spigot 0;
#X obj 217 275 spigot 0;
#X obj 410 83 spigot 0;
#X obj 410 147 spigot 0;
#X obj 410 211 spigot 0;
#X obj 410 275 spigot 0;
#X obj 270 243 r \$0-button8-off;
#X obj 463 115 r \$0-button10-off;
#X obj 463 179 r \$0-button11-off;
#X obj 463 243 r \$0-button12-off;
#X obj 410 307 outlet;
#X obj 270 51 r \$0-button5-off;
#X obj 463 51 r \$0-button9-off;
#X obj 77 51 r \$0-button1-off;
#X obj 270 115 r \$0-button6-off;
#X obj 270 179 r \$0-button7-on;
#X obj 77 179 r \$0-button3-on;
#X obj 77 115 r \$0-button2-off;
#X obj 77 243 r \$0-button4-on;
#X connect 0 0 1 0;
#X connect 1 0 2 0;
#X connect 2 0 3 0;
#X connect 3 0 5 0;
#X connect 4 0 0 0;
#X connect 5 0 6 0;
#X connect 6 0 7 0;
#X connect 7 0 8 0;
#X connect 8 0 9 0;
#X connect 9 0 10 0;
#X connect 10 0 11 0;
#X connect 11 0 12 0;
#X connect 12 0 17 0;
#X connect 13 0 8 1;
#X connect 14 0 10 1;
#X connect 15 0 11 1;
#X connect 16 0 12 1;
#X connect 18 0 5 1;
#X connect 19 0 9 1;
#X connect 20 0 0 1;
#X connect 21 0 6 1;
#X connect 22 0 7 1;
#X connect 23 0 2 1;
#X connect 24 0 1 1;
#X connect 25 0 3 1;
#X restore 310 44 pd button7-3-4;
#X connect 0 0 1 0;
#X connect 1 0 7 0;
#X connect 2 0 1 1;
#X connect 3 0 1 1;
#X connect 4 0 3 0;
#X connect 4 1 2 0;
#X connect 5 0 8 0;
#X connect 5 0 9 0;
#X connect 5 0 10 0;
#X connect 5 0 11 0;
#X connect 6 0 12 0;
#X connect 6 0 13 0;
#X connect 6 0 14 0;
#X connect 6 0 15 0;
#X connect 8 0 4 0;
#X connect 9 0 4 0;
#X connect 10 0 4 0;
#X connect 11 0 4 0;
#X connect 12 0 0 0;
#X connect 13 0 0 0;
#X connect 14 0 0 0;
#X connect 15 0 0 0;
#X restore 408 276 pd filter-lfo;
#X obj 407 308 outlet~;
#X obj 514 197 modules/envelope~;
#N canvas -480 226 1920 1007 filter-env-inputs 0;
#X obj 110 12 r \$0-knob1;
#X obj 110 140 outlet;
#X obj 603 12 loadbang;
#X obj 603 44 s \$0-loadbang;
#X obj 120 76 r \$0-loadbang;
#X obj 236 140 outlet;
#X obj 246 76 r \$0-loadbang;
#X obj 352 140 outlet;
#X obj 362 76 r \$0-loadbang;
#X obj 236 12 r \$0-knob2;
#X obj 352 12 r \$0-knob3;
#X obj 468 140 outlet;
#X obj 478 76 r \$0-loadbang;
#X obj 468 12 r \$0-knob4;
#X msg 120 108 1;
#X msg 246 108 0;
#X msg 362 108 127;
#X msg 478 108 1;
#N canvas 452 52 784 403 button2-3 0;
#X obj 24 83 spigot 0;
#X obj 24 147 spigot 0;
#X obj 24 211 spigot 0;
#X obj 24 275 spigot 0;
#X obj 77 243 r \$0-button4-off;
#X obj 24 19 inlet;
#X obj 217 83 spigot 0;
#X obj 217 147 spigot 0;
#X obj 217 211 spigot 0;
#X obj 217 275 spigot 0;
#X obj 410 83 spigot 0;
#X obj 410 147 spigot 0;
#X obj 410 211 spigot 0;
#X obj 410 275 spigot 0;
#X obj 270 115 r \$0-button6-off;
#X obj 270 179 r \$0-button7-off;
#X obj 270 243 r \$0-button8-off;
#X obj 463 115 r \$0-button10-off;
#X obj 463 179 r \$0-button11-off;
#X obj 463 243 r \$0-button12-off;
#X obj 410 307 outlet;
#X obj 270 51 r \$0-button5-off;
#X obj 463 51 r \$0-button9-off;
#X obj 77 51 r \$0-button1-off;
#X obj 77 115 r \$0-button2-on;
#X obj 77 179 r \$0-button3-on;
#X connect 0 0 1 0;
#X connect 1 0 2 0;
#X connect 2 0 3 0;
#X connect 3 0 6 0;
#X connect 4 0 3 1;
#X connect 5 0 0 0;
#X connect 6 0 7 0;
#X connect 7 0 8 0;
#X connect 8 0 9 0;
#X connect 9 0 10 0;
#X connect 10 0 11 0;
#X connect 11 0 12 0;
#X connect 12 0 13 0;
#X connect 13 0 20 0;
#X connect 14 0 7 1;
#X connect 15 0 8 1;
#X connect 16 0 9 1;
#X connect 17 0 11 1;
#X connect 18 0 12 1;
#X connect 19 0 13 1;
#X connect 21 0 6 1;
#X connect 22 0 10 1;
#X connect 23 0 0 1;
#X connect 24 0 1 1;
#X connect 25 0 2 1;
#X restore 110 44 pd button2-3;
#N canvas 452 52 784 403 button2-3 0;
#X obj 24 83 spigot 0;
#X obj 24 147 spigot 0;
#X obj 24 211 spigot 0;
#X obj 24 275 spigot 0;
#X obj 77 243 r \$0-button4-off;
#X obj 24 19 inlet;
#X obj 217 83 spigot 0;
#X obj 217 147 spigot 0;
#X obj 217 211 spigot 0;
#X obj 217 275 spigot 0;
#X obj 410 83 spigot 0;
#X obj 410 147 spigot 0;
#X obj 410 211 spigot 0;
#X obj 410 275 spigot 0;
#X obj 270 115 r \$0-button6-off;
#X obj 270 179 r \$0-button7-off;
#X obj 270 243 r \$0-button8-off;
#X obj 463 115 r \$0-button10-off;
#X obj 463 179 r \$0-button11-off;
#X obj 463 243 r \$0-button12-off;
#X obj 410 307 outlet;
#X obj 270 51 r \$0-button5-off;
#X obj 463 51 r \$0-button9-off;
#X obj 77 51 r \$0-button1-off;
#X obj 77 115 r \$0-button2-on;
#X obj 77 179 r \$0-button3-on;
#X connect 0 0 1 0;
#X connect 1 0 2 0;
#X connect 2 0 3 0;
#X connect 3 0 6 0;
#X connect 4 0 3 1;
#X connect 5 0 0 0;
#X connect 6 0 7 0;
#X connect 7 0 8 0;
#X connect 8 0 9 0;
#X connect 9 0 10 0;
#X connect 10 0 11 0;
#X connect 11 0 12 0;
#X connect 12 0 13 0;
#X connect 13 0 20 0;
#X connect 14 0 7 1;
#X connect 15 0 8 1;
#X connect 16 0 9 1;
#X connect 17 0 11 1;
#X connect 18 0 12 1;
#X connect 19 0 13 1;
#X connect 21 0 6 1;
#X connect 22 0 10 1;
#X connect 23 0 0 1;
#X connect 24 0 1 1;
#X connect 25 0 2 1;
#X restore 236 44 pd button2-3;
#N canvas 452 52 784 403 button2-3 0;
#X obj 24 83 spigot 0;
#X obj 24 147 spigot 0;
#X obj 24 211 spigot 0;
#X obj 24 275 spigot 0;
#X obj 77 243 r \$0-button4-off;
#X obj 24 19 inlet;
#X obj 217 83 spigot 0;
#X obj 217 147 spigot 0;
#X obj 217 211 spigot 0;
#X obj 217 275 spigot 0;
#X obj 410 83 spigot 0;
#X obj 410 147 spigot 0;
#X obj 410 211 spigot 0;
#X obj 410 275 spigot 0;
#X obj 270 115 r \$0-button6-off;
#X obj 270 179 r \$0-button7-off;
#X obj 270 243 r \$0-button8-off;
#X obj 463 115 r \$0-button10-off;
#X obj 463 179 r \$0-button11-off;
#X obj 463 243 r \$0-button12-off;
#X obj 410 307 outlet;
#X obj 270 51 r \$0-button5-off;
#X obj 463 51 r \$0-button9-off;
#X obj 77 51 r \$0-button1-off;
#X obj 77 115 r \$0-button2-on;
#X obj 77 179 r \$0-button3-on;
#X connect 0 0 1 0;
#X connect 1 0 2 0;
#X connect 2 0 3 0;
#X connect 3 0 6 0;
#X connect 4 0 3 1;
#X connect 5 0 0 0;
#X connect 6 0 7 0;
#X connect 7 0 8 0;
#X connect 8 0 9 0;
#X connect 9 0 10 0;
#X connect 10 0 11 0;
#X connect 11 0 12 0;
#X connect 12 0 13 0;
#X connect 13 0 20 0;
#X connect 14 0 7 1;
#X connect 15 0 8 1;
#X connect 16 0 9 1;
#X connect 17 0 11 1;
#X connect 18 0 12 1;
#X connect 19 0 13 1;
#X connect 21 0 6 1;
#X connect 22 0 10 1;
#X connect 23 0 0 1;
#X connect 24 0 1 1;
#X connect 25 0 2 1;
#X restore 352 44 pd button2-3;
#N canvas 452 52 784 403 button2-3 0;
#X obj 24 83 spigot 0;
#X obj 24 147 spigot 0;
#X obj 24 211 spigot 0;
#X obj 24 275 spigot 0;
#X obj 77 243 r \$0-button4-off;
#X obj 24 19 inlet;
#X obj 217 83 spigot 0;
#X obj 217 147 spigot 0;
#X obj 217 211 spigot 0;
#X obj 217 275 spigot 0;
#X obj 410 83 spigot 0;
#X obj 410 147 spigot 0;
#X obj 410 211 spigot 0;
#X obj 410 275 spigot 0;
#X obj 270 115 r \$0-button6-off;
#X obj 270 179 r \$0-button7-off;
#X obj 270 243 r \$0-button8-off;
#X obj 463 115 r \$0-button10-off;
#X obj 463 179 r \$0-button11-off;
#X obj 463 243 r \$0-button12-off;
#X obj 410 307 outlet;
#X obj 270 51 r \$0-button5-off;
#X obj 463 51 r \$0-button9-off;
#X obj 77 51 r \$0-button1-off;
#X obj 77 115 r \$0-button2-on;
#X obj 77 179 r \$0-button3-on;
#X connect 0 0 1 0;
#X connect 1 0 2 0;
#X connect 2 0 3 0;
#X connect 3 0 6 0;
#X connect 4 0 3 1;
#X connect 5 0 0 0;
#X connect 6 0 7 0;
#X connect 7 0 8 0;
#X connect 8 0 9 0;
#X connect 9 0 10 0;
#X connect 10 0 11 0;
#X connect 11 0 12 0;
#X connect 12 0 13 0;
#X connect 13 0 20 0;
#X connect 14 0 7 1;
#X connect 15 0 8 1;
#X connect 16 0 9 1;
#X connect 17 0 11 1;
#X connect 18 0 12 1;
#X connect 19 0 13 1;
#X connect 21 0 6 1;
#X connect 22 0 10 1;
#X connect 23 0 0 1;
#X connect 24 0 1 1;
#X connect 25 0 2 1;
#X restore 468 44 pd button2-3;
#X obj 12 12 r \$0-gate;
#X obj 12 140 outlet;
#X connect 0 0 18 0;
#X connect 2 0 3 0;
#X connect 4 0 14 0;
#X connect 6 0 15 0;
#X connect 8 0 16 0;
#X connect 9 0 19 0;
#X connect 10 0 20 0;
#X connect 12 0 17 0;
#X connect 13 0 21 0;
#X connect 14 0 1 0;
#X connect 15 0 5 0;
#X connect 16 0 7 0;
#X connect 17 0 11 0;
#X connect 18 0 1 0;
#X connect 19 0 5 0;
#X connect 20 0 7 0;
#X connect 21 0 11 0;
#X connect 22 0 23 0;
#X restore 514 165 pd filter-env-inputs;
#X obj 514 308 outlet~;
#X connect 0 0 26 0;
#X connect 1 0 25 0;
#X connect 2 0 24 0;
#X connect 3 0 23 0;
#X connect 4 0 5 0;
#X connect 4 0 6 0;
#X connect 5 0 16 0;
#X connect 6 0 17 0;
#X connect 6 0 18 0;
#X connect 6 0 19 0;
#X connect 7 0 8 0;
#X connect 20 0 13 0;
#X connect 21 0 14 0;
#X connect 22 0 15 0;
#X connect 23 0 9 0;
#X connect 24 0 10 0;
#X connect 25 0 11 0;
#X connect 26 0 12 0;
#X connect 27 0 28 0;
#X connect 29 0 31 0;
#X connect 30 0 29 0;
#X connect 30 1 29 1;
#X connect 30 2 29 2;
#X connect 30 3 29 3;
#X connect 30 4 29 4;
#X restore 232 43 pd filter-inputs;
#N canvas 630 287 450 300 osc-mixer-inputs 0;
#X obj 12 140 outlet;
#X obj 125 76 outlet;
#X obj 12 12 r \$0-knob1;
#X obj 125 12 r \$0-knob2;
#X obj 238 76 outlet;
#X obj 238 12 r \$0-knob3;
#X obj 22 76 loadbang;
#X msg 22 108 127;
#N canvas 452 52 784 403 buttons-off 0;
#X obj 24 83 spigot 0;
#X obj 24 147 spigot 0;
#X obj 24 211 spigot 0;
#X obj 24 275 spigot 0;
#X obj 77 115 r \$0-button2-off;
#X obj 77 179 r \$0-button3-off;
#X obj 77 243 r \$0-button4-off;
#X obj 24 19 inlet;
#X obj 217 83 spigot 0;
#X obj 217 147 spigot 0;
#X obj 217 211 spigot 0;
#X obj 217 275 spigot 0;
#X obj 410 83 spigot 0;
#X obj 410 147 spigot 0;
#X obj 410 211 spigot 0;
#X obj 410 275 spigot 0;
#X obj 270 115 r \$0-button6-off;
#X obj 270 179 r \$0-button7-off;
#X obj 270 243 r \$0-button8-off;
#X obj 463 115 r \$0-button10-off;
#X obj 463 179 r \$0-button11-off;
#X obj 463 243 r \$0-button12-off;
#X obj 410 307 outlet;
#X obj 270 51 r \$0-button5-off;
#X obj 463 51 r \$0-button9-off;
#X obj 77 51 r \$0-button1-off;
#X connect 0 0 1 0;
#X connect 1 0 2 0;
#X connect 2 0 3 0;
#X connect 3 0 8 0;
#X connect 4 0 1 1;
#X connect 5 0 2 1;
#X connect 6 0 3 1;
#X connect 7 0 0 0;
#X connect 8 0 9 0;
#X connect 9 0 10 0;
#X connect 10 0 11 0;
#X connect 11 0 12 0;
#X connect 12 0 13 0;
#X connect 13 0 14 0;
#X connect 14 0 15 0;
#X connect 15 0 22 0;
#X connect 16 0 9 1;
#X connect 17 0 10 1;
#X connect 18 0 11 1;
#X connect 19 0 13 1;
#X connect 20 0 14 1;
#X connect 21 0 15 1;
#X connect 23 0 8 1;
#X connect 24 0 12 1;
#X connect 25 0 0 1;
#X restore 12 44 pd buttons-off;
#N canvas 452 52 784 403 buttons-off 0;
#X obj 24 83 spigot 0;
#X obj 24 147 spigot 0;
#X obj 24 211 spigot 0;
#X obj 24 275 spigot 0;
#X obj 77 115 r \$0-button2-off;
#X obj 77 179 r \$0-button3-off;
#X obj 77 243 r \$0-button4-off;
#X obj 24 19 inlet;
#X obj 217 83 spigot 0;
#X obj 217 147 spigot 0;
#X obj 217 211 spigot 0;
#X obj 217 275 spigot 0;
#X obj 410 83 spigot 0;
#X obj 410 147 spigot 0;
#X obj 410 211 spigot 0;
#X obj 410 275 spigot 0;
#X obj 270 115 r \$0-button6-off;
#X obj 270 179 r \$0-button7-off;
#X obj 270 243 r \$0-button8-off;
#X obj 463 115 r \$0-button10-off;
#X obj 463 179 r \$0-button11-off;
#X obj 463 243 r \$0-button12-off;
#X obj 410 307 outlet;
#X obj 270 51 r \$0-button5-off;
#X obj 463 51 r \$0-button9-off;
#X obj 77 51 r \$0-button1-off;
#X connect 0 0 1 0;
#X connect 1 0 2 0;
#X connect 2 0 3 0;
#X connect 3 0 8 0;
#X connect 4 0 1 1;
#X connect 5 0 2 1;
#X connect 6 0 3 1;
#X connect 7 0 0 0;
#X connect 8 0 9 0;
#X connect 9 0 10 0;
#X connect 10 0 11 0;
#X connect 11 0 12 0;
#X connect 12 0 13 0;
#X connect 13 0 14 0;
#X connect 14 0 15 0;
#X connect 15 0 22 0;
#X connect 16 0 9 1;
#X connect 17 0 10 1;
#X connect 18 0 11 1;
#X connect 19 0 13 1;
#X connect 20 0 14 1;
#X connect 21 0 15 1;
#X connect 23 0 8 1;
#X connect 24 0 12 1;
#X connect 25 0 0 1;
#X restore 125 44 pd buttons-off;
#N canvas 452 52 784 403 buttons-off 0;
#X obj 24 83 spigot 0;
#X obj 24 147 spigot 0;
#X obj 24 211 spigot 0;
#X obj 24 275 spigot 0;
#X obj 77 115 r \$0-button2-off;
#X obj 77 179 r \$0-button3-off;
#X obj 77 243 r \$0-button4-off;
#X obj 24 19 inlet;
#X obj 217 83 spigot 0;
#X obj 217 147 spigot 0;
#X obj 217 211 spigot 0;
#X obj 217 275 spigot 0;
#X obj 410 83 spigot 0;
#X obj 410 147 spigot 0;
#X obj 410 211 spigot 0;
#X obj 410 275 spigot 0;
#X obj 270 115 r \$0-button6-off;
#X obj 270 179 r \$0-button7-off;
#X obj 270 243 r \$0-button8-off;
#X obj 463 115 r \$0-button10-off;
#X obj 463 179 r \$0-button11-off;
#X obj 463 243 r \$0-button12-off;
#X obj 410 307 outlet;
#X obj 270 51 r \$0-button5-off;
#X obj 463 51 r \$0-button9-off;
#X obj 77 51 r \$0-button1-off;
#X connect 0 0 1 0;
#X connect 1 0 2 0;
#X connect 2 0 3 0;
#X connect 3 0 8 0;
#X connect 4 0 1 1;
#X connect 5 0 2 1;
#X connect 6 0 3 1;
#X connect 7 0 0 0;
#X connect 8 0 9 0;
#X connect 9 0 10 0;
#X connect 10 0 11 0;
#X connect 11 0 12 0;
#X connect 12 0 13 0;
#X connect 13 0 14 0;
#X connect 14 0 15 0;
#X connect 15 0 22 0;
#X connect 16 0 9 1;
#X connect 17 0 10 1;
#X connect 18 0 11 1;
#X connect 19 0 13 1;
#X connect 20 0 14 1;
#X connect 21 0 15 1;
#X connect 23 0 8 1;
#X connect 24 0 12 1;
#X connect 25 0 0 1;
#X restore 238 44 pd buttons-off;
#X connect 2 0 8 0;
#X connect 3 0 9 0;
#X connect 5 0 10 0;
#X connect 6 0 7 0;
#X connect 7 0 0 0;
#X connect 8 0 0 0;
#X connect 9 0 1 0;
#X connect 10 0 4 0;
#X restore 66 329 pd osc-mixer-inputs;
#N canvas 478 143 769 329 filter-mixer-inputs 0;
#X obj 309 12 r \$0-knob4;
#X obj 210 12 r \$0-knob3;
#X obj 111 12 r \$0-knob2;
#X obj 12 12 r \$0-knob1;
#X obj 12 76 outlet;
#X obj 111 76 outlet;
#X obj 210 140 outlet;
#X obj 309 76 outlet;
#N canvas 452 52 784 403 button3-4 0;
#X obj 24 83 spigot 0;
#X obj 24 147 spigot 0;
#X obj 24 211 spigot 0;
#X obj 24 275 spigot 0;
#X obj 77 115 r \$0-button2-off;
#X obj 24 19 inlet;
#X obj 217 83 spigot 0;
#X obj 217 147 spigot 0;
#X obj 217 211 spigot 0;
#X obj 217 275 spigot 0;
#X obj 410 83 spigot 0;
#X obj 410 147 spigot 0;
#X obj 410 211 spigot 0;
#X obj 410 275 spigot 0;
#X obj 270 115 r \$0-button6-off;
#X obj 270 179 r \$0-button7-off;
#X obj 270 243 r \$0-button8-off;
#X obj 463 115 r \$0-button10-off;
#X obj 463 179 r \$0-button11-off;
#X obj 463 243 r \$0-button12-off;
#X obj 410 307 outlet;
#X obj 270 51 r \$0-button5-off;
#X obj 463 51 r \$0-button9-off;
#X obj 77 51 r \$0-button1-off;
#X obj 77 179 r \$0-button3-on;
#X obj 77 243 r \$0-button4-on;
#X connect 0 0 1 0;
#X connect 1 0 2 0;
#X connect 2 0 3 0;
#X connect 3 0 6 0;
#X connect 4 0 1 1;
#X connect 5 0 0 0;
#X connect 6 0 7 0;
#X connect 7 0 8 0;
#X connect 8 0 9 0;
#X connect 9 0 10 0;
#X connect 10 0 11 0;
#X connect 11 0 12 0;
#X connect 12 0 13 0;
#X connect 13 0 20 0;
#X connect 14 0 7 1;
#X connect 15 0 8 1;
#X connect 16 0 9 1;
#X connect 17 0 11 1;
#X connect 18 0 12 1;
#X connect 19 0 13 1;
#X connect 21 0 6 1;
#X connect 22 0 10 1;
#X connect 23 0 0 1;
#X connect 24 0 2 1;
#X connect 25 0 3 1;
#X restore 12 44 pd button3-4;
#N canvas 452 52 784 403 button3-4 0;
#X obj 24 83 spigot 0;
#X obj 24 147 spigot 0;
#X obj 24 211 spigot 0;
#X obj 24 275 spigot 0;
#X obj 77 115 r \$0-button2-off;
#X obj 24 19 inlet;
#X obj 217 83 spigot 0;
#X obj 217 147 spigot 0;
#X obj 217 211 spigot 0;
#X obj 217 275 spigot 0;
#X obj 410 83 spigot 0;
#X obj 410 147 spigot 0;
#X obj 410 211 spigot 0;
#X obj 410 275 spigot 0;
#X obj 270 115 r \$0-button6-off;
#X obj 270 179 r \$0-button7-off;
#X obj 270 243 r \$0-button8-off;
#X obj 463 115 r \$0-button10-off;
#X obj 463 179 r \$0-button11-off;
#X obj 463 243 r \$0-button12-off;
#X obj 410 307 outlet;
#X obj 270 51 r \$0-button5-off;
#X obj 463 51 r \$0-button9-off;
#X obj 77 51 r \$0-button1-off;
#X obj 77 179 r \$0-button3-on;
#X obj 77 243 r \$0-button4-on;
#X connect 0 0 1 0;
#X connect 1 0 2 0;
#X connect 2 0 3 0;
#X connect 3 0 6 0;
#X connect 4 0 1 1;
#X connect 5 0 0 0;
#X connect 6 0 7 0;
#X connect 7 0 8 0;
#X connect 8 0 9 0;
#X connect 9 0 10 0;
#X connect 10 0 11 0;
#X connect 11 0 12 0;
#X connect 12 0 13 0;
#X connect 13 0 20 0;
#X connect 14 0 7 1;
#X connect 15 0 8 1;
#X connect 16 0 9 1;
#X connect 17 0 11 1;
#X connect 18 0 12 1;
#X connect 19 0 13 1;
#X connect 21 0 6 1;
#X connect 22 0 10 1;
#X connect 23 0 0 1;
#X connect 24 0 2 1;
#X connect 25 0 3 1;
#X restore 111 44 pd button3-4;
#N canvas 452 52 784 403 button3-4 0;
#X obj 24 83 spigot 0;
#X obj 24 147 spigot 0;
#X obj 24 211 spigot 0;
#X obj 24 275 spigot 0;
#X obj 77 115 r \$0-button2-off;
#X obj 24 19 inlet;
#X obj 217 83 spigot 0;
#X obj 217 147 spigot 0;
#X obj 217 211 spigot 0;
#X obj 217 275 spigot 0;
#X obj 410 83 spigot 0;
#X obj 410 147 spigot 0;
#X obj 410 211 spigot 0;
#X obj 410 275 spigot 0;
#X obj 270 115 r \$0-button6-off;
#X obj 270 179 r \$0-button7-off;
#X obj 270 243 r \$0-button8-off;
#X obj 463 115 r \$0-button10-off;
#X obj 463 179 r \$0-button11-off;
#X obj 463 243 r \$0-button12-off;
#X obj 410 307 outlet;
#X obj 270 51 r \$0-button5-off;
#X obj 463 51 r \$0-button9-off;
#X obj 77 51 r \$0-button1-off;
#X obj 77 179 r \$0-button3-on;
#X obj 77 243 r \$0-button4-on;
#X connect 0 0 1 0;
#X connect 1 0 2 0;
#X connect 2 0 3 0;
#X connect 3 0 6 0;
#X connect 4 0 1 1;
#X connect 5 0 0 0;
#X connect 6 0 7 0;
#X connect 7 0 8 0;
#X connect 8 0 9 0;
#X connect 9 0 10 0;
#X connect 10 0 11 0;
#X connect 11 0 12 0;
#X connect 12 0 13 0;
#X connect 13 0 20 0;
#X connect 14 0 7 1;
#X connect 15 0 8 1;
#X connect 16 0 9 1;
#X connect 17 0 11 1;
#X connect 18 0 12 1;
#X connect 19 0 13 1;
#X connect 21 0 6 1;
#X connect 22 0 10 1;
#X connect 23 0 0 1;
#X connect 24 0 2 1;
#X connect 25 0 3 1;
#X restore 210 44 pd button3-4;
#N canvas 452 52 784 403 button3-4 0;
#X obj 24 83 spigot 0;
#X obj 24 147 spigot 0;
#X obj 24 211 spigot 0;
#X obj 24 275 spigot 0;
#X obj 77 115 r \$0-button2-off;
#X obj 24 19 inlet;
#X obj 217 83 spigot 0;
#X obj 217 147 spigot 0;
#X obj 217 211 spigot 0;
#X obj 217 275 spigot 0;
#X obj 410 83 spigot 0;
#X obj 410 147 spigot 0;
#X obj 410 211 spigot 0;
#X obj 410 275 spigot 0;
#X obj 270 115 r \$0-button6-off;
#X obj 270 179 r \$0-button7-off;
#X obj 270 243 r \$0-button8-off;
#X obj 463 115 r \$0-button10-off;
#X obj 463 179 r \$0-button11-off;
#X obj 463 243 r \$0-button12-off;
#X obj 410 307 outlet;
#X obj 270 51 r \$0-button5-off;
#X obj 463 51 r \$0-button9-off;
#X obj 77 51 r \$0-button1-off;
#X obj 77 179 r \$0-button3-on;
#X obj 77 243 r \$0-button4-on;
#X connect 0 0 1 0;
#X connect 1 0 2 0;
#X connect 2 0 3 0;
#X connect 3 0 6 0;
#X connect 4 0 1 1;
#X connect 5 0 0 0;
#X connect 6 0 7 0;
#X connect 7 0 8 0;
#X connect 8 0 9 0;
#X connect 9 0 10 0;
#X connect 10 0 11 0;
#X connect 11 0 12 0;
#X connect 12 0 13 0;
#X connect 13 0 20 0;
#X connect 14 0 7 1;
#X connect 15 0 8 1;
#X connect 16 0 9 1;
#X connect 17 0 11 1;
#X connect 18 0 12 1;
#X connect 19 0 13 1;
#X connect 21 0 6 1;
#X connect 22 0 10 1;
#X connect 23 0 0 1;
#X connect 24 0 2 1;
#X connect 25 0 3 1;
#X restore 309 44 pd button3-4;
#X obj 220 76 loadbang;
#X msg 220 108 127;
#X connect 0 0 11 0;
#X connect 1 0 10 0;
#X connect 2 0 9 0;
#X connect 3 0 8 0;
#X connect 8 0 4 0;
#X connect 9 0 5 0;
#X connect 10 0 6 0;
#X connect 11 0 7 0;
#X connect 12 0 13 0;
#X connect 13 0 6 0;
#X restore 261 186 pd filter-mixer-inputs;
#N canvas 273 77 737 493 midi-controller 0;
#X obj 10 10 modules/midi-knobs;
#X obj 10 111 modules/midi-buttons;
#X obj 200 436 s \$0-note;
#X obj 111 10 modules/midi-keys;
#X obj 314 386 s \$0-button1-on;
#X obj 10 402 s \$0-knob1;
#X obj 41 370 s \$0-knob2;
#X obj 72 338 s \$0-knob3;
#X obj 103 308 s \$0-knob4;
#X obj 345 354 s \$0-button2-on;
#X obj 376 322 s \$0-button3-on;
#X obj 407 290 s \$0-button4-on;
#X obj 111 111 modules/midi-pads;
#X obj 415 246 s \$0-button5-on;
#X obj 428 214 s \$0-button6-on;
#X obj 441 182 s \$0-button7-on;
#X obj 454 150 s \$0-button8-on;
#X obj 468 118 s \$0-button9-on;
#X obj 481 86 s \$0-button10-on;
#X obj 494 54 s \$0-button11-on;
#X obj 508 22 s \$0-button12-on;
#X obj 293 436 s \$0-gate;
#X obj 233 14 modules/midi-wheels;
#X obj 326 123 s \$0-wheel;
#X connect 0 0 5 0;
#X connect 0 1 6 0;
#X connect 0 2 7 0;
#X connect 0 3 8 0;
#X connect 1 0 4 0;
#X connect 1 1 9 0;
#X connect 1 2 10 0;
#X connect 1 3 11 0;
#X connect 3 0 2 0;
#X connect 3 1 21 0;
#X connect 12 0 13 0;
#X connect 12 1 14 0;
#X connect 12 2 15 0;
#X connect 12 3 16 0;
#X connect 12 4 17 0;
#X connect 12 5 18 0;
#X connect 12 6 19 0;
#X connect 12 7 20 0;
#X connect 22 1 23 0;
#X coords 0 -1 1 1 201 201 2 10 10;
#X restore 1699 6 pd midi-controller;
#N canvas 630 287 450 300 osc-mixer-inputs 0;
#X obj 12 140 outlet;
#X obj 125 76 outlet;
#X obj 12 12 r \$0-knob1;
#X obj 125 12 r \$0-knob2;
#X obj 238 76 outlet;
#X obj 238 12 r \$0-knob3;
#X obj 22 76 loadbang;
#X msg 22 108 127;
#N canvas 452 52 784 403 buttons-off 0;
#X obj 24 83 spigot 0;
#X obj 24 147 spigot 0;
#X obj 24 211 spigot 0;
#X obj 24 275 spigot 0;
#X obj 77 115 r \$0-button2-off;
#X obj 77 179 r \$0-button3-off;
#X obj 77 243 r \$0-button4-off;
#X obj 24 19 inlet;
#X obj 217 83 spigot 0;
#X obj 217 147 spigot 0;
#X obj 217 211 spigot 0;
#X obj 217 275 spigot 0;
#X obj 410 83 spigot 0;
#X obj 410 147 spigot 0;
#X obj 410 211 spigot 0;
#X obj 410 275 spigot 0;
#X obj 270 115 r \$0-button6-off;
#X obj 270 179 r \$0-button7-off;
#X obj 270 243 r \$0-button8-off;
#X obj 463 115 r \$0-button10-off;
#X obj 463 179 r \$0-button11-off;
#X obj 463 243 r \$0-button12-off;
#X obj 410 307 outlet;
#X obj 270 51 r \$0-button5-off;
#X obj 463 51 r \$0-button9-off;
#X obj 77 51 r \$0-button1-off;
#X connect 0 0 1 0;
#X connect 1 0 2 0;
#X connect 2 0 3 0;
#X connect 3 0 8 0;
#X connect 4 0 1 1;
#X connect 5 0 2 1;
#X connect 6 0 3 1;
#X connect 7 0 0 0;
#X connect 8 0 9 0;
#X connect 9 0 10 0;
#X connect 10 0 11 0;
#X connect 11 0 12 0;
#X connect 12 0 13 0;
#X connect 13 0 14 0;
#X connect 14 0 15 0;
#X connect 15 0 22 0;
#X connect 16 0 9 1;
#X connect 17 0 10 1;
#X connect 18 0 11 1;
#X connect 19 0 13 1;
#X connect 20 0 14 1;
#X connect 21 0 15 1;
#X connect 23 0 8 1;
#X connect 24 0 12 1;
#X connect 25 0 0 1;
#X restore 12 44 pd buttons-off;
#N canvas 452 52 784 403 buttons-off 0;
#X obj 24 83 spigot 0;
#X obj 24 147 spigot 0;
#X obj 24 211 spigot 0;
#X obj 24 275 spigot 0;
#X obj 77 115 r \$0-button2-off;
#X obj 77 179 r \$0-button3-off;
#X obj 77 243 r \$0-button4-off;
#X obj 24 19 inlet;
#X obj 217 83 spigot 0;
#X obj 217 147 spigot 0;
#X obj 217 211 spigot 0;
#X obj 217 275 spigot 0;
#X obj 410 83 spigot 0;
#X obj 410 147 spigot 0;
#X obj 410 211 spigot 0;
#X obj 410 275 spigot 0;
#X obj 270 115 r \$0-button6-off;
#X obj 270 179 r \$0-button7-off;
#X obj 270 243 r \$0-button8-off;
#X obj 463 115 r \$0-button10-off;
#X obj 463 179 r \$0-button11-off;
#X obj 463 243 r \$0-button12-off;
#X obj 410 307 outlet;
#X obj 270 51 r \$0-button5-off;
#X obj 463 51 r \$0-button9-off;
#X obj 77 51 r \$0-button1-off;
#X connect 0 0 1 0;
#X connect 1 0 2 0;
#X connect 2 0 3 0;
#X connect 3 0 8 0;
#X connect 4 0 1 1;
#X connect 5 0 2 1;
#X connect 6 0 3 1;
#X connect 7 0 0 0;
#X connect 8 0 9 0;
#X connect 9 0 10 0;
#X connect 10 0 11 0;
#X connect 11 0 12 0;
#X connect 12 0 13 0;
#X connect 13 0 14 0;
#X connect 14 0 15 0;
#X connect 15 0 22 0;
#X connect 16 0 9 1;
#X connect 17 0 10 1;
#X connect 18 0 11 1;
#X connect 19 0 13 1;
#X connect 20 0 14 1;
#X connect 21 0 15 1;
#X connect 23 0 8 1;
#X connect 24 0 12 1;
#X connect 25 0 0 1;
#X restore 125 44 pd buttons-off;
#N canvas 452 52 784 403 buttons-off 0;
#X obj 24 83 spigot 0;
#X obj 24 147 spigot 0;
#X obj 24 211 spigot 0;
#X obj 24 275 spigot 0;
#X obj 77 115 r \$0-button2-off;
#X obj 77 179 r \$0-button3-off;
#X obj 77 243 r \$0-button4-off;
#X obj 24 19 inlet;
#X obj 217 83 spigot 0;
#X obj 217 147 spigot 0;
#X obj 217 211 spigot 0;
#X obj 217 275 spigot 0;
#X obj 410 83 spigot 0;
#X obj 410 147 spigot 0;
#X obj 410 211 spigot 0;
#X obj 410 275 spigot 0;
#X obj 270 115 r \$0-button6-off;
#X obj 270 179 r \$0-button7-off;
#X obj 270 243 r \$0-button8-off;
#X obj 463 115 r \$0-button10-off;
#X obj 463 179 r \$0-button11-off;
#X obj 463 243 r \$0-button12-off;
#X obj 410 307 outlet;
#X obj 270 51 r \$0-button5-off;
#X obj 463 51 r \$0-button9-off;
#X obj 77 51 r \$0-button1-off;
#X connect 0 0 1 0;
#X connect 1 0 2 0;
#X connect 2 0 3 0;
#X connect 3 0 8 0;
#X connect 4 0 1 1;
#X connect 5 0 2 1;
#X connect 6 0 3 1;
#X connect 7 0 0 0;
#X connect 8 0 9 0;
#X connect 9 0 10 0;
#X connect 10 0 11 0;
#X connect 11 0 12 0;
#X connect 12 0 13 0;
#X connect 13 0 14 0;
#X connect 14 0 15 0;
#X connect 15 0 22 0;
#X connect 16 0 9 1;
#X connect 17 0 10 1;
#X connect 18 0 11 1;
#X connect 19 0 13 1;
#X connect 20 0 14 1;
#X connect 21 0 15 1;
#X connect 23 0 8 1;
#X connect 24 0 12 1;
#X connect 25 0 0 1;
#X restore 238 44 pd buttons-off;
#X connect 2 0 8 0;
#X connect 3 0 9 0;
#X connect 5 0 10 0;
#X connect 6 0 7 0;
#X connect 7 0 0 0;
#X connect 8 0 0 0;
#X connect 9 0 1 0;
#X connect 10 0 4 0;
#X restore 1742 323 pd osc-mixer-inputs;
#X text 1544 18 subpatches/templates;
#X obj 454 11 r~ \$0-out;
#X obj 209 619 s~ \$0-out;
#N canvas -8 -8 1920 1007 osc-fm-lfo 0;
#X obj 13 76 modules/lfo~;
#X obj 12 315 *~;
#X obj 62 283 mtof;
#X msg 30 283 0;
#X obj 30 251 sel 0;
#N canvas 452 52 784 403 button6 0;
#X obj 24 83 spigot 0;
#X obj 24 147 spigot 0;
#X obj 24 211 spigot 0;
#X obj 24 275 spigot 0;
#X obj 77 115 r \$0-button2-off;
#X obj 77 179 r \$0-button3-off;
#X obj 77 243 r \$0-button4-off;
#X obj 24 19 inlet;
#X obj 217 83 spigot 0;
#X obj 217 147 spigot 0;
#X obj 217 211 spigot 0;
#X obj 217 275 spigot 0;
#X obj 410 83 spigot 0;
#X obj 410 147 spigot 0;
#X obj 410 211 spigot 0;
#X obj 410 275 spigot 0;
#X obj 270 179 r \$0-button7-off;
#X obj 270 243 r \$0-button8-off;
#X obj 463 115 r \$0-button10-off;
#X obj 463 179 r \$0-button11-off;
#X obj 463 243 r \$0-button12-off;
#X obj 410 307 outlet;
#X obj 270 51 r \$0-button5-off;
#X obj 463 51 r \$0-button9-off;
#X obj 77 51 r \$0-button1-off;
#X obj 270 115 r \$0-button6-on;
#X connect 0 0 1 0;
#X connect 1 0 2 0;
#X connect 2 0 3 0;
#X connect 3 0 8 0;
#X connect 4 0 1 1;
#X connect 5 0 2 1;
#X connect 6 0 3 1;
#X connect 7 0 0 0;
#X connect 8 0 9 0;
#X connect 9 0 10 0;
#X connect 10 0 11 0;
#X connect 11 0 12 0;
#X connect 12 0 13 0;
#X connect 13 0 14 0;
#X connect 14 0 15 0;
#X connect 15 0 21 0;
#X connect 16 0 10 1;
#X connect 17 0 11 1;
#X connect 18 0 13 1;
#X connect 19 0 14 1;
#X connect 20 0 15 1;
#X connect 22 0 8 1;
#X connect 23 0 12 1;
#X connect 24 0 0 1;
#X connect 25 0 9 1;
#X restore 30 219 pd button6;
#X obj 30 187 r \$0-wheel;
#N canvas 452 52 784 403 button6 0;
#X obj 24 83 spigot 0;
#X obj 24 147 spigot 0;
#X obj 24 211 spigot 0;
#X obj 24 275 spigot 0;
#X obj 77 115 r \$0-button2-off;
#X obj 77 179 r \$0-button3-off;
#X obj 77 243 r \$0-button4-off;
#X obj 24 19 inlet;
#X obj 217 83 spigot 0;
#X obj 217 147 spigot 0;
#X obj 217 211 spigot 0;
#X obj 217 275 spigot 0;
#X obj 410 83 spigot 0;
#X obj 410 147 spigot 0;
#X obj 410 211 spigot 0;
#X obj 410 275 spigot 0;
#X obj 270 179 r \$0-button7-off;
#X obj 270 243 r \$0-button8-off;
#X obj 463 115 r \$0-button10-off;
#X obj 463 179 r \$0-button11-off;
#X obj 463 243 r \$0-button12-off;
#X obj 410 307 outlet;
#X obj 270 51 r \$0-button5-off;
#X obj 463 51 r \$0-button9-off;
#X obj 77 51 r \$0-button1-off;
#X obj 270 115 r \$0-button6-on;
#X connect 0 0 1 0;
#X connect 1 0 2 0;
#X connect 2 0 3 0;
#X connect 3 0 8 0;
#X connect 4 0 1 1;
#X connect 5 0 2 1;
#X connect 6 0 3 1;
#X connect 7 0 0 0;
#X connect 8 0 9 0;
#X connect 9 0 10 0;
#X connect 10 0 11 0;
#X connect 11 0 12 0;
#X connect 12 0 13 0;
#X connect 13 0 14 0;
#X connect 14 0 15 0;
#X connect 15 0 21 0;
#X connect 16 0 10 1;
#X connect 17 0 11 1;
#X connect 18 0 13 1;
#X connect 19 0 14 1;
#X connect 20 0 15 1;
#X connect 22 0 8 1;
#X connect 23 0 12 1;
#X connect 24 0 0 1;
#X connect 25 0 9 1;
#X restore 13 44 pd button6;
#X obj 13 12 r \$0-knob1;
#X obj 12 347 outlet~;
#X connect 0 0 1 0;
#X connect 1 0 9 0;
#X connect 2 0 1 1;
#X connect 3 0 1 1;
#X connect 4 0 3 0;
#X connect 4 1 2 0;
#X connect 5 0 4 0;
#X connect 6 0 5 0;
#X connect 7 0 0 0;
#X connect 8 0 7 0;
#X restore 1745 395 pd osc-fm-lfo;
#N canvas 677 126 450 549 osc-am-lfo 0;
#X obj 150 84 modules/lfo~;
#X obj 150 20 r \$0-knob1;
#N canvas 452 52 784 403 button5 0;
#X obj 24 83 spigot 0;
#X obj 24 147 spigot 0;
#X obj 24 211 spigot 0;
#X obj 24 275 spigot 0;
#X obj 77 115 r \$0-button2-off;
#X obj 77 179 r \$0-button3-off;
#X obj 77 243 r \$0-button4-off;
#X obj 24 19 inlet;
#X obj 217 83 spigot 0;
#X obj 217 147 spigot 0;
#X obj 217 211 spigot 0;
#X obj 217 275 spigot 0;
#X obj 410 83 spigot 0;
#X obj 410 147 spigot 0;
#X obj 410 211 spigot 0;
#X obj 410 275 spigot 0;
#X obj 270 115 r \$0-button6-off;
#X obj 270 179 r \$0-button7-off;
#X obj 270 243 r \$0-button8-off;
#X obj 463 115 r \$0-button10-off;
#X obj 463 179 r \$0-button11-off;
#X obj 463 243 r \$0-button12-off;
#X obj 410 307 outlet;
#X obj 463 51 r \$0-button9-off;
#X obj 77 51 r \$0-button1-off;
#X obj 270 51 r \$0-button5-on;
#X connect 0 0 1 0;
#X connect 1 0 2 0;
#X connect 2 0 3 0;
#X connect 3 0 8 0;
#X connect 4 0 1 1;
#X connect 5 0 2 1;
#X connect 6 0 3 1;
#X connect 7 0 0 0;
#X connect 8 0 9 0;
#X connect 9 0 10 0;
#X connect 10 0 11 0;
#X connect 11 0 12 0;
#X connect 12 0 13 0;
#X connect 13 0 14 0;
#X connect 14 0 15 0;
#X connect 15 0 22 0;
#X connect 16 0 9 1;
#X connect 17 0 10 1;
#X connect 18 0 11 1;
#X connect 19 0 13 1;
#X connect 20 0 14 1;
#X connect 21 0 15 1;
#X connect 23 0 12 1;
#X connect 24 0 0 1;
#X connect 25 0 8 1;
#X restore 150 52 pd button5;
#X msg 226 291 1;
#X msg 194 291 0;
#X obj 149 323 modules/vca~;
#X obj 194 195 r \$0-knob1;
#N canvas 452 52 784 403 button5 0;
#X obj 24 83 spigot 0;
#X obj 24 147 spigot 0;
#X obj 24 211 spigot 0;
#X obj 24 275 spigot 0;
#X obj 77 115 r \$0-button2-off;
#X obj 77 179 r \$0-button3-off;
#X obj 77 243 r \$0-button4-off;
#X obj 24 19 inlet;
#X obj 217 83 spigot 0;
#X obj 217 147 spigot 0;
#X obj 217 211 spigot 0;
#X obj 217 275 spigot 0;
#X obj 410 83 spigot 0;
#X obj 410 147 spigot 0;
#X obj 410 211 spigot 0;
#X obj 410 275 spigot 0;
#X obj 270 115 r \$0-button6-off;
#X obj 270 179 r \$0-button7-off;
#X obj 270 243 r \$0-button8-off;
#X obj 463 115 r \$0-button10-off;
#X obj 463 179 r \$0-button11-off;
#X obj 463 243 r \$0-button12-off;
#X obj 410 307 outlet;
#X obj 463 51 r \$0-button9-off;
#X obj 77 51 r \$0-button1-off;
#X obj 270 51 r \$0-button5-on;
#X connect 0 0 1 0;
#X connect 1 0 2 0;
#X connect 2 0 3 0;
#X connect 3 0 8 0;
#X connect 4 0 1 1;
#X connect 5 0 2 1;
#X connect 6 0 3 1;
#X connect 7 0 0 0;
#X connect 8 0 9 0;
#X connect 9 0 10 0;
#X connect 10 0 11 0;
#X connect 11 0 12 0;
#X connect 12 0 13 0;
#X connect 13 0 14 0;
#X connect 14 0 15 0;
#X connect 15 0 22 0;
#X connect 16 0 9 1;
#X connect 17 0 10 1;
#X connect 18 0 11 1;
#X connect 19 0 13 1;
#X connect 20 0 14 1;
#X connect 21 0 15 1;
#X connect 23 0 12 1;
#X connect 24 0 0 1;
#X connect 25 0 8 1;
#X restore 194 227 pd button5;
#X obj 194 259 sel 0;
#X obj 67 52 r \$0-knob1;
#N canvas 452 52 784 403 button5 0;
#X obj 24 83 spigot 0;
#X obj 24 147 spigot 0;
#X obj 24 211 spigot 0;
#X obj 24 275 spigot 0;
#X obj 77 115 r \$0-button2-off;
#X obj 77 179 r \$0-button3-off;
#X obj 77 243 r \$0-button4-off;
#X obj 24 19 inlet;
#X obj 217 83 spigot 0;
#X obj 217 147 spigot 0;
#X obj 217 211 spigot 0;
#X obj 217 275 spigot 0;
#X obj 410 83 spigot 0;
#X obj 410 147 spigot 0;
#X obj 410 211 spigot 0;
#X obj 410 275 spigot 0;
#X obj 270 115 r \$0-button6-off;
#X obj 270 179 r \$0-button7-off;
#X obj 270 243 r \$0-button8-off;
#X obj 463 115 r \$0-button10-off;
#X obj 463 179 r \$0-button11-off;
#X obj 463 243 r \$0-button12-off;
#X obj 410 307 outlet;
#X obj 463 51 r \$0-button9-off;
#X obj 77 51 r \$0-button1-off;
#X obj 270 51 r \$0-button5-on;
#X connect 0 0 1 0;
#X connect 1 0 2 0;
#X connect 2 0 3 0;
#X connect 3 0 8 0;
#X connect 4 0 1 1;
#X connect 5 0 2 1;
#X connect 6 0 3 1;
#X connect 7 0 0 0;
#X connect 8 0 9 0;
#X connect 9 0 10 0;
#X connect 10 0 11 0;
#X connect 11 0 12 0;
#X connect 12 0 13 0;
#X connect 13 0 14 0;
#X connect 14 0 15 0;
#X connect 15 0 22 0;
#X connect 16 0 9 1;
#X connect 17 0 10 1;
#X connect 18 0 11 1;
#X connect 19 0 13 1;
#X connect 20 0 14 1;
#X connect 21 0 15 1;
#X connect 23 0 12 1;
#X connect 24 0 0 1;
#X connect 25 0 8 1;
#X restore 67 84 pd button5;
#X obj 67 116 sel 0;
#X msg 67 148 1;
#X msg 99 148 0;
#X obj 23 20 r~ \$0-filter-out;
#X obj 22 180 modules/vca~;
#X obj 105 418 modules/vca~;
#X obj 105 386 r~ \$0-filter-out;
#X obj 23 480 outlet~;
#X connect 0 0 5 0;
#X connect 1 0 2 0;
#X connect 2 0 0 0;
#X connect 3 0 5 1;
#X connect 4 0 5 1;
#X connect 5 0 16 1;
#X connect 6 0 7 0;
#X connect 7 0 8 0;
#X connect 8 0 4 0;
#X connect 8 1 3 0;
#X connect 9 0 10 0;
#X connect 10 0 11 0;
#X connect 11 0 12 0;
#X connect 11 1 13 0;
#X connect 12 0 15 1;
#X connect 13 0 15 1;
#X connect 14 0 15 0;
#X connect 15 0 18 0;
#X connect 16 0 18 0;
#X connect 17 0 16 0;
#X coords 0 549 1 548 100 100 0;
#X restore 1747 359 pd osc-am-lfo;
#N canvas 720 107 450 674 osc-am-lfo 0;
#X obj 140 76 modules/lfo~;
#X obj 140 12 r \$0-knob1;
#N canvas 452 52 784 403 button5 0;
#X obj 24 83 spigot 0;
#X obj 24 147 spigot 0;
#X obj 24 211 spigot 0;
#X obj 24 275 spigot 0;
#X obj 77 115 r \$0-button2-off;
#X obj 77 179 r \$0-button3-off;
#X obj 77 243 r \$0-button4-off;
#X obj 24 19 inlet;
#X obj 217 83 spigot 0;
#X obj 217 147 spigot 0;
#X obj 217 211 spigot 0;
#X obj 217 275 spigot 0;
#X obj 410 83 spigot 0;
#X obj 410 147 spigot 0;
#X obj 410 211 spigot 0;
#X obj 410 275 spigot 0;
#X obj 270 115 r \$0-button6-off;
#X obj 270 179 r \$0-button7-off;
#X obj 270 243 r \$0-button8-off;
#X obj 463 115 r \$0-button10-off;
#X obj 463 179 r \$0-button11-off;
#X obj 463 243 r \$0-button12-off;
#X obj 410 307 outlet;
#X obj 463 51 r \$0-button9-off;
#X obj 77 51 r \$0-button1-off;
#X obj 270 51 r \$0-button5-on;
#X connect 0 0 1 0;
#X connect 1 0 2 0;
#X connect 2 0 3 0;
#X connect 3 0 8 0;
#X connect 4 0 1 1;
#X connect 5 0 2 1;
#X connect 6 0 3 1;
#X connect 7 0 0 0;
#X connect 8 0 9 0;
#X connect 9 0 10 0;
#X connect 10 0 11 0;
#X connect 11 0 12 0;
#X connect 12 0 13 0;
#X connect 13 0 14 0;
#X connect 14 0 15 0;
#X connect 15 0 22 0;
#X connect 16 0 9 1;
#X connect 17 0 10 1;
#X connect 18 0 11 1;
#X connect 19 0 13 1;
#X connect 20 0 14 1;
#X connect 21 0 15 1;
#X connect 23 0 12 1;
#X connect 24 0 0 1;
#X connect 25 0 8 1;
#X restore 140 44 pd button5;
#X msg 216 283 1;
#X msg 184 283 0;
#X obj 139 315 modules/vca~;
#X obj 184 187 r \$0-knob1;
#N canvas 452 52 784 403 button5 0;
#X obj 24 83 spigot 0;
#X obj 24 147 spigot 0;
#X obj 24 211 spigot 0;
#X obj 24 275 spigot 0;
#X obj 77 115 r \$0-button2-off;
#X obj 77 179 r \$0-button3-off;
#X obj 77 243 r \$0-button4-off;
#X obj 24 19 inlet;
#X obj 217 83 spigot 0;
#X obj 217 147 spigot 0;
#X obj 217 211 spigot 0;
#X obj 217 275 spigot 0;
#X obj 410 83 spigot 0;
#X obj 410 147 spigot 0;
#X obj 410 211 spigot 0;
#X obj 410 275 spigot 0;
#X obj 270 115 r \$0-button6-off;
#X obj 270 179 r \$0-button7-off;
#X obj 270 243 r \$0-button8-off;
#X obj 463 115 r \$0-button10-off;
#X obj 463 179 r \$0-button11-off;
#X obj 463 243 r \$0-button12-off;
#X obj 410 307 outlet;
#X obj 463 51 r \$0-button9-off;
#X obj 77 51 r \$0-button1-off;
#X obj 270 51 r \$0-button5-on;
#X connect 0 0 1 0;
#X connect 1 0 2 0;
#X connect 2 0 3 0;
#X connect 3 0 8 0;
#X connect 4 0 1 1;
#X connect 5 0 2 1;
#X connect 6 0 3 1;
#X connect 7 0 0 0;
#X connect 8 0 9 0;
#X connect 9 0 10 0;
#X connect 10 0 11 0;
#X connect 11 0 12 0;
#X connect 12 0 13 0;
#X connect 13 0 14 0;
#X connect 14 0 15 0;
#X connect 15 0 22 0;
#X connect 16 0 9 1;
#X connect 17 0 10 1;
#X connect 18 0 11 1;
#X connect 19 0 13 1;
#X connect 20 0 14 1;
#X connect 21 0 15 1;
#X connect 23 0 12 1;
#X connect 24 0 0 1;
#X connect 25 0 8 1;
#X restore 184 219 pd button5;
#X obj 184 251 sel 0;
#X obj 57 44 r \$0-knob1;
#N canvas 452 52 784 403 button5 0;
#X obj 24 83 spigot 0;
#X obj 24 147 spigot 0;
#X obj 24 211 spigot 0;
#X obj 24 275 spigot 0;
#X obj 77 115 r \$0-button2-off;
#X obj 77 179 r \$0-button3-off;
#X obj 77 243 r \$0-button4-off;
#X obj 24 19 inlet;
#X obj 217 83 spigot 0;
#X obj 217 147 spigot 0;
#X obj 217 211 spigot 0;
#X obj 217 275 spigot 0;
#X obj 410 83 spigot 0;
#X obj 410 147 spigot 0;
#X obj 410 211 spigot 0;
#X obj 410 275 spigot 0;
#X obj 270 115 r \$0-button6-off;
#X obj 270 179 r \$0-button7-off;
#X obj 270 243 r \$0-button8-off;
#X obj 463 115 r \$0-button10-off;
#X obj 463 179 r \$0-button11-off;
#X obj 463 243 r \$0-button12-off;
#X obj 410 307 outlet;
#X obj 463 51 r \$0-button9-off;
#X obj 77 51 r \$0-button1-off;
#X obj 270 51 r \$0-button5-on;
#X connect 0 0 1 0;
#X connect 1 0 2 0;
#X connect 2 0 3 0;
#X connect 3 0 8 0;
#X connect 4 0 1 1;
#X connect 5 0 2 1;
#X connect 6 0 3 1;
#X connect 7 0 0 0;
#X connect 8 0 9 0;
#X connect 9 0 10 0;
#X connect 10 0 11 0;
#X connect 11 0 12 0;
#X connect 12 0 13 0;
#X connect 13 0 14 0;
#X connect 14 0 15 0;
#X connect 15 0 22 0;
#X connect 16 0 9 1;
#X connect 17 0 10 1;
#X connect 18 0 11 1;
#X connect 19 0 13 1;
#X connect 20 0 14 1;
#X connect 21 0 15 1;
#X connect 23 0 12 1;
#X connect 24 0 0 1;
#X connect 25 0 8 1;
#X restore 57 76 pd button5;
#X obj 57 108 sel 0;
#X msg 57 140 1;
#X msg 89 140 0;
#X obj 13 12 r~ \$0-filter-out;
#X obj 12 172 modules/vca~;
#X obj 95 410 modules/vca~;
#X obj 95 378 r~ \$0-filter-out;
#X obj 13 472 outlet~;
#X obj 37 282 loadbang;
#X connect 0 0 5 0;
#X connect 1 0 2 0;
#X connect 2 0 0 0;
#X connect 3 0 5 1;
#X connect 4 0 5 1;
#X connect 5 0 16 1;
#X connect 6 0 7 0;
#X connect 7 0 8 0;
#X connect 8 0 4 0;
#X connect 8 1 3 0;
#X connect 9 0 10 0;
#X connect 10 0 11 0;
#X connect 11 0 12 0;
#X connect 11 1 13 0;
#X connect 12 0 15 1;
#X connect 13 0 15 1;
#X connect 14 0 15 0;
#X connect 15 0 18 0;
#X connect 16 0 18 0;
#X connect 17 0 16 0;
#X connect 19 0 12 0;
#X coords 0 674 1 673 100 100 0;
#X restore 209 587 pd osc-am-lfo;
#N canvas 967 151 654 477 osc-inputs 0;
#X obj 196 12 r \$0-knob4;
#N canvas 452 52 784 403 buttons-off 0;
#X obj 24 83 spigot 0;
#X obj 24 147 spigot 0;
#X obj 24 211 spigot 0;
#X obj 24 275 spigot 0;
#X obj 77 115 r \$0-button2-off;
#X obj 77 179 r \$0-button3-off;
#X obj 77 243 r \$0-button4-off;
#X obj 24 19 inlet;
#X obj 217 83 spigot 0;
#X obj 217 147 spigot 0;
#X obj 217 211 spigot 0;
#X obj 217 275 spigot 0;
#X obj 410 83 spigot 0;
#X obj 410 147 spigot 0;
#X obj 410 211 spigot 0;
#X obj 410 275 spigot 0;
#X obj 270 115 r \$0-button6-off;
#X obj 270 179 r \$0-button7-off;
#X obj 270 243 r \$0-button8-off;
#X obj 463 115 r \$0-button10-off;
#X obj 463 179 r \$0-button11-off;
#X obj 463 243 r \$0-button12-off;
#X obj 410 307 outlet;
#X obj 270 51 r \$0-button5-off;
#X obj 463 51 r \$0-button9-off;
#X obj 77 51 r \$0-button1-off;
#X connect 0 0 1 0;
#X connect 1 0 2 0;
#X connect 2 0 3 0;
#X connect 3 0 8 0;
#X connect 4 0 1 1;
#X connect 5 0 2 1;
#X connect 6 0 3 1;
#X connect 7 0 0 0;
#X connect 8 0 9 0;
#X connect 9 0 10 0;
#X connect 10 0 11 0;
#X connect 11 0 12 0;
#X connect 12 0 13 0;
#X connect 13 0 14 0;
#X connect 14 0 15 0;
#X connect 15 0 22 0;
#X connect 16 0 9 1;
#X connect 17 0 10 1;
#X connect 18 0 11 1;
#X connect 19 0 13 1;
#X connect 20 0 14 1;
#X connect 21 0 15 1;
#X connect 23 0 8 1;
#X connect 24 0 12 1;
#X connect 25 0 0 1;
#X restore 196 44 pd buttons-off;
#X obj 196 76 outlet;
#X obj 12 12 r \$0-note;
#X obj 12 44 outlet;
#N canvas -503 214 1920 1007 osc-fm-lfo 0;
#X obj 13 76 modules/lfo~;
#X obj 12 315 *~;
#X obj 62 283 mtof;
#X msg 30 283 0;
#X obj 30 251 sel 0;
#N canvas 452 52 784 403 button6 0;
#X obj 24 83 spigot 0;
#X obj 24 147 spigot 0;
#X obj 24 211 spigot 0;
#X obj 24 275 spigot 0;
#X obj 77 115 r \$0-button2-off;
#X obj 77 179 r \$0-button3-off;
#X obj 77 243 r \$0-button4-off;
#X obj 24 19 inlet;
#X obj 217 83 spigot 0;
#X obj 217 147 spigot 0;
#X obj 217 211 spigot 0;
#X obj 217 275 spigot 0;
#X obj 410 83 spigot 0;
#X obj 410 147 spigot 0;
#X obj 410 211 spigot 0;
#X obj 410 275 spigot 0;
#X obj 270 179 r \$0-button7-off;
#X obj 270 243 r \$0-button8-off;
#X obj 463 115 r \$0-button10-off;
#X obj 463 179 r \$0-button11-off;
#X obj 463 243 r \$0-button12-off;
#X obj 410 307 outlet;
#X obj 270 51 r \$0-button5-off;
#X obj 463 51 r \$0-button9-off;
#X obj 77 51 r \$0-button1-off;
#X obj 270 115 r \$0-button6-on;
#X connect 0 0 1 0;
#X connect 1 0 2 0;
#X connect 2 0 3 0;
#X connect 3 0 8 0;
#X connect 4 0 1 1;
#X connect 5 0 2 1;
#X connect 6 0 3 1;
#X connect 7 0 0 0;
#X connect 8 0 9 0;
#X connect 9 0 10 0;
#X connect 10 0 11 0;
#X connect 11 0 12 0;
#X connect 12 0 13 0;
#X connect 13 0 14 0;
#X connect 14 0 15 0;
#X connect 15 0 21 0;
#X connect 16 0 10 1;
#X connect 17 0 11 1;
#X connect 18 0 13 1;
#X connect 19 0 14 1;
#X connect 20 0 15 1;
#X connect 22 0 8 1;
#X connect 23 0 12 1;
#X connect 24 0 0 1;
#X connect 25 0 9 1;
#X restore 30 219 pd button6;
#X obj 30 187 r \$0-wheel;
#N canvas 452 52 784 403 button6 0;
#X obj 24 83 spigot 0;
#X obj 24 147 spigot 0;
#X obj 24 211 spigot 0;
#X obj 24 275 spigot 0;
#X obj 77 115 r \$0-button2-off;
#X obj 77 179 r \$0-button3-off;
#X obj 77 243 r \$0-button4-off;
#X obj 24 19 inlet;
#X obj 217 83 spigot 0;
#X obj 217 147 spigot 0;
#X obj 217 211 spigot 0;
#X obj 217 275 spigot 0;
#X obj 410 83 spigot 0;
#X obj 410 147 spigot 0;
#X obj 410 211 spigot 0;
#X obj 410 275 spigot 0;
#X obj 270 179 r \$0-button7-off;
#X obj 270 243 r \$0-button8-off;
#X obj 463 115 r \$0-button10-off;
#X obj 463 179 r \$0-button11-off;
#X obj 463 243 r \$0-button12-off;
#X obj 410 307 outlet;
#X obj 270 51 r \$0-button5-off;
#X obj 463 51 r \$0-button9-off;
#X obj 77 51 r \$0-button1-off;
#X obj 270 115 r \$0-button6-on;
#X connect 0 0 1 0;
#X connect 1 0 2 0;
#X connect 2 0 3 0;
#X connect 3 0 8 0;
#X connect 4 0 1 1;
#X connect 5 0 2 1;
#X connect 6 0 3 1;
#X connect 7 0 0 0;
#X connect 8 0 9 0;
#X connect 9 0 10 0;
#X connect 10 0 11 0;
#X connect 11 0 12 0;
#X connect 12 0 13 0;
#X connect 13 0 14 0;
#X connect 14 0 15 0;
#X connect 15 0 21 0;
#X connect 16 0 10 1;
#X connect 17 0 11 1;
#X connect 18 0 13 1;
#X connect 19 0 14 1;
#X connect 20 0 15 1;
#X connect 22 0 8 1;
#X connect 23 0 12 1;
#X connect 24 0 0 1;
#X connect 25 0 9 1;
#X restore 13 44 pd button6;
#X obj 13 12 r \$0-knob1;
#X obj 12 347 outlet~;
#X floatatom 218 247 5 0 0 0 - - -;
#X connect 0 0 1 0;
#X connect 1 0 9 0;
#X connect 2 0 1 1;
#X connect 3 0 1 1;
#X connect 4 0 3 0;
#X connect 4 1 2 0;
#X connect 5 0 4 0;
#X connect 5 0 10 0;
#X connect 6 0 5 0;
#X connect 7 0 0 0;
#X connect 8 0 7 0;
#X restore 90 12 pd osc-fm-lfo;
#X obj 90 44 outlet~;
#X connect 0 0 1 0;
#X connect 1 0 2 0;
#X connect 3 0 4 0;
#X connect 5 0 6 0;
#X restore 22 186 pd osc-inputs;
#X connect 1 0 4 0;
#X connect 1 1 14 0;
#X connect 2 0 16 1;
#X connect 3 0 5 0;
#X connect 4 0 3 0;
#X connect 4 1 3 1;
#X connect 4 2 3 2;
#X connect 8 0 10 0;
#X connect 8 1 10 1;
#X connect 8 2 10 2;
#X connect 9 0 8 0;
#X connect 10 0 16 0;
#X connect 15 0 1 0;
#X connect 15 1 1 1;
#X connect 16 0 13 0;
#X connect 17 0 2 0;
#X connect 17 1 2 1;
#X connect 17 2 2 2;
#X connect 17 3 2 3;
#X connect 17 4 2 4;
#X connect 18 0 8 1;
#X connect 18 1 8 2;
#X connect 18 2 8 3;
#X connect 18 3 8 4;
#X connect 18 4 8 5;
#X connect 18 5 8 6;
#X connect 19 0 3 4;
#X connect 19 1 3 5;
#X connect 19 2 3 6;
#X connect 20 0 10 4;
#X connect 20 1 10 5;
#X connect 20 2 10 6;
#X connect 20 3 10 7;
#X connect 24 0 0 0;
#X connect 28 0 25 0;
#X connect 29 0 4 0;
#X connect 29 1 4 1;
#X connect 29 2 4 2;
