#N canvas 505 104 1394 855 12;
#X obj 23 20 midi-keys, f 14;
#X obj 253 168 envelope~;
#X obj 559 145 filter~;
#X obj 829 27 lfo~;
#X obj 538 18 noise1~;
#X obj 853 269 midi-knobs;
#X obj 581 626 audio-out~;
#X obj 564 375 mixer~;
#X obj 24 444 vca~;
#X obj 933 448 vca~;
#X obj 23 168 oscillator~;
#X obj 298 21 midi-buttons;
#X connect 0 0 10 0;
#X connect 0 1 1 0;
#X connect 1 0 8 1;
#X connect 2 0 7 0;
#X connect 4 0 2 0;
#X connect 7 0 6 0;
#X connect 10 0 8 0;
