#N canvas 180 253 628 513 12;
#X obj 104 19 inlet~;
#X obj 105 115 outlet~;
#X obj 11 11 cnv 15 75 93 empty empty vca 10 20 0 20 -233017 -66577
0;
#X obj 124 51 inlet~;
#X obj 105 83 *~;
#X connect 0 0 4 0;
#X connect 3 0 4 1;
#X connect 4 0 1 0;
#X coords 0 -1 1 1 77 95 1 10 10;
