#N canvas 1177 194 450 300 12;
#X obj 106 28 inlet~;
#X obj 106 188 outlet~;
#X obj 11 11 cnv 15 75 93 empty empty vca 10 20 0 20 -233017 -66577
0;
#X obj 24 64 hsl 32 15 0 1 0 0 \$0-amount-send \$0-amount-rec amount
-2 -8 0 10 -262144 -1 -1 0 1;
#X obj 289 60 / 127;
#X obj 289 92 s \$0-amount-rec;
#X obj 142 92 r \$0-amount-send;
#X obj 124 124 *~;
#X obj 106 156 *~;
#X obj 125 60 inlet~;
#X connect 0 0 8 0;
#X connect 4 0 5 0;
#X connect 6 0 7 1;
#X connect 7 0 8 1;
#X connect 8 0 1 0;
#X connect 9 0 7 0;
#X coords 0 -1 1 1 77 95 1 10 10;
