#N canvas 812 203 628 513 12;
#X obj 171 21 inlet~;
#X obj 171 117 outlet~;
#X obj 11 11 cnv 15 98 98 empty empty vca 10 20 0 20 -233017 -66577
0;
#X obj 189 53 inlet~;
#X obj 171 85 *~;
#X connect 0 0 4 0;
#X connect 3 0 4 1;
#X connect 4 0 1 0;
#X coords 0 -1 1 1 100 100 1 10 10;
