#N canvas 141 352 1016 682 12;
#X obj 760 147 line~;
#X msg 760 110 0 500;
#X obj 760 80 select 0;
#X text 742 42 simple attack/decay;
#X msg 813 110 1 500;
#X obj 14 14 cnv 15 193 193 empty empty envelope 10 20 0 20 -233017
-66577 0;
#X obj 24 64 hsl 128 15 0 300 0 0 \$0-attack-send \$0-attack-rec attack
-2 -8 0 10 -262144 -1 -1 0 1;
#X obj 24 100 hsl 128 15 0 500 0 0 \$0-decay-send \$0-decay-rec decay
-2 -8 0 10 -262144 -1 -1 0 1;
#X obj 24 136 hsl 128 15 0 1 0 0 \$0-sustain-send \$0-sustain-rec sustain
-2 -8 0 10 -262144 -1 -1 0 1;
#X obj 24 172 hsl 128 15 0 1000 0 0 \$0-release-send \$0-release-rec
release -2 -8 0 10 -262144 -1 -1 0 1;
#X text 83 493 Attack (0-300 ms);
#X text 83 512 Decay (0-500 ms);
#X text 83 550 Release (0-1000 ms);
#X text 83 530 Sustain (0-1 units);
#X obj 47 351 pack f f f f;
#X obj 15 307 sel 0;
#X obj 15 467 pack f f;
#X obj 15 531 vline~;
#X msg 15 499 0 \$2;
#X msg 47 383 1 \$2 \, \$4 \$3 \$2;
#X obj 228 28 inlet;
#X obj 15 563 outlet~;
#X obj 228 60 s \$0-inlet1;
#X obj 320 28 inlet;
#X obj 15 223 r \$0-inlet1;
#X obj 412 28 inlet;
#X obj 504 28 inlet;
#X obj 320 60 s \$0-inlet2;
#X obj 412 60 s \$0-inlet3;
#X obj 504 60 s \$0-inlet4;
#X obj 596 28 inlet;
#X obj 596 60 s \$0-inlet5;
#X floatatom 228 134 5 0 0 0 - - -;
#X floatatom 348 134 5 0 0 0 - - -;
#X floatatom 462 134 5 0 0 0 - - -;
#X floatatom 589 134 5 0 0 0 - - -;
#X obj 228 102 r \$0-inlet2;
#X obj 348 102 r \$0-inlet3;
#X obj 462 102 r \$0-inlet4;
#X obj 589 102 r \$0-inlet5;
#X obj 228 165 s \$0-a-rec;
#X obj 348 165 s \$0-d-rec;
#X obj 462 165 s \$0-s-rec;
#X obj 589 165 s \$0-r-rec;
#X obj 74 255 r \$0-a-send;
#X obj 101 287 r \$0-d-send;
#X obj 128 319 r \$0-s-send;
#X obj 68 435 r \$0-r-send;
#X connect 1 0 0 0;
#X connect 2 0 1 0;
#X connect 2 1 4 0;
#X connect 4 0 0 0;
#X connect 14 0 19 0;
#X connect 15 0 16 0;
#X connect 15 1 14 0;
#X connect 16 0 18 0;
#X connect 17 0 21 0;
#X connect 18 0 17 0;
#X connect 19 0 17 0;
#X connect 20 0 22 0;
#X connect 23 0 27 0;
#X connect 24 0 15 0;
#X connect 25 0 28 0;
#X connect 26 0 29 0;
#X connect 30 0 31 0;
#X connect 32 0 40 0;
#X connect 33 0 41 0;
#X connect 34 0 42 0;
#X connect 35 0 43 0;
#X connect 36 0 32 0;
#X connect 37 0 33 0;
#X connect 38 0 34 0;
#X connect 39 0 35 0;
#X connect 44 0 14 1;
#X connect 45 0 14 2;
#X connect 46 0 14 3;
#X connect 47 0 16 1;
#X coords 0 -1 1 1 201 201 2 10 10;
