#N canvas 860 350 610 439 12;
#X obj 14 14 cnv 15 193 193 empty empty lfo 10 20 0 20 -233017 -66577
0;
#X obj 34 64 hsl 128 15 -64 64 0 1 \$0-lfo-freq-send \$0-lfo-freq-rec
frequency -2 -8 0 10 -262144 -1 -1 6350 1;
#X obj 248 31 inlet;
#N canvas 0 50 450 300 sine~ 0;
#X obj 12 44 osc~;
#X obj 12 76 outlet~;
#X obj 12 12 inlet;
#X connect 0 0 1 0;
#X connect 2 0 0 0;
#X restore 245 210 pd sine~;
#N canvas 0 50 450 300 saw~ 0;
#X obj 12 44 phasor~;
#X obj 12 76 *~ 2;
#X obj 12 108 -~ 1;
#X obj 12 140 outlet~;
#X obj 12 12 inlet;
#X connect 0 0 1 0;
#X connect 1 0 2 0;
#X connect 2 0 3 0;
#X connect 4 0 0 0;
#X restore 334 210 pd saw~;
#N canvas 84 106 450 300 square~ 0;
#X obj 12 44 phasor~;
#X obj 12 108 *~ 2;
#X obj 12 140 -~ 1;
#X obj 12 76 expr~ $v1 > 0.5;
#X obj 12 172 outlet~;
#X obj 12 12 inlet;
#X connect 0 0 3 0;
#X connect 1 0 2 0;
#X connect 2 0 4 0;
#X connect 3 0 1 0;
#X connect 5 0 0 0;
#X restore 418 210 pd square~;
#X obj 245 242 outlet~;
#X obj 334 242 outlet~;
#X obj 418 242 outlet~;
#X obj 248 63 s \$0-lfo-freq-rec;
#X obj 245 114 r \$0-lfo-freq-send;
#X obj 245 146 mtof;
#X connect 2 0 9 0;
#X connect 3 0 6 0;
#X connect 4 0 7 0;
#X connect 5 0 8 0;
#X connect 10 0 11 0;
#X connect 11 0 3 0;
#X connect 11 0 4 0;
#X connect 11 0 5 0;
#X coords 0 -1 1 1 201 201 2 10 10;
