#N canvas 155 282 1022 600 12;
#X obj 232 71 vca~;
#X obj 325 39 r \$0-volume1-send;
#X obj 232 39 inlet~;
#X obj 368 101 inlet~;
#X obj 14 14 cnv 15 193 193 empty empty mixer 10 20 0 20 -233017 -66577
0;
#X obj 24 64 hsl 128 15 0 1 0 0 \$0-volume1-send \$0-volume1-rec volume1
-2 -8 0 10 -262144 -1 -1 2400 1;
#X obj 24 100 hsl 128 15 0 1 0 0 \$0-volume2-send \$0-volume2-rec volume2
-2 -8 0 10 -262144 -1 -1 7500 1;
#X obj 24 136 hsl 128 15 0 1 0 0 \$0-volume3-send \$0-volume3-rec volume3
-2 -8 0 10 -262144 -1 -1 0 1;
#X obj 24 172 hsl 128 15 0 1 0 0 \$0-master-send \$0-master-rec master
-2 -8 0 10 -262144 -1 -1 10000 1;
#X obj 313 494 outlet~;
#X obj 368 133 vca~;
#X obj 511 198 vca~;
#X obj 313 383 vca~;
#X obj 461 101 r \$0-volume2-send;
#X obj 604 166 r \$0-volume3-send;
#X obj 406 351 r \$0-master-send;
#X obj 511 166 inlet~;
#X connect 0 0 12 0;
#X connect 1 0 0 1;
#X connect 2 0 0 0;
#X connect 3 0 10 0;
#X connect 10 0 12 0;
#X connect 11 0 12 0;
#X connect 12 0 9 0;
#X connect 13 0 10 1;
#X connect 14 0 11 1;
#X connect 15 0 12 1;
#X connect 16 0 11 0;
#X coords 0 -1 1 1 201 201 2 10 10;
